<svg width="24" height="24" viewBox="0 0 24 24" fill="none" xmlns="http://www.w3.org/2000/svg">
<path d="M14.9999 9.5C14.9999 10.8807 12.3136 12 8.99994 12C5.68623 12 2.99994 10.8807 2.99994 9.5M14.9999 9.5C14.9999 8.11929 12.3136 7 8.99994 7M14.9999 9.5V14.5M8.99994 7C5.68623 7 2.99994 8.11929 2.99994 9.5M8.99994 7L19.6983 7C20.3554 7 20.8339 7.62282 20.6646 8.25767L19.1979 13.7577C19.0812 14.1954 18.6847 14.5 18.2317 14.5L14.9999 14.5M2.99994 9.5L2.99994 14.5C2.99994 15.8807 5.68623 17 8.99994 17C12.3136 17 14.9999 15.8807 14.9999 14.5M8.99994 10C9.82837 10 10.4999 9.77614 10.4999 9.5C10.4999 9.22386 9.82837 9 8.99994 9C8.17151 9 7.49994 9.22386 7.49994 9.5C7.49994 9.77614 8.17151 10 8.99994 10Z" stroke="black" stroke-width="1.5" stroke-linecap="round"/>
</svg>
