<svg width="24" height="24" viewBox="0 0 24 24" fill="none" xmlns="http://www.w3.org/2000/svg">
<path d="M10.8793 13.5L9.76593 9.46399C9.60883 8.89449 9.09077 8.5 8.5 8.5C7.90923 8.5 7.39118 8.89449 7.23407 9.46399L6.1207 13.5M10.8793 13.5H6.1207M10.8793 13.5L11.3621 15.25M6.1207 13.5L5.63793 15.25M14 9.74999V14.25C14 14.8023 14.4477 15.25 15 15.25L15.25 15.25C17.0449 15.25 18.5 13.7949 18.5 12C18.5 10.2051 17.0449 8.74998 15.25 8.74999L15 8.74999C14.4477 8.75 14 9.19771 14 9.74999ZM21 6V18C21 18.5523 20.5523 19 20 19H4C3.44772 19 3 18.5523 3 18V6C3 5.44772 3.44772 5 4 5H20C20.5523 5 21 5.44772 21 6Z" stroke="black" stroke-width="1.5" stroke-linecap="round"/>
</svg>
