<svg width="24" height="24" viewBox="0 0 24 24" fill="none" xmlns="http://www.w3.org/2000/svg">
<path d="M15 19V15M15 12.5V13M12.5 19L12.1154 16.5M12.1154 16.5L11.6521 13.4884C11.5646 12.9198 11.0753 12.5 10.5 12.5C9.9247 12.5 9.43544 12.9197 9.34795 13.4884L8.88463 16.5M12.1154 16.5H8.88463M8.88463 16.5L8.50001 19M4.25 7.37564L4.25001 13C4.25001 14.1046 5.14544 15 6.25001 15H6.50001M4.25 7.37564C4.94036 7.37564 5.5 6.816 5.5 6.12564C5.5 5.43529 4.94036 4.87564 4.25 4.87564C3.55964 4.87564 3 5.43529 3 6.12564C3 6.816 3.55964 7.37564 4.25 7.37564ZM6.50001 15V11C6.50001 10.4477 6.94773 10 7.50001 10H9.75001M6.50001 15V20C6.50001 20.5523 6.94773 21 7.50001 21H16.5C17.0523 21 17.5 20.5523 17.5 20V19M9.75001 10V5.5M9.75001 10H14.25M9.75001 5.5C10.4404 5.5 11 4.94036 11 4.25C11 3.55964 10.4404 3 9.75001 3C9.05966 3 8.50001 3.55964 8.50001 4.25C8.50001 4.94036 9.05966 5.5 9.75001 5.5ZM14.25 10H16.5C17.0523 10 17.5 10.4477 17.5 11V19M14.25 10V7.37564M14.25 7.37564C13.5597 7.37564 13 6.816 13 6.12564C13 5.43529 13.5597 4.87564 14.25 4.87564C14.9404 4.87564 15.5 5.43529 15.5 6.12564C15.5 6.816 14.9404 7.37564 14.25 7.37564ZM19.75 5.5V17C19.75 18.1046 18.8546 19 17.75 19H17.5M19.75 5.5C20.4404 5.5 21 4.94036 21 4.25C21 3.55964 20.4404 3 19.75 3C19.0597 3 18.5 3.55964 18.5 4.25C18.5 4.94036 19.0597 5.5 19.75 5.5Z" stroke="black" stroke-width="1.5" stroke-linecap="round"/>
</svg>
