<svg width="24" height="24" viewBox="0 0 24 24" fill="none" xmlns="http://www.w3.org/2000/svg">
<path d="M20.1716 11.1717L20.6463 11.6463C20.8415 11.8416 20.8415 12.1582 20.6463 12.3534L20.1715 12.8282C19.4214 13.5784 18.404 13.9999 17.343 13.9999L15.6606 14C14.9429 14 14.2802 14.3846 13.9241 15.0077L11.0758 19.9923C10.7197 20.6154 10.057 21 9.33932 21C8.89632 21 8.55602 20.6076 8.61867 20.1691L9.33691 15.1414C9.42297 14.539 8.95549 14 8.34693 14L7.49995 14C7.1852 14.0001 6.88883 14.1482 6.69998 14.4L6.09997 15.2C5.72226 15.7036 5.12949 16 4.49999 16H3.61802C3.55622 16 3.50922 15.9445 3.51938 15.8836L3.86765 13.7939C3.9449 13.3304 3.62417 12.8899 3.42515 12.4642C3.28387 12.162 3.28905 11.802 3.44068 11.504C3.64641 11.0997 3.96172 10.6865 3.90678 10.2362L3.64762 8.11211C3.64035 8.05252 3.68686 8 3.74689 8H4.57796C5.23873 8 5.85685 8.32636 6.22952 8.872L6.70218 9.56404C6.88852 9.83687 7.19759 10.0001 7.52798 10L8.34699 10C8.95553 10 9.42297 9.46103 9.33691 8.85861L8.61867 3.83092C8.55602 3.39237 8.89632 3 9.33932 3C10.057 3 10.7197 3.38457 11.0758 4.00772L13.9241 8.99225C14.2802 9.61541 14.9429 9.99999 15.6606 9.99997L17.3429 9.99993C18.4039 9.9999 19.4214 10.4214 20.1716 11.1717Z" stroke="black" stroke-width="1.5" stroke-linecap="round"/>
</svg>
