<svg width="24" height="24" viewBox="0 0 24 24" fill="none" xmlns="http://www.w3.org/2000/svg">
<path d="M16.5 10L12.0588 13.4543C12.0239 13.4814 11.9753 13.4824 11.9393 13.4567L8.49997 11M6.69667 17.8033L4.49997 20M6.69667 17.8033C5.33944 16.4461 4.49997 14.5711 4.49997 12.5C4.49997 12.0306 4.5431 11.5712 4.62562 11.1257M6.69667 17.8033C8.05391 19.1606 9.92891 20 12 20C12.4658 20 12.9216 19.9576 13.3639 19.8763M4.62562 11.1257C4.90713 9.60557 5.64708 8.24633 6.69667 7.19673C7.74627 6.14714 9.10551 5.40719 10.6256 5.12568M4.62562 11.1257L4.12129 10.6214C2.94972 9.44978 2.94972 7.55029 4.12129 6.37871L5.87865 4.62136C7.05023 3.44978 8.94972 3.44978 10.1213 4.62136L10.6256 5.12568M10.6256 5.12568C11.0712 5.04316 11.5305 5.00003 12 5.00003C12.4694 5.00003 12.9288 5.04316 13.3743 5.12568M19.3743 11.1257C19.4568 11.5712 19.5 12.0306 19.5 12.5C19.5 12.7423 19.4885 12.982 19.466 13.2184M19.3743 11.1257C19.0928 9.60557 18.3529 8.24633 17.3033 7.19673C16.8414 6.7349 16.3197 6.33302 15.7506 6.00376C15.0264 5.58473 14.2256 5.28332 13.3743 5.12568M19.3743 11.1257L19.8787 10.6214C21.0502 9.44978 21.0502 7.55029 19.8787 6.37871L18.1213 4.62136C16.9497 3.44978 15.0502 3.44978 13.8787 4.62136L13.3743 5.12568M18 18V15.5M18 18H20.5M18 18V20.5M18 18H15.5M19.466 13.2184C19.0024 13.0764 18.5101 13 18 13C15.2385 13 13 15.2386 13 18C13 18.6636 13.1292 19.2969 13.3639 19.8763M19.466 13.2184C21.5121 13.845 23 15.7487 23 18C23 20.7615 20.7614 23 18 23C15.9021 23 14.106 21.708 13.3639 19.8763" stroke="black" stroke-width="1.5" stroke-linecap="round"/>
</svg>
