<svg width="24" height="24" viewBox="0 0 24 24" fill="none" xmlns="http://www.w3.org/2000/svg">
<path d="M17 5.67363C19.3649 6.7971 21 9.2076 21 12C21 14.7924 19.3649 17.2029 17 18.3264M17 5.67363V18.3264M17 5.67363C17 5.30159 16.6984 5 16.3264 5H4C3.44772 5 3 5.44772 3 6V18C3 18.5523 3.44772 19 4 19H16.3264C16.6984 19 17 18.6984 17 18.3264M9.99999 12.5001L10 8.10008C10 8.04485 10.0453 8 10.1006 8.00083C11.5234 8.02225 12.0453 8.48874 14 8.00008M9.99999 12.5001L9.99995 14.2501C9.99993 15.2166 9.21644 16.0001 8.24996 16.0001C7.28345 16.0001 6.49994 15.2166 6.49996 14.25C6.49998 13.2836 7.28348 12.5001 8.24996 12.5001H9.99999Z" stroke="black" stroke-width="1.5" stroke-linecap="round"/>
</svg>
