<svg width="24" height="24" viewBox="0 0 24 24" fill="none" xmlns="http://www.w3.org/2000/svg">
<path d="M4.5 12H7M7 12H10.5M7 12V18.5C7 19.0523 7.44772 19.5 8 19.5H9.5C10.0523 19.5 10.5 19.0523 10.5 18.5V12M7 12V5.5C7 4.94772 7.44772 4.5 8 4.5H9.5C10.0523 4.5 10.5 4.94772 10.5 5.5V12M10.5 12H13.5M13.5 12H17M13.5 12V15.5C13.5 16.0523 13.9477 16.5 14.5 16.5H16C16.5523 16.5 17 16.0523 17 15.5V12M13.5 12V8.5C13.5 7.94772 13.9477 7.5 14.5 7.5H16C16.5523 7.5 17 7.94772 17 8.5V12M17 12H19.5" stroke="black" stroke-width="1.5" stroke-linecap="round"/>
</svg>
