<svg width="24" height="24" viewBox="0 0 24 24" fill="none" xmlns="http://www.w3.org/2000/svg">
<path d="M12 4.5V7M12 7V10.5M12 7H5.5C4.94772 7 4.5 7.44772 4.5 8V9.5C4.5 10.0523 4.94771 10.5 5.5 10.5H12M12 7H18.5C19.0523 7 19.5 7.44772 19.5 8V9.5C19.5 10.0523 19.0523 10.5 18.5 10.5H12M12 10.5V13.5M12 13.5V17M12 13.5H8.5C7.94771 13.5 7.5 13.9477 7.5 14.5V16C7.5 16.5523 7.94771 17 8.5 17H12M12 13.5H15.5C16.0523 13.5 16.5 13.9477 16.5 14.5V16C16.5 16.5523 16.0523 17 15.5 17H12M12 17V19.5" stroke="black" stroke-width="1.5" stroke-linecap="round"/>
</svg>
