<svg width="24" height="24" viewBox="0 0 24 24" fill="none" xmlns="http://www.w3.org/2000/svg">
<path d="M9.4998 17.25C9.4998 18.2165 8.7163 19 7.7498 19C6.7833 19 5.9998 18.2165 5.9998 17.25M9.4998 17.25C9.4998 16.2835 8.7163 15.5 7.7498 15.5C6.7833 15.5 5.9998 16.2835 5.9998 17.25M9.4998 17.25L16.4998 17.25M5.9998 17.25L3.99999 17.25C3.4477 17.25 2.99998 16.8023 2.99998 16.25V6C2.99998 5.44772 3.4477 5 3.99998 5H14C14.5523 5 15 5.44772 15 6V6.5C15 7.05228 15.4477 7.5 16 7.5H17.5109C17.8195 7.5 18.1108 7.64248 18.3003 7.88608L21.2892 11.7292C21.4257 11.9047 21.4998 12.1207 21.4998 12.3431V16.25C21.4998 16.8023 21.0521 17.25 20.4998 17.25L19.9998 17.25M19.9998 17.25C19.9998 18.2165 19.2163 19 18.2498 19C17.2833 19 16.4998 18.2165 16.4998 17.25M19.9998 17.25C19.9998 16.2835 19.2163 15.5 18.2498 15.5C17.2833 15.5 16.4998 16.2835 16.4998 17.25M8.10004 7.5H10.4C10.4552 7.5 10.5 7.54477 10.5 7.6V8.9C10.5 8.95523 10.5448 9 10.6 9H11.9C11.9552 9 12 9.04477 12 9.1V11.4C12 11.4552 11.9552 11.5 11.9 11.5H10.6C10.5448 11.5 10.5 11.5448 10.5 11.6V12.9C10.5 12.9552 10.4552 13 10.4 13H8.10004C8.04481 13 8.00004 12.9552 8.00004 12.9V11.6C8.00004 11.5448 7.95526 11.5 7.90004 11.5H6.60001C6.54478 11.5 6.50001 11.4552 6.50001 11.4V9.1C6.50001 9.04477 6.54478 9 6.60001 9H7.90004C7.95526 9 8.00004 8.95523 8.00004 8.9V7.6C8.00004 7.54477 8.04481 7.5 8.10004 7.5Z" stroke="black" stroke-width="1.5" stroke-linecap="round"/>
</svg>
