<svg width="24" height="24" viewBox="0 0 24 24" fill="none" xmlns="http://www.w3.org/2000/svg">
<path d="M8.90381 15.0962L4 20M8.90381 15.0962C7.72754 13.9199 7 12.2949 7 10.5C7 6.91015 9.91015 4 13.5 4C17.0899 4 20 6.91015 20 10.5C20 14.0899 17.0899 17 13.5 17C11.7051 17 10.0801 16.2725 8.90381 15.0962ZM16 13V10.1C16 10.0448 15.9552 10 15.9 10H13.6C13.5448 10 13.5 10.0448 13.5 10.1M16 13H13.5M16 13H17M13.5 10.1V13M13.5 10.1V7.6C13.5 7.54477 13.4552 7.5 13.4 7.5H11.1C11.0448 7.5 11 7.54477 11 7.6V13M13.5 13H11M11 13H10" stroke="black" stroke-width="1.5" stroke-linecap="round"/>
</svg>
