<svg width="24" height="24" viewBox="0 0 24 24" fill="none" xmlns="http://www.w3.org/2000/svg">
<path d="M12 21L13.2148 19.7852C13.7175 19.2825 14.3994 19 15.1105 19C16.6231 19 17.7736 17.6418 17.525 16.1498L17.0323 13.1937C17.0188 13.1131 17.1025 13.0513 17.1756 13.0878L19 14M12 21L10.7852 19.7852C10.2825 19.2825 9.60055 19 8.88953 19C7.37694 19 6.22637 17.6418 6.47504 16.1498L6.96772 13.1937C6.98115 13.1131 6.89746 13.0513 6.82436 13.0878L5 14M12 21V10M12 7V10M12 7C12.8284 7 13.5 6.32843 13.5 5.5V4.5C13.5 3.67157 12.8284 3 12 3C11.1716 3 10.5 3.67157 10.5 4.5V5.5C10.5 6.32843 11.1716 7 12 7ZM12 10H16M12 10H8" stroke="black" stroke-width="1.5" stroke-linecap="round"/>
</svg>
