<svg width="24" height="24" viewBox="0 0 24 24" fill="none" xmlns="http://www.w3.org/2000/svg">
<path d="M5.00002 10.9999V13.0158M5.00002 10.9999L8 5.9998C9 3.9998 8 2.99995 7 3.50002C3.00002 5.4998 3 10.9998 5.00002 10.9999ZM5.00002 10.9999H10M5.00002 13.0158V14.2499C5.00002 15.2164 6.00001 16.4998 7.50001 16.4998C9.00001 16.4998 10 15.2164 10 14.2499V12.1999M5.00002 13.0158C4.02666 14.3032 3.5 15.8731 3.5 17.4871V19.4999C3.5 20.0522 3.94769 20.4999 4.49996 20.4999L6.00002 20.5M10 12.1999V10.9999M10 12.1999L11.3233 11.9352C14.8962 11.2207 18.2387 13.8236 18.4854 17.3951M10 10.9999L13 5.99995C14 3.99995 13 3.00009 12 3.50016C8.00002 5.49995 7.99998 10.9998 10 10.9999ZM18.5 19.6179C18.7654 19.8555 19.1158 19.9999 19.5 19.9999C20.3284 19.9999 21 19.3283 21 18.4999C21 17.6715 20.3284 16.9999 19.5 16.9999C19.1087 16.9999 18.7525 17.1497 18.4854 17.3951M18.5 19.6179V17.8187C18.5 17.6761 18.4951 17.5348 18.4854 17.3951M18.5 19.6179C18.5 20.105 18.1051 20.4999 17.6181 20.4999H11M11 20.4999L8.50001 20.4999M11 20.4999C11 19.1192 12.1193 17.9999 13.5 17.9999H14.5M6.00002 20.5V18.9999M6.00002 20.5L8.50001 20.4999M8.50001 20.4999V18.9998" stroke="black" stroke-width="1.5" stroke-linecap="round"/>
</svg>
