<svg width="24" height="24" viewBox="0 0 24 24" fill="none" xmlns="http://www.w3.org/2000/svg">
<path d="M21.75 10.5C21.75 11.7269 21.1608 12.8158 20.25 13.5C20.2499 15.3141 18.9616 16.8275 17.25 17.175M21.75 10.5C21.75 9.27314 21.1608 8.18388 20.25 7.49973C20.2499 5.42878 18.571 3.75 16.5 3.75C15.6558 3.75 14.8767 4.02896 14.25 4.49973C13.6233 4.02896 12.8442 3.75 12 3.75C11.1558 3.75 10.3767 4.02896 9.75 4.49973C9.12325 4.02896 8.3442 3.75 7.5 3.75C5.42902 3.75 3.75015 5.42906 3.75 7.5C2.83917 8.18415 2.25 9.27314 2.25 10.5C2.25 11.7269 2.83916 12.8161 3.75 13.5003C3.75013 15.3144 5.0384 16.8276 6.75 17.175M21.75 10.5V17.25M6.75 17.175C6.99233 17.2242 7.24315 17.25 7.5 17.25C8.34421 17.25 9.12325 16.971 9.75 16.5003M6.75 17.175V20.25M9.75 16.5003C10.3767 16.971 11.1558 17.25 12 17.25C12.8442 17.25 13.6233 16.971 14.25 16.5003M9.75 16.5003L9.75 20.25M14.25 16.5003C14.8767 16.971 15.6558 17.25 16.5 17.25C16.7568 17.25 17.0077 17.2242 17.25 17.175M14.25 16.5003L14.25 20.25M17.25 17.175V20.25M7.5 9V12C7.5 12.8284 8.17157 13.5 9 13.5C9.82842 13.5 10.5 12.8284 10.5 12V9M7.5 9H10.5M7.5 9L6 9.75M10.5 9L12 9.75" stroke="black" stroke-width="1.5" stroke-linecap="round" stroke-linejoin="round"/>
</svg>
