<svg width="24" height="24" viewBox="0 0 24 24" fill="none" xmlns="http://www.w3.org/2000/svg">
<path d="M21 11C21 9.53031 20.1964 8.13701 19.0657 7.69518C19.0243 7.67898 18.9972 7.6385 18.9986 7.59403C18.9995 7.56281 19 7.53146 19 7.5C19 5.84315 17.6569 4.5 16 4.5C15.2638 4.5 14.5896 4.76517 14.0676 5.2052C14.0286 5.23804 13.9714 5.23804 13.9324 5.2052C13.4104 4.76517 12.7362 4.5 12 4.5C11.2638 4.5 10.5896 4.76517 10.0676 5.2052C10.0286 5.23804 9.9714 5.23804 9.93244 5.2052C9.41043 4.76517 8.73618 4.5 8 4.5C6.34315 4.5 5 5.84315 5 7.5C5 7.53146 5.00048 7.56281 5.00145 7.59403C5.00281 7.6385 4.97574 7.67898 4.9343 7.69518C3.80355 8.13701 3 9.53031 3 11C3 12.4697 3.80355 13.863 4.9343 14.3048C4.97574 14.321 5.00281 14.3615 5.00145 14.406C5.00048 14.4372 5 14.4685 5 14.5C5 15.3885 5.38625 16.1868 6 16.7361M21 11C21 12.4697 20.1964 13.863 19.0657 14.3048C19.0243 14.321 18.9972 14.3615 18.9986 14.406C18.9995 14.4372 19 14.4685 19 14.5C19 15.3885 18.6138 16.1868 18 16.7361M21 11V17M7 10V13.5C7 14.3284 7.67157 15 8.5 15C9.32843 15 10 14.3284 10 13.5V10M7 10L5.5 11M7 10H10M10 10L11.5 11M18 16.7361C17.4692 17.2111 16.7684 17.5 16 17.5C15.2638 17.5 14.5896 17.2348 14.0676 16.7948C14.0481 16.7784 14.024 16.7702 14 16.7702M18 16.7361V20M6 16.7361C6.53075 17.2111 7.23164 17.5 8 17.5C8.73618 17.5 9.41042 17.2348 9.93243 16.7948C9.95191 16.7784 9.97595 16.7702 10 16.7702M6 16.7361V20M14 20V18.3681V16.7702M10 20L10 18.3681V16.7702M14 16.7702C13.976 16.7702 13.9519 16.7784 13.9324 16.7948C13.4104 17.2348 12.7362 17.5 12 17.5C11.2638 17.5 10.5896 17.2348 10.0676 16.7948C10.0481 16.7784 10.024 16.7702 10 16.7702" stroke="black" stroke-width="1.5" stroke-linecap="round"/>
</svg>
