<svg width="24" height="24" viewBox="0 0 24 24" fill="none" xmlns="http://www.w3.org/2000/svg">
<path d="M13.5 4V9M13.5 9V9.5M13.5 9C13.5 6.23858 15.7386 4 18.5 4H19.5C20.0523 4 20.5 4.44772 20.5 5V8C20.5 10.7614 18.2614 13 15.5 13H14M13.5 9.5V13M13.5 9.5C13.5 8.67157 12.8284 8 12 8C11.1716 8 10.5 8.67157 10.5 9.5M13.5 13V15M13.5 13H14M13.5 15V16.5C13.5 17.3284 12.8284 18 12 18C11.1716 18 10.5 17.3284 10.5 16.5V15M13.5 15C13.5 17.7614 15.7386 20 18.5 20C18.7761 20 19 19.7761 19 19.5V18C19 15.2386 16.7614 13 14 13M10.5 15V13M10.5 15C10.5 17.7614 8.26142 20 5.5 20C5.22386 20 5 19.7761 5 19.5V18C5 15.2386 7.23858 13 10 13M10.5 13V9.5M10.5 13H10M10.5 9.5V9M10.5 9C10.5 6.23858 8.26142 4 5.5 4H4.5C3.94772 4 3.5 4.44772 3.5 5V8C3.5 10.7614 5.73858 13 8.5 13H10M10.5 9V4" stroke="black" stroke-width="1.5" stroke-linecap="round"/>
</svg>
