<svg width="24" height="24" viewBox="0 0 24 24" fill="none" xmlns="http://www.w3.org/2000/svg">
<path d="M14.5 5.16898C15.9945 6.0335 17 7.64936 17 9.50007C17 11.1875 16.1641 12.6798 14.8837 13.5852M9.5 5.16898C8.0055 6.0335 7 7.64936 7 9.50007C7 11.1875 7.83595 12.6798 9.11631 13.5852M15.7584 3.0083C17.9955 4.30628 19.5 6.72748 19.5 9.50007C19.5 12.0313 18.2461 14.2696 16.3255 15.6278M8.2416 3.0083C6.00448 4.30628 4.5 6.72748 4.5 9.50007C4.5 12.0313 5.75393 14.2696 7.67449 15.6278M12.6312 11.9197C12.4296 11.9722 12.2181 12.0001 12 12.0001C11.7819 12.0001 11.5704 11.9722 11.3688 11.9197M12.6312 11.9197C13.7063 11.64 14.5 10.6627 14.5 9.50007C14.5 8.11936 13.3807 7.00007 12 7.00007C10.6193 7.00007 9.5 8.11936 9.5 9.50007C9.5 10.6627 10.2937 11.64 11.3688 11.9197M12.6312 11.9197L13.4243 14.9599M11.3688 11.9197L10.5757 14.9599M9.78261 18L9.32672 19.7476C9.16144 20.3812 9.63955 21 10.2943 21H13.7057C14.3604 21 14.8386 20.3812 14.6733 19.7476L14.2174 18M9.78261 18H14.2174M9.78261 18L10.5757 14.9599M14.2174 18L13.4243 14.9599M13.4243 14.9599H10.5757" stroke="black" stroke-width="1.5" stroke-linecap="round"/>
</svg>
