<svg width="24" height="24" viewBox="0 0 24 24" fill="none" xmlns="http://www.w3.org/2000/svg">
<path d="M15.3723 7.21075C15.5468 7.21075 15.8442 7.2385 16.2645 7.29401C16.6848 7.34952 17.1447 7.50813 17.6443 7.76982C18.1519 8.02359 18.6118 8.44786 19.0242 9.04262C19.0004 9.06642 18.8854 9.15365 18.6792 9.30432C18.473 9.44707 18.2431 9.66118 17.9893 9.94667C17.7355 10.2242 17.5135 10.5811 17.3232 11.0172C17.1328 11.4455 17.0377 11.957 17.0377 12.5517C17.0377 13.2337 17.1566 13.8126 17.3945 14.2885C17.6404 14.7643 17.9219 15.1489 18.2391 15.4423C18.5642 15.7278 18.8497 15.9379 19.0956 16.0728C19.3493 16.2076 19.4841 16.2789 19.5 16.2869C19.4921 16.3186 19.389 16.6001 19.1907 17.1314C19.0004 17.6628 18.6832 18.2536 18.2391 18.9038C17.8505 19.4669 17.4302 19.9863 16.9782 20.4621C16.5341 20.9379 15.9988 21.1759 15.3723 21.1759C14.952 21.1759 14.6071 21.1164 14.3374 20.9974C14.0678 20.8705 13.7902 20.7476 13.5048 20.6287C13.2193 20.5018 12.8347 20.4383 12.3509 20.4383C11.883 20.4383 11.4905 20.5018 11.1733 20.6287C10.864 20.7555 10.5666 20.8824 10.2811 21.0093C10.0036 21.1362 9.67446 21.1996 9.29381 21.1996C8.71491 21.1996 8.20738 20.9697 7.77121 20.5097C7.33505 20.0498 6.88699 19.4986 6.42704 18.8563C5.89572 18.095 5.43973 17.1671 5.05908 16.0728C4.68636 14.9705 4.5 13.8602 4.5 12.7421C4.5 11.5446 4.72601 10.5414 5.17803 9.73255C5.63006 8.91574 6.20896 8.30115 6.91475 7.88878C7.62847 7.46848 8.36598 7.25833 9.12728 7.25833C9.53172 7.25833 9.91237 7.32573 10.2692 7.46055C10.6261 7.58743 10.9592 7.71828 11.2684 7.85309C11.5856 7.98791 11.8711 8.05531 12.1249 8.05531C12.3707 8.05531 12.6562 7.98394 12.9814 7.8412C13.3065 7.69845 13.6713 7.55967 14.0757 7.42486C14.4802 7.28212 14.9124 7.21075 15.3723 7.21075ZM14.7181 5.70004C14.4088 6.07276 14.0202 6.386 13.5523 6.63977C13.0845 6.88561 12.6404 7.00852 12.2201 7.00852C12.1328 7.00852 12.0496 7.00059 11.9703 6.98473C11.9623 6.96094 11.9544 6.91733 11.9465 6.85389C11.9385 6.79044 11.9346 6.72304 11.9346 6.65166C11.9346 6.17585 12.0377 5.7159 12.2439 5.27181C12.45 4.81979 12.684 4.44707 12.9457 4.15365C13.2787 3.75714 13.699 3.42803 14.2066 3.16634C14.7141 2.90464 15.1979 2.76586 15.6578 2.75C15.6816 2.85309 15.6935 2.97601 15.6935 3.11875C15.6935 3.59457 15.6023 4.05849 15.4199 4.51051C15.2375 4.9546 15.0036 5.35111 14.7181 5.70004Z" stroke="black" stroke-width="1.5" stroke-linecap="round"/>
</svg>
