<svg width="24" height="24" viewBox="0 0 24 24" fill="none" xmlns="http://www.w3.org/2000/svg">
<path d="M4.5 9H4C3.44772 9 3 8.55228 3 8V6C3 5.44772 3.44772 5 4 5H20C20.5523 5 21 5.44772 21 6V8C21 8.55228 20.5523 9 20 9H19.5M4.5 9V18C4.5 18.5523 4.94772 19 5.5 19H18.5C19.0523 19 19.5 18.5523 19.5 18V9M4.5 9H19.5M9.5 14.5H14.5C15.3284 14.5 16 13.8284 16 13C16 12.1716 15.3284 11.5 14.5 11.5H9.5C8.67157 11.5 8 12.1716 8 13C8 13.8284 8.67157 14.5 9.5 14.5Z" stroke="black" stroke-width="1.5" stroke-linecap="round"/>
</svg>
