<svg width="24" height="24" viewBox="0 0 24 24" fill="none" xmlns="http://www.w3.org/2000/svg">
<path d="M5.4 20.5H3.6C3.54477 20.5 3.5 20.4552 3.5 20.4V10.6C3.5 10.5448 3.54477 10.5 3.6 10.5H5.4C5.45523 10.5 5.5 10.5448 5.5 10.6V20.4C5.5 20.4552 5.45523 20.5 5.4 20.5Z" stroke="black" stroke-width="1.5" stroke-linecap="round"/>
<path d="M10.4 18.5H8.6C8.54477 18.5 8.5 18.4552 8.5 18.4V8.1C8.5 8.04477 8.54477 8 8.6 8H10.4C10.4552 8 10.5 8.04477 10.5 8.1V18.4C10.5 18.4552 10.4552 18.5 10.4 18.5Z" stroke="black" stroke-width="1.5" stroke-linecap="round"/>
<path d="M15.4 16H13.6C13.5448 16 13.5 15.9552 13.5 15.9V6.1C13.5 6.04477 13.5448 6 13.6 6H15.4C15.4552 6 15.5 6.04477 15.5 6.1V15.9C15.5 15.9552 15.4552 16 15.4 16Z" stroke="black" stroke-width="1.5" stroke-linecap="round"/>
<path d="M20.4 13.5H18.6C18.5448 13.5 18.5 13.4552 18.5 13.4V3.6C18.5 3.54477 18.5448 3.5 18.6 3.5H20.4C20.4552 3.5 20.5 3.54477 20.5 3.6V13.4C20.5 13.4552 20.4552 13.5 20.4 13.5Z" stroke="black" stroke-width="1.5" stroke-linecap="round"/>
</svg>
