<svg width="24" height="24" viewBox="0 0 24 24" fill="none" xmlns="http://www.w3.org/2000/svg">
<path d="M8.99999 14H8C5.23858 14 3 16.2386 3 19C3 19.5523 3.44771 20 4 20H14C14.5523 20 15 19.5523 15 19C15 16.2386 12.7614 14 9.99999 14H8.99999ZM8.99999 14C6.23857 14 3.99999 11.7614 3.99999 9C3.99999 6.23858 6.23857 4 8.99999 4C11.7614 4 14 6.23858 14 9C14 11.7614 11.7614 14 8.99999 14ZM19.9669 9.94265C20.0051 9.92402 20.0429 9.90405 20.0802 9.88275L20.3334 9.73805C21.3456 9.15966 21.4181 7.7272 20.4694 7.0496L20.238 6.88432C19.5251 6.37507 19.2886 5.42283 19.6804 4.63918L19.822 4.35606C19.9038 4.19248 19.7848 4 19.6019 4C19.5366 4 19.4741 4.02592 19.4279 4.07206L17.6616 5.83834C16.5301 6.96991 16.6854 8.84673 17.9876 9.77687C18.021 9.80073 18.055 9.82342 18.0895 9.84493M19.9669 9.94265C19.3664 10.2352 18.6566 10.1984 18.0895 9.84493M19.9669 9.94265C19.9888 9.9807 20.0055 10.0216 20.0159 10.0643C20.3331 11.3664 20.4106 12.7155 20.2443 14.0456L19.562 19.5039C19.5266 19.7873 19.2856 20 19 20C18.7143 20 18.4734 19.7873 18.438 19.5039L17.7557 14.0456C17.5941 12.7528 17.6627 11.4421 17.958 10.1741C17.9849 10.0584 18.0301 9.94781 18.0895 9.84493" stroke="black" stroke-width="1.5" stroke-linecap="round"/>
</svg>
