<svg width="24" height="24" viewBox="0 0 24 24" fill="none" xmlns="http://www.w3.org/2000/svg">
<path d="M12 10.9998L20.9822 7.0079M12 10.9998V20.9904M12 10.9998L3.01779 7.0079M20.9822 7.0079C20.972 6.99312 20.9577 6.98106 20.9406 6.97345L12.0406 3.0179C12.0148 3.0064 11.9852 3.0064 11.9594 3.0179L3.05939 6.97345C3.04226 6.98106 3.02802 6.99312 3.01779 7.0079M20.9822 7.0079C20.9936 7.0243 21 7.04405 21 7.06483V13.9996M3.01779 7.0079C3.00643 7.0243 3 7.04405 3 7.06483V16.9349C3 16.9744 3.02327 17.0102 3.05939 17.0262L11.9594 20.9818C11.9723 20.9875 11.9862 20.9904 12 20.9904M12 20.9904C12.0138 20.9904 12.0277 20.9875 12.0406 20.9818L13.5621 20.3056M18.9142 18.9142C18.5523 19.2761 18.0523 19.5 17.5 19.5C16.3954 19.5 15.5 18.6046 15.5 17.5C15.5 16.3954 16.3954 15.5 17.5 15.5C18.6046 15.5 19.5 16.3954 19.5 17.5C19.5 18.0523 19.2761 18.5523 18.9142 18.9142ZM18.9142 18.9142L20 20M13.5621 20.3056C13.203 19.6157 13 18.8316 13 18C13 15.2386 15.2386 13 18 13C19.1256 13 20.1643 13.3719 21 13.9996M13.5621 20.3056C14.3956 21.9066 16.0701 23 18 23C20.7614 23 23 20.7614 23 18C23 16.3642 22.2144 14.9118 21 13.9996" stroke="black" stroke-width="1.5" stroke-linecap="round"/>
</svg>
