<svg width="24" height="24" viewBox="0 0 24 24" fill="none" xmlns="http://www.w3.org/2000/svg">
<path d="M12 14H9C6.23858 14 4 16.2386 4 19V20C4 20.5523 4.44772 21 5 21H19C19.5523 21 20 20.5523 20 20V19C20 16.2386 17.7614 14 15 14H12ZM12 14C10.0407 14 8.37382 12.7478 7.75607 11M12 14C14.4853 14 16.5 11.9853 16.5 9.5C16.5 7.01472 14.4853 5 12 5C9.51472 5 7.50001 7.01472 7.50001 9.5C7.50001 10.026 7.59024 10.5308 7.75607 11M7.75607 11H6.50001C5.94772 11 5.50001 10.5523 5.50001 10V9.5C5.50001 5.91015 8.41016 3 12 3C15.5899 3 18.5 5.91015 18.5 9.5L18.5 11.5M7.75607 11H11" stroke="black" stroke-width="1.5" stroke-linecap="round"/>
</svg>
