<svg width="24" height="24" viewBox="0 0 24 24" fill="none" xmlns="http://www.w3.org/2000/svg">
<path d="M16 12C16 16.9706 14.2091 21 12 21C9.79087 21 8.00001 16.9706 8.00001 12C8.00001 7.02944 9.79087 3 12 3C14.2091 3 16 7.02944 16 12Z" stroke="black" stroke-width="1.5" stroke-linecap="round"/>
<path d="M14 15.4643C9.6954 17.9496 5.31037 18.4134 4.20581 16.5002C3.10124 14.587 5.6954 11.0214 10 8.5361C14.3047 6.05082 18.6897 5.58703 19.7943 7.5002C20.8988 9.41337 18.3047 12.979 14 15.4643Z" stroke="black" stroke-width="1.5" stroke-linecap="round"/>
<path d="M10 15.4643C5.6954 12.979 3.10124 9.41337 4.2058 7.5002C5.31037 5.58703 9.6954 6.05082 14 8.5361C18.3047 11.0214 20.8988 14.587 19.7943 16.5002C18.6897 18.4134 14.3047 17.9496 10 15.4643Z" stroke="black" stroke-width="1.5" stroke-linecap="round"/>
</svg>
