<svg width="24" height="24" viewBox="0 0 24 24" fill="none" xmlns="http://www.w3.org/2000/svg">
<path d="M20.1621 9.08057C20.693 9.92661 21 10.9274 21 11.9999C21 13.0439 20.7091 14.0199 20.204 14.8514C20.1798 14.8913 20.1855 14.9426 20.2185 14.9756L20.3891 15.1462C20.9749 15.732 20.9749 16.6817 20.3891 17.2675C19.8033 17.8533 18.8536 17.8533 18.2678 17.2675L17.9845 16.9842C17.9542 16.9539 17.908 16.9464 17.8693 16.9649C17.1518 17.3079 16.3483 17.5 15.4999 17.5H13.6C13.5448 17.5 13.5 17.5447 13.5 17.6V18.1611C13.5 18.9895 12.8284 19.6611 12 19.6611C11.1716 19.6611 10.5 18.9895 10.5 18.1611V17.6C10.5 17.5447 10.4552 17.5 10.4 17.5H8.50006C7.65172 17.5 6.84824 17.3079 6.13073 16.9648C6.09205 16.9464 6.04582 16.9539 6.0155 16.9842L5.73223 17.2675C5.14645 17.8533 4.1967 17.8533 3.61091 17.2675C3.02513 16.6817 3.02513 15.7319 3.61091 15.1462L3.78149 14.9756C3.81446 14.9426 3.82019 14.8913 3.79597 14.8514C3.29086 14.0199 3 13.0439 3 11.9999C3 10.9274 3.30697 9.92664 3.83785 9.08061M20.1621 9.08057L20.3891 8.85363C20.9749 8.26785 20.9749 7.3181 20.3891 6.73231C19.8033 6.14652 18.8536 6.14652 18.2678 6.73231L17.9338 7.0663M20.1621 9.08057L19.1213 10.1214M17.9338 7.0663C17.2001 6.70365 16.3738 6.49985 15.4999 6.49985L13.6 6.49995C13.5448 6.49995 13.5 6.45518 13.5 6.39995V5.83887C13.5 5.01044 12.8284 4.33887 12 4.33887C11.1716 4.33887 10.5 5.01044 10.5 5.83887V6.39995C10.5 6.45518 10.4552 6.49995 10.4 6.49995L8.50006 6.49985C7.6262 6.49985 6.79994 6.70368 6.06622 7.06633M17.9338 7.0663L17 8.00008M3.83785 9.08061L3.61091 8.85366C3.02513 8.26788 3.02513 7.31813 3.61091 6.73234C4.1967 6.14656 5.14645 6.14656 5.73223 6.73234L6.06622 7.06633M3.83785 9.08061L4.87868 10.1214M6.06622 7.06633L7 8.00011M8.50006 10.5853C7.91744 10.7912 7.50001 11.3468 7.5 11.9999C7.49998 12.8284 8.17156 13.5 9 13.5C9.6531 13.5 10.2087 13.0826 10.4146 12.5M15 12.0945C15.5695 12.3073 15.9749 12.8563 15.9749 13.5C15.9749 14.3284 15.3033 15 14.4749 15C13.8218 15 13.2662 14.5826 13.0603 14" stroke="black" stroke-width="1.5" stroke-linecap="round"/>
</svg>
