<svg width="24" height="24" viewBox="0 0 24 24" fill="none" xmlns="http://www.w3.org/2000/svg">
<path d="M3 7V4C3 3.44772 3.44772 3 4 3H7M17 3H20C20.5523 3 21 3.44772 21 4V7M3 17V20C3 20.5523 3.44772 21 4 21H7M16 6.70703V5.34991C16 5.29468 16.0448 5.24991 16.1 5.24991H18.4C18.4552 5.24991 18.5 5.29468 18.5 5.34991V7.64991C18.5 7.70514 18.4552 7.74991 18.4 7.74991H16.1C16.0448 7.74991 16 7.70514 16 7.64991V6.70703ZM16 6.70703C14.0858 7.24843 12.5958 8.80026 12.1427 10.7499M12.1427 10.7499H13.15C13.2052 10.7499 13.25 10.7947 13.25 10.8499V13.1499C13.25 13.2051 13.2052 13.2499 13.15 13.2499H11.8574M12.1427 10.7499H10.85C10.7948 10.7499 10.75 10.7947 10.75 10.8499V13.1499C10.75 13.2051 10.7948 13.2499 10.85 13.2499H11.8574M11.8574 13.2499C11.4043 15.1996 9.91427 16.7515 8.00001 17.293M8.00001 17.293V18.6499C8.00001 18.7051 7.95524 18.7499 7.90001 18.7499H5.60001C5.54478 18.7499 5.50001 18.7051 5.50001 18.6499V16.3499C5.50001 16.2947 5.54478 16.2499 5.60001 16.2499H7.90001C7.95524 16.2499 8.00001 16.2947 8.00001 16.3499V17.293ZM18 18V15.4988M18 18H20.5024M18 18V20.4952M18 18H15.4967M23 18C23 20.7614 20.7614 23 18 23C15.2386 23 13 20.7614 13 18C13 15.2386 15.2386 13 18 13C20.7614 13 23 15.2386 23 18Z" stroke="black" stroke-width="1.5" stroke-linecap="round"/>
</svg>
