<svg width="24" height="24" viewBox="0 0 24 24" fill="none" xmlns="http://www.w3.org/2000/svg">
<path d="M8 3H4C3.44772 3 3 3.44772 3 4V7M17 3H20C20.5523 3 21 3.44772 21 4V7M21 17V20C21 20.5523 20.5523 21 20 21H17M8 21H4C3.44772 21 3 20.5523 3 20V17M12 11.5L17.9681 8.48859M12 11.5L6.01578 8.50789M12 11.5V18.382M17.9681 8.48859C17.9612 8.48219 17.9534 8.47669 17.9447 8.47236L12.4472 5.72361C12.1657 5.58284 11.8343 5.58284 11.5528 5.72361L6.05528 8.47236C6.03883 8.48058 6.02532 8.49298 6.01578 8.50789M17.9681 8.48859C17.9881 8.50723 18 8.53362 18 8.5618V14.882C18 15.2607 17.786 15.607 17.4472 15.7764L12.4472 18.2764C12.3064 18.3468 12.1532 18.382 12 18.382M6.01578 8.50789C6.00566 8.52369 6 8.54232 6 8.5618V14.882C6 15.2607 6.214 15.607 6.55279 15.7764L11.5528 18.2764C11.6936 18.3468 11.8468 18.382 12 18.382" stroke="black" stroke-width="1.5" stroke-linecap="round"/>
</svg>
