<svg width="24" height="24" viewBox="0 0 24 24" fill="none" xmlns="http://www.w3.org/2000/svg">
<path fill-rule="evenodd" clip-rule="evenodd" d="M4.50061 19.5003C6.15755 21.1569 8.84371 21.1568 10.5005 19.5L19.5 10.5007C21.157 8.8437 21.1569 6.15712 19.4998 4.50025C17.8428 2.84358 15.1567 2.84368 13.4999 4.50047L4.50039 13.4998C2.84337 15.1568 2.84347 17.8434 4.50061 19.5003ZM15.2929 10.2929L13.7067 8.70669C13.3162 8.31617 12.683 8.31617 12.2925 8.70669L8.70669 12.2925C8.31617 12.683 8.31617 13.3162 8.70669 13.7067L10.2929 15.2929C10.6834 15.6834 11.3166 15.6834 11.7071 15.2929L15.2929 11.7071C15.6834 11.3166 15.6834 10.6834 15.2929 10.2929Z" stroke="black" stroke-width="1.5" stroke-linecap="round"/>
</svg>
