<svg width="24" height="24" viewBox="0 0 24 24" fill="none" xmlns="http://www.w3.org/2000/svg">
<path d="M12 17V8.49997M12 17H9M12 17H15M12 8.49997H9M12 8.49997H15M18 8.49997H18.5C19.0523 8.49997 19.5 8.05225 19.5 7.49997V7.26825C19.5 6.81519 19.1954 6.41874 18.7577 6.30201L12.2577 4.56868C12.0888 4.52366 11.9112 4.52366 11.7423 4.56868L5.24234 6.30201C4.80459 6.41874 4.5 6.81519 4.5 7.26825V7.49997C4.5 8.05225 4.94772 8.49997 5.50001 8.49997H6M18 8.49997V17M18 8.49997H15M18 17H18.382C18.7607 17 19.107 17.214 19.2764 17.5528L19.9573 18.9146C19.9854 18.9707 20 19.0327 20 19.0955C20 19.3189 19.8189 19.5 19.5955 19.5H4.40451C4.1811 19.5 4 19.3189 4 19.0955C4 19.0327 4.01462 18.9707 4.04271 18.9146L4.72361 17.5528C4.893 17.214 5.23926 17 5.61803 17H6M18 17H15M6 8.49997V17M6 8.49997H9M6 17H9M9 8.49997V17M15 8.49997V17" stroke="black" stroke-width="1.5" stroke-linecap="round"/>
</svg>
