<svg width="24" height="24" viewBox="0 0 24 24" fill="none" xmlns="http://www.w3.org/2000/svg">
<path d="M12 17V8.49997M12 17H9M12 17H13.1M12 8.49997H9M12 8.49997H15M18 8.49997H18.5C19.0523 8.49997 19.5 8.05225 19.5 7.49997V7.26825C19.5 6.81519 19.1954 6.41874 18.7577 6.30201L12.2577 4.56868C12.0888 4.52366 11.9112 4.52366 11.7423 4.56868L5.24234 6.30201C4.80459 6.41874 4.5 6.81519 4.5 7.26825V7.49997C4.5 8.05225 4.94772 8.49997 5.50001 8.49997H6M18 8.49997H15M18 8.49997V13M6 8.49997V17M6 8.49997H9M6 17H5.61803C5.23926 17 4.893 17.214 4.72361 17.5528L4.04271 18.9146C4.01462 18.9707 4 19.0327 4 19.0955C4 19.3189 4.1811 19.5 4.40451 19.5H13.2289M6 17H9M9 8.49997V17M15 8.49997V13.9996M18 23C20.7614 23 23 20.7614 23 18C23 15.2385 20.7614 13 18 13M18 23C15.7612 23 13.866 21.5285 13.2289 19.5M18 23C15.2386 23 13 20.7614 13 18M18 13C16.8744 13 15.8357 13.3719 15 13.9996M18 13C15.2386 13 13 15.2385 13 18M13 18C13 17.6575 13.0344 17.3231 13.1 17M13 18C13 18.5226 13.0802 19.0264 13.2289 19.5M13.1 17C13.3477 15.7797 14.0398 14.7208 15 13.9996M18 18L19.5 16.5M18 18L19.5 19.5M18 18L16.5 19.5M18 18L16.5 16.5" stroke="black" stroke-width="1.5" stroke-linecap="round"/>
</svg>
