<svg width="24" height="24" viewBox="0 0 24 24" fill="none" xmlns="http://www.w3.org/2000/svg">
<path d="M6 7.50002V16.5M8 7.5V16.5M9 7.50002V16.5M11.5 7.5V16.5M14 7.5V16.5M15 7.50002V16.5M16 7.50002V16.5M18 7.5V16.5M20.5 7V4.5C20.5 3.94772 20.0523 3.5 19.5 3.5L17.5 3.5M6.50001 3.5L4.49999 3.5C3.94771 3.5 3.49999 3.94772 3.49999 4.5V7M20.5 17.5V19.5C20.5 20.0523 20.0523 20.5 19.5 20.5L17.5 20.5M6.5 20.5H4.49999C3.9477 20.5 3.49999 20.0523 3.49999 19.5L3.49999 17.5" stroke="black" stroke-width="1.5" stroke-linecap="round"/>
</svg>
