<svg width="24" height="24" viewBox="0 0 24 24" fill="none" xmlns="http://www.w3.org/2000/svg">
<path d="M7.00006 9H4.00006C3.44778 9 3.00006 9.44772 3.00006 10V10.1152C3.00006 10.921 3.07486 11.719 3.22061 12.5C3.31542 13.008 3.44026 13.5089 3.59405 14M7.00006 9H12.0001M7.00006 9V9.77864C7.00006 10.6915 7.06255 11.6007 7.18607 12.5C7.25522 13.0034 7.34349 13.5038 7.45063 14M7.00006 9C7.00006 6.51472 9.01478 4.5 11.5001 4.5H12.5001C14.9853 4.5 17.0001 6.51472 17.0001 9M17.0001 9H20.0001C20.5523 9 21.0001 9.44772 21.0001 10V10.1152C21.0001 10.921 20.9253 11.719 20.7795 12.5C20.6847 13.008 20.5599 13.5089 20.4061 14M17.0001 9H12.0001M17.0001 9V9.77864C17.0001 10.6915 16.9376 11.6007 16.8141 12.5C16.7449 13.0034 16.6566 13.5038 16.5495 14M7.00006 19.5L6.80767 19.3076C5.82934 18.3293 5.02305 17.2111 4.40826 16C4.08193 15.3572 3.80956 14.6881 3.59405 14M7.00006 19.5H12.0001M7.00006 19.5L8.63125 19.5C9.03041 19.5 9.29003 19.0799 9.11152 18.7229C8.67077 17.8414 8.29709 16.9312 7.99231 16C7.77722 15.3429 7.59645 14.6753 7.45063 14M12.0001 9V14M14.5001 19.5H16.728C16.9022 19.5 17.0693 19.4308 17.1924 19.3076C18.1708 18.3293 18.9771 17.2111 19.5919 16C19.9182 15.3572 20.1906 14.6881 20.4061 14M14.5001 19.5H12.0001M14.5001 19.5L14.8886 18.7229C15.3294 17.8414 15.703 16.9312 16.0078 16C16.2229 15.3429 16.4037 14.6753 16.5495 14M12.0001 19.5V14M12.0001 14H16.5495M12.0001 14H7.45063M7.45063 14H3.59405M16.5495 14H20.4061" stroke="black" stroke-width="1.5" stroke-linecap="round"/>
</svg>
