<svg width="24" height="24" viewBox="0 0 24 24" fill="none" xmlns="http://www.w3.org/2000/svg">
<path d="M7.00006 9H4.00006C3.44778 9 3.00006 9.44772 3.00006 10V10.1152C3.00006 10.921 3.07486 11.719 3.22061 12.5C3.31542 13.008 3.44026 13.5089 3.59405 14M7.00006 9H12.0001M7.00006 9V9.77864C7.00006 10.6915 7.06255 11.6007 7.18607 12.5C7.25522 13.0034 7.34349 13.5038 7.45063 14M7.00006 9C7.00006 6.51472 9.01478 4.5 11.5001 4.5H12.5001C14.9853 4.5 17.0001 6.51472 17.0001 9M17.0001 9H20.0001C20.5523 9 21.0001 9.44772 21.0001 10V10.1152C21.0001 10.921 20.9253 11.719 20.7795 12.5C20.7058 12.8952 20.6138 13.2861 20.5042 13.6714M17.0001 9H12.0001M17.0001 9V9.77864C17.0001 10.6915 16.9376 11.6007 16.8141 12.5C16.7834 12.7232 16.749 12.9459 16.7108 13.1678M12.0001 9V14M9.50006 19.5L9.11152 18.7229C8.67077 17.8414 8.29709 16.9312 7.99231 16C7.77722 15.3429 7.59645 14.6753 7.45063 14M9.50006 19.5L12.0001 19.5M9.50006 19.5L7.27204 19.5C7.09786 19.5 6.93082 19.4308 6.80767 19.3076C5.82934 18.3293 5.02305 17.2111 4.40826 16C4.08193 15.3572 3.80956 14.6881 3.59405 14M7.45063 14H12.0001M7.45063 14H3.59405M12.0001 14V19.5M12.0001 14H14.9995M20.5042 18H15.5M12.0001 19.5H13.2289M20.5042 13.6714C19.7679 13.2444 18.9125 13 18 13C17.5542 13 17.1221 13.0583 16.7108 13.1678M20.5042 13.6714C21.9964 14.5365 23 16.151 23 18C23 20.7614 20.7614 23 18 23C15.7612 23 13.866 21.5286 13.2289 19.5M16.7108 13.1678C16.0833 13.3348 15.5044 13.6207 14.9995 14M14.9995 14C13.7853 14.9122 13 16.3644 13 18C13 18.5226 13.0802 19.0265 13.2289 19.5" stroke="black" stroke-width="1.5" stroke-linecap="round"/>
</svg>
