<svg width="24" height="24" viewBox="0 0 24 24" fill="none" xmlns="http://www.w3.org/2000/svg">
<path d="M7 9H4C3.44772 9 3 9.44772 3 10V10.1152C3 10.921 3.0748 11.719 3.22055 12.5C3.31536 13.008 3.4402 13.5089 3.59399 14M7 9H12M7 9V9.77864C7 10.6915 7.06249 11.6007 7.18601 12.5C7.25515 13.0034 7.34343 13.5038 7.45057 14M7 9C7 6.51472 9.01472 4.5 11.5 4.5H12.5C14.9853 4.5 17 6.51472 17 9M17 9H20C20.5523 9 21 9.44772 21 10V10.1152C21 10.921 20.9252 11.719 20.7794 12.5C20.7057 12.8952 20.6138 13.2861 20.5042 13.6714M17 9H12M17 9V9.77864C17 10.6915 16.9375 11.6007 16.814 12.5C16.7833 12.7232 16.7489 12.9459 16.7108 13.1678M12 9V14M9.5 19.5L9.11146 18.7229C8.67071 17.8414 8.29703 16.9312 7.99225 16C7.77716 15.3429 7.59639 14.6753 7.45057 14M9.5 19.5L12 19.5M9.5 19.5L7.27197 19.5C7.0978 19.5 6.93075 19.4308 6.80761 19.3076C5.82928 18.3293 5.02299 17.2111 4.4082 16C4.08187 15.3572 3.8095 14.6881 3.59399 14M7.45057 14H12M7.45057 14H3.59399M12 14V19.5M12 14H14.9995M12 19.5H13.2288M20.5042 13.6714C19.7678 13.2444 18.9124 13 17.9999 13C17.5542 13 17.122 13.0583 16.7108 13.1678M20.5042 13.6714C21.9963 14.5365 22.9999 16.151 22.9999 18C22.9999 20.7614 20.7614 23 17.9999 23C15.7611 23 13.866 21.5286 13.2288 19.5M16.7108 13.1678C16.0833 13.3348 15.5043 13.6207 14.9995 14M14.9995 14C13.7853 14.9122 12.9999 16.3644 12.9999 18C12.9999 18.5226 13.0801 19.0265 13.2288 19.5M18 18L19.5 16.5M18 18L19.5 19.5M18 18L16.5 19.5M18 18L16.5 16.5" stroke="black" stroke-width="1.5" stroke-linecap="round"/>
</svg>
