<svg width="24" height="24" viewBox="0 0 24 24" fill="none" xmlns="http://www.w3.org/2000/svg">
<path d="M18.5 14V15C18.5 16.1046 17.6046 17 16.5 17H5.5C4.39543 17 3.5 16.1046 3.5 15V9C3.5 7.89543 4.39543 7 5.5 7H16.5C17.6046 7 18.5 7.89543 18.5 9V10M18.5 14V10M18.5 14H19.5C20.0523 14 20.5 13.5523 20.5 13V11C20.5 10.4477 20.0523 10 19.5 10H18.5M11.5 9.5L9.63668 11.836C9.5824 11.9011 9.62872 12 9.7135 12H12.2865C12.3713 12 12.4176 12.0989 12.3633 12.164L10.5 14.5" stroke="black" stroke-width="1.5" stroke-linecap="round"/>
</svg>
