<svg width="24" height="24" viewBox="0 0 24 24" fill="none" xmlns="http://www.w3.org/2000/svg">
<path d="M3 15H6M6 15H18M6 15V18M18 15H21M18 15V18M18 18H20M18 18H16M6 18H4M6 18H8M3 12.5L3.5 12.5M5.5 12.5H6.5M8.5 12.5H9.5M14.5 12.5H15.5M17.5 12.5H18.5M20.5 12.5L21 12.5M11.5 12.5H12.5M11.92 9.89333L9.12 6.16C9.07056 6.09408 9.1176 6 9.2 6H14.8C14.8824 6 14.9294 6.09408 14.88 6.16L12.08 9.89333C12.04 9.94667 11.96 9.94667 11.92 9.89333Z" stroke="black" stroke-width="1.5" stroke-linecap="round"/>
</svg>
