<svg width="24" height="24" viewBox="0 0 24 24" fill="none" xmlns="http://www.w3.org/2000/svg">
<path d="M3 18H13.5M3 18V15.5M3 18V19.5M13.5 18V19.5M13.5 18V16.5C13.5 15.9477 13.0523 15.5 12.5 15.5H3M3 11.5V15.5M16 17V18.5C16 19.0523 16.4477 19.5 17 19.5H20C20.5523 19.5 21 19.0523 21 18.5V17M16 17H21M16 17V14.5M21 17V14.5M16 14.5V7.5C16 6.94772 16.4477 6.5 17 6.5H20C20.5523 6.5 21 6.94772 21 7.5V14.5M16 14.5H21M8.5 7V4.6C8.5 4.54477 8.54477 4.5 8.6 4.5H12.4C12.4552 4.5 12.5 4.54477 12.5 4.6V7.5M8.5 7V9.4C8.5 9.45523 8.54477 9.5 8.6 9.5H12.4C12.4552 9.5 12.5 9.45523 12.5 9.4V7.5M8.5 7L8.65609 7.07805C9.84596 7.67298 11.2094 7.82265 12.5 7.5" stroke="black" stroke-width="1.5" stroke-linecap="round"/>
</svg>
