<svg width="24" height="24" viewBox="0 0 24 24" fill="none" xmlns="http://www.w3.org/2000/svg">
<path d="M14.8183 18.5L19.0852 18.5C19.3143 18.5 19.5001 18.3143 19.5001 18.0852C19.5001 18.029 19.4886 17.9734 19.4665 17.9217L19.3788 17.717C18.4691 15.5944 18.0001 13.3092 18 11C18 8.57695 16.5637 6.4894 14.4961 5.54224C14.2783 5.44249 14.1243 5.23607 14.111 4.99694C14.0488 3.87658 13.1221 3 12 3C10.878 3 9.95136 3.87657 9.88911 4.99691C9.87582 5.23606 9.72174 5.4425 9.50397 5.54225C7.43632 6.48942 6.00003 8.577 6.00004 11C6.00006 13.3093 5.53102 15.5944 4.62137 17.7169L4.5336 17.9217C4.51147 17.9734 4.50006 18.029 4.50006 18.0851C4.50006 18.3143 4.68579 18.5 4.91489 18.5L9.18164 18.5M14.8183 18.5L9.18164 18.5M14.8183 18.5C14.6524 19.8999 13.4606 21 12 21C10.5393 21 9.3475 19.8999 9.18164 18.5" stroke="black" stroke-width="1.5" stroke-linecap="round"/>
</svg>
