<svg width="24" height="24" viewBox="0 0 24 24" fill="none" xmlns="http://www.w3.org/2000/svg">
<path d="M7.66667 18.5L15.7756 6.3366M7.66667 18.5L6.00001 21M7.66667 18.5L19.0852 18.5C19.3143 18.5 19.5001 18.3143 19.5001 18.0852C19.5001 18.029 19.4886 17.9734 19.4665 17.9217L19.3788 17.717C18.4691 15.5945 18.0001 13.3093 18 11C18 9.11701 17.1326 7.43663 15.7756 6.3366M4.50006 18L4.62137 17.7169C5.53102 15.5944 6.00006 13.3093 6.00004 11.0001C6.00003 8.57701 7.43632 6.48943 9.50397 5.54226C9.72174 5.44251 9.87582 5.23607 9.88911 4.99692C9.95136 3.87658 10.878 3.00001 12 3.00001C12.9497 3.00001 13.7593 3.62788 14.0235 4.5M18 3L15.7756 6.3366" stroke="black" stroke-width="1.5" stroke-linecap="round"/>
</svg>
