<svg width="24" height="24" viewBox="0 0 24 24" fill="none" xmlns="http://www.w3.org/2000/svg">
<path d="M12 8.99985V13.4998M12 8.99985L18.7456 6.00182M12 8.99985L5.25445 6.00182M12 13.4998L3.00388 9.50162M12 13.4998L20.9961 9.50171M12 13.4998V20.9904M18.7456 6.00182C18.7386 5.99614 18.7309 5.99137 18.7227 5.9877L12.0406 3.0179C12.0148 3.0064 11.9852 3.0064 11.9594 3.0179L5.27733 5.9877C5.26906 5.99137 5.26137 5.99614 5.25445 6.00182M18.7456 6.00182C18.7535 6.0084 18.7605 6.0162 18.7662 6.025L20.9841 9.47514C20.9894 9.4834 20.9935 9.49236 20.9961 9.50171M5.25445 6.00182C5.24645 6.0084 5.23948 6.01621 5.23383 6.025L3.01588 9.47514C3.01059 9.48338 3.00656 9.4923 3.00388 9.50162M3.00388 9.50162C3.00132 9.51055 3 9.51983 3 9.52922V16.9349C3 16.9744 3.02327 17.0102 3.05939 17.0262L11.9594 20.9818C11.9723 20.9875 11.9862 20.9904 12 20.9904M20.9961 9.50171C20.9987 9.51061 21 9.51987 21 9.52922V16.9349C21 16.9744 20.9767 17.0102 20.9406 17.0262L12.0406 20.9818C12.0277 20.9875 12.0138 20.9904 12 20.9904" stroke="black" stroke-width="1.5" stroke-linecap="round"/>
</svg>
