<svg width="24" height="24" viewBox="0 0 24 24" fill="none" xmlns="http://www.w3.org/2000/svg">
<path d="M16.5 10L11.2861 14.7399C11.1949 14.8228 11.09 14.8874 10.9772 14.9315M16.5 10L9.5 10.5M16.5 10L17.0843 12.1423M16.5 10L16 8M9 15H10.6134C10.7389 15 10.8622 14.9764 10.9772 14.9315M9 15C9 14.0375 8.54669 13.1808 7.84191 12.6318C7.80077 12.5998 7.75878 12.5688 7.71597 12.5389M9 15C9 16.6569 7.65685 18 6 18C4.34315 18 3 16.6569 3 15C3 13.3431 4.34315 12 6 12C6.63813 12 7.22972 12.1992 7.71597 12.5389M9.5 10.5L9 8.5M9.5 10.5L7.71597 12.5389M9.5 10.5L10.9772 14.9315M17.0843 12.1423C17.3729 12.0499 17.6806 12 18 12C19.6569 12 21 13.3431 21 15C21 16.6569 19.6569 18 18 18C16.3431 18 15 16.6569 15 15C15 13.6625 15.8753 12.5294 17.0843 12.1423ZM9 8.5H10.5M9 8.5H8M16 8H15.5811C14.7083 8 13.8402 7.88271 13 7.6519M16 8C16.9962 8 17.9887 7.87782 18.9552 7.6362L19 7.625" stroke="black" stroke-width="1.5" stroke-linecap="round"/>
</svg>
