<svg width="24" height="24" viewBox="0 0 24 24" fill="none" xmlns="http://www.w3.org/2000/svg">
<path d="M14.7277 17.8426C16.3578 16.8994 17.4545 15.1368 17.4545 13.118M6.54543 13.118C6.54543 15.1368 7.64213 16.8994 9.27225 17.8426M9.27225 8.39344C10.0746 7.92917 11.0063 7.66345 12 7.66345C12.9937 7.66345 13.9253 7.92917 14.7277 8.39344M19.1188 19.7827C17.7589 20.5662 16.0298 20.6233 14.5728 19.7821C12.7095 18.7063 11.896 16.5104 12.4918 14.5359M21.3918 15.8458C21.3904 14.2763 20.5752 12.7503 19.1183 11.9091C17.2249 10.816 14.8719 11.2398 13.4668 12.8036M4.88115 19.7826C6.24107 20.5661 7.97017 20.6232 9.42715 19.782C11.2905 18.7062 12.104 16.5104 11.5082 14.5359M2.60822 15.8457C2.60961 14.2762 3.42472 12.7502 4.8817 11.909C6.77506 10.8159 9.12797 11.2397 10.5331 12.8034M9.72704 3.72656C8.36851 4.51252 7.45451 5.98142 7.45451 7.6638C7.45451 9.80127 8.92988 11.5942 10.9178 12.0796M14.2729 3.72656C15.6314 4.51252 16.5454 5.98142 16.5454 7.6638C16.5454 9.80129 15.07 11.5942 13.0821 12.0797M13.4668 12.8036C13.4885 12.9051 13.4999 13.0104 13.4999 13.1184C13.4999 13.7745 13.0786 14.3323 12.4918 14.5359M13.4668 12.8036C13.4076 12.5261 13.2716 12.277 13.0821 12.0797M12.4918 14.5359C12.3377 14.5894 12.1722 14.6184 11.9999 14.6184C11.8277 14.6184 11.6623 14.5894 11.5082 14.5359M11.5082 14.5359C10.9213 14.3324 10.4999 13.7746 10.4999 13.1184C10.4999 13.0104 10.5114 12.905 10.5331 12.8034M10.5331 12.8034C10.5924 12.526 10.7284 12.277 10.9178 12.0796M10.9178 12.0796C11.1908 11.7954 11.5747 11.6184 11.9999 11.6184C12.4252 11.6184 12.8091 11.7954 13.0821 12.0797" stroke="black" stroke-width="1.5" stroke-linecap="round"/>
</svg>
