<svg width="24" height="24" viewBox="0 0 24 24" fill="none" xmlns="http://www.w3.org/2000/svg">
<path d="M12 12L15.9293 8.07071C15.9683 8.03166 15.9683 7.96834 15.9293 7.92929L15.2 7.2M12 12L15.9293 15.9293C15.9683 15.9683 15.9683 16.0317 15.9293 16.0707L12.1707 19.8293C12.1077 19.8923 12 19.8477 12 19.7586V12ZM12 12L15.2 7.2M12 12L6.33331 20.5M15.2 7.2L17.6666 3.5M10 10L7.49998 7.5M12 7.5L12 4.24142C12 4.15233 12.1077 4.10771 12.1707 4.17071L13 5" stroke="black" stroke-width="1.5" stroke-linecap="round"/>
</svg>
