<svg width="24" height="24" viewBox="0 0 24 24" fill="none" xmlns="http://www.w3.org/2000/svg">
<path d="M3 10.5H15M15 10.5H19C19.7911 10.5 20.2213 11.4247 19.7117 12.0298L13.966 18.8529M15 10.5L12.0299 7.03492C12.0109 7.01276 11.9832 7 11.954 7H10.0618C10.0565 7 10.0512 6.99957 10.046 6.99875C9.98371 6.9888 9.95307 6.91949 9.91474 6.86937L8.58526 5.13063C8.54693 5.08051 8.51629 5.0112 8.45399 5.00125C8.44881 5.00043 8.44354 5 8.4382 5H3M3 13V13.5M5.5 13V13.5M8 13V13.5M10.5 13V13.5M13.966 18.8529C13.799 18.7596 13.6419 18.6419 13.5 18.5C12.6716 17.6716 11.3284 17.6716 10.5 18.5C9.67157 19.3284 8.32843 19.3284 7.5 18.5C6.67157 17.6716 5.32843 17.6716 4.5 18.5C4.08579 18.9142 3.54289 19.1213 3 19.1213M13.966 18.8529C14.7736 19.3041 15.8135 19.1865 16.5 18.5C17.3284 17.6716 18.6716 17.6716 19.5 18.5C19.9142 18.9142 20.4571 19.1213 21 19.1213" stroke="black" stroke-width="1.5" stroke-linecap="round"/>
</svg>
