<svg width="24" height="24" viewBox="0 0 24 24" fill="none" xmlns="http://www.w3.org/2000/svg">
<path d="M6 19C6 20.1046 6.89543 21 8 21C9.10457 21 10 20.1046 10 19C10 18.4837 9.80435 18.0131 9.48314 17.6582C9.44608 17.6173 9.44587 17.5541 9.48492 17.5151L13.8293 13.1707C13.8923 13.1077 13.8477 13 13.7586 13H10.0414C10.0149 13 9.98946 13.0105 9.97071 13.0293L7.48492 15.5151C7.44587 15.5541 7.38272 15.5539 7.34177 15.5169C6.98694 15.1957 6.51632 15 6 15C4.89543 15 4 15.8954 4 17C4 18.1046 4.89543 19 6 19ZM6 19C6 18.6357 6.09739 18.2942 6.26756 18M19.4155 5.51813C20.4824 5.80402 21.1155 6.90069 20.8297 7.96762C20.5438 9.03456 19.4471 9.66772 18.3802 9.38184C17.8814 9.2482 17.4775 8.93741 17.2179 8.53531C17.1879 8.48891 17.127 8.47237 17.0792 8.49999L14.0347 10.2577C14.0117 10.271 13.9844 10.2746 13.9588 10.2677L10.3683 9.30562C10.2823 9.28256 10.2671 9.16697 10.3442 9.12243L15.6649 6.0505C15.7128 6.02288 15.7289 5.96183 15.7037 5.91269C15.4853 5.48681 15.4181 4.98159 15.5518 4.48286C15.8376 3.41593 16.9343 2.78276 18.0012 3.06864C19.0682 3.35453 19.7013 4.4512 19.4155 5.51813ZM19.4155 5.51813C19.3204 5.87298 19.1356 6.17984 18.8921 6.42087M17.5 16L18.5 17M18.5 12.5H20.5M6.5 8L5.5 7M5.5 11.5H3.5" stroke="black" stroke-width="1.5" stroke-linecap="round"/>
</svg>
