<svg width="24" height="24" viewBox="0 0 24 24" fill="none" xmlns="http://www.w3.org/2000/svg">
<path d="M19 5.00007C19 3.8955 18.1046 3.00007 17 3.00007C15.8954 3.00007 15 3.8955 15 5.00007C15 5.51639 15.1957 5.98701 15.5169 6.34185C15.5539 6.38279 15.5541 6.44594 15.5151 6.48499L12 10.0001M19 5.00007C20.1046 5.00007 21 5.8955 21 7.00007C21 8.10464 20.1046 9.00007 19 9.00007C18.4837 9.00007 18.0131 8.80442 17.6582 8.48321C17.6173 8.44615 17.5541 8.44594 17.5151 8.485L14 12.0001M19 5.00007C19 5.36433 18.9026 5.70584 18.7325 6M5 19.0001C3.89543 19.0001 3 18.1046 3 17.0001C3 15.8955 3.89543 15.0001 5 15.0001C5.51632 15.0001 5.98694 15.1957 6.34177 15.5169C6.38272 15.554 6.44587 15.5542 6.48492 15.5151L10 12.0001M5 19.0001C5 20.1046 5.89543 21.0001 7 21.0001C8.10457 21.0001 9 20.1046 9 19.0001C9 18.4838 8.80435 18.0131 8.48314 17.6583C8.44607 17.6174 8.44587 17.5542 8.48492 17.5151L12 14.0001M5 19.0001C5 18.6358 5.09741 18.2942 5.2676 18M19 19C20.1045 19 21 18.1046 21 17C21 15.8954 20.1045 15 19 15C18.4837 15 18.013 15.1957 17.6582 15.5169C17.6173 15.5539 17.5541 15.5541 17.515 15.5151L14 12.0001M19 19C19 20.1046 18.1045 21 17 21C15.8954 21 15 20.1046 15 19C15 18.4837 15.1956 18.0131 15.5168 17.6582C15.5539 17.6173 15.5541 17.5541 15.515 17.5151L12 14.0001M19 19C18.6357 19 18.2942 18.9026 18 18.7325M4.99997 5C4.99997 3.89543 5.8954 3 6.99997 3C8.10454 3 8.99997 3.89543 8.99997 5C8.99997 5.51632 8.80432 5.98694 8.48311 6.34178C8.44605 6.38272 8.44584 6.44587 8.48489 6.48493L12 10.0001M4.99997 5C3.8954 5 2.99997 5.89543 2.99997 7C2.99997 8.10457 3.8954 9 4.99997 9C5.51629 9 5.98691 8.80435 6.34174 8.48314C6.38269 8.44608 6.44584 8.44587 6.48489 8.48493L10 12.0001M4.99997 5C5.36427 5 5.70582 5.0974 6 5.26758M14 12.0001L12 14.0001M10 12.0001L12 10.0001" stroke="black" stroke-width="1.5" stroke-linecap="round"/>
</svg>
