<svg width="24" height="24" viewBox="0 0 24 24" fill="none" xmlns="http://www.w3.org/2000/svg">
<path d="M19 5C19 3.89543 18.1046 3 17 3C15.8954 3 15 3.89543 15 5C15 5.51632 15.1957 5.98694 15.5169 6.34177C15.5539 6.38272 15.5541 6.44587 15.5151 6.48492L6.48492 15.5151C6.44587 15.5541 6.38272 15.5539 6.34177 15.5169C5.98694 15.1957 5.51632 15 5 15C3.89543 15 3 15.8954 3 17C3 18.1046 3.89543 19 5 19M19 5C20.1046 5 21 5.89543 21 7C21 8.10457 20.1046 9 19 9C18.4837 9 18.0131 8.80435 17.6582 8.48314C17.6173 8.44608 17.5541 8.44587 17.5151 8.48492L8.48492 17.5151C8.44587 17.5541 8.44608 17.6173 8.48314 17.6582C8.80435 18.0131 9 18.4837 9 19C9 20.1046 8.10457 21 7 21C5.89543 21 5 20.1046 5 19M19 5C19 5.36429 18.9026 5.70583 18.7324 6M5 19C5 18.6357 5.09739 18.2942 5.26756 18" stroke="black" stroke-width="1.5" stroke-linecap="round"/>
</svg>
