<svg width="24" height="24" viewBox="0 0 24 24" fill="none" xmlns="http://www.w3.org/2000/svg">
<path d="M12 6.00018L12.4386 5.80524C15.0243 4.65606 17.9757 4.65606 20.5614 5.80524C20.8281 5.92379 21 6.18829 21 6.48017V18.5957C21 18.8191 20.8189 19.0002 20.5955 19.0002C20.5327 19.0002 20.4707 18.9854 20.4143 18.9579C17.9005 17.7325 14.9718 17.6794 12.4133 18.8165L12 19.0002M12 6.00018L11.5614 5.80524C8.97573 4.65606 6.02427 4.65606 3.43861 5.80524C3.17189 5.92379 3 6.18829 3 6.48017V18.5957C3 18.8191 3.1811 19.0002 3.40451 19.0002C3.46731 19.0002 3.52926 18.9854 3.58571 18.9579C6.09948 17.7325 9.0282 17.6794 11.5867 18.8165L12 19.0002M12 6.00018V19.0002" stroke="black" stroke-width="1.5" stroke-linecap="round"/>
</svg>
