<svg width="24" height="24" viewBox="0 0 24 24" fill="none" xmlns="http://www.w3.org/2000/svg">
<path d="M11.9999 20L12.4132 19.8163C14.9717 18.6792 17.9005 18.7323 20.4142 19.9577C20.4707 19.9852 20.5326 20 20.5954 20C20.8188 20 20.9999 19.8189 20.9999 19.5955V7.47998C20.9999 7.18811 20.828 6.9236 20.5613 6.80506C19.1128 6.16127 17.5495 5.87814 15.9999 5.95568M11.9999 20L11.5866 19.8163C9.02814 18.6792 6.09942 18.7323 3.58565 19.9577C3.5292 19.9852 3.46725 20 3.40445 20C3.18104 20 2.99994 19.8189 2.99994 19.5955V7.47998C2.99994 7.18811 3.17183 6.9236 3.43855 6.80506C6.02421 5.65588 8.97567 5.65588 11.5613 6.80506L11.9999 7M11.9999 20V7M11.9999 20L15.707 16.2929C15.8946 16.1054 15.9999 15.851 15.9999 15.5858V5.95568M11.9999 7L15.3972 3.11745C15.4625 3.04281 15.5568 3 15.656 3C15.846 3 15.9999 3.15398 15.9999 3.34393V5.95568" stroke="black" stroke-width="1.5" stroke-linecap="round"/>
</svg>
