<svg width="24" height="24" viewBox="0 0 24 24" fill="none" xmlns="http://www.w3.org/2000/svg">
<path d="M10 6L8.29289 7.70711C8.10536 7.89464 8 8.149 8 8.41421V10.7639C8 10.9192 8.03615 11.0723 8.10557 11.2111L8.27639 11.5528C8.41716 11.8343 8.41716 12.1657 8.27639 12.4472L8.10557 12.7889C8.03615 12.9277 8 13.0808 8 13.2361V20C8 20.5523 8.44772 21 9 21H15C15.5523 21 16 20.5523 16 20V13.2361C16 13.0808 15.9639 12.9277 15.8944 12.7889L15.7236 12.4472C15.5828 12.1657 15.5828 11.8343 15.7236 11.5528L15.8944 11.2111C15.9639 11.0723 16 10.9192 16 10.7639V8.41421C16 8.149 15.8946 7.89464 15.7071 7.70711L14 6M10 6V4C10 3.44772 10.4477 3 11 3H13C13.5523 3 14 3.44772 14 4V6M10 6H14" stroke="black" stroke-width="1.5"/>
</svg>
