<svg width="24" height="24" viewBox="0 0 24 24" fill="none" xmlns="http://www.w3.org/2000/svg">
<path d="M19 6.5C19.8284 6.5 20.5 5.82843 20.5 5C20.5 4.17157 19.8284 3.5 19 3.5C18.1716 3.5 17.5 4.17157 17.5 5M19 6.5C18.1716 6.5 17.5 5.82843 17.5 5M19 6.5V17.5M17.5 5H6.5M6.5 5C6.5 5.82843 5.82843 6.5 5 6.5M6.5 5C6.5 4.17157 5.82843 3.5 5 3.5C4.17157 3.5 3.5 4.17157 3.5 5C3.5 5.82843 4.17157 6.5 5 6.5M5 6.5V17.5M6.5 19C6.5 19.8284 5.82843 20.5 5 20.5C4.17157 20.5 3.5 19.8284 3.5 19C3.5 18.1716 4.17157 17.5 5 17.5M6.5 19C6.5 18.1716 5.82843 17.5 5 17.5M6.5 19H17.5M17.5 19C17.5 19.8284 18.1716 20.5 19 20.5C19.8284 20.5 20.5 19.8284 20.5 19C20.5 18.1716 19.8284 17.5 19 17.5M17.5 19C17.5 18.1716 18.1716 17.5 19 17.5" stroke="black" stroke-width="1.5"/>
</svg>
