<svg width="24" height="24" viewBox="0 0 24 24" fill="none" xmlns="http://www.w3.org/2000/svg">
<path d="M4.50002 9.09997L12 5.09997M4.50002 9.09997L12 13.1M4.50002 9.09997L3.15443 8.38232C2.44854 8.00585 2.44854 6.99408 3.15443 6.61761L8.52943 3.75095C8.82355 3.59409 9.17649 3.59409 9.47061 3.75095L12 5.09997M4.50002 9.09997L3.15444 9.81761C2.44856 10.1941 2.44856 11.2058 3.15444 11.5823L4.50002 12.3M12 5.09997L19.5 9.09997M12 5.09997L14.5294 3.75095C14.8236 3.59409 15.1765 3.59409 15.4706 3.75095L20.8456 6.61761C21.5515 6.99409 21.5515 8.00585 20.8456 8.38232L19.5 9.09997M12 13.1L19.5 9.09997M12 13.1L9.47061 14.449C9.17649 14.6058 8.82355 14.6058 8.52943 14.449L4.50002 12.3M12 13.1L14.5294 14.449C14.8236 14.6058 15.1765 14.6058 15.4706 14.449L19.5 12.3M12 13.1L12 20.4666M19.5 9.09997L20.8456 9.81761C21.5515 10.1941 21.5515 11.2058 20.8456 11.5823L19.5 12.3M19.5 12.3V16C19.5 16.3693 19.2965 16.7085 18.9706 16.8823L12.4706 20.349C12.3236 20.4274 12.1618 20.4666 12 20.4666M4.50002 12.3V16C4.50002 16.3693 4.70357 16.7085 5.02943 16.8823L11.5294 20.349C11.6765 20.4274 11.8383 20.4666 12 20.4666" stroke="black" stroke-width="1.5" stroke-linecap="round"/>
</svg>
