<svg width="24" height="24" viewBox="0 0 24 24" fill="none" xmlns="http://www.w3.org/2000/svg">
<path d="M2.5 12C2.5 17.2467 6.75329 21.5 12 21.5C17.2467 21.5 21.5 17.2467 21.5 12C21.5 6.75329 17.2467 2.5 12 2.5C8.87592 2.5 6.10404 4.00799 4.37257 6.33577M4.37257 6.33577L4 3M4.37257 6.33577H7.72372M14.5 7.88471L16.4845 8.98382C16.6423 9.07119 16.7703 9.19761 16.8594 9.34722M14.5 7.88471L12.4845 6.76843C12.1831 6.60149 11.8169 6.60149 11.5155 6.76843L7.5155 8.98382C7.35774 9.07119 7.22968 9.19761 7.14065 9.34722M14.5 7.88471L9.5 10.6539M9.5 10.6539L12 12.0386M9.5 10.6539L7.14065 9.34722M12 12.0386L16.8594 9.34722M12 12.0386V17.3953M7.14065 9.34722C7.05016 9.49929 7 9.67531 7 9.85861V14.1799C7 14.5436 7.1974 14.8786 7.5155 15.0547L11.5155 17.2701C11.6662 17.3536 11.8331 17.3953 12 17.3953M16.8594 9.34722C16.9498 9.49929 17 9.67531 17 9.85861V14.1799C17 14.5436 16.8026 14.8786 16.4845 15.0547L12.4845 17.2701C12.3338 17.3536 12.1669 17.3953 12 17.3953" stroke="black" stroke-width="1.5" stroke-linecap="round"/>
</svg>
