<svg width="24" height="24" viewBox="0 0 24 24" fill="none" xmlns="http://www.w3.org/2000/svg">
<path d="M2.5 8.5H5.5M2.5 12H4.5M2.5 15.5H3.5M11.25 10.25L14.5 12M11.25 10.25L17.75 6.74999M11.25 10.25L8.14527 8.57821M14.5 12L20.8547 8.57821M14.5 12V18.8642M17.75 6.74999L14.9741 5.25527C14.6781 5.0959 14.3219 5.0959 14.0259 5.25527L8.5259 8.21681C8.36618 8.30281 8.2361 8.42864 8.14527 8.57821M17.75 6.74999L20.4741 8.21681C20.6338 8.30281 20.7639 8.42864 20.8547 8.57821M20.8547 8.57821C20.9481 8.73196 21 8.9108 21 9.09728V14.9027C21 15.2706 20.798 15.6088 20.4741 15.7832L14.9741 18.7447C14.8261 18.8244 14.6631 18.8642 14.5 18.8642M8.14527 8.57821C8.0519 8.73196 8 8.9108 8 9.09728V14.9027C8 15.2706 8.20199 15.6088 8.5259 15.7832L14.0259 18.7447C14.1739 18.8244 14.3369 18.8642 14.5 18.8642" stroke="black" stroke-width="1.5" stroke-linecap="round"/>
</svg>
