<svg width="24" height="24" viewBox="0 0 24 24" fill="none" xmlns="http://www.w3.org/2000/svg">
<path d="M12 12.5V21.3561M12 12.5L20.8598 7.57788M12 12.5L3.14018 7.57788M12 21.3561C11.8327 21.3561 11.6654 21.3142 11.5144 21.2303L3.51436 16.7858C3.19689 16.6095 3 16.2748 3 15.9117V8.08849C3 7.90551 3.04998 7.72978 3.14018 7.57788M12 21.3561C12.1673 21.3561 12.3346 21.3142 12.4856 21.2303L20.4856 16.7858C20.8031 16.6095 21 16.2748 21 15.9117V8.08849C21 7.90551 20.95 7.72978 20.8598 7.57788M20.8598 7.57788C20.771 7.4283 20.6432 7.30184 20.4856 7.21433L12.4856 2.76989C12.1836 2.6021 11.8164 2.6021 11.5144 2.76989L3.51436 7.21433C3.35684 7.30184 3.22901 7.4283 3.14018 7.57788" stroke="black" stroke-width="1.5" stroke-linecap="round"/>
</svg>
