<svg width="24" height="24" viewBox="0 0 24 24" fill="none" xmlns="http://www.w3.org/2000/svg">
<path d="M12 12.9999V7.99992M12 12.9999L7.5 10.9999M12 12.9999L16.5 10.9999M12 12.9999V17.9999M12 12.9999L16.5 14.9999M12 12.9999L7.5 14.9999M12 7.99992L7.67864 6.07939M12 7.99992L16.3214 6.07939M7.5 10.9999V6.64979C7.5 6.44153 7.56464 6.24356 7.67864 6.07939M7.5 10.9999L3.59386 12.736C3.42305 12.8119 3.28096 12.932 3.17864 13.0794M16.5 10.9999V6.64979C16.5 6.44153 16.4354 6.24356 16.3214 6.07939M16.5 10.9999L20.4061 12.736C20.577 12.8119 20.719 12.932 20.8214 13.0794M12 17.9999L16.0939 19.8194C16.2231 19.8769 16.3616 19.9056 16.5 19.9056M12 17.9999L7.90614 19.8194C7.77686 19.8769 7.63843 19.9056 7.5 19.9056M16.5 14.9999V19.9056M16.5 14.9999L20.8214 13.0794M7.5 14.9999V19.9056M7.5 14.9999L3.17864 13.0794M7.5 19.9056C7.36157 19.9056 7.22314 19.8769 7.09386 19.8194L3.59386 18.2639C3.23273 18.1034 3 17.7452 3 17.35V13.6498C3 13.4415 3.06464 13.2436 3.17864 13.0794M16.5 19.9056C16.6384 19.9056 16.7769 19.8769 16.9061 19.8194L20.4061 18.2639C20.7673 18.1034 21 17.7452 21 17.35V13.6498C21 13.4415 20.9354 13.2436 20.8214 13.0794M7.67864 6.07939C7.78096 5.93203 7.92305 5.8119 8.09386 5.73598L11.5939 4.18043C11.8524 4.06551 12.1476 4.06551 12.4061 4.18043L15.9061 5.73598C16.077 5.8119 16.219 5.93203 16.3214 6.07939" stroke="black" stroke-width="1.5" stroke-linecap="round"/>
</svg>
