<svg width="24" height="24" viewBox="0 0 24 24" fill="none" xmlns="http://www.w3.org/2000/svg">
<path d="M16.5 20.25L21 18V12.75M16.5 20.25V15M16.5 20.25L12 18M21 12.75L16.5 15M21 12.75L16.5 10.5M16.5 15L12 12.75M12 18V12.75M12 18L7.5 20.25M12 12.75L16.5 10.5M12 12.75L7.5 15M12 12.75L7.5 10.5M12 12.75V7.5M16.5 10.5V5.25M7.5 20.25V15M7.5 20.25L3 18V12.75M7.5 15L3 12.75M3 12.75L7.5 10.5M7.5 10.5V5.25M16.5 5.25L12 7.5M16.5 5.25L12 3L7.5 5.25M12 7.5L7.5 5.25" stroke="black" stroke-width="1.5" stroke-linecap="round" stroke-linejoin="round"/>
</svg>
