<svg width="24" height="24" viewBox="0 0 24 24" fill="none" xmlns="http://www.w3.org/2000/svg">
<path d="M17.8701 7.62891C17.4967 6.39708 16.3538 5.5 15 5.5C14.7983 5.5 14.6013 5.52012 14.4109 5.55835C13.8902 5.66288 13.3117 5.51965 12.9017 5.18203C12.3845 4.75609 11.7226 4.5 11 4.5C10.2949 4.5 9.64657 4.74331 9.13444 5.15054C8.83738 5.38675 8.4588 5.5118 8.07942 5.50112C8.05303 5.50038 8.02656 5.5 8 5.5C6.64615 5.5 5.50219 6.39694 5.12891 7.62891M17.8701 7.62891C19.1025 8.00191 20 9.14582 20 10.5C20 10.5265 19.9996 10.553 19.9989 10.5793C19.9879 10.9588 20.1124 11.3374 20.3488 11.6344C20.7563 12.1465 21 12.7947 21 13.5C21 13.6606 20.9874 13.8183 20.9631 13.9721M17.8701 7.62891C16.612 7.29179 15.2444 7.8867 15.0292 9.14763C14.9963 9.34011 14.8417 9.5 14.6464 9.5C14.5527 9.5 14.4632 9.4616 14.3934 9.39902C12.9924 8.14385 10.8456 8.92625 10.9378 11M4.50195 16.0957C4.5524 17.7084 5.87511 19 7.5 19C7.89681 19 8.27499 18.9222 8.62118 18.7816C9.01983 18.6197 9.48018 18.6197 9.87883 18.7816C10.225 18.9222 10.6032 19 11 19C11.7715 19 12.4742 18.7084 13.0052 18.2296M4.50195 16.0957C3.60515 15.577 3 14.6105 3 13.5C3 13.1586 3.05787 12.8311 3.16355 12.5257C3.2807 12.1872 3.2807 11.8128 3.16355 11.4743C3.05787 11.1689 3 10.8414 3 10.5C3 9.14615 3.89694 8.00219 5.12891 7.62891M4.50195 16.0957C4.50156 15.4661 4.76151 14.4896 5.60025 13.9147M5.12891 7.62891C4.8104 8.68008 5.12891 11 8 10.5M9 15C9.5 13.5 11 13.3333 12 13.5C12.7793 13.7088 13.2802 14.0718 13.587 14.5C13.7312 14.7013 13.8325 14.9171 13.8996 15.138M23 18C23 20.7614 20.7614 23 18 23M23 18C23 16.3477 22.1985 14.8825 20.9631 13.9721M23 18C23 15.2386 20.7614 13 18 13M18 23C15.3155 23 13.1252 20.8844 13.0052 18.2296M18 23C15.2386 23 13 20.7614 13 18M18 13C19.1091 13 20.1338 13.3611 20.9631 13.9721M18 13C16.303 13 14.8035 13.8454 13.8996 15.138M18 13C15.2386 13 13 15.2386 13 18M13 18C13 16.9356 13.3326 15.9488 13.8996 15.138M13 18C13 18.077 13.0017 18.1535 13.0052 18.2296M18.9142 18.9142C18.5523 19.2761 18.0523 19.5 17.5 19.5C16.3954 19.5 15.5 18.6046 15.5 17.5C15.5 16.3954 16.3954 15.5 17.5 15.5C18.6046 15.5 19.5 16.3954 19.5 17.5C19.5 18.0523 19.2761 18.5523 18.9142 18.9142ZM18.9142 18.9142L20 20" stroke="black" stroke-width="1.5" stroke-linecap="round"/>
</svg>
