<svg width="24" height="24" viewBox="0 0 24 24" fill="none" xmlns="http://www.w3.org/2000/svg">
<path d="M4.25 7.37564L4.25001 13.0702C4.25001 14.1748 5.14544 15.0702 6.25001 15.0702H6.8121M4.25 7.37564C4.94036 7.37564 5.5 6.816 5.5 6.12564C5.5 5.43529 4.94036 4.87564 4.25 4.87564C3.55964 4.87564 3 5.43529 3 6.12564C3 6.816 3.55964 7.37564 4.25 7.37564ZM19.75 5.5V17C19.75 18.1046 18.8546 19 17.75 19H15.8343M19.75 5.5C20.4404 5.5 21 4.94036 21 4.25C21 3.55964 20.4404 3 19.75 3C19.0597 3 18.5 3.55964 18.5 4.25C18.5 4.94036 19.0597 5.5 19.75 5.5ZM14.25 7.37564C13.5597 7.37564 13 6.816 13 6.12564C13 5.43529 13.5597 4.87564 14.25 4.87564C14.9404 4.87564 15.5 5.43529 15.5 6.12564C15.5 6.816 14.9404 7.37564 14.25 7.37564ZM14.25 7.37564V9.14538M9.75001 5.5C10.4404 5.5 11 4.94036 11 4.25C11 3.55964 10.4404 3 9.75001 3C9.05966 3 8.50001 3.55964 8.50001 4.25C8.50001 4.94036 9.05966 5.5 9.75001 5.5ZM9.75001 5.5V9.14537M12 20.3193C12.3665 20.7357 12.9017 21 13.5 21C14.4337 21 15.218 20.3601 15.4383 19.4949C15.4922 19.2832 15.6417 19.1007 15.8343 19M12 20.3193C11.6335 20.7357 11.0983 21 10.5 21C9.56626 21 8.78197 20.3601 8.56171 19.4949C8.49359 19.2273 8.27267 19.0064 8.00506 18.9383C7.13988 18.718 6.5 17.9337 6.5 17C6.5 16.6058 6.61473 16.239 6.8121 15.9298C6.97422 15.6758 6.97422 15.3242 6.8121 15.0702M12 20.3193V9.67969M6.8121 15.0702C6.61473 14.761 6.5 14.3942 6.5 14C6.5 12.8954 7.39543 12 8.5 12C8.61456 12 8.69985 11.8737 8.65541 11.7681C8.55589 11.5317 8.5 11.2726 8.5 11C8.5 10.1607 9.01705 9.44207 9.75001 9.14537M12 9.67969C11.6335 9.26363 11.098 9 10.5 9C10.2348 9 9.98162 9.05162 9.75001 9.14537M12 9.67969C12.3665 9.26363 12.902 9 13.5 9C13.7652 9 14.0184 9.05163 14.25 9.14538M15.8343 19C15.8852 18.9734 15.9391 18.9525 15.9949 18.9383C16.8601 18.718 17.5 17.9337 17.5 17C17.5 16.6058 17.3853 16.239 17.1879 15.9298C17.0258 15.6758 17.0258 15.3242 17.1879 15.0702C17.3853 14.761 17.5 14.3942 17.5 14C17.5 12.8954 16.6046 12 15.5 12C15.3854 12 15.3001 11.8737 15.3446 11.7681C15.4441 11.5317 15.5 11.2726 15.5 11C15.5 10.1607 14.983 9.44208 14.25 9.14538" stroke="black" stroke-width="1.5" stroke-linecap="round"/>
</svg>
