<svg width="24" height="24" viewBox="0 0 24 24" fill="none" xmlns="http://www.w3.org/2000/svg">
<path d="M12 6V3.5M18 12H20.5M12 18V20.5M6 12H3.5M16.2426 7.75736L18.0104 5.98959M16.2426 16.2426L18.0104 18.0104M7.75736 16.2426L5.98959 18.0104M7.75736 7.75736L5.98959 5.98959M16 12C16 9.79086 14.2091 8 12 8C9.79086 8 8 9.79086 8 12C8 14.2091 9.79086 16 12 16C14.2091 16 16 14.2091 16 12ZM14.8284 14.8284C16.3905 13.2663 16.3905 10.7337 14.8284 9.17157C13.2663 7.60948 10.7337 7.60948 9.17157 9.17157C7.60948 10.7337 7.60948 13.2663 9.17157 14.8284C10.7337 16.3905 13.2663 16.3905 14.8284 14.8284Z" stroke="black" stroke-width="1.5" stroke-linecap="round"/>
</svg>
