<svg width="24" height="24" viewBox="0 0 24 24" fill="none" xmlns="http://www.w3.org/2000/svg">
<path d="M8.5 13.0001C8.08579 13.0001 7.75 13.3359 7.75 13.7501C7.75 14.1643 8.08579 14.5001 8.5 14.5001C8.91421 14.5001 9.25 14.1643 9.25 13.7501C9.25 13.3359 8.91421 13.0001 8.5 13.0001ZM8.5 13.0001C8.5 5.50008 10.0265 2.97086 11.933 2.93437C13.8919 2.89688 15 6.50008 15 9.00008M18.5397 9.00008H5.46029C5.20608 9.00008 5 9.20616 5 9.46036C5 9.4868 5.00228 9.51319 5.00681 9.53923L6.85589 20.1714C6.93919 20.6504 7.35492 21.0001 7.8411 21.0001H16.1589C16.6451 21.0001 17.0608 20.6504 17.1441 20.1714L18.9932 9.53923C18.9977 9.51319 19 9.4868 19 9.46036C19 9.20616 18.7939 9.00008 18.5397 9.00008Z" stroke="black" stroke-width="1.5" stroke-linecap="round"/>
</svg>
