<svg width="24" height="24" viewBox="0 0 24 24" fill="none" xmlns="http://www.w3.org/2000/svg">
<path d="M7.5 11V13M7.5 11C7.5 9.89543 8.39543 9 9.5 9M7.5 11C6.67157 11 6 10.3284 6 9.5V6M7.5 13V15M7.5 13H6.69857C5.64478 13 4.66826 12.4471 4.12609 11.5435L3.5 10.5M7.5 15V16.5C7.5 18.9853 9.51472 21 12 21C14.4853 21 16.5 18.9853 16.5 16.5V15M7.5 15C5.87828 16.2974 4.72721 18.0912 4.22351 20.106L4 21M9.5 9V7.5C9.5 6.68214 9.89273 5.956 10.4999 5.4999M9.5 9H14.5M14.5 9V7.5C14.5 6.68214 14.1073 5.956 13.5001 5.4999M14.5 9C15.6046 9 16.5 9.89543 16.5 11M16.5 15V13M16.5 15C18.1217 16.2974 19.2728 18.0912 19.7765 20.106L20 21M18 6V9.5C18 10.3284 17.3284 11 16.5 11M16.5 13V11M16.5 13H17.3014C18.3552 13 19.3317 12.4471 19.8739 11.5435L20.5 10.5M13.5001 5.4999C13.0823 5.186 12.5628 5 12 5C11.4372 5 10.9177 5.186 10.4999 5.4999M13.5001 5.4999L15.5 3.5M10.4999 5.4999L8.5 3.5" stroke="black" stroke-width="1.5" stroke-linecap="round"/>
</svg>
