<svg width="24" height="24" viewBox="0 0 24 24" fill="none" xmlns="http://www.w3.org/2000/svg">
<path d="M12 20H14.5M12 20V9.5M12 20H9.5M14.5 20H17.5M14.5 20V17C14.5 16.4477 14.9477 16 15.5 16H16.5C17.0523 16 17.5 16.4477 17.5 17V20M17.5 20H19C19.5523 20 20 19.5523 20 19V10.118C20 9.73926 19.786 9.393 19.4472 9.22361L16.4472 7.72361C16.1657 7.58284 15.8343 7.58284 15.5528 7.72361L12 9.5M12 9.5V6.61803C12 6.23926 11.786 5.893 11.4472 5.72361L8.47767 4.23884C8.17918 4.08959 7.8259 4.09908 7.53585 4.26415L4.50539 5.98879C4.19295 6.1666 4 6.49842 4 6.85791V19C4 19.5523 4.44772 20 5 20H6.5M9.5 20H6.5M9.5 20V17C9.5 16.4477 9.05228 16 8.5 16H7.5C6.94772 16 6.5 16.4477 6.5 17V20M16 13.5C15.1716 13.5 14.5 12.8284 14.5 12C14.5 11.1716 15.1716 10.5 16 10.5C16.8284 10.5 17.5 11.1716 17.5 12C17.5 12.8284 16.8284 13.5 16 13.5ZM8 10C7.17157 10 6.5 9.32843 6.5 8.5C6.5 7.67157 7.17157 7 8 7C8.82843 7 9.5 7.67157 9.5 8.5C9.5 9.32843 8.82843 10 8 10Z" stroke="black" stroke-width="1.5" stroke-linecap="round"/>
</svg>
