<svg width="24" height="24" viewBox="0 0 24 24" fill="none" xmlns="http://www.w3.org/2000/svg">
<path d="M12 20H15.5M12 20V10M12 20H8.5M15.5 20H16.5M15.5 20C14.9477 20 14.5 19.5523 14.5 19V17C14.5 16.4477 14.9477 16 15.5 16H16.5C17.0523 16 17.5 16.4477 17.5 17V19C17.5 19.5523 17.0523 20 16.5 20M16.5 20H19C19.5523 20 20 19.5523 20 19V11C20 10.4477 19.5523 10 19 10H12M12 10V5C12 4.44772 11.5523 4 11 4H5C4.44772 4 4 4.44772 4 5V19C4 19.5523 4.44772 20 5 20H7.5M6.5 6V8M9.5 6V8M6.5 10V12M9.5 10V12M14.5 12V14M17.5 12V14M8.5 20H7.5M8.5 20C9.05228 20 9.5 19.5523 9.5 19V17C9.5 16.4477 9.05228 16 8.5 16H7.5C6.94772 16 6.5 16.4477 6.5 17V19C6.5 19.5523 6.94772 20 7.5 20" stroke="black" stroke-width="1.5" stroke-linecap="round"/>
</svg>
