<svg width="24" height="24" viewBox="0 0 24 24" fill="none" xmlns="http://www.w3.org/2000/svg">
<path d="M9.5 17C9.5 18.1046 10.3954 19 11.5 19C12.6046 19 13.5 18.1046 13.5 17M9.5 17C9.5 15.8954 10.3954 15 11.5 15C12.6046 15 13.5 15.8954 13.5 17M9.5 17H3M13.5 17H16.5M13.5 17V9C13.5 8.44772 13.9477 8 14.5 8H15.5C16.0523 8 16.5 8.44772 16.5 9V17M3 5.5H17C18.1046 5.5 19 6.39543 19 7.5V8M19 8V16C19 16.5523 18.5523 17 18 17H16.5M19 8H20C20.5523 8 21 8.44772 21 9V12M3 12H10C10.5523 12 11 11.5523 11 11V9C11 8.44772 10.5523 8 10 8H3" stroke="black" stroke-width="1.5" stroke-linecap="round"/>
</svg>
