<svg width="24" height="24" viewBox="0 0 24 24" fill="none" xmlns="http://www.w3.org/2000/svg">
<path d="M4.99994 8L4.99997 13.0714C4.99998 15.3973 6.61115 17.3469 8.7783 17.8651M4.99994 8C4.17151 8 3.49994 7.32843 3.49994 6.5V4.1C3.49994 4.04477 3.54471 4 3.59994 4H6.39994C6.45517 4 6.49994 4.04477 6.49994 4.1V6.5C6.49994 7.32843 5.82837 8 4.99994 8ZM19 9V15.0714C19 17.7934 16.7934 20 14.0714 20H13.25C11.444 20 9.83245 19.1674 8.7783 17.8651M19 9C18.1716 9 17.5 8.32843 17.5 7.5V5.1C17.5 5.04477 17.5448 5 17.6 5H20.4C20.4552 5 20.5 5.04477 20.5 5.1V7.5C20.5 8.32843 19.8284 9 19 9ZM8.7783 17.8651C7.97886 16.8774 7.5 15.6196 7.5 14.25V13C7.5 10.5147 9.51472 8.5 12 8.5C14.4853 8.5 16.5 10.5147 16.5 13V13.25C16.5 15.8734 14.3733 18 11.75 18H9.92855C9.53249 18 9.14733 17.9533 8.7783 17.8651Z" stroke="black" stroke-width="1.5" stroke-linecap="round"/>
</svg>
