<svg width="24" height="24" viewBox="0 0 24 24" fill="none" xmlns="http://www.w3.org/2000/svg">
<path d="M4 9V7C4 5.89543 4.89543 5 6 5H7M4 9V18C4 19.1046 4.89543 20 6 20H13.416M4 9H20M20 9V7C20 5.89543 19.1046 5 18 5H17M20 9V13.416M17 5V3.5M17 5H7M17 5V6.5M7 5V3.5M7 5V6.5M20 13.416C19.3875 13.1484 18.7111 13 18 13C15.2386 13 13 15.2386 13 18C13 18.7111 13.1484 19.3875 13.416 20M20 13.416C20.1242 13.4703 20.2457 13.5294 20.3644 13.5932C20.3736 13.5982 20.3827 13.6031 20.3919 13.6081M20.3919 13.6081C21.2102 14.0548 21.89 14.7235 22.3502 15.5333C22.3643 15.5581 22.3782 15.5831 22.3919 15.6081M20.3919 13.6081L16.2929 17.7071C16.1054 17.8946 16 18.149 16 18.4142V19.9C16 19.9552 16.0448 20 16.1 20H17.5858C17.851 20 18.1054 19.8946 18.2929 19.7071L22.3919 15.6081M22.3919 15.6081C22.7796 16.3186 23 17.1336 23 18C23 20.7614 20.7614 23 18 23C15.9497 23 14.1876 21.7659 13.416 20" stroke="black" stroke-width="1.5" stroke-linecap="round"/>
</svg>
