<svg width="24" height="24" viewBox="0 0 24 24" fill="none" xmlns="http://www.w3.org/2000/svg">
<path d="M4 9V7C4 5.89543 4.89543 5 6 5H7M4 9V18C4 19.1046 4.89543 20 6 20H13.416M4 9H20M20 9V7C20 5.89543 19.1046 5 18 5H17M20 9V13.416M17 5V3.5M17 5H7M17 5V6.5M7 5V3.5M7 5V6.5M20 13.416C19.3875 13.1484 18.7111 13 18 13C15.2386 13 13 15.2386 13 18C13 18.7111 13.1484 19.3875 13.416 20M20 13.416C21.7659 14.1876 23 15.9497 23 18C23 20.7614 20.7614 23 18 23C15.9497 23 14.1876 21.7659 13.416 20M18.9142 18.9142C18.5523 19.2761 18.0523 19.5 17.5 19.5C16.3954 19.5 15.5 18.6046 15.5 17.5C15.5 16.3954 16.3954 15.5 17.5 15.5C18.6046 15.5 19.5 16.3954 19.5 17.5C19.5 18.0523 19.2761 18.5523 18.9142 18.9142ZM18.9142 18.9142L20 20" stroke="black" stroke-width="1.5" stroke-linecap="round"/>
</svg>
