<svg width="24" height="24" viewBox="0 0 24 24" fill="none" xmlns="http://www.w3.org/2000/svg">
<path d="M4 9V7C4 5.89543 4.89543 5 6 5H7M4 9V18C4 19.1046 4.89543 20 6 20H13.416M4 9H20M20 9V7C20 5.89543 19.1046 5 18 5H17M20 9V13.416M17 5V3.5M17 5H7M17 5V6.5M7 5V3.5M7 5V6.5M20 13.416C19.3875 13.1484 18.7111 13 18 13C15.2386 13 13 15.2386 13 18C13 18.7111 13.1484 19.3875 13.416 20M20 13.416C21.7659 14.1876 23 15.9497 23 18C23 20.7614 20.7614 23 18 23C15.9497 23 14.1876 21.7659 13.416 20M18 16C18.5523 16 19.0523 16.2239 19.4142 16.5858M18 16V15M18 16C17.4477 16 16.9477 16.2239 16.5858 16.5858M19.4142 16.5858C19.7761 16.9477 20 17.4477 20 18M19.4142 16.5858L20 16M20 18H21M20 18C20 18.5523 19.7761 19.0523 19.4142 19.4142M18 20V21M18 20C18.5523 20 19.0523 19.7761 19.4142 19.4142M18 20C17.4477 20 16.9477 19.7761 16.5858 19.4142M16 18H15M16 18C16 17.4477 16.2239 16.9477 16.5858 16.5858M16 18C16 18.5523 16.2239 19.0523 16.5858 19.4142M16.5858 16.5858L16 16M19.4142 19.4142L20 20M16.5858 19.4142L16 20" stroke="black" stroke-width="1.5" stroke-linecap="round"/>
</svg>
