<svg width="24" height="24" viewBox="0 0 24 24" fill="none" xmlns="http://www.w3.org/2000/svg">
<path d="M4 9V7C4 5.89543 4.89543 5 6 5H7M4 9V18C4 19.1046 4.89543 20 6 20H18C19.1046 20 20 19.1046 20 18L20 9M4 9H20M20 9V7C20 5.89543 19.1046 5 18 5H17M17 5V3.5M17 5H7M17 5V6.5M7 5V3.5M7 5V6.5M10 14.5H9.5M10 14.5L10.3167 14.3416C10.7355 14.1323 11 13.7043 11 13.2361C11 12.5534 10.4466 12 9.76393 12H9.5C8.84689 12 8.29127 12.4174 8.08535 13M10 14.5L10.3167 14.6584C10.7355 14.8677 11 15.2957 11 15.7639C11 16.4466 10.4466 17 9.76393 17H9.5C8.84689 17 8.29127 16.5826 8.08535 16M16 13.5V15.5C16 16.3284 15.3284 17 14.5 17C13.6716 17 13 16.3284 13 15.5V13.5C13 12.6716 13.6716 12 14.5 12C15.3284 12 16 12.6716 16 13.5Z" stroke="black" stroke-width="1.5" stroke-linecap="round"/>
</svg>
