<svg width="24" height="24" viewBox="0 0 24 24" fill="none" xmlns="http://www.w3.org/2000/svg">
<path d="M13.7363 9.39549C15.0758 10.0419 16 11.413 16 13C16 15.2091 14.2091 17 12 17C10.9793 17 10.0478 16.6177 9.34108 15.9884M13.7363 9.39549L9.34108 15.9884M13.7363 9.39549L15.7143 6.42857M9.34108 15.9884L7.33333 19M13.5 5H10.118C9.43283 5 8.80643 5.38713 8.5 6C8.19357 6.61287 7.56717 7 6.88197 7H4C3.44772 7 3 7.44772 3 8V18C3 18.5523 3.44772 19 4 19M15.7143 6.42857L18 3M15.7143 6.42857L15.7236 6.44721C15.893 6.786 16.2393 7 16.618 7H20C20.5523 7 21 7.44772 21 8V18C21 18.5523 20.5523 19 20 19H7.33333M6 21L7.33333 19" stroke="black" stroke-width="1.5" stroke-linecap="round"/>
</svg>
