<svg width="24" height="24" viewBox="0 0 24 24" fill="none" xmlns="http://www.w3.org/2000/svg">
<path d="M10.0425 12.8709L9.09966 13.8137C8.83931 14.0741 8.39961 14.0565 8.11757 13.7744L3.01069 8.66756C2.72864 8.38552 2.71105 7.94582 2.9714 7.68547L7.68545 2.97142C7.9458 2.71107 8.38549 2.72866 8.66754 3.01071L13.7744 8.11759C14.0565 8.39964 14.0741 8.83933 13.8137 9.09968L12.8709 10.0425M10.0425 12.8709L12.8709 10.0425M10.0425 12.8709L11.4144 17.0254C11.4293 17.0704 11.4549 17.1118 11.4889 17.1458C11.6013 17.2582 11.7765 17.2652 11.8802 17.1615L17.1614 11.8802C17.2652 11.7765 17.2581 11.6013 17.1458 11.4889C17.1117 11.4549 17.0704 11.4293 17.0254 11.4144L12.8709 10.0425M19 20.5C18.1716 20.5 17.5 19.8284 17.5 19M19 20.5C19.8284 20.5 20.5 19.8284 20.5 19M19 20.5V21.5M17.5 19C17.5 18.1716 18.1716 17.5 19 17.5M17.5 19H16.5M20.5 19C20.5 18.1716 19.8284 17.5 19 17.5M20.5 19H21.5M19 17.5V16.5M14.5208 14.5208L17.9394 17.9394" stroke="black" stroke-width="1.5" stroke-linecap="round"/>
</svg>
