<svg width="24" height="24" viewBox="0 0 24 24" fill="none" xmlns="http://www.w3.org/2000/svg">
<path d="M21 9V17.5C21 18.0523 20.5523 18.5 20 18.5H4C3.44772 18.5 3 18.0523 3 17.5V8.5C3 7.94772 3.44772 7.5 4 7.5H9C9.55228 7.5 10 7.05228 10 6.5C10 5.94772 10.4477 5.5 11 5.5H16M21 9V6.5C21 5.94772 20.5523 5.5 20 5.5H16M21 9H16.1C16.0448 9 16 8.95523 16 8.9V5.5M7.5 5.5H4M12.25 16.5C10.4551 16.5 9 15.0449 9 13.25C9 11.4551 10.4551 10 12.25 10C14.0449 10 15.5 11.4551 15.5 13.25C15.5 15.0449 14.0449 16.5 12.25 16.5Z" stroke="black" stroke-width="1.5" stroke-linecap="round"/>
</svg>
