<svg width="24" height="24" viewBox="0 0 24 24" fill="none" xmlns="http://www.w3.org/2000/svg">
<path d="M20 19H4C3.44772 19 3 18.5523 3 18V8C3 7.44772 3.44772 7 4 7H6.88197C7.56717 7 8.19357 6.61287 8.5 6C8.80643 5.38713 9.43283 5 10.118 5H13.882C14.5672 5 15.1936 5.38713 15.5 6C15.8064 6.61287 16.4328 7 17.118 7H20C20.5523 7 21 7.44772 21 8V18C21 18.5523 20.5523 19 20 19Z" stroke="black" stroke-width="1.5"/>
<path d="M16 13C16 15.2091 14.2091 17 12 17C9.79086 17 8 15.2091 8 13C8 10.7909 9.79086 9 12 9C14.2091 9 16 10.7909 16 13Z" stroke="black" stroke-width="1.5"/>
</svg>
