<svg width="24" height="24" viewBox="0 0 24 24" fill="none" xmlns="http://www.w3.org/2000/svg">
<path fill-rule="evenodd" clip-rule="evenodd" d="M5 20V4C5 3.44772 5.44772 3 6 3H18C18.5523 3 19 3.44772 19 4L19 20C19 20.5523 18.5523 21 18 21H6C5.44772 21 5 20.5523 5 20ZM10 18H8.5C7.94772 18 7.5 17.5523 7.5 17C7.5 16.4477 7.94772 16 8.5 16H10C10.5523 16 11 16.4477 11 17C11 17.5523 10.5523 18 10 18ZM15.5 18H14C13.4477 18 13 17.5523 13 17C13 16.4477 13.4477 16 14 16H15.5C16.0523 16 16.5 16.4477 16.5 17C16.5 17.5523 16.0523 18 15.5 18ZM10 13H8.5C7.94772 13 7.5 12.5523 7.5 12C7.5 11.4477 7.94772 11 8.5 11H10C10.5523 11 11 11.4477 11 12C11 12.5523 10.5523 13 10 13ZM15.5 13H14C13.4477 13 13 12.5523 13 12C13 11.4477 13.4477 11 14 11H15.5C16.0523 11 16.5 11.4477 16.5 12C16.5 12.5523 16.0523 13 15.5 13ZM10 8H8.5C7.94772 8 7.5 7.55229 7.5 7C7.5 6.44772 7.94772 6 8.5 6H10C10.5523 6 11 6.44772 11 7C11 7.55229 10.5523 8 10 8ZM15.5 8H14C13.4477 8 13 7.55229 13 7C13 6.44772 13.4477 6 14 6H15.5C16.0523 6 16.5 6.44771 16.5 7C16.5 7.55229 16.0523 8 15.5 8Z" stroke="black" stroke-width="1.5" stroke-linecap="round"/>
</svg>
