<svg width="24" height="24" viewBox="0 0 24 24" fill="none" xmlns="http://www.w3.org/2000/svg">
<path d="M15 16.5H9M15 16.5C15 17.6046 15.8954 18.5 17 18.5C18.1046 18.5 19 17.6046 19 16.5M15 16.5C15 15.3954 15.8954 14.5 17 14.5C18.1046 14.5 19 15.3954 19 16.5M9 16.5C9 17.6046 8.10457 18.5 7 18.5C5.89543 18.5 5 17.6046 5 16.5M9 16.5C9 15.3954 8.10457 14.5 7 14.5C5.89543 14.5 5 15.3954 5 16.5M19 16.5H20C20.5523 16.5 21 16.0523 21 15.5V12.4415C21 11.5807 20.4491 10.8164 19.6325 10.5442L18.393 10.131C18.1414 10.0471 17.9334 9.86673 17.8148 9.62952L16.2764 6.55279C16.107 6.214 15.7607 6 15.382 6H5.61803C5.23926 6 4.893 6.214 4.72361 6.55279L4.68916 6.62167C3.57832 8.84336 3 11.2932 3 13.7771V15.5C3 16.0523 3.44772 16.5 4 16.5H5" stroke="black" stroke-width="1.5" stroke-linecap="round"/>
</svg>
