<svg width="24" height="24" viewBox="0 0 24 24" fill="none" xmlns="http://www.w3.org/2000/svg">
<path d="M5.66667 6.5H19.6529C20.2708 6.5 20.7409 7.05487 20.6393 7.6644L19.7006 13.2966M5.66667 6.5L5.47261 5.3356C5.39224 4.85341 4.97505 4.5 4.48621 4.5H2.50002M5.66667 6.5L7.00001 14.5M7.00001 14.5L7.36074 16.6644C7.44111 17.1466 7.8583 17.5 8.34714 17.5L13.0247 17.5M7.00001 14.5H14.4293M19.7006 13.2966C19.1697 13.1047 18.5971 13 18 13C16.6013 13 15.3367 13.5743 14.4293 14.5M19.7006 13.2966C21.6248 13.9925 23 15.8357 23 18C23 20.7614 20.7614 23 18 23C15.2386 23 13 20.7614 13 18C13 17.8313 13.0084 17.6645 13.0247 17.5M14.4293 14.5C13.6546 15.2902 13.1402 16.3364 13.0247 17.5M15.5 18H20.5M6.50002 19C6.50002 19.8284 7.17159 20.5 8.00002 20.5C8.82844 20.5 9.50002 19.8284 9.50002 19C9.50002 18.1716 8.82844 17.5 8.00002 17.5C7.17159 17.5 6.50002 18.1716 6.50002 19Z" stroke="black" stroke-width="1.5" stroke-linecap="round"/>
</svg>
