<svg width="24" height="24" viewBox="0 0 24 24" fill="none" xmlns="http://www.w3.org/2000/svg">
<path d="M18.5 17.5L8.34713 17.5C7.85829 17.5 7.44111 17.1466 7.36074 16.6644L7.00001 14.5M18.5 17.5C17.6716 17.5 17 18.1716 17 19C17 19.8284 17.6716 20.5 18.5 20.5C19.3285 20.5 20 19.8284 20 19C20 18.1716 19.3285 17.5 18.5 17.5ZM5.66667 6.5H19.6529C20.2708 6.5 20.7409 7.05487 20.6393 7.6644L19.6393 13.6644C19.5589 14.1466 19.1417 14.5 18.6529 14.5H7.00001M5.66667 6.5L5.47261 5.3356C5.39224 4.85341 4.97505 4.5 4.48621 4.5H2.50001M5.66667 6.5L7.00001 14.5M6.50001 19C6.50001 19.8284 7.17159 20.5 8.00001 20.5C8.82844 20.5 9.50001 19.8284 9.50001 19C9.50001 18.1716 8.82844 17.5 8.00001 17.5C7.17159 17.5 6.50001 18.1716 6.50001 19Z" stroke="black" stroke-width="1.5" stroke-linecap="round"/>
</svg>
