<svg width="24" height="24" viewBox="0 0 24 24" fill="none" xmlns="http://www.w3.org/2000/svg">
<path fill-rule="evenodd" clip-rule="evenodd" d="M3 7.5V16.5C3 17.0523 3.44772 17.5 4 17.5H20C20.5523 17.5 21 17.0523 21 16.5L21 7.5C21 6.94771 20.5523 6.5 20 6.5H4C3.44772 6.5 3 6.94772 3 7.5ZM14.5 12C14.5 10.6193 13.3807 9.5 12 9.5C10.6193 9.5 9.5 10.6193 9.5 12C9.5 13.3807 10.6193 14.5 12 14.5C13.3807 14.5 14.5 13.3807 14.5 12ZM17.75 11.25C18.1642 11.25 18.5 11.5858 18.5 12C18.5 12.4142 18.1642 12.75 17.75 12.75C17.3358 12.75 17 12.4142 17 12C17 11.5858 17.3358 11.25 17.75 11.25ZM6.25 11.25C6.66421 11.25 7 11.5858 7 12C7 12.4142 6.66421 12.75 6.25 12.75C5.83579 12.75 5.5 12.4142 5.5 12C5.5 11.5858 5.83579 11.25 6.25 11.25Z" stroke="black" stroke-width="1.5" stroke-linecap="round"/>
</svg>
