<svg width="24" height="24" viewBox="0 0 24 24" fill="none" xmlns="http://www.w3.org/2000/svg">
<path d="M18 20.5V15.5M18 15.5L20 17.5M18 15.5L16 17.5M21 13.9996C20.1643 13.3719 19.1256 13 18 13C15.4073 13 13.2755 14.9733 13.0247 17.5M21 13.9996C22.2144 14.9118 23 16.3642 23 18C23 20.7614 20.7614 23 18 23C15.2386 23 13 20.7614 13 18C13 17.8313 13.0084 17.6645 13.0247 17.5M21 13.9996L21 7.5C21 6.94771 20.5523 6.5 20 6.5H4C3.44772 6.5 3 6.94772 3 7.5V16.5C3 17.0523 3.44772 17.5 4 17.5H13.0247M12 9.5C13.3807 9.5 14.5 10.6193 14.5 12C14.5 13.3807 13.3807 14.5 12 14.5C10.6193 14.5 9.5 13.3807 9.5 12C9.5 10.6193 10.6193 9.5 12 9.5ZM18.5 12C18.5 11.5858 18.1642 11.25 17.75 11.25C17.3358 11.25 17 11.5858 17 12C17 12.4142 17.3358 12.75 17.75 12.75C18.1642 12.75 18.5 12.4142 18.5 12ZM7 12C7 11.5858 6.66421 11.25 6.25 11.25C5.83579 11.25 5.5 11.5858 5.5 12C5.5 12.4142 5.83579 12.75 6.25 12.75C6.66421 12.75 7 12.4142 7 12Z" stroke="black" stroke-width="1.5" stroke-linecap="round"/>
</svg>
