<svg width="24" height="24" viewBox="0 0 24 24" fill="none" xmlns="http://www.w3.org/2000/svg">
<path d="M7 12C7 11.5858 6.66421 11.25 6.25 11.25C5.83579 11.25 5.5 11.5858 5.5 12C5.5 12.4142 5.83579 12.75 6.25 12.75C6.66421 12.75 7 12.4142 7 12Z" stroke="black" stroke-width="1.5" stroke-linecap="round"/>
<path d="M12 9.5C13.3807 9.5 14.5 10.6193 14.5 12C14.5 13.3807 13.3807 14.5 12 14.5C10.6193 14.5 9.5 13.3807 9.5 12C9.5 10.6193 10.6193 9.5 12 9.5Z" stroke="black" stroke-width="1.5" stroke-linecap="round"/>
<path d="M18.5 12C18.5 11.5858 18.1642 11.25 17.75 11.25C17.3358 11.25 17 11.5858 17 12C17 12.4142 17.3358 12.75 17.75 12.75C18.1642 12.75 18.5 12.4142 18.5 12Z" stroke="black" stroke-width="1.5" stroke-linecap="round"/>
</svg>
