<svg width="24" height="24" viewBox="0 0 24 24" fill="none" xmlns="http://www.w3.org/2000/svg">
<path d="M10.9393 13.0607C10.3536 12.4749 10.3536 11.5251 10.9393 10.9393C11.5251 10.3536 12.4749 10.3536 13.0607 10.9393C13.6464 11.5251 13.6464 12.4749 13.0607 13.0607M9.17157 14.8284C7.60948 13.2663 7.60948 10.7337 9.17157 9.17157C10.7337 7.60948 13.2663 7.60948 14.8284 9.17157C16.3905 10.7337 16.3905 13.2663 14.8284 14.8284M7.40381 16.5962C4.8654 14.0578 4.8654 9.94221 7.4038 7.40381C9.94221 4.8654 14.0578 4.8654 16.5962 7.40381C19.1346 9.94221 19.1346 14.0578 16.5962 16.5962M5.63604 18.364C2.12132 14.8492 2.12132 9.15076 5.63604 5.63604C9.15076 2.12132 14.8492 2.12132 18.364 5.63604C21.8787 9.15076 21.8787 14.8492 18.364 18.364M16.7586 20.5H7.24142C7.15233 20.5 7.10771 20.3923 7.17071 20.3293L11.2929 16.2071C11.6834 15.8166 12.3166 15.8166 12.7071 16.2071L16.8293 20.3293C16.8923 20.3923 16.8477 20.5 16.7586 20.5Z" stroke="black" stroke-width="1.5" stroke-linecap="round"/>
</svg>
