<svg width="24" height="24" viewBox="0 0 24 24" fill="none" xmlns="http://www.w3.org/2000/svg">
<path d="M16.5 15H18C18.5523 15 19 14.5523 19 14L19 6C19 4.34315 17.6569 3 16 3L8 3C6.34315 3 5 4.34315 5 6L5 14C5 14.5523 5.44772 15 6 15H7.5M16.5 15L16.5 19.75C16.5001 20.4403 15.9404 21 15.25 21C14.5597 21 14.0001 20.4404 14 19.75L14 15M16.5 15H14M14 15L10 15M7.5 15L7.50005 19.75C7.50005 20.4404 8.05969 21 8.75005 21C9.44041 21 10.0001 20.4403 10 19.75L10 15M7.5 15H10M13 6L11.4603 7.84767C11.0789 8.30527 11.4043 9 12 9C12.5957 9 12.9211 9.69474 12.5397 10.1523L11 12" stroke="black" stroke-width="1.5" stroke-linecap="round"/>
</svg>
