<svg width="24" height="24" viewBox="0 0 24 24" fill="none" xmlns="http://www.w3.org/2000/svg">
<path d="M16.9242 13.2212C17.5982 13.6259 18.487 13.9388 19.6465 13.992C19.8415 14.0009 20 13.8417 20 13.6464C20 13.5527 19.9618 13.4635 19.8997 13.3933C19 12.3747 19 10.6586 19 10.6586C19 10.5387 19.0645 10.4288 19.1653 10.3638C20.2691 9.6518 21 8.41125 21 6.99999C21 4.79086 19.2091 3 17 3H11C8.79086 3 7 4.79086 7 6.99999C7 8.19471 7.52378 9.26709 8.35423 10M16.9242 13.2212C16.9739 13.4731 17 13.7335 17 14C17 16.2092 15.2091 18 13 18H9.72076C9.29033 18 8.90535 18.2764 8.6793 18.6427C8.15876 19.4862 6.91855 20.8742 4.35376 20.992C4.1587 21.001 4 20.8417 4 20.6465C4 20.5527 4.0382 20.4635 4.10029 20.3932C5 19.3747 5 17.6586 5 17.6586C5 17.5387 4.93546 17.4288 4.83471 17.3639C3.73085 16.6518 3 15.4113 3 14C3 11.7909 4.79086 10 6.99999 10H8.35423M16.9242 13.2212C16.5618 11.3849 14.9426 10 13 10H8.35423" stroke="black" stroke-width="1.5" stroke-linecap="round"/>
</svg>
