<svg width="24" height="24" viewBox="0 0 24 24" fill="none" xmlns="http://www.w3.org/2000/svg">
<path d="M12 20H16M12 20H9.5M12 20V17.5M16 20H17.5M16 20V18.5M17.5 20H19C19.5523 20 20 19.5523 20 19V17.5M17.5 20L20 17.5M16 4H19C19.5523 4 20 4.44772 20 5V8M16 4H14.5M16 4V5.5M14.5 4H12M14.5 4L12 6.5M12 4H8M12 4V6.5M16 18.5V16M16 18.5L18.5 16M16 16V13.5M16 16H13.5M16 16H18.5M16 13.5V12M16 13.5L13.5 16M16 12V10.5M16 12H17.5M16 12H14.5M16 10.5V8M16 10.5L18.5 8M16 8V5.5M16 8H18.5M16 8H13.5M16 5.5L13.5 8M8 4H6.5M8 4V5.5M8 20H5C4.44772 20 4 19.5523 4 19V16M8 20H9.5M8 20V18.5M9.5 20L12 17.5M4 12V14.5M4 12V8M4 12H6.5M4 14.5V16M4 14.5L6.5 12M4 16H5.5M20 17.5V16M20 16V12M20 16H18.5M20 12V9.5M20 12H17.5M5.5 16H8M5.5 16L8 13.5M8 16H10.5M8 16V13.5M8 16V18.5M10.5 16H12M10.5 16L8 18.5M12 16H13.5M12 16V14.5M12 16V17.5M20 9.5V8M20 9.5L17.5 12M20 8H18.5M4 8V6.5M4 8H5.5M4 6.5V5C4 4.44772 4.44772 4 5 4H6.5M4 6.5L6.5 4M5.5 8L8 5.5M5.5 8H8M8 5.5V8M8 8V10.5M8 8H10.5M8 10.5V12M8 10.5L10.5 8M8 12V13.5M8 12H9.5M8 12H6.5M13.5 8H12M12 8H10.5M12 8V6.5M12 8V9.5M14.5 12H12M14.5 12L12 14.5M12 12H9.5M12 12V9.5M12 12V14.5M9.5 12L12 9.5" stroke="black" stroke-width="1.5" stroke-linecap="round"/>
</svg>
