<svg width="24" height="24" viewBox="0 0 24 24" fill="none" xmlns="http://www.w3.org/2000/svg">
<path d="M12 8.5C10.6193 8.5 9.5 7.38071 9.5 6C9.5 4.61929 10.6193 3.5 12 3.5C13.3807 3.5 14.5 4.61929 14.5 6C14.5 7.38071 13.3807 8.5 12 8.5ZM12 8.5V15M12 8.5L14.3162 9.27208C14.7246 9.40819 15.1742 9.26774 15.4325 8.92339L17.625 6M12 8.5L9.22377 9.29321C8.79518 9.41566 8.33729 9.23967 8.10105 8.86168L6.3125 6M12 15L11.0513 17.8461C11.0173 17.948 11 18.0548 11 18.1623V21.5M12 15L14.0901 15.836C14.3512 15.9405 14.5563 16.1501 14.655 16.4134L15.8125 19.5" stroke="black" stroke-width="1.5" stroke-linecap="round"/>
</svg>
