<svg width="24" height="24" viewBox="0 0 24 24" fill="none" xmlns="http://www.w3.org/2000/svg">
<path d="M17 6V6.66468C17 8.15996 16.406 9.594 15.3487 10.6513L15.2824 10.7176C15.1264 10.8736 15.1264 11.1264 15.2824 11.2824C16.3822 12.3822 17 13.8737 17 15.429V16M17 6V4.74999C17 3.7835 16.2165 3 15.25 3C14.2835 3 13.5 3.7835 13.5 4.74999V6M17 6H13.5M13.5 6V7.49999C13.5 8.32842 12.8284 9 12 9C11.1716 9 10.5 8.32842 10.5 7.49999V4.75C10.5 3.7835 9.7165 3 8.75 3C7.7835 3 7 3.7835 7 4.75V6.66468C7 8.15996 7.594 9.594 8.65132 10.6513L8.71758 10.7176C8.87356 10.8736 8.87356 11.1264 8.71758 11.2824C7.61783 12.3822 7 13.8737 7 15.429V19.25C7 20.2165 7.7835 21 8.75 21C9.7165 21 10.5 20.2165 10.5 19.25V14.5C10.5 13.6716 11.1716 13 12 13C12.8284 13 13.5 13.6716 13.5 14.5L13.5 16M17 16H13.5M17 16V18M13.5 16L13.5 18M17 18V19.25C17 20.2165 16.2165 21 15.25 21C14.2835 21 13.5 20.2165 13.5 19.25L13.5 18M17 18H13.5" stroke="black" stroke-width="1.5" stroke-linecap="round"/>
</svg>
