<svg width="24" height="24" viewBox="0 0 24 24" fill="none" xmlns="http://www.w3.org/2000/svg">
<path d="M8.5 4.5V4C8.5 3.44772 8.94772 3 9.5 3H14.5C15.0523 3 15.5 3.44772 15.5 4V4.5M8.5 4.5V6C8.5 6.55228 8.94772 7 9.5 7H14.5C15.0523 7 15.5 6.55228 15.5 6V4.5M8.5 4.5H6C5.44772 4.5 5 4.94772 5 5.5V20C5 20.5523 5.44772 21 6 21H13.9996M15.5 4.5H18C18.5523 4.5 19 4.94772 19 5.5V13.1M23 18C23 20.7614 20.7614 23 18 23M23 18C23 15.581 21.2822 13.5633 19 13.1M23 18C23 15.2386 20.7614 13 18 13M18 23C16.3642 23 14.9118 22.2144 13.9996 21M18 23C15.2386 23 13 20.7614 13 18M13 18C13 15.2386 15.2386 13 18 13M13 18C13 19.1256 13.3719 20.1643 13.9996 21M18 13C18.3425 13 18.6769 13.0344 19 13.1M16 18L17.4293 19.4293C17.4683 19.4683 17.5317 19.4683 17.5707 19.4293L20 17" stroke="black" stroke-width="1.5" stroke-linecap="round"/>
</svg>
