<svg width="24" height="24" viewBox="0 0 24 24" fill="none" xmlns="http://www.w3.org/2000/svg">
<path d="M3.71557 7.85603L7.71482 4.25671C7.89845 4.09144 8.13675 4 8.38379 4H9.42798C9.47102 4 9.50942 4.02725 9.52644 4.06678C9.65173 4.35771 10.2547 5.5 12.0001 5.5C13.7454 5.5 14.3484 4.35771 14.4737 4.06678C14.4907 4.02725 14.5291 4 14.5721 4H15.6163C15.8634 4 16.1017 4.09144 16.2853 4.25671L20.2845 7.85603C20.684 8.21558 20.7279 8.82661 20.3838 9.23951L19.2011 10.6588C18.8246 11.1105 18.1415 11.1415 17.7257 10.7257L17.1708 10.1707C17.1078 10.1077 17.0001 10.1523 17.0001 10.2414L17.0001 19C17.0001 19.5523 16.5524 20 16.0001 20H8.00009C7.44781 20 7.00009 19.5523 7.00009 19L7.00005 10.2414C7.00005 10.1523 6.89234 10.1077 6.82934 10.1707L6.27436 10.7257C5.85856 11.1415 5.17548 11.1105 4.79903 10.6588L3.61631 9.23951C3.27223 8.82661 3.31607 8.21558 3.71557 7.85603Z" stroke="black" stroke-width="1.5" stroke-linecap="round"/>
</svg>
