<svg width="24" height="24" viewBox="0 0 24 24" fill="none" xmlns="http://www.w3.org/2000/svg">
<path d="M15.4314 13.124L15.433 13.1249C15.8661 13.3585 16.1786 13.8127 16.1786 14.373C16.1786 15.3343 17.205 15.9474 18.0514 15.4916L21.75 13.5001L12 8.2501L9.18989 9.76319M15.4314 13.124C15.0357 12.9113 14.5397 12.8826 14.0893 13.1251C13.8294 13.2651 13.5892 13.4316 13.3714 13.6203M15.4314 13.124L9.18989 9.76319M13.3714 13.6203C13.0575 13.8921 12.7902 14.21 12.5772 14.5608C12.2062 15.1716 12 15.8822 12 16.6231V18.7501L2.25 13.5001V11.373C2.25 9.91144 3.05247 8.56793 4.33931 7.87501C4.79266 7.63089 5.29229 7.66162 5.68927 7.87824L9.18989 9.76319M13.3714 13.6203L16.8467 15.4916" stroke="black" stroke-width="1.5" stroke-miterlimit="1.78829" stroke-linecap="round" stroke-linejoin="round"/>
</svg>
