<svg width="24" height="24" viewBox="0 0 24 24" fill="none" xmlns="http://www.w3.org/2000/svg">
<path d="M15.9842 10.401C18.4089 10.023 21 11.7892 21 14.6795C21 17.0656 19.0656 19 16.6795 19H7.32052C4.93436 19 3 17.0656 3 14.6795C3 12.5859 4.35951 11.0821 6.03054 10.5558M15.9842 10.401C15.9946 10.2687 16 10.135 16 10C16 7.23858 13.7614 5 11 5C8.23858 5 6 7.23858 6 10C6 10.1879 6.01036 10.3733 6.03054 10.5558M15.9842 10.401C15.2872 10.5097 14.604 10.7955 14 11.2827M6.03054 10.5558C6.66143 10.3571 7.33671 10.2977 8 10.3986C8.70245 10.5054 9.39144 10.7918 10 11.2827" stroke="black" stroke-width="1.5" stroke-linecap="round"/>
</svg>
