<svg width="24" height="24" viewBox="0 0 24 24" fill="none" xmlns="http://www.w3.org/2000/svg">
<path d="M6.03054 10.5558C4.35951 11.0821 3 12.5859 3 14.6795C3 17.0656 4.93436 19 7.32052 19H13.1M6.03054 10.5558C6.01036 10.3733 6 10.1879 6 10C6 7.23858 8.23858 5 11 5C13.7614 5 16 7.23858 16 10C16 10.135 15.9946 10.2687 15.9842 10.401M6.03054 10.5558C6.66143 10.3571 7.33671 10.2977 8 10.3986C8.70245 10.5054 9.39144 10.7918 10 11.2827M15.9842 10.401C18.2 10.0555 20.5548 11.5008 20.9441 13.9582M15.9842 10.401C15.2872 10.5097 14.604 10.7955 14 11.2827M23 18C23 20.7614 20.7614 23 18 23M23 18C23 16.3392 22.1903 14.8675 20.9441 13.9582M23 18C23 15.2386 20.7614 13 18 13M18 23C15.581 23 13.5633 21.2822 13.1 19M18 23C15.2386 23 13 20.7614 13 18M13 18C13 15.2386 15.2386 13 18 13M13 18C13 18.3425 13.0344 18.6769 13.1 19M18 13C19.1006 13 20.1182 13.3556 20.9441 13.9582M18 20.5V15.5M18 15.5L20 17.5M18 15.5L16 17.5" stroke="black" stroke-width="1.5" stroke-linecap="round"/>
</svg>
