<svg width="24" height="24" viewBox="0 0 24 24" fill="none" xmlns="http://www.w3.org/2000/svg">
<path d="M12.5351 9C12.6687 8.76915 12.8246 8.55288 13 8.35418C13.501 7.7865 14.1607 7.36214 14.9096 7.15043M10 7.53513C9.41165 7.19479 8.72857 7 8 7C7.69101 7 7.39021 7.03503 7.10135 7.10135M14.9096 7.15043C15.2562 7.05243 15.622 7 16 7C18.2091 7 20 8.79086 20 11C20 13.2091 18.2091 15 16 15H8C5.79086 15 4 13.2091 4 11C4 9.09985 5.32493 7.50915 7.10135 7.10135M14.9096 7.15043C14.5201 5.34939 12.9176 4 11 4C9.09985 4 7.50915 5.32493 7.10135 7.10135M5 18L6 17M5 18L6 19M5 18L4 19M5 18L4 17M9.5 19L10.5 18M9.5 19L10.5 20M9.5 19L8.5 20M9.5 19L8.5 18M14 18L15 17M14 18L15 19M14 18L13 19M14 18L13 17M18.5 19L19.5 18M18.5 19L19.5 20M18.5 19L17.5 20M18.5 19L17.5 18" stroke="black" stroke-width="1.5" stroke-linecap="round"/>
</svg>
