<svg width="24" height="24" viewBox="0 0 24 24" fill="none" xmlns="http://www.w3.org/2000/svg">
<path d="M12.5351 14C12.6687 13.7691 12.8246 13.5529 13 13.3542C13.501 12.7865 14.1607 12.3621 14.9096 12.1504M10 12.5351C9.41165 12.1948 8.72857 12 8 12C7.69101 12 7.39021 12.035 7.10135 12.1013M14.9096 12.1504C15.2562 12.0524 15.622 12 16 12C18.2091 12 20 13.7909 20 16C20 18.2091 18.2091 20 16 20H8C5.79086 20 4 18.2091 4 16C4 14.0998 5.32493 12.5091 7.10135 12.1013M14.9096 12.1504C14.5201 10.3494 12.9176 9 11 9C9.09985 9 7.50915 10.3249 7.10135 12.1013M18.5 9.5V11M14.5 5.5H13M15.5 8.5L14.5 9.5M16.5 5.5C16.5 4.39543 17.3954 3.5 18.5 3.5C19.6046 3.5 20.5 4.39543 20.5 5.5C20.5 6.60457 19.6046 7.5 18.5 7.5C17.3954 7.5 16.5 6.60457 16.5 5.5Z" stroke="black" stroke-width="1.5" stroke-linecap="round"/>
</svg>
