<svg width="24" height="24" viewBox="0 0 24 24" fill="none" xmlns="http://www.w3.org/2000/svg">
<path d="M12.5351 9C12.6687 8.76915 12.8246 8.55288 13 8.35418C13.501 7.7865 14.1607 7.36214 14.9096 7.15043M10 7.53513C9.41165 7.19479 8.72857 7 8 7C7.69101 7 7.39021 7.03503 7.10135 7.10135M14.9096 7.15043C15.2562 7.05243 15.622 7 16 7C18.2091 7 20 8.79086 20 11C20 13.2091 18.2091 15 16 15H14.5M14.9096 7.15043C14.5201 5.34939 12.9176 4 11 4C9.09985 4 7.50915 5.32493 7.10135 7.10135M7.10135 7.10135C5.32493 7.50915 4 9.09985 4 11C4 13.2091 5.79086 15 8 15H9.5M9.5 15L8.55486 17.3629C8.52858 17.4285 8.57696 17.5 8.6477 17.5H10.3382C10.4125 17.5 10.4609 17.5782 10.4276 17.6447L9.5 19.5M9.5 15H14.5M14.5 15L13.0724 17.8553C13.0391 17.9218 13.0875 18 13.1618 18H15.3234C15.4011 18 15.4491 18.0848 15.4091 18.1514L14 20.5" stroke="black" stroke-width="1.5" stroke-linecap="round"/>
</svg>
