<svg width="24" height="24" viewBox="0 0 24 24" fill="none" xmlns="http://www.w3.org/2000/svg">
<path d="M17.6842 11.9998L17.9903 10.5459C17.9967 10.5152 18 10.484 18 10.4526C18 10.2025 17.7973 9.99978 17.5472 9.99978H3.45285C3.20275 9.99978 3 10.2025 3 10.4526C3 10.484 3.00326 10.5152 3.00971 10.5459L4.49853 17.6178C4.79079 19.006 6.01552 19.9998 7.43418 19.9998H13.9562C15.1473 19.9998 16.1757 19.1654 16.4211 17.9998M17.6842 11.9998H18C19.6569 11.9998 21 13.3429 21 14.9998C21 16.6566 19.6569 17.9998 18 17.9998H16.4211M17.6842 11.9998L16.4211 17.9998M4.36435 3.75586L4.89996 4.13236C5.19931 4.34278 5.33592 4.67614 5.3146 4.99975C5.29458 5.30368 5.13523 5.59902 4.84055 5.77583C4.52408 5.96572 4.36219 6.29465 4.36435 6.62434C4.36618 6.90437 4.48636 7.18495 4.73068 7.38135L5.3146 7.85072M10.3146 7.85072L9.73068 7.38134C9.1987 6.95372 9.25528 6.12699 9.84055 5.77583C10.1352 5.59902 10.2946 5.30368 10.3146 4.99975C10.3359 4.67614 10.1993 4.34278 9.89996 4.13236L9.36435 3.75586M15.3146 7.85072L14.7307 7.38135C14.4864 7.18495 14.3662 6.90437 14.3643 6.62434C14.3622 6.29465 14.5241 5.96571 14.8406 5.77583C15.1352 5.59902 15.2946 5.30368 15.3146 4.99975C15.3359 4.67614 15.1993 4.34278 14.9 4.13236L14.3643 3.75586" stroke="black" stroke-width="1.5" stroke-linecap="round"/>
</svg>
