<svg width="24" height="24" viewBox="0 0 24 24" fill="none" xmlns="http://www.w3.org/2000/svg">
<path d="M17.6842 9L17.9903 7.54614C17.9967 7.51546 18 7.4842 18 7.45285C18 7.20275 17.7973 7 17.5472 7H3.45285C3.20275 7 3 7.20275 3 7.45285C3 7.4842 3.00326 7.51546 3.00971 7.54614L4.49853 14.618C4.79079 16.0063 6.01552 17 7.43418 17H13.9562C15.1473 17 16.1757 16.1656 16.4211 15M17.6842 9H18C19.6569 9 21 10.3431 21 12C21 13.6569 19.6569 15 18 15H16.4211M17.6842 9L16.4211 15" stroke="black" stroke-width="1.5" stroke-linecap="round"/>
</svg>
