<svg width="24" height="24" viewBox="0 0 24 24" fill="none" xmlns="http://www.w3.org/2000/svg">
<path d="M3.50002 17.2376V4.5C3.50002 3.94772 3.94774 3.5 4.50002 3.5H9.00002C9.55231 3.5 10 3.94771 10 4.5V9.4038M3.50002 17.2376V17.25M3.50002 17.2376C3.49987 17.2788 3.50049 17.32 3.50189 17.3612M3.50002 17.2376C3.50014 17.2059 3.50072 17.1742 3.50177 17.1426M3.50002 17.25C3.50002 17.2872 3.50065 17.3243 3.50189 17.3612M3.50002 17.25C3.50002 17.2141 3.50061 17.1782 3.50177 17.1426M3.50189 17.3612C3.51488 17.7475 3.59528 18.1167 3.73169 18.4574M3.50189 17.3612C3.51458 17.7343 3.59118 18.1056 3.73169 18.4574M3.73169 18.4574C4.21097 19.6545 5.38175 20.5 6.75002 20.5H19.5C20.0523 20.5 20.5 20.0523 20.5 19.5V15C20.5 14.4477 20.0523 14 19.5 14H14.5962M3.73169 18.4574C3.89031 18.8545 4.13038 19.2266 4.4519 19.5481M3.50177 17.1426C3.51458 16.748 3.59773 16.3712 3.7391 16.0243M3.50177 17.1426C3.51429 16.7617 3.5934 16.3826 3.7391 16.0243M3.7391 16.0243C4.22295 14.8369 5.38875 14 6.75002 14H14.5962M3.7391 16.0243C3.89775 15.6341 4.13535 15.2685 4.4519 14.9519L10 9.4038M14.5962 14L18.0637 10.5325C18.4542 10.142 18.4542 9.50882 18.0637 9.11829L14.8817 5.93631C14.4912 5.54579 13.858 5.54579 13.4675 5.93631L10 9.4038M7.50002 17.25C7.50002 16.8358 7.16424 16.5 6.75002 16.5C6.33581 16.5 6.00002 16.8358 6.00002 17.25C6.00002 17.6642 6.33581 18 6.75002 18C7.16424 18 7.50002 17.6642 7.50002 17.25Z" stroke="black" stroke-width="1.5" stroke-linecap="round"/>
</svg>
