<svg width="24" height="24" viewBox="0 0 24 24" fill="none" xmlns="http://www.w3.org/2000/svg">
<path d="M15 4.5H9C5.68629 4.5 3 7.18629 3 10.5C3 13.8137 5.68629 16.5 9 16.5H12.2792C12.7097 16.5 13.0946 16.7764 13.3207 17.1427C13.8412 17.9862 15.0815 19.3742 17.6463 19.492C17.8413 19.5009 18 19.3417 18 19.1464C18 19.0527 17.9618 18.9635 17.8997 18.8933C17.3702 18.2938 17.1523 17.4526 17.0627 16.862C16.9991 16.4429 17.2712 16.0715 17.6513 15.8839C19.6352 14.9051 21 12.8619 21 10.5C21 7.18629 18.3137 4.5 15 4.5Z" stroke="black" stroke-width="1.5" stroke-linecap="round"/>
</svg>
