<svg width="24" height="24" viewBox="0 0 24 24" fill="none" xmlns="http://www.w3.org/2000/svg">
<path d="M9.20709 5.79274L11.2929 3.70695C11.6834 3.31643 12.3166 3.31643 12.7071 3.70696L14.7929 5.79275C15.1834 6.18327 15.1834 6.81643 14.7929 7.20695L12.7071 9.29274C12.3166 9.68327 11.6834 9.68327 11.2929 9.29275L9.20709 7.20696C8.81656 6.81643 8.81656 6.18326 9.20709 5.79274Z" stroke="black" stroke-width="1.5" stroke-linecap="round"/>
<path d="M9.20708 16.7927L11.2929 14.707C11.6834 14.3164 12.3166 14.3164 12.7071 14.707L14.7929 16.7927C15.1834 17.1833 15.1834 17.8164 14.7929 18.207L12.7071 20.2927C12.3166 20.6833 11.6834 20.6833 11.2929 20.2927L9.20709 18.207C8.81656 17.8164 8.81656 17.1833 9.20708 16.7927Z" stroke="black" stroke-width="1.5" stroke-linecap="round"/>
<path d="M3.70708 11.2927L5.79286 9.20696C6.18339 8.81643 6.81655 8.81643 7.20708 9.20696L9.29286 11.2927C9.68339 11.6833 9.68339 12.3164 9.29287 12.707L7.20708 14.7927C6.81655 15.1833 6.18339 15.1833 5.79287 14.7927L3.70708 12.707C3.31655 12.3164 3.31655 11.6833 3.70708 11.2927Z" stroke="black" stroke-width="1.5" stroke-linecap="round"/>
<path d="M14.7071 11.2927L16.7929 9.20696C17.1834 8.81643 17.8166 8.81643 18.2071 9.20696L20.2929 11.2927C20.6834 11.6833 20.6834 12.3164 20.2929 12.707L18.2071 14.7927C17.8166 15.1833 17.1834 15.1833 16.7929 14.7927L14.7071 12.707C14.3166 12.3164 14.3166 11.6833 14.7071 11.2927Z" stroke="black" stroke-width="1.5" stroke-linecap="round"/>
</svg>
