<svg width="24" height="24" viewBox="0 0 24 24" fill="none" xmlns="http://www.w3.org/2000/svg">
<path d="M21 12H19M21 12C21 14.4853 19.9926 16.7353 18.364 18.364M21 12C21 9.51472 19.9926 7.26472 18.364 5.63604M3 12H5M3 12C3 9.51472 4.00736 7.26472 5.63604 5.63604M3 12C3 14.4853 4.00736 16.7353 5.63604 18.364M12 3V5M12 3C14.4853 3 16.7353 4.00736 18.364 5.63604M12 3C9.51472 3 7.26472 4.00736 5.63604 5.63604M12 21V19M12 21C14.4853 21 16.7353 19.9926 18.364 18.364M12 21C9.51472 21 7.26472 19.9926 5.63604 18.364M18.364 18.364L17 17M18.364 5.63604L17 7M5.63604 5.63604L7 7M5.63604 18.364L7 17M13.6766 12.968C13.6187 13.0682 13.5435 13.1583 13.4536 13.2338L9.46061 16.5863C9.38909 16.6464 9.28159 16.5843 9.29783 16.4923L10.2047 11.3581C10.2251 11.2424 10.2656 11.1322 10.3234 11.032M13.6766 12.968C13.7344 12.8678 13.7749 12.7576 13.7953 12.6419L14.7022 7.50767C14.7184 7.4157 14.6109 7.35364 14.5394 7.41369L10.5464 10.7662C10.4565 10.8417 10.3813 10.9318 10.3234 11.032M13.6766 12.968L12 12L10.3234 11.032" stroke="black" stroke-width="1.5" stroke-linecap="round"/>
</svg>
