<svg width="24" height="24" viewBox="0 0 24 24" fill="none" xmlns="http://www.w3.org/2000/svg">
<path d="M16.5 17.5C15 18.5 15 18 14 17.5C12.7351 16.8675 12.4444 18.5 12 17.5C11.1111 15.5 9.5 15.5 9.5 18.5M7.5 13H15.5M7.5 10.5H15.5M7.5 8H11.5M18.9102 8C18.9688 8.12885 19 8.26992 19 8.41421V20C19 20.5523 18.5523 21 18 21H6C5.44772 21 5 20.5523 5 20V4C5 3.44772 5.44772 3 6 3H13.5858C13.7301 3 13.8712 3.03118 14 3.08982M18.9102 8C18.861 7.89201 18.7926 7.79261 18.7071 7.70711L14.2929 3.29289C14.2074 3.20739 14.108 3.13896 14 3.08982M18.9102 8H15C14.4477 8 14 7.55228 14 7V3.08982" stroke="black" stroke-width="1.5" stroke-linecap="round"/>
</svg>
