<svg width="24" height="24" viewBox="0 0 24 24" fill="none" xmlns="http://www.w3.org/2000/svg">
<path d="M12.5 12H21M21 12C21 10.961 20.8239 9.96308 20.5 9.03451M21 12C21 13.0519 20.8195 14.0617 20.4879 15M20.5 9.03451H12.5M20.5 9.03451C20.1053 7.90306 19.4911 6.87454 18.7083 6M18.7083 6C17.0604 4.15875 14.6655 3 12 3C7.02944 3 3 7.02944 3 12C3 16.9706 7.02944 21 12 21C14.6655 21 17.0604 19.8412 18.7083 18M18.7083 6H12.5M20.4879 15H12.5M20.4879 15C20.0928 16.1179 19.4831 17.1344 18.7083 18M18.7083 18H12.5" stroke="black" stroke-width="1.5" stroke-linecap="round"/>
</svg>
