<svg width="24" height="24" viewBox="0 0 24 24" fill="none" xmlns="http://www.w3.org/2000/svg">
<path d="M8 5V4.5C8 3.94772 8.44772 3.5 9 3.5H15.0858C15.351 3.5 15.6054 3.60536 15.7929 3.79289L19.2071 7.20711C19.3946 7.39464 19.5 7.649 19.5 7.91421V16.5C19.5 17.0523 19.0523 17.5 18.5 17.5H18M5.5 20.5H14.5C15.0523 20.5 15.5 20.0523 15.5 19.5V11.9142C15.5 11.649 15.3946 11.3946 15.2071 11.2071L11.7929 7.79289C11.6054 7.60536 11.351 7.5 11.0858 7.5H5.5C4.94772 7.5 4.5 7.94772 4.5 8.5V19.5C4.5 20.0523 4.94772 20.5 5.5 20.5Z" stroke="black" stroke-width="1.5" stroke-linecap="round"/>
</svg>
