<svg width="24" height="24" viewBox="0 0 24 24" fill="none" xmlns="http://www.w3.org/2000/svg">
<path d="M12 20.5C14.4947 19.1141 15.4028 16.3279 14.7245 13.9225M12 20.5C10.6375 19.743 9.74822 18.5684 9.33223 17.2662C8.98657 16.1842 8.96766 15.0141 9.2755 13.9225M12 20.5C15.4049 21.4728 18.6069 19.1939 19.2002 16.0692M12 20.5C8.59515 21.4728 5.39306 19.1939 4.79976 16.0692M14.7245 13.9225C14.3809 12.7041 13.6303 11.5834 12.4727 10.7918C12.1875 10.5968 11.8126 10.5967 11.5274 10.7918C11.0042 11.1495 10.5641 11.5745 10.2072 12.0453C9.77955 12.6095 9.47125 13.2395 9.28231 13.8986L9.2755 13.9225M14.7245 13.9225C15.829 13.3039 17.1522 13.0422 18.5305 13.3011C18.8701 13.3648 19.1351 13.6299 19.1989 13.9694C19.3347 14.6924 19.3273 15.4002 19.2002 16.0692M9.2755 13.9225C8.17102 13.3039 6.8478 13.0422 5.4695 13.3011C5.12994 13.3648 4.86484 13.6299 4.80107 13.9694C4.66529 14.6924 4.67272 15.4002 4.79976 16.0692M7.36674 6.61688C4.87287 7.13925 3 9.35091 3 12C3 13.6127 3.69406 15.0632 4.79976 16.0692M7.36674 6.61688C8.11049 4.78879 9.90474 3.5 12 3.5C14.0953 3.5 15.8895 4.78879 16.6333 6.61688M7.36674 6.61688C7.92947 6.51302 9.17662 6.50145 10.5 7.20186M16.6333 6.61688C19.1271 7.13925 21 9.35091 21 12C21 13.6127 20.3059 15.0632 19.2002 16.0692M16.6333 6.61688C16.0705 6.51302 14.8234 6.50145 13.5 7.20186" stroke="black" stroke-width="1.5" stroke-linecap="round"/>
</svg>
