<svg width="24" height="24" viewBox="0 0 24 24" fill="none" xmlns="http://www.w3.org/2000/svg">
<path d="M15.5 8.5L8.5 15.5M9.5 8C10.3284 8 11 8.67157 11 9.5C11 10.3284 10.3284 11 9.5 11C8.67157 11 8 10.3284 8 9.5C8 8.67157 8.67157 8 9.5 8ZM14.5 13C15.3284 13 16 13.6716 16 14.5C16 15.3284 15.3284 16 14.5 16C13.6716 16 13 15.3284 13 14.5C13 13.6716 13.6716 13 14.5 13ZM3.58579 15.4142L3.2929 15.7071C3.10536 15.8946 3 16.149 3 16.4142L3 18C3 18.5523 3.44771 19 4 19H20C20.5523 19 21 18.5523 21 18L21 16.4142C21 16.149 20.8946 15.8946 20.7071 15.7071L20.4142 15.4142C19.5087 14.5087 19 13.2806 19 12C19 10.7194 19.5087 9.49129 20.4142 8.58579L20.7071 8.29289C20.8946 8.10536 21 7.851 21 7.58579V6C21 5.44772 20.5523 5 20 5H4C3.44772 5 3 5.44772 3 6V7.58579C3 7.851 3.10536 8.10536 3.2929 8.29289L3.58579 8.58579C4.4913 9.49129 5 10.7194 5 12C5 13.2806 4.49129 14.5087 3.58579 15.4142Z" stroke="black" stroke-width="1.5" stroke-linecap="round"/>
</svg>
