<svg width="24" height="24" viewBox="0 0 24 24" fill="none" xmlns="http://www.w3.org/2000/svg">
<path d="M19 7.5V6C19 5.44772 18.5523 5 18 5L16.5 5M19 7.5H21M19 7.5V10.5M19 10.5H21M19 10.5V13.5M19 13.5V16.5M19 13.5H21M19 16.5V18C19 18.5523 18.5523 19 18 19H16.5M19 16.5H21M7.5 5H6C5.44772 5 5 5.44772 5 6V7.5M7.5 5H10.5M7.5 5V3M10.5 5H13.5M10.5 5V3M13.5 5L16.5 5M13.5 5V3M16.5 5V3M16.5 19H13.5M16.5 19V21M13.5 19H10.5M13.5 19V21M10.5 19H7.5M10.5 19V21M7.5 19H6C5.44772 19 5 18.5523 5 18V16.5M7.5 19V21M5 16.5V13.5M5 16.5H3M5 13.5V10.5M5 13.5H3M5 10.5V7.5M5 10.5H3M5 7.5H3M8 9V15C8 15.5523 8.44772 16 9 16H15C15.5523 16 16 15.5523 16 15V9C16 8.44772 15.5523 8 15 8H9C8.44772 8 8 8.44772 8 9Z" stroke="black" stroke-width="1.5" stroke-linecap="round"/>
</svg>
