<svg width="24" height="24" viewBox="0 0 24 24" fill="none" xmlns="http://www.w3.org/2000/svg">
<path d="M20.0003 11C20.0003 6.58172 16.4185 3 12.0003 3C9.36946 3 7.03525 4.26988 5.57717 6.23012M5.57717 6.23012L5.50027 2M5.57717 6.23012H10.0003M4 13C4 17.4183 7.58172 21 12 21C14.6308 21 16.965 19.7301 18.4231 17.7699M18.4231 17.7699L18.5 22M18.4231 17.7699H14M9.5 11V13M9.5 11H8.5M9.5 11H12M9.5 11C9.5 9.61929 10.6193 8.5 12 8.5C13.2095 8.5 14.2184 9.35888 14.45 10.5M9.5 13H8.5M9.5 13H12M9.5 13C9.5 14.3807 10.6193 15.5 12 15.5C13.2095 15.5 14.2184 14.6411 14.45 13.5" stroke="black" stroke-width="1.5" stroke-linecap="round"/>
</svg>
