<svg width="24" height="24" viewBox="0 0 24 24" fill="none" xmlns="http://www.w3.org/2000/svg">
<path d="M21 9V7.5C21 6.39543 20.1046 5.5 19 5.5H5C3.89543 5.5 3 6.39543 3 7.5V9M21 9H3M21 9V13.9996M3 9V16.5C3 17.6046 3.89543 18.5 5 18.5H13.0247M16 18L17.4293 19.4293C17.4683 19.4683 17.5317 19.4683 17.5707 19.4293L20 17M21 13.9996C20.1643 13.3719 19.1256 13 18 13C15.2386 13 13 15.2386 13 18C13 18.1687 13.0084 18.3355 13.0247 18.5M21 13.9996C22.2144 14.9118 23 16.3642 23 18C23 20.7614 20.7614 23 18 23C15.4073 23 13.2755 21.0267 13.0247 18.5" stroke="black" stroke-width="1.5" stroke-linecap="round"/>
</svg>
