<svg width="24" height="24" viewBox="0 0 24 24" fill="none" xmlns="http://www.w3.org/2000/svg">
<path d="M3 17.0002V10.0416C3 10.0151 3.01054 9.98967 3.02929 9.97092L5.92929 7.07092C5.96834 7.03187 6.03166 7.03187 6.07071 7.07092L8.92929 9.9295C8.96834 9.96855 9.03166 9.96855 9.07071 9.9295L11.9293 7.07079C11.9683 7.03174 12.0317 7.03174 12.0707 7.07079L14.9293 9.9295C14.9683 9.96855 15.0317 9.96855 15.0707 9.9295L17.9293 7.07092C17.9683 7.03187 18.0317 7.03187 18.0707 7.07092L20.9707 9.97092C20.9895 9.98967 21 10.0151 21 10.0416V17.0002C21 17.5525 20.5523 18.0002 20 18.0002H4C3.44772 18.0002 3 17.5525 3 17.0002Z" stroke="black" stroke-width="1.5"/>
</svg>
