<svg width="24" height="24" viewBox="0 0 24 24" fill="none" xmlns="http://www.w3.org/2000/svg">
<path fill-rule="evenodd" clip-rule="evenodd" d="M3 10.0416V17.0002C3 17.5525 3.44772 18.0002 4 18.0002H20C20.5523 18.0002 21 17.5525 21 17.0002V10.0416C21 10.0151 20.9895 9.98967 20.9707 9.97092L18.0707 7.07092C18.0317 7.03187 17.9683 7.03187 17.9293 7.07092L15.0707 9.9295C15.0317 9.96855 14.9683 9.96855 14.9293 9.9295L12.0707 7.07079C12.0317 7.03174 11.9683 7.03174 11.9293 7.07079L9.07071 9.9295C9.03166 9.96855 8.96834 9.96855 8.92929 9.9295L6.07071 7.07092C6.03166 7.03187 5.96834 7.03187 5.92929 7.07092L3.02929 9.97092C3.01054 9.98967 3 10.0151 3 10.0416ZM10.25 13.7501C10.25 14.7166 11.0335 15.5001 12 15.5001C12.9665 15.5001 13.75 14.7166 13.75 13.7501C13.75 12.7836 12.9665 12.0001 12 12.0001C11.0335 12.0001 10.25 12.7836 10.25 13.7501Z" stroke="black" stroke-width="1.5"/>
</svg>
