<svg width="24" height="24" viewBox="0 0 24 24" fill="none" xmlns="http://www.w3.org/2000/svg">
<path d="M19.5 15.3672C20.3284 15.3672 21 16.0388 21 16.8672C21 17.6956 20.3284 18.3672 19.5 18.3672C18.6716 18.3672 18 17.6956 18 16.8672C18 16.5441 18.1021 16.2449 18.2759 16.0001C18.5476 15.6171 18.9946 15.3672 19.5 15.3672ZM19.5 15.3672V14.3672C19.5 13.8149 19.0523 13.3672 18.5 13.3672H17M4.5 15.3674C3.67157 15.3674 3 16.0389 3 16.8674C3 17.6958 3.67157 18.3674 4.5 18.3674C5.32843 18.3674 6 17.6958 6 16.8674C6 16.5443 5.89787 16.2451 5.72413 16.0003C5.45235 15.6173 5.00536 15.3674 4.5 15.3674ZM4.5 15.3674V14.3672C4.5 13.8149 4.94772 13.3672 5.5 13.3672H7M7 9H4C3.44772 9 3 8.55228 3 8V7C3 5.89543 3.89543 5 5 5H5.58696C6.16173 5 6.70296 5.27062 7.04783 5.73043L7.25 6C7.72214 6.62951 8.46311 7 9.25 7H20C20.5523 7 21 7.44774 21 8.00003C21 8.5523 20.5523 9 20 9H17M7 9L12 11.1836M7 9H17M17 13.3672L12 11.1836M17 13.3672H7M12 11.1836L17 9M12 11.1836L7 13.3672" stroke="black" stroke-width="1.5" stroke-linecap="round"/>
</svg>
