<svg width="24" height="24" viewBox="0 0 24 24" fill="none" xmlns="http://www.w3.org/2000/svg">
<path d="M10 7V5.5C10 4.94772 10.4477 4.5 11 4.5H16.5858C16.851 4.5 17.1054 4.60536 17.2929 4.79289L20.7071 8.20711C20.8946 8.39464 21 8.649 21 8.91421V18.5C21 19.0523 20.5523 19.5 20 19.5H11C10.4477 19.5 10 19.0523 10 18.5V16.5M14 8L10 12M10 12L14 16M10 12L6.41421 15.5858M10 12L6.41421 8.41422M3 7C3 8.10457 3.89543 9 5 9C6.10457 9 7 8.10457 7 7C7 5.89544 6.10457 5 5 5C3.89543 5 3 5.89544 3 7ZM3 17C3 18.1046 3.89543 19 5 19C6.10457 19 7 18.1046 7 17C7 15.8954 6.10457 15 5 15C3.89543 15 3 15.8954 3 17Z" stroke="black" stroke-width="1.5" stroke-linecap="round"/>
</svg>
