<svg width="24" height="24" viewBox="0 0 24 24" fill="none" xmlns="http://www.w3.org/2000/svg">
<path d="M20.5 18.5L20.5 13M20.5 13L20.5 6.10003C20.5 6.0448 20.4552 6.00202 20.4014 6.01414C19.9924 6.10612 18.4436 6.79757 18.2665 11.9956C18.2477 12.5476 18.6977 13.0001 19.25 13L20.5 13ZM3 6.00003V9.50008C3 10.3285 3.67157 11.0001 4.5 11.0001M6 6V9.50002C6 10.3285 5.32844 11 4.5 11.0001M4.5 18.475V11.0001M12 7.50006C14.4853 7.50006 16.5 9.51477 16.5 12.0001C16.5 14.4853 14.4853 16.5001 12 16.5001C9.51472 16.5001 7.5 14.4853 7.5 12.0001C7.5 9.51477 9.51472 7.50006 12 7.50006Z" stroke="black" stroke-width="1.5" stroke-linecap="round"/>
</svg>
