<svg width="24" height="24" viewBox="0 0 24 24" fill="none" xmlns="http://www.w3.org/2000/svg">
<path d="M12 8.5C10.6193 8.5 9.49999 7.38071 9.49999 6C9.49999 4.61929 10.6193 3.5 12 3.5C13.3807 3.5 14.5 4.61929 14.5 6C14.5 7.38071 13.3807 8.5 12 8.5ZM12 8.5V15M12 8.5L13.5245 10.3294C14.0114 10.9137 14.9234 10.8649 15.3452 10.2321L15.4223 10.1165C15.7845 9.57323 16.4108 9.33344 17 9.42696C17.1723 9.45432 17.3415 9.51019 17.5 9.59532M12 8.5L10.3202 10.5158C9.93334 10.98 9.19727 10.8946 8.92704 10.3541L8.8804 10.2608C8.52217 9.54436 7.71381 9.23325 7 9.4471M12 15L11.0513 17.8461C11.0173 17.948 11 18.0548 11 18.1623L11 21.5M12 15L14.0901 15.836C14.3512 15.9405 14.5563 16.1501 14.655 16.4134L15.8125 19.5" stroke="black" stroke-width="1.5" stroke-linecap="round"/>
</svg>
