<svg width="24" height="24" viewBox="0 0 24 24" fill="none" xmlns="http://www.w3.org/2000/svg">
<path d="M20 9C20 11.7614 16.4183 14 12 14C7.58172 14 4 11.7614 4 9M20 9C20 6.23858 16.4183 4 12 4C7.58172 4 4 6.23858 4 9M20 9V12M4 9V12M4 12C4 14.7614 7.58172 17 12 17C12.3766 17 12.7472 16.9837 13.11 16.9523M4 12V15C4 17.7614 7.58172 20 12 20C12.4721 20 12.9346 19.9744 13.3842 19.9254M20 12V13.416M20 12C20 12.4516 19.9042 12.8892 19.7246 13.3054M23 18C23 20.7614 20.7614 23 18 23M23 18C23 15.9497 21.7659 14.1876 20 13.416M23 18C23 15.2386 20.7614 13 18 13M18 23C15.9209 23 14.1383 21.7311 13.3842 19.9254M18 23C15.2386 23 13 20.7614 13 18M20 13.416C19.9096 13.3765 19.8177 13.3396 19.7246 13.3054M18 13C18.6061 13 19.187 13.1078 19.7246 13.3054M18 13C15.5979 13 13.5915 14.6938 13.11 16.9523M18 13C15.2386 13 13 15.2386 13 18M13.11 16.9523C13.0379 17.2901 13 17.6406 13 18M13 18C13 18.6824 13.1367 19.3328 13.3842 19.9254M15.5 18H20.5" stroke="black" stroke-width="1.5" stroke-linecap="round"/>
</svg>
