<svg width="24" height="24" viewBox="0 0 24 24" fill="none" xmlns="http://www.w3.org/2000/svg">
<path d="M7.5 11V13M7.5 11C7.5 9.89543 8.39543 9 9.5 9M7.5 11C6.67157 11 6 10.3284 6 9.5V6M7.5 13V15M7.5 13H6.69857C5.64478 13 4.66826 12.4471 4.12609 11.5435L3.5 10.5M7.5 15V16.5C7.5 18.9853 9.51472 21 12 21C12.6229 21 13.2163 20.8734 13.7558 20.6446M7.5 15C5.87828 16.2974 4.72721 18.0912 4.22351 20.106L4 21M9.5 9V7.5C9.5 6.68214 9.89273 5.956 10.4999 5.4999M9.5 9H14.5M14.5 9V7.5C14.5 6.68214 14.1073 5.956 13.5001 5.4999M14.5 9C15.6046 9 16.5 9.89543 16.5 11M18 6V9.5C18 10.3284 17.3284 11 16.5 11M16.5 13V11M16.5 13H17.3014C18.3552 13 19.3317 12.4471 19.8739 11.5435L20.5 10.5M16.5 13V13.2289M13.5001 5.4999C13.0823 5.186 12.5628 5 12 5C11.4372 5 10.9177 5.186 10.4999 5.4999M13.5001 5.4999L15.5 3.5M10.4999 5.4999L8.5 3.5M18.9142 18.9142C18.5523 19.2761 18.0523 19.5 17.5 19.5C16.3954 19.5 15.5 18.6046 15.5 17.5C15.5 16.3954 16.3954 15.5 17.5 15.5C18.6046 15.5 19.5 16.3954 19.5 17.5C19.5 18.0523 19.2761 18.5523 18.9142 18.9142ZM18.9142 18.9142L20 20M16.5 13.2289C16.9735 13.0802 17.4774 13 18 13C20.7614 13 23 15.2386 23 18C23 20.7614 20.7614 23 18 23C16.2096 23 14.639 22.059 13.7558 20.6446M16.5 13.2289C14.4714 13.866 13 15.7612 13 18C13 18.971 13.2768 19.8774 13.7558 20.6446" stroke="black" stroke-width="1.5" stroke-linecap="round"/>
</svg>
