<svg width="24" height="24" viewBox="0 0 24 24" fill="none" xmlns="http://www.w3.org/2000/svg">
<path d="M16.4998 18.25C16.4998 17.2835 17.2833 16.5 18.2498 16.5C19.2163 16.5 19.9998 17.2835 19.9998 18.25M16.4998 18.25C16.4998 19.2165 17.2833 20 18.2498 20C19.2163 20 19.9998 19.2165 19.9998 18.25M16.4998 18.25H14.4998M9.4998 18.25C9.4998 19.2165 8.7163 20 7.7498 20C6.7833 20 5.9998 19.2165 5.9998 18.25M9.4998 18.25C9.4998 17.2835 8.7163 16.5 7.7498 16.5C6.7833 16.5 5.9998 17.2835 5.9998 18.25M9.4998 18.25L14.4998 18.25M5.9998 18.25L3.66892 18.25C3.05483 18.25 2.58582 17.7017 2.68099 17.095L3.40185 12.5M19.9998 18.25L20.4998 18.25C21.0521 18.25 21.4998 17.8023 21.4998 17.25V14.8028C21.4998 14.6054 21.4414 14.4123 21.3319 14.2481L19.7967 11.9453C19.6112 11.6671 19.299 11.5 18.9646 11.5H15.5383M4.90186 5.5H15.3269C15.9424 5.5 16.4117 6.0506 16.3143 6.65827L15.5383 11.5M14.4998 18.25L15.5383 11.5M7.99999 8H3.40186M6.99999 10.5H2.40186" stroke="black" stroke-width="1.5" stroke-linecap="round"/>
</svg>
