<svg width="24" height="24" viewBox="0 0 24 24" fill="none" xmlns="http://www.w3.org/2000/svg">
<path d="M18.364 5.63604C16.7353 4.00736 14.4853 3 12 3C7.02944 3 3 7.02944 3 12C3 14.4853 4.00736 16.7353 5.63604 18.364M18.364 5.63604C19.623 6.89512 20.5108 8.52551 20.8489 10.3489M18.364 5.63604L20 4M18.364 5.63604L5.63604 18.364M20.8489 10.3489C20.9481 10.8841 21 11.436 21 12C21 16.9706 16.9706 21 12 21C11.436 21 10.8841 20.9481 10.3489 20.8489M20.8489 10.3489L20.5 10M20.8489 10.3489L20.8503 10.3502M13 17.5L13.5 18M11.5 19L12 19.5M16 14.5L16.5 15M14.5 16L15 16.5M19 11.5L19.5 12M17.5 13L18 13.5M15.5 18.5L16 19M14 20L14.5 20.5M18.5 15.5L19 16M17 17L17.5 17.5M20 14L20.5 14.5M12 15L12.5 15.5M10.5 16.5L11 17M15 12L15.5 12.5M13.5 13.5L14 14M16.5 10.5L17 11M9 18L9.5 18.5M7.5 19.5L8 20M18 9L18.5 9.5M19.5 7.5L20 8M5.63604 18.364L4 20M5.63604 18.364C6.89512 19.623 8.52551 20.5108 10.3489 20.8489M10 20.5L10.3489 20.8489" stroke="black" stroke-width="1.5" stroke-linecap="round"/>
</svg>
