<svg width="24" height="24" viewBox="0 0 24 24" fill="none" xmlns="http://www.w3.org/2000/svg">
<path d="M8.99998 14H3.99997C3.44769 14 2.99997 13.5523 2.99997 13L2.99994 6.50001C2.99994 5.94772 3.44765 5.5 3.99994 5.5H13.9999C14.5522 5.5 14.9999 5.94772 14.9999 6.5V8M8.99998 14V18.5M8.99998 14H11M8.99998 18.5H4.99998M8.99998 18.5H12M17.9999 10.5H17.4999C16.9477 10.5 16.4999 10.9477 16.4999 11.5L16.5 17.5C16.5 18.0523 16.9477 18.5 17.5 18.5M17.9999 10.5H19.9999C20.5522 10.5 20.9999 10.9477 20.9999 11.5L21 17.5C21 18.0523 20.5523 18.5 20 18.5H17.5M17.9999 10.5V9C17.9999 8.44772 17.5522 8 16.9999 8H14.9999M12 18.5C11.4477 18.5 11 18.0523 11 17.5V14M12 18.5H17.5M14.9999 8H11.9999C11.4477 8 10.9999 8.44772 10.9999 9.00001L11 14" stroke="black" stroke-width="1.5" stroke-linecap="round"/>
</svg>
