<svg width="24" height="24" viewBox="0 0 24 24" fill="none" xmlns="http://www.w3.org/2000/svg">
<path d="M12 5H7.48063C7.32621 5 7.17604 5.03568 7.04077 5.10193M12 5H16.5194C16.6738 5 16.824 5.03568 16.9592 5.10193M12 5L9.00001 10M12 5L15 10M9.00001 10H15M9.00001 10L7.04077 5.10193M9.00001 10H3.31182M9.00001 10L11.8481 19.4936M15 10L16.9592 5.10193M15 10H20.6882M15 10L12.1519 19.4936M7.04077 5.10193C6.90995 5.16601 6.79307 5.25868 6.69976 5.3753L3.53023 9.33722C3.37531 9.53087 3.30295 9.76691 3.31182 10M16.9592 5.10193C17.0901 5.166 17.2069 5.25867 17.3003 5.3753L20.4698 9.33722C20.6247 9.53087 20.6971 9.76691 20.6882 10M20.6882 10C20.6795 10.2271 20.5938 10.4513 20.4322 10.6309L12.7433 19.1741C12.5817 19.3536 12.3714 19.4602 12.1519 19.4936M3.31182 10C3.32047 10.2271 3.4062 10.4513 3.5678 10.6309L11.2567 19.1741C11.4183 19.3536 11.6286 19.4601 11.8481 19.4936M11.8481 19.4936C11.9487 19.509 12.0513 19.509 12.1519 19.4936" stroke="black" stroke-width="1.5" stroke-linecap="round"/>
</svg>
