<svg width="24" height="24" viewBox="0 0 24 24" fill="none" xmlns="http://www.w3.org/2000/svg">
<path d="M9.00006 19V13.5M9.00006 13.5H13.0001M9.00006 13.5H5.00006M11.5001 19V17C11.5001 16.4477 11.9478 16 12.5001 16H15.0001M15.0001 16V11M15.0001 16V19M6.50006 19V17C6.50006 16.4477 6.05235 16 5.50006 16H3.00006M3.00006 16V11M3.00006 16V19M11.5001 7.5V10.4C11.5001 10.4552 11.4553 10.5 11.4001 10.5H6.60006C6.54483 10.5 6.50006 10.4552 6.50006 10.4V7.5C6.50006 6.11929 7.61934 5 9.00006 5C10.3808 5 11.5001 6.11929 11.5001 7.5ZM17.7248 10.8089L18.4741 9.06061C18.4898 9.02384 18.526 9 18.566 9H19.9341C19.9741 9 20.0103 9.02384 20.026 9.06061L20.7 10.6331C21.1832 11.7607 20.9313 13.0688 20.0639 13.9362C20.023 13.9771 19.9676 14 19.9098 14H18.7815C18.6013 14 18.4285 13.9284 18.3011 13.801C17.5153 13.0152 17.2871 11.8303 17.7248 10.8089ZM20.0001 14H18.5001C17.9478 14 17.5001 14.4477 17.5001 15V18C17.5001 18.5523 17.9478 19 18.5001 19H20.0001C20.5523 19 21.0001 18.5523 21.0001 18V15C21.0001 14.4477 20.5523 14 20.0001 14Z" stroke="black" stroke-width="1.5" stroke-linecap="round"/>
</svg>
