<svg width="24" height="24" viewBox="0 0 24 24" fill="none" xmlns="http://www.w3.org/2000/svg">
<path d="M15.9999 8L7.99994 16M8.55984 4.25463L8.03788 4.18081C6.96973 4.02972 5.97424 4.75299 5.78786 5.81554L5.69678 6.33477C5.59019 6.94238 5.20917 7.46681 4.66423 7.75594L4.19856 8.00302C3.24561 8.50863 2.86537 9.6789 3.33913 10.6481L3.57064 11.1217C3.84156 11.6759 3.84156 12.3241 3.57064 12.8783L3.33913 13.3519C2.86537 14.3211 3.24561 15.4914 4.19856 15.997L4.66423 16.2441C5.20917 16.5332 5.59019 17.0576 5.69678 17.6652L5.78786 18.1845C5.97424 19.247 6.96973 19.9703 8.03788 19.8192L8.55984 19.7454C9.17065 19.659 9.78715 19.8593 10.2305 20.2882L10.6094 20.6547C11.3847 21.4048 12.6152 21.4048 13.3906 20.6547L13.7695 20.2882C14.2128 19.8593 14.8293 19.659 15.4402 19.7454L15.9621 19.8192C17.0303 19.9703 18.0257 19.247 18.2121 18.1845L18.3032 17.6652C18.4098 17.0576 18.7908 16.5332 19.3358 16.2441L19.8014 15.997C20.7544 15.4914 21.1346 14.3211 20.6609 13.3519L20.4293 12.8783C20.1584 12.3241 20.1584 11.6759 20.4293 11.1217L20.6609 10.6481C21.1346 9.6789 20.7544 8.50863 19.8014 8.00301L19.3358 7.75594C18.7908 7.46681 18.4098 6.94238 18.3032 6.33477L18.2121 5.81554C18.0257 4.75299 17.0303 4.02972 15.9621 4.18081L15.4402 4.25463C14.8293 4.34103 14.2128 4.14072 13.7695 3.71179L13.3906 3.34527C12.6152 2.5952 11.3847 2.5952 10.6094 3.34527L10.2305 3.71179C9.78715 4.14072 9.17065 4.34103 8.55984 4.25463ZM9 7.50001C9.82842 7.50001 10.5 8.17158 10.5 9.00001C10.5 9.82843 9.82842 10.5 9 10.5C8.17157 10.5 7.5 9.82843 7.5 9.00001C7.5 8.17158 8.17157 7.50001 9 7.50001ZM15 13.5C15.8284 13.5 16.5 14.1716 16.5 15C16.5 15.8284 15.8284 16.5 15 16.5C14.1716 16.5 13.5 15.8284 13.5 15C13.5 14.1716 14.1716 13.5 15 13.5Z" stroke="black" stroke-width="1.5" stroke-linecap="round"/>
</svg>
