<svg width="24" height="24" viewBox="0 0 24 24" fill="none" xmlns="http://www.w3.org/2000/svg">
<path d="M16.4634 4.5L6.58149 4.5C6.20271 4.5 5.85644 4.71401 5.68705 5.0528L4.30507 7.81686C3.57216 9.28269 3.1311 10.8736 3.00277 12.5011C2.95935 13.0517 3.41116 13.5001 3.96344 13.5001L8.10949 13.5001C8.78229 13.5001 9.26313 14.1512 9.06526 14.7942L8.19866 17.6107C7.87511 18.6622 8.53442 19.7253 9.55237 19.9548C9.8111 20.0131 10.0688 19.8948 10.2563 19.7072L16.4634 13.5001M16.4634 4.5L19.9634 4.5C20.5157 4.5 20.9634 4.94772 20.9634 5.5L20.9634 12.5001C20.9634 13.0524 20.5157 13.5001 19.9634 13.5001L16.4634 13.5001M16.4634 4.5L16.4634 13.5001" stroke="black" stroke-width="1.5" stroke-linecap="round"/>
</svg>
