<svg width="24" height="24" viewBox="0 0 24 24" fill="none" xmlns="http://www.w3.org/2000/svg">
<path d="M11.9991 11.9998L11.7174 11.9496C9.23625 11.5068 7.12096 10.1425 5.69453 8.25M11.9991 11.9998L12.1331 12.0242C14.6321 12.4786 16.7682 13.8485 18.2209 15.75M11.9991 11.9998L12.2808 11.9496C14.7619 11.5068 16.8772 10.1425 18.3036 8.25M11.9991 11.9998L11.8651 12.0242C9.36612 12.4786 7.23 13.8485 5.77728 15.75M5.69453 8.25H18.3036M5.69453 8.25C4.86709 7.15217 4.27144 5.87658 3.97064 4.5M18.3036 8.25C19.1311 7.15217 19.7267 5.87658 20.0275 4.5M3.75 2.25C3.73545 3.02057 3.81208 3.77432 3.97064 4.5M3.97064 4.5H20.0275M20.2482 2.25C20.2627 3.02057 20.1861 3.77432 20.0275 4.5M18.2209 15.75H5.77728M18.2209 15.75C19.0594 16.8475 19.6702 18.1221 19.9917 19.5M5.77728 15.75C4.93878 16.8475 4.32795 18.1221 4.00643 19.5M4.00643 19.5C3.83725 20.225 3.74817 20.9786 3.74817 21.75M4.00643 19.5H19.9917M19.9917 19.5C20.1609 20.225 20.25 20.9786 20.25 21.75" stroke="black" stroke-width="1.5" stroke-linecap="round" stroke-linejoin="round"/>
</svg>
