<svg width="24" height="24" viewBox="0 0 24 24" fill="none" xmlns="http://www.w3.org/2000/svg">
<path d="M18 21V20.3247C18 20.2162 17.998 20.108 17.994 20.0002M6 3.00017V3.67562C6 3.78411 6.00199 3.89225 6.00595 4M6 20.9998V20.3246C6 20.2161 6.00199 20.1079 6.00595 20.0002M18 3V3.67545C18 3.78399 17.998 3.89219 17.994 4M17.994 4H6.00595M17.994 4C17.9555 5.04976 17.7304 6.06243 17.3463 7M6.00595 4C6.04452 5.04977 6.26955 6.06244 6.65364 7M17.3463 7H6.65364M17.3463 7C16.9706 7.91718 16.4426 8.76247 15.7881 9.50028M6.65364 7C7.02937 7.91718 7.55733 8.76247 8.21184 9.50028M12 12.0002C13.267 11.5778 14.3882 10.8855 15.3083 10C15.4749 9.83961 15.635 9.67289 15.7881 9.50028M12 12.0002C10.7329 11.5778 9.61173 10.8855 8.69165 10C8.52501 9.83961 8.36496 9.67289 8.21184 9.50028M12 12.0002C13.267 12.4225 14.3882 13.1148 15.3083 14.0003C15.4749 14.1607 15.635 14.3274 15.7881 14.5M12 12.0002C10.7329 12.4225 9.61173 13.1148 8.69165 14.0003C8.525 14.1607 8.36496 14.3274 8.21184 14.5M17.3463 17.0002H6.65364M17.3463 17.0002C17.7304 17.9378 17.9555 18.9504 17.994 20.0002M17.3463 17.0002C16.9706 16.0831 16.4426 15.2378 15.7881 14.5M6.65364 17.0002C6.26955 17.9377 6.04452 18.9504 6.00595 20.0002M6.65364 17.0002C7.02937 16.0831 7.55733 15.2378 8.21184 14.5M17.994 20.0002H6.00595M8.21184 14.5H15.7881M15.7881 9.50028H8.21184" stroke="black" stroke-width="1.5" stroke-linecap="round"/>
</svg>
