<svg width="24" height="24" viewBox="0 0 24 24" fill="none" xmlns="http://www.w3.org/2000/svg">
<path d="M12 20C12.5226 20 13.0265 19.9377 13.5 19.8181C15.5286 19.3053 17 17.7388 17 15.5C17 14.0464 15.974 12.7948 14.5486 12.5097L12 12M12 20C11.4774 20 10.9735 19.9198 10.5 19.7711C8.47145 19.134 7 17.2388 7 15M12 20V21.5M12 20V12M12 4.00001C11.4774 4.00001 10.9735 4.06228 10.5 4.18197C8.47145 4.69471 7 6.26121 7 8.50003C7 9.95367 8.02604 11.2052 9.45146 11.4903L12 12M12 4.00001C12.5226 4.00001 13.0265 4.08019 13.5 4.22891C15.5286 4.86604 17 6.76119 17 9.00001M12 4.00001V12M12 4.00001V2.5" stroke="black" stroke-width="1.5" stroke-linecap="round"/>
</svg>
