<svg width="24" height="24" viewBox="0 0 24 24" fill="none" xmlns="http://www.w3.org/2000/svg">
<path d="M14 19V19.6743C14 20.3386 13.3641 20.8183 12.7253 20.6358L7.72528 19.2072C7.29598 19.0846 7 18.6922 7 18.2457L7 4C7 3.63417 7.19644 3.31422 7.4896 3.13988M14 19V5.7543C14 5.30782 13.704 4.91544 13.2747 4.79278L7.4896 3.13988M14 19H16C16.5523 19 17 18.5523 17 18V4C17 3.44772 16.5523 3 16 3H8C7.81355 3 7.63901 3.05103 7.4896 3.13988M12 13.4286L11 13.1429" stroke="black" stroke-width="1.5" stroke-linecap="round"/>
</svg>
