<svg width="24" height="24" viewBox="0 0 24 24" fill="none" xmlns="http://www.w3.org/2000/svg">
<path d="M10 7L11.9293 5.07071C11.9683 5.03166 12.0317 5.03166 12.0707 5.07071L14 7M10 7L11.9293 8.92929C11.9683 8.96834 12.0317 8.96834 12.0707 8.92929L14 7M10 7H5.5M14 7H16M16 7L17.9293 5.07071C17.9683 5.03166 18.0317 5.03166 18.0707 5.07071L20 7M16 7L17.9293 8.92929C17.9683 8.96834 18.0317 8.96834 18.0707 8.92929L20 7M20 7H21M3 7H3.5M6.5 12L8.42929 10.0707C8.46834 10.0317 8.53166 10.0317 8.57071 10.0707L10.5 12M6.5 12L8.42929 13.9293C8.46834 13.9683 8.53166 13.9683 8.57071 13.9293L10.5 12M6.5 12H5.5M10.5 12H13M13 12L14.9293 10.0707C14.9683 10.0317 15.0317 10.0317 15.0707 10.0707L17 12M13 12L14.9293 13.9293C14.9683 13.9683 15.0317 13.9683 15.0707 13.9293L17 12M17 12H21M3 12H3.5M10 17L11.9293 15.0707C11.9683 15.0317 12.0317 15.0317 12.0707 15.0707L14 17M10 17L11.9293 18.9293C11.9683 18.9683 12.0317 18.9683 12.0707 18.9293L14 17M10 17H5.5M14 17H21M3 17H3.5" stroke="black" stroke-width="1.5" stroke-linecap="round"/>
</svg>
