<svg width="24" height="24" viewBox="0 0 24 24" fill="none" xmlns="http://www.w3.org/2000/svg">
<path d="M5 11.25C5.41421 11.25 5.75 11.5858 5.75 12C5.75 12.4142 5.41421 12.75 5 12.75C4.58579 12.75 4.25 12.4142 4.25 12C4.25 11.5858 4.58579 11.25 5 11.25Z" stroke="black" stroke-width="1.5" stroke-linecap="round"/>
<path d="M12 11.25C12.4142 11.25 12.75 11.5858 12.75 12C12.75 12.4142 12.4142 12.75 12 12.75C11.5858 12.75 11.25 12.4142 11.25 12C11.25 11.5858 11.5858 11.25 12 11.25Z" stroke="black" stroke-width="1.5" stroke-linecap="round"/>
<path d="M18.75 11.25C19.1642 11.25 19.5 11.5858 19.5 12C19.5 12.4142 19.1642 12.75 18.75 12.75C18.3358 12.75 18 12.4142 18 12C18 11.5858 18.3358 11.25 18.75 11.25Z" stroke="black" stroke-width="1.5" stroke-linecap="round"/>
</svg>
