<svg width="24" height="24" viewBox="0 0 24 24" fill="none" xmlns="http://www.w3.org/2000/svg">
<path d="M9.00001 18L8.00001 17M9.00001 18L11 16M9.00001 18L3.81039 20.8307C3.62638 20.9311 3.39823 20.8982 3.25001 20.75C3.10179 20.6018 3.06894 20.3736 3.16931 20.1896L5.93105 15.1264C5.97679 15.0426 6.0343 14.9657 6.10184 14.8982L11.2071 9.79289C11.3947 9.60536 11.5 9.351 11.5 9.08579V8.24264C11.5 7.44699 11.8161 6.68393 12.3787 6.12132L14.6213 3.87868C15.1839 3.31607 15.9544 3 16.75 3C17.5457 3 18.3161 3.31607 18.8787 3.87868L20.1213 5.12132C20.6839 5.68393 21 6.45435 21 7.25C21 8.04565 20.6839 8.81607 20.1213 9.37868L17.8787 11.6213C17.3161 12.1839 16.553 12.5 15.7574 12.5L14.9142 12.5C14.649 12.5 14.3947 12.6053 14.2071 12.7929L13 14M11 16L13 14M11 16L10 15M13 14L12 13" stroke="black" stroke-width="1.5" stroke-linecap="round"/>
</svg>
