<svg width="24" height="24" viewBox="0 0 24 24" fill="none" xmlns="http://www.w3.org/2000/svg">
<path d="M19 12.9998V17.9998C19 19.1044 18.1046 19.9998 17 19.9998H6C4.89543 19.9998 4 19.1044 4 17.9998V6.99985C4 5.89528 4.89543 4.99985 6 4.99985H11M11.2929 15.707L19.7929 7.20696C20.1834 6.81643 20.1834 6.18327 19.7929 5.79274L18.2071 4.20696C17.8166 3.81643 17.1834 3.81643 16.7929 4.20696L8.29289 12.707C8.10536 12.8945 8 13.1488 8 13.4141V14.9998C8 15.5521 8.44772 15.9998 9 15.9998H10.5858C10.851 15.9998 11.1054 15.8945 11.2929 15.707Z" stroke="black" stroke-width="1.5" stroke-linecap="round"/>
</svg>
