<svg width="24" height="24" viewBox="0 0 24 24" fill="none" xmlns="http://www.w3.org/2000/svg">
<path d="M8.5 10.5V11M8.5 10.5C7.11929 10.5 6 9.38071 6 8C6 6.61929 7.11929 5.5 8.5 5.5C9.88071 5.5 11 6.61929 11 8C11 9.38071 9.88071 10.5 8.5 10.5ZM8.5 11V14.5M8.5 11C9.65497 11.5775 10.4091 12.7231 10.4923 14M8.5 11C7.34503 11.5775 6.5909 12.7231 6.50768 14M8.5 14.5L8.2 14.9C7.48865 15.8485 7.07576 16.816 7.00947 18.5M8.5 14.5L8.72666 14.8384C9.38941 15.8277 9.77003 16.813 9.83104 18.5M15.5 6V18M15.5 6L13.5 8M15.5 6L17.5 8M15.5 18L17.5 16M15.5 18L13.5 16M4.5 3.5H19.5C20.0523 3.5 20.5 3.94772 20.5 4.5V19.5C20.5 20.0523 20.0523 20.5 19.5 20.5H4.5C3.94772 20.5 3.5 20.0523 3.5 19.5V4.5C3.5 3.94772 3.94772 3.5 4.5 3.5Z" stroke="black" stroke-width="1.5" stroke-linecap="round"/>
</svg>
