<svg width="24" height="24" viewBox="0 0 24 24" fill="none" xmlns="http://www.w3.org/2000/svg">
<path d="M14 4H10C9.44772 4 9 4.44772 9 5V8.9C9 8.95523 8.95523 9 8.9 9H5C4.44772 9 4 9.44772 4 10V14C4 14.5523 4.44772 15 5 15H8.9C8.95523 15 9 15.0448 9 15.1V19C9 19.5523 9.44772 20 10 20H14C14.5523 20 15 19.5523 15 19V15.1C15 15.0448 15.0448 15 15.1 15H19C19.5523 15 20 14.5523 20 14V10C20 9.44772 19.5523 9 19 9H15.1C15.0448 9 15 8.95523 15 8.9V5C15 4.44772 14.5523 4 14 4Z" stroke="black" stroke-width="1.5" stroke-linecap="round"/>
</svg>
