<svg width="24" height="24" viewBox="0 0 24 24" fill="none" xmlns="http://www.w3.org/2000/svg">
<path d="M9 12.5V14M17 16.9999H19.9C19.9552 16.9999 20 17.0447 20 17.0999V19.8999C20 19.9552 19.9552 19.9999 19.9 19.9999L14.1 19.9999C14.0448 19.9999 14 19.9552 14 19.8999V17.0999C14 17.0447 14.0448 16.9999 14.1 16.9999H17ZM17 16.9999V12M17 9.50001H18C19.1046 9.50001 20 8.60458 20 7.50001V6.50001M17 9.50001V12M17 9.50001V5.50001M17 12H16C14.8954 12 14 11.1046 14 10V9.50001M4 19.0499V5.50001C4 4.94772 4.44771 4.50001 5 4.50001L10.5 4.5C11.0523 4.5 11.5 4.94772 11.5 5.5V19.0077C11.5 19.5569 11.057 20.0034 10.5077 20.0076L5.00768 20.0499C4.45241 20.0541 4 19.6052 4 19.0499Z" stroke="black" stroke-width="1.5" stroke-linecap="round"/>
</svg>
