<svg width="24" height="24" viewBox="0 0 24 24" fill="none" xmlns="http://www.w3.org/2000/svg">
<path d="M10.0002 16.9997L7.5 19.4998C6.67157 20.3283 5.32843 20.3283 4.5 19.4998M10.0002 16.9997L7 13.9998M10.0002 16.9997C10.2763 17.2759 10.7241 17.2759 11.0002 16.9998L12.5001 15.4998M7 13.9998L4.5 16.4998C3.67157 17.3283 3.67157 18.6714 4.5 19.4998M7 13.9998C6.72393 13.7237 6.72396 13.276 7.00007 12.9999L16.2929 3.70696C16.6834 3.31643 17.3166 3.31643 17.7071 3.70696L20.2929 6.29274C20.6834 6.68327 20.6834 7.31643 20.2929 7.70695L16.5001 11.4998M4.5 19.4998L3.5 20.4998M12.5001 15.4998L11.5 14.4998M12.5001 15.4998L14.5001 13.4998M14.5001 13.4998L13.5 12.4998M14.5001 13.4998L16.5001 11.4998M16.5001 11.4998L15.5 10.4998" stroke="black" stroke-width="1.5" stroke-linecap="round"/>
</svg>
