<svg width="24" height="24" viewBox="0 0 24 24" fill="none" xmlns="http://www.w3.org/2000/svg">
<path d="M5.5 3V13.4999M5.5 13.4999H6.58578C6.851 13.4999 7.10536 13.6053 7.2929 13.7928L8.29291 14.7929C8.68342 15.1834 8.68341 15.8166 8.29288 16.2071L7.29289 17.207C7.10536 17.3946 6.85101 17.4999 6.5858 17.4999H5.5M5.5 13.4999L4.49997 13.5C3.9477 13.5 3.5 13.9477 3.5 14.5V16.5C3.5 17.0522 3.94773 17.5 4.50003 17.5L5.5 17.4999M5.5 17.4999V21M11 5H9M11 8.5H9M11 12H9M11 19H9M15.5 3V6.5M15.5 6.5H16.5858C16.851 6.5 17.1054 6.60536 17.2929 6.79289L18.2929 7.79289C18.6834 8.18342 18.6834 8.81658 18.2929 9.20711L17.2929 10.2071C17.1054 10.3946 16.851 10.5 16.5858 10.5H15.5M15.5 6.5L14.5 6.50003C13.9477 6.50005 13.5 6.94776 13.5 7.50003V9.50003C13.5 10.0523 13.9477 10.5 14.5 10.5L15.5 10.5M15.5 10.5V21M21 5H19M21 12H19M21 15.5H19M21 19H19M21 8.5H18.5858M11 15.5H8.58579" stroke="black" stroke-width="1.5" stroke-linecap="round"/>
</svg>
