<svg width="24" height="24" viewBox="0 0 24 24" fill="none" xmlns="http://www.w3.org/2000/svg">
<path d="M16 8V5C16 4.72386 15.8881 4.47386 15.7071 4.29289M16 8H19C19.2761 8 19.5261 8.11193 19.7071 8.29289M16 8V12M16 8H12M8 16H5C4.72386 16 4.47386 15.8881 4.29289 15.7071M8 16V19C8 19.2761 8.11193 19.5261 8.29289 19.7071M8 16H12M8 16V12M16 12V15C16 15.5523 15.5523 16 15 16H12M16 12L19.7071 8.29289M12 16L8.29289 19.7071M12 20H9C8.72386 20 8.47386 19.8881 8.29289 19.7071M12 20H16M12 20L20 12M20 12V9C20 8.72386 19.8881 8.47386 19.7071 8.29289M20 12V16M20 16V19C20 19.5523 19.5523 20 19 20H16M20 16L16 20M12 8H9C8.44772 8 8 8.44772 8 9V12M12 8L15.7071 4.29289M8 12L4.29289 15.7071M8 4H5C4.44772 4 4 4.44772 4 5V8M8 4L4 8M8 4H12M4 8V12M12 4L4 12M12 4H15C15.2761 4 15.5261 4.11193 15.7071 4.29289M4 12V15C4 15.2761 4.11193 15.5261 4.29289 15.7071" stroke="black" stroke-width="1.5" stroke-linecap="round"/>
</svg>
