<svg width="24" height="24" viewBox="0 0 24 24" fill="none" xmlns="http://www.w3.org/2000/svg">
<path d="M14 3.08982V7C14 7.55228 14.4477 8 15 8H18.9102M14 3.08982C13.8712 3.03118 13.7301 3 13.5858 3H6C5.44772 3 5 3.44772 5 4V20C5 20.5523 5.44772 21 6 21H13.9996M14 3.08982C14.108 3.13896 14.2074 3.20739 14.2929 3.29289L18.7071 7.70711C18.7926 7.79261 18.861 7.89201 18.9102 8M18.9102 8C18.9688 8.12885 19 8.26992 19 8.41421V13.1M12 14.5L15.9842 12.5079M12 14.5L8.01578 12.5079M12 14.5V18.4882M15.9842 12.5079C15.9747 12.493 15.9612 12.4806 15.9447 12.4724L12.0447 10.5224C12.0166 10.5083 11.9834 10.5083 11.9553 10.5224L8.05528 12.4724C8.03883 12.4806 8.02532 12.493 8.01578 12.5079M15.9842 12.5079C15.9943 12.5237 16 12.5423 16 12.5618V13.416M8.01578 12.5079C8.00566 12.5237 8 12.5423 8 12.5618V16.4382C8 16.4761 8.0214 16.5107 8.05528 16.5276L11.9553 18.4776C11.9694 18.4847 11.9847 18.4882 12 18.4882M12 18.4882C12.0153 18.4882 12.0306 18.4847 12.0447 18.4776L13 18M13 18C13 15.9497 14.2341 14.1876 16 13.416M13 18C13 19.1256 13.3719 20.1643 13.9996 21M16 13.416C16.6125 13.1484 17.2889 13 18 13C18.3425 13 18.6769 13.0344 19 13.1M19 13.1C21.2822 13.5633 23 15.581 23 18C23 20.7614 20.7614 23 18 23C16.3642 23 14.9118 22.2144 13.9996 21M18 20.5V15.5M18 15.5L20 17.5M18 15.5L16 17.5" stroke="black" stroke-width="1.5" stroke-linecap="round"/>
</svg>
