<svg width="24" height="24" viewBox="0 0 24 24" fill="none" xmlns="http://www.w3.org/2000/svg">
<path d="M12 3L10.5 4.5M12 3L13.5 4.5M12 3V5V10M12 14L9 12.25L6.12505 10.5901M12 14L15 12.25L17.8749 10.5901M12 14L12.0004 17.4924V20.8284M6.12505 10.5901C6.21087 10.4351 6.33779 10.303 6.49613 10.2106L11.4961 7.29392C11.8075 7.1123 12.1925 7.1123 12.5039 7.29392L17.5039 10.2106C17.6622 10.303 17.7891 10.4351 17.8749 10.5901M6.12505 10.5901C6.04436 10.7359 6 10.902 6 11.0744V16.6429V16.9243C6 17.2807 6.18964 17.6101 6.49781 17.7891L11.4985 20.6932C11.6537 20.7833 11.827 20.8283 12.0004 20.8284M17.8749 10.5901C17.9556 10.7359 18 10.902 18 11.0744V16.6429V16.9244C18 17.2807 17.8104 17.6101 17.5023 17.7891L12.503 20.6931C12.3476 20.7833 12.174 20.8284 12.0004 20.8284" stroke="black" stroke-width="1.5" stroke-linecap="round"/>
</svg>
