<svg width="24" height="24" viewBox="0 0 24 24" fill="none" xmlns="http://www.w3.org/2000/svg">
<path d="M14.2191 8.67146C15.2929 9.38873 16 10.6118 16 12C16 14.2092 14.2092 16 12 16C11.1791 16 10.416 15.7527 9.781 15.3286M14.2191 8.67146L14.9948 7.50784M14.2191 8.67146L9.781 15.3286M14.9948 7.50784C17.166 8.13292 19.1704 9.45341 20.637 11.4693C20.8673 11.786 20.8671 12.2144 20.6367 12.5311C17.8519 16.3587 13.1279 17.6791 9.00527 16.4922M14.9948 7.50784L17.6667 3.5M9.781 15.3286L9.00527 16.4922M9.00527 16.4922L6.33338 20.5M11.5 8.03096C9.52689 8.27701 8.00004 9.96021 8.00004 12C8.00004 12.3453 8.0438 12.6804 8.12606 13M12 7.08644C8.74444 7.08644 5.48884 8.54738 3.36318 11.4692C3.1328 11.7859 3.13263 12.2138 3.36299 12.5305C4.24206 13.7389 5.31438 14.6974 6.50004 15.4061" stroke="black" stroke-width="1.5" stroke-linecap="round"/>
</svg>
