<svg width="24" height="24" viewBox="0 0 24 24" fill="none" xmlns="http://www.w3.org/2000/svg">
<path d="M12.8987 8.10135C12.6098 8.03503 12.309 8 12 8C9.79091 8 8.00005 9.79086 8.00005 12C8.00005 12.309 8.03508 12.6098 8.1014 12.8987M12.8987 8.10135C13.6425 8.27209 14.3071 8.6502 14.8285 9.17157M12.8987 8.10135L8.1014 12.8987M14.8285 9.17157C15.3498 9.69294 15.728 10.3576 15.8987 11.1013M14.8285 9.17157L9.17162 14.8284M15.8987 11.1013C15.965 11.3902 16 11.691 16 12C16 14.2091 14.2092 16 12 16C11.6911 16 11.3903 15.965 11.1014 15.8987M15.8987 11.1013L11.1014 15.8987M9.17162 14.8284C9.69299 15.3498 10.3576 15.7279 11.1014 15.8987M9.17162 14.8284C8.65025 14.3071 8.27214 13.6424 8.1014 12.8987M3.36347 12.5311C7.61481 18.3744 16.3853 18.3744 20.6366 12.5311C20.867 12.2145 20.867 11.7855 20.6366 11.4688C16.3853 5.62562 7.61481 5.62562 3.36347 11.4688C3.13308 11.7855 3.13308 12.2145 3.36347 12.5311Z" stroke="black" stroke-width="1.5" stroke-linecap="round"/>
</svg>
