<svg width="24" height="24" viewBox="0 0 24 24" fill="none" xmlns="http://www.w3.org/2000/svg">
<path d="M3 18.9V4.1C3 4.04477 3.04477 4 3.1 4H5.9C5.95523 4 6 4.04477 6 4.1V11.3234C6 11.4011 6.0848 11.4491 6.15145 11.4091L10.8741 8.57557C10.9345 8.53928 11.0126 8.57531 11.0241 8.64488L11.4746 11.3474C11.4865 11.419 11.5683 11.4545 11.6287 11.4142L15.8713 8.58579C15.9317 8.54554 16.0135 8.58098 16.0254 8.65255L16.4746 11.3474C16.4865 11.419 16.5683 11.4545 16.6287 11.4142L20.8445 8.60365C20.911 8.55934 21 8.60698 21 8.68685V18.9C21 18.9552 20.9552 19 20.9 19H3.1C3.04477 19 3 18.9552 3 18.9Z" stroke="black" stroke-width="1.5"/>
</svg>
