<svg width="24" height="24" viewBox="0 0 24 24" fill="none" xmlns="http://www.w3.org/2000/svg">
<path d="M20 8.40428C18.8333 10.2376 16.7367 13.7859 12.5 15.9043C10.9459 16.6813 8.98918 17.19 7.11653 17.4999M20 8.40428C20.6667 8.90428 21.1752 10.354 20 13.4043C19.0481 15.8751 17.19 18.1726 13.9946 19.6817C13.689 19.826 13.3305 19.7913 13.0493 19.6038L12.1555 19.0079C12.089 18.9636 12 19.0113 12 19.0911V19.7792C12 20.2096 11.7244 20.6052 11.2958 20.6443C9.8119 20.7798 7.87247 19.985 7.11653 17.4999M20 8.40428C19.5 7.99993 16.5 9.99993 14.5 10.9999C9.74604 13.3769 6.23306 12.9998 7.11653 17.4999M7.11653 17.4999C5.61553 17.7482 4.53967 17.8688 3.5 17.8975M3.5 5.99994C4.22737 7.09098 6.07453 8.10495 7.75246 7.67073M7.75246 7.67073C8.38137 7.50798 8.98651 7.14177 9.5 6.49992C11.5 3.99995 8.80384 1.89225 7.5 4.49993C7.04784 5.40427 7.20903 6.61527 7.75246 7.67073ZM7.75246 7.67073C8.41088 8.9495 9.63041 9.99993 11 9.99993" stroke="black" stroke-width="1.5" stroke-linecap="round"/>
</svg>
