<svg width="24" height="24" viewBox="0 0 24 24" fill="none" xmlns="http://www.w3.org/2000/svg">
<path d="M15.7986 8.49999C16.2449 8.91464 16.8428 9.16821 17.5 9.16821C18.8807 9.16821 20 8.04892 20 6.66821C20 5.2875 18.8807 4.16821 17.5 4.16821C16.1193 4.16821 15 5.2875 15 6.66821C15 7.39174 15.3074 8.04349 15.7986 8.49999ZM15.7986 8.49999L11 13.1682M15.7986 8.49999L16.8916 11.8372C16.9618 12.0516 16.9575 12.2834 16.8793 12.495L16 14.8751M15.7986 8.49999L12.1037 8.21481C11.7326 8.18616 11.4081 7.9538 11.2615 7.61169L10.2474 5.24556M11 13.1682L7.21116 11.2738C7.0723 11.2044 6.91919 11.1682 6.76394 11.1682H3.5M11 13.1682L11.9394 16.9257C11.9792 17.0849 11.9792 17.2515 11.9394 17.4107L11.1671 20.5" stroke="black" stroke-width="1.5" stroke-linecap="round"/>
</svg>
