<svg width="24" height="24" viewBox="0 0 24 24" fill="none" xmlns="http://www.w3.org/2000/svg">
<path d="M23 18C23 20.7614 20.7614 23 18 23M23 18C23 15.581 21.2822 13.5633 19 13.1M23 18C23 15.2386 20.7614 13 18 13M18 23C16.3642 23 14.9118 22.2144 13.9996 21M18 23C15.2386 23 13 20.7614 13 18M13 18C13 15.2386 15.2386 13 18 13M13 18C13 19.1256 13.3719 20.1643 13.9996 21M18 13C18.3425 13 18.6769 13.0344 19 13.1M19 13.1V8.41421C19 8.26992 18.9688 8.12885 18.9102 8M13.9996 21H6C5.44772 21 5 20.5523 5 20V4C5 3.44772 5.44772 3 6 3H13.5858C13.7301 3 13.8712 3.03118 14 3.08982M18.9102 8H15C14.4477 8 14 7.55228 14 7V3.08982M18.9102 8C18.861 7.89201 18.7926 7.79261 18.7071 7.70711L14.2929 3.29289C14.2074 3.20739 14.108 3.13896 14 3.08982M18 16H19.9233C19.9685 16 20.0081 16.0304 20.0199 16.0741L20.2679 17M18 16H16.0767C16.0315 16 15.9919 16.0304 15.9801 16.0741L15.7321 17M18 16V20.5M18 20.5H19M18 20.5H17" stroke="black" stroke-width="1.5" stroke-linecap="round"/>
</svg>
