<svg width="24" height="24" viewBox="0 0 24 24" fill="none" xmlns="http://www.w3.org/2000/svg">
<path d="M12.3867 21.75H5.25C4.42157 21.75 3.75 21.0784 3.75 20.25V3.75C3.75 2.92157 4.42157 2.25 5.25 2.25H12.75M20.25 11.6341V9.75M20.25 9.75H14.25C13.4216 9.75 12.75 9.07843 12.75 8.25V2.25M20.25 9.75L12.75 2.25M18.375 22.5L22.5 20.25V16.5M18.375 22.5L14.25 20.25V16.5M18.375 22.5V18.75M22.5 16.5L18.375 14.25L14.25 16.5M22.5 16.5L18.375 18.75M14.25 16.5L18.375 18.75" stroke="black" stroke-width="1.5" stroke-linecap="round" stroke-linejoin="round"/>
</svg>
