<svg width="24" height="24" viewBox="0 0 24 24" fill="none" xmlns="http://www.w3.org/2000/svg">
<path d="M14 3.08982V7C14 7.55228 14.4477 8 15 8H18.9102M14 3.08982C13.8712 3.03118 13.7301 3 13.5858 3H6C5.44772 3 5 3.44772 5 4V20C5 20.5523 5.44772 21 6 21H18C18.5523 21 19 20.5523 19 20V8.41421C19 8.26992 18.9688 8.12885 18.9102 8M14 3.08982C14.108 3.13896 14.2074 3.20739 14.2929 3.29289L18.7071 7.70711C18.7926 7.79261 18.861 7.89201 18.9102 8M12 14.5L15.9842 12.5079M12 14.5L8.01578 12.5079M12 14.5V18.4882M15.9842 12.5079C15.9747 12.493 15.9612 12.4806 15.9447 12.4724L12.0447 10.5224C12.0166 10.5083 11.9834 10.5083 11.9553 10.5224L8.05528 12.4724C8.03883 12.4806 8.02532 12.493 8.01578 12.5079M15.9842 12.5079C15.9943 12.5237 16 12.5423 16 12.5618V16.4382C16 16.4761 15.9786 16.5107 15.9447 16.5276L12.0447 18.4776C12.0306 18.4847 12.0153 18.4882 12 18.4882M8.01578 12.5079C8.00566 12.5237 8 12.5423 8 12.5618V16.4382C8 16.4761 8.0214 16.5107 8.05528 16.5276L11.9553 18.4776C11.9694 18.4847 11.9847 18.4882 12 18.4882" stroke="black" stroke-width="1.5" stroke-linecap="round"/>
</svg>
