<svg width="24" height="24" viewBox="0 0 24 24" fill="none" xmlns="http://www.w3.org/2000/svg">
<path d="M14 3.08982V7C14 7.55228 14.4477 8 15 8H18.9102M14 3.08982C13.8712 3.03118 13.7301 3 13.5858 3H6C5.44772 3 5 3.44772 5 4V20C5 20.5523 5.44772 21 6 21H18C18.5523 21 19 20.5523 19 20V8.41421C19 8.26992 18.9688 8.12885 18.9102 8M14 3.08982C14.108 3.13896 14.2074 3.20739 14.2929 3.29289L18.7071 7.70711C18.7926 7.79261 18.861 7.89201 18.9102 8M11 14.5H12M12 14.5H13M12 14.5V18.5M15 14.5V18.4C15 18.4552 15.0448 18.5 15.1 18.5H16.5M9 14.5H8.47708C7.93745 14.5 7.5 14.9375 7.5 15.4771C7.5 15.8038 7.66327 16.1088 7.93509 16.2901L8.56491 16.7099C8.83673 16.8912 9 17.1962 9 17.5229C9 18.0625 8.56255 18.5 8.02292 18.5H7.5" stroke="black" stroke-width="1.5" stroke-linecap="round"/>
</svg>
