<svg width="24" height="24" viewBox="0 0 24 24" fill="none" xmlns="http://www.w3.org/2000/svg">
<path d="M17 7.5L17 16.5M17 7.5H15.5M17 7.5H18M17 16.5H18M17 16.5H15.5M18 16.5H20.5M18 16.5L18 19M20.5 16.5H20.9C20.9552 16.5 21 16.4552 21 16.4L21 7.6C21 7.54477 20.9552 7.5 20.9 7.5H20.5M20.5 16.5L20.5 19M15.5 16.5H13M15.5 16.5L15.5 19M13 16.5H10.5M13 16.5L13 19M10.5 16.5H8M10.5 16.5L10.5 19M8 16.5H7M8 16.5L8 19M7 16.5L7 7.5M7 16.5H5.5M7 7.5H5.5M7 7.5H8M3 7.5V5.1C3 5.04477 3.04477 5 3.1 5H5.5M3 7.5L3 16.5M3 7.5H5.5M3 16.5H5.5M3 16.5L3 18.9C3 18.9552 3.04477 19 3.1 19H5.5M5.5 16.5L5.5 19M5.5 7.5V5M5.5 5H8M8 7.5V5M8 7.5H10.5M8 5H10.5M10.5 7.5V5M10.5 7.5H13M10.5 5H13M13 7.5V5M13 7.5H15.5M13 5H15.5M15.5 7.5V5M15.5 5H18M18 7.5V5M18 7.5H20.5M18 5H20.5M20.5 7.5V5M20.5 5H21M5.5 19H8M8 19H10.5M10.5 19H13M13 19H15.5M15.5 19H18M18 19H20.5M21 19H20.5" stroke="black" stroke-width="1.5" stroke-linecap="round"/>
</svg>
