<svg width="24" height="24" viewBox="0 0 24 24" fill="none" xmlns="http://www.w3.org/2000/svg">
<path d="M11 8V7C11 6.44772 10.5523 6 10 6H9.09091C9.0407 6 9 5.9593 9 5.90909C9 5.40701 8.59299 5 8.09091 5H5.90909C5.40701 5 5 5.40701 5 5.90909C5 5.9593 4.9593 6 4.90909 6H4C3.44772 6 3 6.44772 3 7V18C3 18.5523 3.44772 19 4 19H10C10.5523 19 11 18.5523 11 18V17M11 8H8C7.44772 8 7 8.44772 7 9V16C7 16.5523 7.44772 17 8 17H11M11 8H13C13.5523 8 13.9872 8.45467 14.1234 8.98988C14.5639 10.7202 16.1325 12 18 12H18.6667C19.9553 12 21 13.0447 21 14.3333V16C21 16.5523 20.5523 17 20 17H11" stroke="black" stroke-width="1.5" stroke-linecap="round"/>
</svg>
