<svg width="24" height="24" viewBox="0 0 24 24" fill="none" xmlns="http://www.w3.org/2000/svg">
<path d="M12 16.5C13.933 16.5 15.5 18.0671 15.5 20C15.5 20.5523 15.0523 21 14.5 21H9.5C8.94771 21 8.5 20.5523 8.5 20C8.5 18.0671 10.067 16.5 12 16.5ZM12 16.5C12 14.3211 11.8352 12.1483 11.5085 10M11.5085 10C11.1891 7.89999 10.7149 5.82342 10.0884 3.78749C10.0482 3.65685 10.1612 3.53028 10.2956 3.55547L15.804 4.5883C16.6532 4.74753 16.9145 5.83618 16.2299 6.36341L11.5085 10Z" stroke="black" stroke-width="1.5" stroke-linecap="round"/>
</svg>
