<svg width="24" height="24" viewBox="0 0 24 24" fill="none" xmlns="http://www.w3.org/2000/svg">
<path d="M11.9999 6.52298C11.9999 3.34603 7.7085 2.34862 6.30743 5.19995L6.09298 5.63638C5.99547 5.83483 5.83493 5.99536 5.63649 6.09287L5.20006 6.30732C2.34873 7.70839 3.34613 11.9998 6.52308 11.9998M11.9999 6.52298C11.9999 3.34603 16.2914 2.34867 17.6925 5.2L17.907 5.63643C18.0045 5.83488 18.165 5.99541 18.3635 6.09292L18.7999 6.30737C21.6512 7.70844 20.6538 11.9999 17.4769 11.9999M11.9999 6.52298L12 8.5M6.52308 11.9998C3.34613 11.9998 2.34879 16.2913 5.20012 17.6924L5.63655 17.9068C5.835 18.0044 5.99553 18.1649 6.09304 18.3633L6.30749 18.7998C7.70856 21.6511 12 20.6537 12 17.4767M6.52308 11.9998L8.5 12M17.4769 11.9999C20.6538 11.9999 21.6512 16.2913 18.7999 17.6924L18.3635 17.9068C18.165 18.0044 18.0045 18.1649 17.907 18.3633L17.6925 18.7998C16.2914 21.6511 12 20.6537 12 17.4767M17.4769 11.9999L15.5 11.9998M12 17.4767L12 15.5" stroke="black" stroke-width="1.5" stroke-linecap="round"/>
</svg>
