<svg width="24" height="24" viewBox="0 0 24 24" fill="none" xmlns="http://www.w3.org/2000/svg">
<path d="M9 19.3959C9.92499 19.7855 10.9395 20 12 20C15.9738 20 19.3011 16.9888 19.6965 13.0347L19.91 10.9004C19.9699 10.3013 20.0832 9.7088 20.2486 9.12988L20.9831 6.55906C20.9943 6.51988 21 6.47933 21 6.43858C21 6.19636 20.8037 5.9999 20.5614 6.00014C19.7143 6.00099 18.8448 6.00675 17.9859 6.04571M9 19.3959C6.45903 18.3256 4.59336 15.9336 4.30347 13.0347L4.09005 10.9005C4.03013 10.3014 3.9168 9.7088 3.75139 9.12987L3.01687 6.55906C3.00568 6.51988 3 6.47933 3 6.43858C3 6.19636 3.19634 5.9999 3.43856 6.00014C4.28569 6.00099 5.15522 6.00675 6.01414 6.04571M9 19.3959C9 19.3959 14 21.3848 14 12C14 9.84374 13.225 8.46238 12 7.57745M12 7.57745C13.0337 6.83073 14.3878 6.43748 15.8672 6.23038M12 7.57745C11.3922 7.1384 10.6737 6.82155 9.884 6.59288C9.33064 6.43264 8.74237 6.31571 8.13284 6.23038M14.876 4.91498C15.4081 4.22219 16.1043 3.8649 16.7457 4.04725C17.4476 4.24682 17.9018 5.04097 17.9859 6.04571M14.876 4.91498C14.1487 4.35079 13.129 4 12 4C10.871 4 9.85128 4.35079 9.12398 4.91498M14.876 4.91498C15.3433 5.27749 15.6899 5.72811 15.8672 6.23038M9.12398 4.91498C8.59192 4.22219 7.89573 3.8649 7.25434 4.04725C6.55239 4.24682 6.09818 5.04097 6.01414 6.04571M9.12398 4.91498C8.65666 5.27749 8.31008 5.72811 8.13284 6.23038M15.8672 6.23038C16.553 6.13437 17.2657 6.07837 17.9859 6.04571M6.01414 6.04571C6.73431 6.07837 7.44703 6.13437 8.13284 6.23038" stroke="black" stroke-width="1.5" stroke-linecap="round"/>
</svg>
