<svg width="24" height="24" viewBox="0 0 24 24" fill="none" xmlns="http://www.w3.org/2000/svg">
<path d="M14.5678 5.80067C15.4977 4.68673 17.2565 4.52862 18.3639 5.63604C19.4713 6.74345 19.3132 8.50231 18.1993 9.43216M14.5678 5.80067C14.698 4.35549 13.5661 3 12 3C10.4339 3 9.30197 4.35547 9.43212 5.80063M14.5678 5.80067L13.2919 8.88109M9.43212 18.1993C8.50227 19.3133 6.74342 19.4714 5.63601 18.364C4.52859 17.2565 4.6867 15.4977 5.80064 14.5678M9.43212 18.1993C9.30195 19.6445 10.4338 21 12 21C13.5661 21 14.698 19.6445 14.5678 18.1993M9.43212 18.1993L10.7081 15.1189M18.1993 14.5678C19.3133 15.4977 19.4714 17.2565 18.364 18.364C17.2565 19.4714 15.4976 19.3133 14.5678 18.1993M18.1993 14.5678C19.6445 14.698 21 13.5661 21 12C21 10.4339 19.6445 9.30196 18.1993 9.43216M18.1993 14.5678L15.1189 13.2919M5.80067 9.43215C4.68673 8.5023 4.52863 6.74345 5.63604 5.63604C6.74344 4.52864 8.50226 4.68672 9.43212 5.80063M5.80067 9.43215C4.35549 9.30198 3 10.4339 3 12C3 13.5661 4.35547 14.698 5.80064 14.5678M5.80067 9.43215L8.88106 10.7081M14.5678 18.1993L13.2919 15.1189M18.1993 9.43216L15.1189 10.7081M9.43212 5.80063L10.7081 8.88109M5.80064 14.5678L8.88106 13.2919M15.1189 10.7081C15.2839 11.106 15.375 11.5424 15.375 12C15.375 12.4576 15.2839 12.894 15.1189 13.2919M15.1189 10.7081C14.7768 9.88311 14.1169 9.2232 13.2919 8.88109M8.88106 10.7081C8.71605 11.106 8.62497 11.5424 8.62497 12C8.62497 12.4576 8.71604 12.894 8.88106 13.2919M8.88106 10.7081C9.22317 9.8831 9.88308 9.2232 10.7081 8.88109M8.88106 13.2919C9.22317 14.1169 9.88308 14.7768 10.7081 15.1189M10.7081 15.1189C11.106 15.2839 11.5424 15.375 12 15.375C12.4576 15.375 12.8939 15.2839 13.2919 15.1189M13.2919 15.1189C14.1169 14.7768 14.7768 14.1169 15.1189 13.2919M13.2919 8.88109C12.8939 8.71608 12.4576 8.625 12 8.625C11.5424 8.625 11.106 8.71607 10.7081 8.88109" stroke="black" stroke-width="1.5" stroke-linecap="round"/>
</svg>
