<svg width="24" height="24" viewBox="0 0 24 24" fill="none" xmlns="http://www.w3.org/2000/svg">
<path d="M12 6.24264V5.12132M12 6.24264C11.744 6.24264 11.4881 6.34027 11.2928 6.53553C11.0976 6.7308 11 6.98672 11 7.24264M12 6.24264C12.2559 6.24264 12.5118 6.34027 12.7071 6.53553C12.9023 6.7308 13 6.98672 13 7.24264M12 5.12132C12 3.94975 12.9497 3 14.1213 3C15.2928 3 16.2426 3.94975 16.2426 5.12132C16.2426 6.29289 15.2928 7.24264 14.1213 7.24264M12 5.12132C12 3.94975 11.05 3.00015 9.87846 3.00015C8.70689 3.00015 7.75714 3.9499 7.75714 5.12147C7.75714 6.29304 8.70706 7.24264 9.87863 7.24264M14.1213 7.24264H13M14.1213 7.24264C15.2928 7.24264 16.2424 8.19254 16.2424 9.36411C16.2424 10.5357 15.2927 11.4854 14.1211 11.4854C12.9495 11.4854 12 10.5355 12 9.36396M13 7.24264C13 7.49856 12.9023 7.75449 12.7071 7.94975C12.5118 8.14501 12.2559 8.24264 12 8.24264M12 8.24264V9.36396M12 8.24264C11.744 8.24264 11.4881 8.14501 11.2928 7.94975C11.0976 7.75449 11 7.49856 11 7.24264M12 9.36396C12 10.5355 11.0502 11.4853 9.87863 11.4853C8.70706 11.4853 7.75731 10.5355 7.75731 9.36396C7.75731 8.19239 8.70706 7.24264 9.87863 7.24264M12 9.36396V14.0001M11 7.24264L9.87863 7.24264M12 14.0001H15.4C15.4552 14.0001 15.5 14.0449 15.5 14.1001V14.4764C15.5 14.4919 15.4964 14.5072 15.4895 14.5211L15.2393 15.0213C15.0898 15.3204 15.0996 15.6744 15.2655 15.9647L15.5967 16.5443C16.356 17.8731 16.2141 19.517 15.2761 20.6913C15.1106 20.8986 14.851 21 14.5858 21H9.41418C9.14897 21 8.88939 20.8986 8.72386 20.6913C7.78581 19.517 7.64391 17.8731 8.40326 16.5442L8.73445 15.9647C8.90033 15.6744 8.91017 15.3204 8.76065 15.0213L8.51056 14.5211C8.50362 14.5072 8.50001 14.4919 8.50001 14.4764V14.1C8.50001 14.0448 8.54478 14 8.60001 14L12 14.0001Z" stroke="black" stroke-width="1.5" stroke-linecap="round"/>
</svg>
