<svg width="24" height="24" viewBox="0 0 24 24" fill="none" xmlns="http://www.w3.org/2000/svg">
<path d="M14.5678 5.80067C15.4977 4.68673 17.2565 4.52862 18.3639 5.63604C19.4713 6.74345 19.3132 8.50231 18.1993 9.43216M14.5678 5.80067C14.698 4.35549 13.5661 3 12 3C10.4339 3 9.30197 4.35547 9.43212 5.80063M14.5678 5.80067L13.9139 7.37938M9.43212 18.1993C8.50227 19.3133 6.74342 19.4714 5.63601 18.364C4.52859 17.2565 4.6867 15.4977 5.80064 14.5678M9.43212 18.1993C9.30195 19.6445 10.4338 21 12 21C13.5661 21 14.698 19.6445 14.5678 18.1993M9.43212 18.1993L10.0861 16.6206M18.1993 14.5678C19.3133 15.4977 19.4714 17.2565 18.364 18.364C17.2565 19.4714 15.4976 19.3133 14.5678 18.1993M18.1993 14.5678C19.6445 14.698 21 13.5661 21 12C21 10.4339 19.6445 9.30196 18.1993 9.43216M18.1993 14.5678L16.6206 13.9139M5.80067 9.43215C4.68673 8.5023 4.52863 6.74345 5.63604 5.63604C6.74344 4.52864 8.50226 4.68672 9.43212 5.80063M5.80067 9.43215C4.35549 9.30198 3 10.4339 3 12C3 13.5661 4.35547 14.698 5.80064 14.5678M5.80067 9.43215L7.37939 10.0861M14.5678 18.1993L13.9139 16.6206M18.1993 9.43216L16.6206 10.0861M9.43212 5.80063L10.0861 7.3794M5.80064 14.5678L7.37939 13.9139M16.6206 10.0861C16.8651 10.6756 17 11.322 17 12C17 12.6779 16.8651 13.3244 16.6206 13.9139M16.6206 10.0861C16.1138 8.86385 15.1361 7.88621 13.9139 7.37938M13.9139 7.37938C13.3244 7.13492 12.6779 7 12 7C11.322 7 10.6756 7.13493 10.0861 7.3794M10.0861 7.3794C8.86385 7.88623 7.88622 8.86387 7.37939 10.0861M7.37939 10.0861C7.13493 10.6756 7 11.3221 7 12C7 12.6779 7.13493 13.3244 7.37939 13.9139M7.37939 13.9139C7.88621 15.1361 8.86385 16.1138 10.0861 16.6206M10.0861 16.6206C10.6756 16.8651 11.322 17 12 17C12.6779 17 13.3244 16.8651 13.9139 16.6206M13.9139 16.6206C15.1361 16.1138 16.1138 15.1361 16.6206 13.9139" stroke="black" stroke-width="1.5" stroke-linecap="round"/>
</svg>
