<svg width="24" height="24" viewBox="0 0 24 24" fill="none" xmlns="http://www.w3.org/2000/svg">
<path d="M15.8727 8.1272C18.1192 5.88076 15.7899 2.14098 12.783 3.16647L12.3228 3.32343C12.1135 3.3948 11.8865 3.3948 11.6772 3.32343L11.217 3.16647C8.21007 2.14098 5.88083 5.88076 8.12727 8.1272M15.8727 8.1272C18.1192 5.88076 21.8589 8.21011 20.8334 11.217L20.6765 11.6772C20.6051 11.8865 20.6051 12.1136 20.6765 12.3228L20.8334 12.7831C21.8589 15.79 18.1192 18.1192 15.8727 15.8728M15.8727 8.1272L13.7678 10.2322M8.12727 8.1272C5.88083 5.88076 2.14104 8.21015 3.16653 11.217L3.32349 11.6773C3.39486 11.8866 3.39486 12.1136 3.32349 12.3229L3.16653 12.7831C2.14104 15.79 5.88082 18.1192 8.12726 15.8728M8.12727 8.1272L10.2322 10.2322M15.8727 15.8728C18.1192 18.1192 15.7899 21.859 12.783 20.8335L12.3228 20.6765C12.1135 20.6052 11.8865 20.6052 11.6772 20.6765L11.217 20.8335C8.21007 21.859 5.88082 18.1192 8.12726 15.8728M15.8727 15.8728L13.7677 13.7677M8.12726 15.8728L10.2323 13.7677M13.7677 13.7677C14.2202 13.3153 14.5 12.6903 14.5 11.9999C14.5 11.3096 14.2202 10.6846 13.7678 10.2322M13.7677 13.7677C13.3153 14.2201 12.6903 14.4999 12 14.4999C11.3097 14.4999 10.6847 14.2201 10.2323 13.7677M13.7678 10.2322C13.3154 9.77974 12.6904 9.49992 12 9.49992C11.3096 9.49992 10.6846 9.77974 10.2322 10.2322M10.2322 10.2322C9.77982 10.6846 9.5 11.3096 9.5 11.9999C9.5 12.6903 9.77983 13.3153 10.2323 13.7677" stroke="black" stroke-width="1.5" stroke-linecap="round"/>
</svg>
