<svg width="24" height="24" viewBox="0 0 24 24" fill="none" xmlns="http://www.w3.org/2000/svg">
<path d="M3.12768 18.4893L4.81063 11.7575C4.92193 11.3123 5.32191 11 5.78078 11H19M3.12768 18.4893C3.29901 18.7941 3.62546 19 4 19H18.2192C18.6781 19 19.0781 18.6877 19.1894 18.2425L20.6894 12.2425C20.8472 11.6114 20.3698 11 19.7192 11H19M3.12768 18.4893C3.04637 18.3447 3 18.1777 3 18V6C3 5.44772 3.44772 5 4 5H8.65371C9.46682 5 10.198 5.49504 10.5 6.25C10.802 7.00496 11.5332 7.5 12.3463 7.5H18C18.5523 7.5 19 7.94772 19 8.5V11" stroke="black" stroke-width="1.5" stroke-linecap="round"/>
</svg>
