<svg width="24" height="24" viewBox="0 0 24 24" fill="none" xmlns="http://www.w3.org/2000/svg">
<path d="M21 13.9996V8.5C21 7.94772 20.5523 7.5 20 7.5H12.3463C11.5332 7.5 10.802 7.00496 10.5 6.25C10.198 5.49504 9.46682 5 8.65371 5H4C3.44772 5 3 5.44772 3 6V18C3 18.5523 3.44772 19 4 19H13.1M21 13.9996C20.1643 13.3719 19.1256 13 18 13M21 13.9996C22.2144 14.9118 23 16.3642 23 18M13.1 19C13.5633 21.2822 15.581 23 18 23M13.1 19C13.0344 18.6769 13 18.3425 13 18M23 18C23 20.7614 20.7614 23 18 23M23 18C23 15.2386 20.7614 13 18 13M18 23C15.2386 23 13 20.7614 13 18M13 18C13 15.2386 15.2386 13 18 13M15.5 18H20.4993" stroke="black" stroke-width="1.5" stroke-linecap="round"/>
</svg>
