<svg width="24" height="24" viewBox="0 0 24 24" fill="none" xmlns="http://www.w3.org/2000/svg">
<path d="M17.5952 4C19.1149 6.29297 19.9999 9.04313 19.9999 12C19.9999 14.9569 19.1149 17.707 17.5952 20M10.6256 4C13.2567 5.68927 15 8.64106 15 12C15 15.3589 13.2567 18.3107 10.6256 20M4 16.7711C4.47352 16.9198 4.97739 17 5.49999 17C8.26141 17 10.5 14.7614 10.5 12C10.5 9.23858 8.26141 7 5.49999 7C4.97739 7 4.47352 7.08018 4 7.2289M7.00001 12C7.00001 12.8284 6.32843 13.5 5.5 13.5C4.67162 13.5 4.00006 12.8284 4 12C4 11.1716 4.67158 10.5 5.5 10.5C6.32843 10.5 7.00001 11.1716 7.00001 12Z" stroke="black" stroke-width="1.5" stroke-linecap="round"/>
</svg>
