<svg width="24" height="24" viewBox="0 0 24 24" fill="none" xmlns="http://www.w3.org/2000/svg">
<path d="M9.5 5H4C3.44772 5 3 5.44772 3 6V18C3 18.5523 3.44772 19 4 19H9.5C10.0523 19 10.5 18.5523 10.5 18V6C10.5 5.44772 10.0523 5 9.5 5Z" stroke="black" stroke-width="1.5" stroke-linecap="round"/>
<path d="M20 7H14.5C13.9477 7 13.5 7.44772 13.5 8V16C13.5 16.5523 13.9477 17 14.5 17H20C20.5523 17 21 16.5523 21 16V8C21 7.44772 20.5523 7 20 7Z" stroke="black" stroke-width="1.5" stroke-linecap="round"/>
</svg>
