<svg width="24" height="24" viewBox="0 0 24 24" fill="none" xmlns="http://www.w3.org/2000/svg">
<path d="M13.8949 7.62999C16.5934 6.88899 19.5 8.07974 19.5 12.4999C19.5 17.8303 16.6822 22.2213 12.4121 20.6666C12.1462 20.5698 11.8537 20.5698 11.5878 20.6666C7.31771 22.2213 4.5 17.8303 4.5 12.4999C4.5 6.99995 8.99995 6.49995 12 8.49995M13.8949 7.62999C13.2357 7.811 12.5889 8.10729 12 8.49995M13.8949 7.62999C15.4639 6.56416 16.1221 4.99705 16.1207 3.80734C16.1201 3.33066 15.6543 3.032 15.1938 3.15526C11.9777 4.01615 11.8453 7.26267 12 8.49995M13.8949 7.62999C13.3688 7.98738 12.7403 8.28841 12 8.49995M12 8.49995L10 4.49995" stroke="black" stroke-width="1.5" stroke-linecap="round"/>
</svg>
