<svg width="24" height="24" viewBox="0 0 24 24" fill="none" xmlns="http://www.w3.org/2000/svg">
<path d="M7.50012 15.0002C11.0001 12.0002 11.5001 10.0002 12.5315 3.59285M7.50012 15.0002C9.15698 15.0002 10.5001 16.3434 10.5001 18.0002C10.5001 19.6571 9.15698 21.0002 7.50012 21.0002C5.84327 21.0002 4.50012 19.6571 4.50012 18.0002C4.50012 16.3434 5.84327 15.0002 7.50012 15.0002ZM12.5315 3.59285C12.5001 10.0004 15.0001 11.5004 17.5 13.0002M12.5315 3.59285C11.9211 6.67973 7.66166 9.16372 4.65945 8.21276C4.61169 8.19763 4.58352 8.14884 4.5943 8.09991C5.27186 5.02443 9.55298 2.57806 12.5315 3.59285ZM17.5 13.0002C19.1569 13.0002 20.5 14.3434 20.5 16.0002C20.5 17.6571 19.1569 19.0002 17.5 19.0002C15.8432 19.0002 14.5 17.6571 14.5 16.0002C14.5 14.3434 15.8432 13.0002 17.5 13.0002Z" stroke="black" stroke-width="1.5" stroke-linecap="round"/>
</svg>
