<svg width="24" height="24" viewBox="0 0 24 24" fill="none" xmlns="http://www.w3.org/2000/svg">
<path d="M13.7366 7.7339C16.4314 7.23481 20 9.06973 20 13.5C20 18.9872 15.5209 20.9907 12.0244 20.0069C12.0084 20.0024 11.9912 20.002 11.975 20.0055C7.48703 20.9926 4 18.9898 4 13.5C4 8 9.5 6.5 12 8.5M13.7366 7.7339C13.086 7.85441 12.4862 8.11101 12 8.5M13.7366 7.7339C15.7831 6.43802 16.3798 4.30564 16.0241 3.07762C16.0109 3.03184 15.9643 3.00439 15.9171 3.0109C13.0286 3.40887 12.1802 5.48237 12 7.07561M13.7366 7.7339C13.2441 8.04583 12.6675 8.30929 12 8.5M12 8.5V7.07561M12 8.5C11.9565 8.15173 11.9357 7.64426 12 7.07561M12 8.5C8.35469 11.7403 9.95907 15.6368 10.7 17M12 7.07561V3" stroke="black" stroke-width="1.5" stroke-linecap="round"/>
</svg>
