<svg width="24" height="24" viewBox="0 0 24 24" fill="none" xmlns="http://www.w3.org/2000/svg">
<path d="M8.99992 10.9999L8.5 12.4999M14.9999 10.9999L15.5 12.4999M10.0365 14.9999L10.5364 16.4999M14.0365 14.9999L13.5364 16.4999M9.82322 5.08832L7.64649 6.17669C2.99991 8.49995 3.97734 12.3728 6.04145 14.8497L10.4635 20.1562C11.2631 21.1157 12.7368 21.1157 13.5364 20.1562L17.9585 14.8497C20.0226 12.3728 20.9999 8.49995 16.3534 6.17669L14.1767 5.08832M9.82322 5.08832L7.70294 8.2019C7.5852 8.37481 7.60703 8.60702 7.75495 8.75495C7.89834 8.89835 8.12174 8.9238 8.29371 8.81632L11.47 6.83119C11.7942 6.62852 12.2057 6.62852 12.53 6.83119L15.7061 8.81632C15.8781 8.92381 16.1015 8.89837 16.2449 8.75498C16.3929 8.60703 16.4147 8.37478 16.297 8.20183L14.1767 5.08832M9.82322 5.08832L9.15742 3.80368C9.06369 3.62282 9.09786 3.40208 9.24191 3.25803C9.39359 3.10635 9.62903 3.07737 9.81297 3.18773L11.4854 4.19124C11.8021 4.38125 12.1977 4.38126 12.5144 4.19125L14.187 3.18772C14.371 3.07736 14.6064 3.10635 14.7581 3.25802C14.9021 3.40207 14.9363 3.62282 14.8426 3.80369L14.1767 5.08832M11.9999 11.4999L11.9999 12.9999" stroke="black" stroke-width="1.5" stroke-linecap="round"/>
</svg>
