<svg width="24" height="24" viewBox="0 0 24 24" fill="none" xmlns="http://www.w3.org/2000/svg">
<path d="M8.00003 7.5H4C3.44772 7.5 3 7.94771 3 8.5V15.5C3 16.0523 3.44772 16.5 4 16.5H6.00001M8.00003 7.5H16M8.00003 7.5L8.00001 16.5M16 7.5L20 7.50001C20.5523 7.50001 21 7.94773 21 8.50001L21 15.5C21 16.0523 20.5523 16.5 20 16.5H18M16 7.5L16 12M18 16.5H6.00001M18 16.5V18M6.00001 16.5V18M16 12L16 16.5M16 12H8.00003M5.50002 13V11M18.5 13V11" stroke="black" stroke-width="1.5" stroke-linecap="round"/>
</svg>
