<svg width="24" height="24" viewBox="0 0 24 24" fill="none" xmlns="http://www.w3.org/2000/svg">
<path d="M5 13.5V7C5 6.44772 5.44772 6 6 6H7M5 13.5V20C5 20.5523 5.44772 21 6 21H15C15.5523 21 16 20.5523 16 20V19M5 13.5H6.21706C7.45013 13.5 8.63269 14.0195 9.5046 14.9443C11.0131 16.5442 13.3548 16.85 15.1842 15.6858L16 15.1667M16 15.1667V7C16 6.44772 15.5523 6 15 6H7M16 15.1667V19M16 19H18C18.5523 19 19 18.5523 19 18V4C19 3.44772 18.5523 3 18 3H8C7.44772 3 7 3.44772 7 4V6M9.5046 10.5C9.5046 9.39543 10.4 8.5 11.5046 8.5C12.6092 8.5 13.5046 9.39543 13.5046 10.5C13.5046 11.6046 12.6092 12.5 11.5046 12.5C10.4 12.5 9.5046 11.6046 9.5046 10.5Z" stroke="black" stroke-width="1.5" stroke-linecap="round"/>
</svg>
