<svg width="24" height="24" viewBox="0 0 24 24" fill="none" xmlns="http://www.w3.org/2000/svg">
<path d="M8 7.49976V9.49976M8 9.49976V11.4998M8 9.49976H6M8 9.49976H10M16 7.49976V7.99976M18 9.24976V9.74976M14 9.24976V9.74976M16 10.9998V11.4998M4.42152 7.41201L2.94782 15.1489C2.70394 16.4293 3.57884 17.6539 4.86912 17.8383C5.58104 17.94 6.2993 17.7005 6.80782 17.192L9.70713 14.2927C9.89467 14.1052 10.149 13.9998 10.4142 13.9998H13.5858C13.851 13.9998 14.1054 14.1052 14.2929 14.2927L17.1922 17.192C17.7008 17.7005 18.419 17.94 19.1309 17.8383C20.4212 17.6539 21.2961 16.4293 21.0522 15.1489L19.5785 7.41201C19.5283 7.14835 19.375 6.91428 19.1472 6.77236C14.7737 4.04788 9.2264 4.04788 4.85289 6.77236C4.62508 6.91428 4.47174 7.14835 4.42152 7.41201Z" stroke="black" stroke-width="1.5" stroke-linecap="round"/>
</svg>
