<svg width="24" height="24" viewBox="0 0 24 24" fill="none" xmlns="http://www.w3.org/2000/svg">
<path d="M20.5 9.5L20.2071 9.79289C19.8166 10.1834 19.1834 10.1834 18.7929 9.79289L18 9M14.5 3.5L14.2071 3.79289C13.8166 4.18342 13.8166 4.81658 14.2071 5.20711L15 6M15 6L16 5M15 6L16.5 7.5M16.5 7.5L17.5 6.5M16.5 7.5L18 9M16.5 7.5L12 11.9999M18 9L19 8M12 11.9999L4.5 19.4999M12 11.9999L16.5 16.4999M12 11.9999L8.5 8.4999M16.5 16.4999H18.9586C18.9851 16.4999 19.0105 16.5104 19.0293 16.5292L19.9293 17.4292C19.9683 17.4682 19.9683 17.5316 19.9293 17.5706L17.5707 19.9292C17.5317 19.9682 17.4683 19.9682 17.4293 19.9292L16.5293 19.0292C16.5105 19.0104 16.5 18.985 16.5 18.9585V16.4999ZM8.5 8.4999L9.79289 7.20701C10.1834 6.81648 10.1834 6.18332 9.79289 5.79279L8.58579 4.58568C8.21071 4.21061 7.70201 3.9999 7.17157 3.9999H6C4.89543 3.9999 4 4.89533 4 5.9999V7.17147C4 7.7019 4.21071 8.21061 4.58579 8.58569L5.79289 9.79279C6.18342 10.1833 6.81658 10.1833 7.20711 9.79279L8.5 8.4999Z" stroke="black" stroke-width="1.5" stroke-linecap="round"/>
</svg>
