<svg width="24" height="24" viewBox="0 0 24 24" fill="none" xmlns="http://www.w3.org/2000/svg">
<path d="M14 3.08982V7C14 7.55228 14.4477 8 15 8H18.9102M14 3.08982C13.8712 3.03118 13.7301 3 13.5858 3H6C5.44772 3 5 3.44772 5 4V20C5 20.5523 5.44772 21 6 21H18C18.5523 21 19 20.5523 19 20V8.41421C19 8.26992 18.9688 8.12885 18.9102 8M14 3.08982C14.108 3.13896 14.2074 3.20739 14.2929 3.29289L18.7071 7.70711C18.7926 7.79261 18.861 7.89201 18.9102 8M9.5 15H8.97368C8.15979 15 7.5 15.6598 7.5 16.4737V17.5C7.5 18.3284 8.17157 19 9 19H9.5C9.5 19 10 19 10 18C10 17 9.5 17 9.5 17M14.5 15L14 19M16 16.5L16.9293 17.4293C16.9683 17.4683 16.9683 17.5317 16.9293 17.5707L16 18.5M12.5 15L11.5707 15.9293C11.5317 15.9683 11.5317 16.0317 11.5707 16.0707L12.5 17" stroke="black" stroke-width="1.5" stroke-linecap="round"/>
</svg>
