<svg width="24" height="24" viewBox="0 0 24 24" fill="none" xmlns="http://www.w3.org/2000/svg">
<path fill-rule="evenodd" clip-rule="evenodd" d="M12.9794 3.75427L13.1118 4.39711C13.2779 5.20301 14.2919 5.47471 14.8386 4.85979L15.2747 4.3693C15.9967 3.55723 17.3134 4.31739 16.9711 5.34873L16.7644 5.97166C16.5052 6.7526 17.2475 7.49489 18.0285 7.23573L18.6514 7.02901C19.6827 6.68675 20.4429 8.0034 19.6308 8.72543L19.1403 9.16154C18.5254 9.70827 18.7971 10.7223 19.603 10.8883L20.2459 11.0207C21.3102 11.24 21.3102 12.7603 20.2459 12.9796L19.603 13.112C18.7971 13.2781 18.5254 14.292 19.1403 14.8388L19.6308 15.2749C20.4429 15.9969 19.6827 17.3136 18.6514 16.9713L18.0285 16.7646C17.2475 16.5054 16.5052 17.2477 16.7644 18.0287L16.9711 18.6516C17.3134 19.6829 15.9967 20.4431 15.2747 19.631L14.8386 19.1405C14.2919 18.5256 13.2779 18.7973 13.1118 19.6032L12.9794 20.246C12.7601 21.3103 11.2398 21.3103 11.0205 20.246L10.8881 19.6032C10.7221 18.7973 9.70809 18.5256 9.16136 19.1405L8.72525 19.631C8.00321 20.4431 6.68656 19.6829 7.02882 18.6516L7.23555 18.0287C7.49471 17.2477 6.75242 16.5054 5.97148 16.7646L5.34855 16.9713C4.31721 17.3136 3.55704 15.9969 4.36912 15.2749L4.85961 14.8388C5.47452 14.292 5.20283 13.2781 4.39693 13.112L3.75409 12.9796C2.6898 12.7603 2.6898 11.24 3.75409 11.0207L4.39693 10.8883C5.20283 10.7223 5.47452 9.70827 4.85961 9.16154L4.36912 8.72543C3.55704 8.0034 4.31721 6.68675 5.34855 7.02901L5.97148 7.23573C6.75242 7.49489 7.49471 6.7526 7.23555 5.97166L7.02882 5.34873C6.68656 4.31739 8.00321 3.55722 8.72525 4.3693L9.16136 4.85979C9.70809 5.47471 10.7221 5.20301 10.8881 4.39711L11.0205 3.75427C11.2398 2.68998 12.7601 2.68998 12.9794 3.75427ZM7.99994 12.0002C7.99994 14.2093 9.7908 16.0002 11.9999 16.0002C14.2091 16.0002 15.9999 14.2093 15.9999 12.0002C15.9999 9.79101 14.2091 8.00015 11.9999 8.00015C9.7908 8.00015 7.99994 9.79101 7.99994 12.0002Z" stroke="black" stroke-width="1.5" stroke-linecap="round"/>
</svg>
