<svg width="24" height="24" viewBox="0 0 24 24" fill="none" xmlns="http://www.w3.org/2000/svg">
<path d="M13.1118 4.39711L12.9794 3.75427C12.7601 2.68998 11.2398 2.68998 11.0205 3.75427L10.8881 4.39711C10.7221 5.20301 9.70809 5.47471 9.16136 4.85979L8.72525 4.3693C8.00321 3.55722 6.68656 4.31739 7.02882 5.34873L7.23555 5.97166C7.49471 6.7526 6.75242 7.49489 5.97148 7.23573L5.34855 7.02901C4.31721 6.68675 3.55704 8.0034 4.36912 8.72543L4.85961 9.16154C5.47452 9.70827 5.20283 10.7223 4.39693 10.8883L3.75409 11.0207C2.6898 11.24 2.6898 12.7603 3.75409 12.9796L4.39693 13.112C5.20283 13.2781 5.47452 14.292 4.85961 14.8388L4.36912 15.2749C3.55704 15.9969 4.31721 17.3136 5.34855 16.9713L5.97148 16.7646C6.75242 16.5054 7.49471 17.2477 7.23555 18.0287L7.02882 18.6516C6.68656 19.6829 8.00321 20.4431 8.72525 19.631L9.16136 19.1405C9.70809 18.5256 10.7221 18.7973 10.8881 19.6032L11.0205 20.246C11.2398 21.3103 12.7601 21.3103 12.9794 20.246L13.1118 19.6032C13.2779 18.7973 14.2919 18.5256 14.8386 19.1405L15.2747 19.631C15.9967 20.4431 17.3134 19.6829 16.9711 18.6516L16.7644 18.0287C16.5052 17.2477 17.2475 16.5054 18.0285 16.7646L18.6514 16.9713C19.6827 17.3136 20.4429 15.9969 19.6308 15.2749L19.1403 14.8388C18.5254 14.292 18.7971 13.2781 19.603 13.112L20.2459 12.9796C21.3102 12.7603 21.3102 11.24 20.2459 11.0207L19.603 10.8883C18.7971 10.7223 18.5254 9.70827 19.1403 9.16154L19.6308 8.72543C20.4429 8.0034 19.6827 6.68675 18.6514 7.02901L18.0285 7.23573C17.2475 7.49489 16.5052 6.7526 16.7644 5.97166L16.9711 5.34873C17.3134 4.31739 15.9967 3.55723 15.2747 4.3693L14.8386 4.85979C14.2919 5.47471 13.2779 5.20301 13.1118 4.39711Z" stroke="black" stroke-width="1.5" stroke-linecap="round"/>
</svg>
