<svg width="24" height="24" viewBox="0 0 24 24" fill="none" xmlns="http://www.w3.org/2000/svg">
<path d="M5.10572 15.7125C4.22704 16.5912 4.22704 18.0158 5.10572 18.8945C5.9844 19.7731 7.40902 19.7731 8.2877 18.8945L8.53094 18.6512C8.91861 18.8538 9.3262 19.0235 9.75 19.1566V19.5C9.75 20.7426 10.7574 21.75 12 21.75C13.2426 21.75 14.25 20.7426 14.25 19.5V19.1566C14.6738 19.0235 15.0815 18.8538 15.4692 18.6512L15.7123 18.8943C16.591 19.773 18.0156 19.773 18.8943 18.8943C19.773 18.0156 19.773 16.591 18.8943 15.7123L18.6512 15.4692C18.8538 15.0815 19.0235 14.6738 19.1566 14.25H19.5C20.7426 14.25 21.75 13.2426 21.75 12C21.75 10.7574 20.7426 9.75 19.5 9.75H19.1566C19.0235 9.3262 18.8538 8.91861 18.6512 8.53094L18.8943 8.28785C19.773 7.40917 19.773 5.98455 18.8943 5.10587C18.0156 4.2272 16.591 4.22719 15.7123 5.10587L15.4693 5.3489C15.0815 5.14624 14.6739 4.97649 14.25 4.84335V4.5C14.25 3.25736 13.2426 2.25 12 2.25C10.7574 2.25 9.75 3.25736 9.75 4.5V4.84335C9.32616 4.97647 8.91853 5.14621 8.53083 5.34884L8.28769 5.10571C7.40901 4.22703 5.98439 4.22703 5.10571 5.10571C4.22703 5.98439 4.22703 7.40901 5.10571 8.28769L5.34884 8.53082C5.14621 8.91853 4.97647 9.32616 4.84335 9.75H4.5C3.25736 9.75 2.25 10.7574 2.25 12C2.25 13.2426 3.25736 14.25 4.5 14.25H4.84335C4.97649 14.6739 5.14624 15.0815 5.34891 15.4693L5.10572 15.7125Z" stroke="black" stroke-width="1.5" stroke-linecap="round" stroke-linejoin="round"/>
</svg>
