<svg width="24" height="24" viewBox="0 0 24 24" fill="none" xmlns="http://www.w3.org/2000/svg">
<path d="M12 8.99994C12 8.99994 11.2879 8.59301 10.4152 7.97385M12 8.99994C12 8.99994 11 0.999939 8 2.99996C5.95687 4.36206 8.55195 6.65178 10.4152 7.97385M12 8.99994C12 8.99994 12.732 8.58166 13.6211 7.94798M12 8.99994C12 8.99994 13 0.999905 16 2.99996C18.0299 4.35324 15.4815 6.6221 13.6211 7.94798M12 8.99994C12.3212 8.67878 12.9002 8.30604 13.6211 7.94798M12 8.99994C11.6866 8.6865 11.1275 8.32394 10.4152 7.97385M12 8.99994L9.5 9M12 8.99994H14.5M10.4152 7.97385C8.85505 7.20699 6.55968 6.49994 4.5 6.49994M13.6211 7.94798C15.145 7.19117 17.3029 6.49994 19 6.49994M9.5 9H5.5C4.94772 9 4.5 9.44772 4.5 10V11.5161C4.5 11.7834 4.71664 12 4.98387 12M9.5 9V12.0001M10 21H5.99821C5.44662 21 4.9992 20.5534 4.99821 20.0018L4.98387 12M10 21H14M10 21V12.5001C10 12.2239 9.77614 12.0001 9.5 12.0001M14.5 8.99994L18 8.99994C18.5523 8.99994 19 9.44766 19 9.99994V11.5C19 11.7761 18.7761 12 18.5 12M14.5 8.99994V12M14 21L17.5 21C18.0523 21 18.5 20.5523 18.5 20V12M14 21V12.5C14 12.2239 14.2239 12 14.5 12M9.5 12.0001L14.5 12M9.5 12.0001L4.98387 12M14.5 12H18.5" stroke="black" stroke-width="1.5" stroke-linecap="round"/>
</svg>
