<svg width="24" height="24" viewBox="0 0 24 24" fill="none" xmlns="http://www.w3.org/2000/svg">
<path d="M7 17V14M7 17C8.10457 17 9 17.8954 9 19C9 20.1046 8.10457 21 7 21C5.89543 21 5 20.1046 5 19C5 17.8954 5.89543 17 7 17ZM7 14V7M7 14C7 12.8954 7.89543 12 9 12H15C16.1046 12 17 11.1046 17 10V7M17 7C15.8954 7 15 6.10457 15 5C15 3.89543 15.8954 3 17 3C18.1046 3 19 3.89543 19 5C19 6.10457 18.1046 7 17 7ZM7 7C8.10457 7 9 6.10457 9 5C9 3.89543 8.10457 3 7 3C5.89543 3 5 3.89543 5 5C5 6.10457 5.89543 7 7 7Z" stroke="black" stroke-width="1.5" stroke-linecap="round"/>
</svg>
