<svg width="24" height="24" viewBox="0 0 24 24" fill="none" xmlns="http://www.w3.org/2000/svg">
<path d="M12 17V14M12 17C13.1046 17 14 17.8954 14 19C14 20.1046 13.1046 21 12 21C10.8954 21 10 20.1046 10 19C10 17.8954 10.8954 17 12 17ZM12 14C12 12.8954 12.8954 12 14 12H15C16.1046 12 17 11.1046 17 10V7M12 14C12 12.8954 11.1046 12 10 12H9C7.89543 12 7 11.1046 7 10V7M17 7C15.8954 7 15 6.10457 15 5C15 3.89543 15.8954 3 17 3C18.1046 3 19 3.89543 19 5C19 6.10457 18.1046 7 17 7ZM7 7C8.10457 7 9 6.10457 9 5C9 3.89543 8.10457 3 7 3C5.89543 3 5 3.89543 5 5C5 6.10457 5.89543 7 7 7Z" stroke="black" stroke-width="1.5" stroke-linecap="round"/>
</svg>
