<svg width="24" height="24" viewBox="0 0 24 24" fill="none" xmlns="http://www.w3.org/2000/svg">
<path d="M3.00006 16V20M3.00006 16V6M3.00006 16H5.00006M3.00006 4V6M3.00006 6H20.0001C20.5523 6 21.0001 6.44772 21.0001 7L21.0001 15C21.0001 15.5523 20.5523 16 20.0001 16H15.0001M5.00006 16V17C5.00006 17.5523 5.44778 18 6.00006 18H14.0001C14.5523 18 15.0001 17.5523 15.0001 17V16M5.00006 16H15.0001M10.5001 11C10.5001 12.3807 9.38077 13.5 8.00006 13.5C6.61935 13.5 5.50006 12.3807 5.50006 11C5.50006 9.61929 6.61935 8.5 8.00006 8.5C9.38077 8.5 10.5001 9.61929 10.5001 11ZM16.0001 13.5C14.6193 13.5 13.5001 12.3807 13.5001 11C13.5001 9.61929 14.6193 8.5 16.0001 8.5C17.3808 8.5 18.5001 9.61929 18.5001 11C18.5001 12.3807 17.3808 13.5 16.0001 13.5Z" stroke="black" stroke-width="1.5" stroke-linecap="round"/>
</svg>
