<svg width="24" height="24" viewBox="0 0 24 24" fill="none" xmlns="http://www.w3.org/2000/svg">
<path d="M3 4.5V18C3 18.5523 3.44772 19 4 19H5.5M21.5 19H20.5M20.5 19V5.1C20.5 5.04477 20.4552 5 20.4 5H17.6C17.5448 5 17.5 5.04477 17.5 5.1V19M20.5 19H17.5M17.5 19H14.5M14.5 19H11.5M14.5 19V8.1C14.5 8.04477 14.4552 8 14.4 8H11.6C11.5448 8 11.5 8.04477 11.5 8.1V19M11.5 19H8.5M8.5 19V12.1C8.5 12.0448 8.45523 12 8.4 12H5.6C5.54477 12 5.5 12.0448 5.5 12.1V19M8.5 19H5.5" stroke="black" stroke-width="1.5" stroke-linecap="round"/>
</svg>
