<svg width="24" height="24" viewBox="0 0 24 24" fill="none" xmlns="http://www.w3.org/2000/svg">
<path d="M6 8.5H8.83772C10.129 8.5 11.2754 9.32629 11.6838 10.5513L11.8644 11.0932M11.8644 11.0932L13.5371 16.1112C14.1119 17.8357 16.4449 18.0918 17.3802 16.533C17.7647 15.8921 18.4573 15.5 19.2047 15.5H20M11.8644 11.0932L9.88727 14.135C9.33388 14.9863 8.38737 15.5 7.37194 15.5H6M11.8644 11.0932L14.6127 6.86504C15.1661 6.01366 16.1126 5.5 17.1281 5.5H20M4 4V19C4 19.5523 4.44772 20 5 20H20" stroke="black" stroke-width="1.5" stroke-linecap="round"/>
</svg>
