<svg width="24" height="24" viewBox="0 0 24 24" fill="none" xmlns="http://www.w3.org/2000/svg">
<path d="M5 4.5V12M5 12V19.5M5 12H14M14 12V4.5M14 12V19.5M19 17H18.5M19 17L19.3167 16.8416C19.7355 16.6323 20 16.2043 20 15.7361C20 15.0534 19.4466 14.5 18.7639 14.5H18.5C17.8469 14.5 17.2913 14.9174 17.0854 15.5M19 17L19.3167 17.1584C19.7355 17.3677 20 17.7957 20 18.2639C20 18.9466 19.4466 19.5 18.7639 19.5H18.5C17.8469 19.5 17.2913 19.0826 17.0854 18.5" stroke="black" stroke-width="1.5" stroke-linecap="round"/>
</svg>
