<svg width="24" height="24" viewBox="0 0 24 24" fill="none" xmlns="http://www.w3.org/2000/svg">
<path d="M10.5 7.5L20.7929 17.7929C21.1834 18.1834 21.1834 18.8166 20.7929 19.2071L19.7071 20.2929C19.3166 20.6834 18.6834 20.6834 18.2929 20.2929L8.00002 10M10.5 7.5L8.00002 10M10.5 7.5C10.5 6.39543 11.3955 5.5 12.5 5.5C13.0523 5.5 13.5 5.05228 13.5 4.5C13.5 3.94772 13.0523 3.5 12.5 3.5H7.91422C7.64901 3.5 7.39465 3.60536 7.20711 3.79289L4.69747 6.30255C4.57105 6.42897 4.50002 6.60045 4.50002 6.77924C4.50002 7.20967 4.22459 7.59181 3.81625 7.72792L3.22397 7.92535C3.0767 7.97444 2.94287 8.05715 2.8331 8.16692L2.57073 8.42928C2.53168 8.46834 2.53168 8.53165 2.57073 8.57071L5.92932 11.9293C5.96837 11.9683 6.03169 11.9683 6.07074 11.9293L6.3331 11.6669C6.44287 11.5571 6.52558 11.4233 6.57467 11.2761L6.7721 10.6838C6.90821 10.2754 7.29035 10 7.72078 10L8.00002 10" stroke="black" stroke-width="1.5" stroke-linecap="round"/>
</svg>
