<svg width="24" height="24" viewBox="0 0 24 24" fill="none" xmlns="http://www.w3.org/2000/svg">
<path d="M9.11868 14.0868L7.98639 15.6437C7.47004 16.3537 7.71479 17.3574 8.5 17.75C9.28521 18.1426 10.235 17.7362 10.4932 16.8971L11.1017 14.9195M9.11868 14.0868L10.6712 11.9521C10.8609 11.6912 11.2115 11.6057 11.5 11.75C11.7885 11.8943 11.9305 12.226 11.8356 12.5343L11.1017 14.9195M9.11868 14.0868C7.83697 13.1815 7 11.6885 7 10C7 7.23858 9.23858 5 12 5C14.7614 5 17 7.23858 17 10C17 12.7614 14.7614 15 12 15C11.6933 15 11.3931 14.9724 11.1017 14.9195M5 4V20C5 20.5523 5.44772 21 6 21H18C18.5523 21 19 20.5523 19 20V4C19 3.44772 18.5523 3 18 3H6C5.44772 3 5 3.44772 5 4Z" stroke="black" stroke-width="1.5" stroke-linecap="round"/>
</svg>
