<svg width="24" height="24" viewBox="0 0 24 24" fill="none" xmlns="http://www.w3.org/2000/svg">
<path d="M19 12L19.0597 12.0149C20.1313 12.2828 20.7828 13.3687 20.5149 14.4403L19.4851 18.5597C19.2172 19.6313 18.1313 20.2828 17.0597 20.0149L16.9403 19.9851C15.8687 19.7172 15.2172 18.6313 15.4851 17.5597L16.5149 13.4403C16.7828 12.3687 17.8687 11.7172 18.9403 11.9851L19 12ZM19 12C20.0214 7.65879 16.7276 3.5 12.2679 3.5H11.7321C7.27235 3.5 3.97852 7.65879 4.99998 12M4.99998 12L4.94027 12.0149C3.86868 12.2828 3.21716 13.3687 3.48505 14.4403L4.51491 18.5597C4.78281 19.6313 5.86868 20.2828 6.94027 20.0149L7.0597 19.9851C8.13129 19.7172 8.78281 18.6313 8.51491 17.5597L7.48505 13.4403C7.21716 12.3687 6.13129 11.7172 5.0597 11.9851L4.99998 12Z" stroke="black" stroke-width="1.5" stroke-linecap="round"/>
</svg>
