<svg width="24" height="24" viewBox="0 0 24 24" fill="none" xmlns="http://www.w3.org/2000/svg">
<path d="M6.80708 10.0182C5.97623 11.4648 5.73643 13.262 6.36362 15.0181L7.15469 17.2331C7.96149 19.4922 10.1013 21.0001 12.5 21.0001C12.9721 21.0001 13.4341 20.9417 13.8779 20.8307M6.80708 10.0182C5.35657 9.00011 4.00006 9.00011 4.00006 9.00011M6.80708 10.0182C7.1513 9.4189 7.59698 8.87974 8.12449 8.42861M8.12449 8.42861C8.06742 8.22065 8.02905 8.00496 8.0113 7.78345M8.12449 8.42861C8.85537 11.0917 11.754 8.42888 13.624 6.39679C13.8864 6.11163 14.1695 5.8604 14.4648 5.63906M8.0113 7.78345C8.00381 7.68998 7.99999 7.59547 7.99999 7.50008C7.99999 6.75476 8.23296 6.06385 8.63003 5.49619M8.0113 7.78345C5.92048 6.50011 4.00006 6.50011 4.00006 6.50011M15.8955 7.74705C15.1057 8.41275 14.5 9.5 15 11.5L15.0716 11.6788C15.3383 12.3456 15.4353 13.0544 15.3703 13.7466M15.8955 7.74705C17.3748 6.50011 19 6.50011 19 6.50011M15.8955 7.74705C17.803 8.80706 19.0301 10.8683 18.9901 13.098M14.4648 5.63906C16.6509 4.00011 19 4.00011 19 4.00011M14.4648 5.63906C14.0527 4.98387 13.4294 4.47491 12.6904 4.20766M10.2976 4.21203C10.6725 4.07486 11.0775 4 11.5 4C11.918 4 12.3188 4.07327 12.6904 4.20766M10.2976 4.21203C9.61839 4.46049 9.03771 4.91338 8.63003 5.49619M10.2976 4.21203L9.68032 2.5M12.6904 4.20766L13.3167 2.5M8.63003 5.49619L7 4.35126M16 18L17.4293 19.4293C17.4683 19.4683 17.5317 19.4683 17.5707 19.4293L20 17M18.9901 13.098C18.6701 13.0337 18.339 13 18 13C17.0352 13 16.1342 13.2733 15.3703 13.7466M18.9901 13.098C21.2773 13.5575 23 15.5776 23 18C23 20.7614 20.7614 23 18 23C16.2894 23 14.7794 22.1409 13.8779 20.8307M13.8779 20.8307C13.3241 20.0259 13 19.0508 13 18C13 16.2034 13.9476 14.6281 15.3703 13.7466" stroke="black" stroke-width="1.5" stroke-linecap="round"/>
</svg>
