<svg width="24" height="24" viewBox="0 0 24 24" fill="none" xmlns="http://www.w3.org/2000/svg">
<path d="M19.53 8.2062C19.8224 8.38894 20 8.70941 20 9.0542V19C20 19.5522 19.5523 20 19 20H16C15.4477 20 15 19.5522 15 19V15C15 13.8954 14.1046 13 13 13H11C9.89543 13 9 13.8954 9 15V19C9 19.5522 8.55228 20 8 20H5C4.44772 20 4 19.5522 4 19V9.0542C4 8.70941 4.17762 8.38894 4.47 8.2062L11.47 3.8312C11.7943 3.62853 12.2057 3.62853 12.53 3.8312L19.53 8.2062Z" stroke="black" stroke-width="1.5" stroke-linecap="round"/>
</svg>
