<svg width="24" height="24" viewBox="0 0 24 24" fill="none" xmlns="http://www.w3.org/2000/svg">
<path d="M9 21H6C5.44772 21 5 20.5523 5 20V4C5 3.44772 5.44772 3 6 3H18C18.5523 3 19 3.44772 19 4V20C19 20.5523 18.5523 21 18 21H15M9 21V16C9 15.4477 9.44772 15 10 15H14C14.5523 15 15 15.4477 15 16V21M9 21H12M15 21H12M12 21V15.1098M10.4 7.5H8.6C8.54477 7.5 8.5 7.54477 8.5 7.6L8.49998 10.4C8.49997 10.4552 8.54475 10.5 8.59998 10.5H10.4C10.4552 10.5 10.5 10.5448 10.5 10.6L10.5 12.4C10.5 12.4552 10.5448 12.5 10.6 12.5H13.4C13.4552 12.5 13.5 12.4552 13.5 12.4L13.5 10.6C13.5 10.5448 13.5447 10.5 13.6 10.5H15.4C15.4552 10.5 15.5 10.4552 15.5 10.4L15.5 7.6C15.5 7.54477 15.4553 7.5 15.4 7.5H13.6C13.5448 7.5 13.5 7.45523 13.5 7.4V5.6C13.5 5.54477 13.4552 5.5 13.4 5.5H10.6C10.5448 5.5 10.5 5.54477 10.5 5.6V7.4C10.5 7.45523 10.4553 7.5 10.4 7.5Z" stroke="black" stroke-width="1.5" stroke-linecap="round"/>
</svg>
