<svg width="24" height="24" viewBox="0 0 24 24" fill="none" xmlns="http://www.w3.org/2000/svg">
<path fill-rule="evenodd" clip-rule="evenodd" d="M5 20V18.6759C5 17.0042 5.83551 15.443 7.2265 14.5157L8.50385 13.6641C9.69132 12.8725 9.69132 11.1275 8.50385 10.3359L7.2265 9.48433C5.83551 8.557 5 6.99585 5 5.32408V4C5 3.44772 5.44772 3 6 3H18C18.5523 3 19 3.44772 19 4V5.32408C19 6.99585 18.1645 8.557 16.7735 9.48433L15.4962 10.3359C14.3087 11.1275 14.3087 12.8725 15.4962 13.6641L16.7735 14.5157C18.1645 15.443 19 17.0042 19 18.6759V20C19 20.5523 18.5523 21 18 21H6C5.44772 21 5 20.5523 5 20ZM16.4085 6H7.22542C7.10092 6 7 6.10092 7 6.22542C7 6.37498 7.09124 6.50788 7.22758 6.56292C7.25134 6.57251 7.2755 6.58132 7.2983 6.59302C8.11174 7.01027 9.01126 7.28198 9.7509 7.81931C9.91684 7.93987 10.0736 8.07364 10.2197 8.21967L10.6222 8.6222C11.3221 9.32206 13.1081 9.17787 13.6174 8.32917C13.941 7.78971 14.4241 7.36397 15 7.11067L16.6499 6.55437C16.725 6.52133 16.7735 6.44702 16.7735 6.36496C16.7735 6.1634 16.6101 6 16.4085 6Z" stroke="black" stroke-width="1.5" stroke-linecap="round"/>
</svg>
