<svg width="24" height="24" viewBox="0 0 24 24" fill="none" xmlns="http://www.w3.org/2000/svg">
<path fill-rule="evenodd" clip-rule="evenodd" d="M5 4V5.32408C5 6.99585 5.83551 8.557 7.2265 9.48433L8.50385 10.3359C9.69132 11.1275 9.69132 12.8725 8.50385 13.6641L7.2265 14.5157C5.83551 15.443 5 17.0042 5 18.6759V20C5 20.5523 5.44772 21 6 21H18C18.5523 21 19 20.5523 19 20V18.6759C19 17.0042 18.1645 15.443 16.7735 14.5157L15.4962 13.6641C14.3087 12.8725 14.3087 11.1275 15.4962 10.3359L16.7735 9.48433C18.1645 8.557 19 6.99585 19 5.32408V4C19 3.44772 18.5523 3 18 3H6C5.44772 3 5 3.44772 5 4ZM16.4085 19H7.22542C7.10092 19 7 18.8991 7 18.7746C7 18.6121 7.10774 18.4692 7.26402 18.4246L9.52139 17.7796C10.1632 17.5962 10.7477 17.2523 11.2197 16.7803L11.6222 16.3778C12.3221 15.6779 13.4933 15.8221 14.0025 16.6708C14.3262 17.2103 14.8093 17.636 15.3851 17.8893L16.6499 18.4456C16.725 18.4787 16.7735 18.553 16.7735 18.635C16.7735 18.8366 16.6101 19 16.4085 19Z" stroke="black" stroke-width="1.5" stroke-linecap="round"/>
</svg>
