<svg width="24" height="24" viewBox="0 0 24 24" fill="none" xmlns="http://www.w3.org/2000/svg">
<path d="M5 5.32408V4C5 3.44772 5.44772 3 6 3H18C18.5523 3 19 3.44772 19 4V5.32408C19 6.99585 18.1645 8.557 16.7735 9.48433L15.4962 10.3359C14.3087 11.1275 14.3087 12.8725 15.4962 13.6641L16.7735 14.5157C18.1645 15.443 19 17.0042 19 18.6759V20C19 20.5523 18.5523 21 18 21H6C5.44772 21 5 20.5523 5 20V18.6759C5 17.0042 5.83551 15.443 7.2265 14.5157L8.50385 13.6641C9.69132 12.8725 9.69132 11.1275 8.50385 10.3359L7.2265 9.48433C5.83551 8.557 5 6.99585 5 5.32408Z" stroke="black" stroke-width="1.5" stroke-linecap="round"/>
</svg>
