<svg width="24" height="24" viewBox="0 0 24 24" fill="none" xmlns="http://www.w3.org/2000/svg">
<path d="M7.22542 6H16.4085C16.6101 6 16.7735 6.1634 16.7735 6.36496C16.7735 6.44702 16.725 6.52133 16.6499 6.55437L15 7.11067C14.4241 7.36397 13.941 7.78971 13.6174 8.32917C13.1081 9.17787 11.3221 9.32206 10.6222 8.6222L10.2197 8.21967C10.0736 8.07364 9.91684 7.93987 9.7509 7.81931C9.01126 7.28198 8.11174 7.01027 7.2983 6.59302C7.2755 6.58132 7.25134 6.57251 7.22758 6.56292C7.09124 6.50788 7 6.37498 7 6.22542C7 6.10092 7.10092 6 7.22542 6Z" stroke="black" stroke-width="1.5" stroke-linecap="round"/>
</svg>
