<svg width="24" height="24" viewBox="0 0 24 24" fill="none" xmlns="http://www.w3.org/2000/svg">
<path d="M10.5 20.9998H9C8.44772 20.9998 8 20.5521 8 19.9998V6.99985M10.5 20.9998V14.9998C10.5 14.4476 10.9477 13.9998 11.5 13.9998H12.5C13.0523 13.9998 13.5 14.4476 13.5 14.9998V17.4998M10.5 20.9998H13.5M13.5 20.9998H15C15.5523 20.9998 16 20.5521 16 19.9998V6.99985M13.5 20.9998V17.4998M8 6.99985L11.2929 3.70696C11.6834 3.31643 12.3166 3.31643 12.7071 3.70696L15 5.99985M8 6.99985L6 8.99985M16 6.99985L18 8.99985M16 6.99985L15 5.99985M13.5 17.4998H12.5M15 5.99985V3.49985M12 10.4998C12.8284 10.4998 13.5 9.82828 13.5 8.99985C13.5 8.17142 12.8284 7.49985 12 7.49985C11.1716 7.49985 10.5 8.17142 10.5 8.99985C10.5 9.82828 11.1716 10.4998 12 10.4998Z" stroke="black" stroke-width="1.5" stroke-linecap="round"/>
</svg>
