<svg width="24" height="24" viewBox="0 0 24 24" fill="none" xmlns="http://www.w3.org/2000/svg">
<path d="M18.5 12C18.5 12.2979 18.4844 12.5885 18.4537 12.8712M18.5 12C18.5 8.13401 15.866 5.5 12 5.5M18.5 12C18.5 12 18.5 12.3331 18.4537 12.8712M18.4537 12.8712C18.0867 16.2563 15.5681 18.5 12 18.5M18.4537 12.8712C18.2594 15.1299 17.2495 21 12 21M12 18.5C11.7021 18.5 11.4115 18.4844 11.1288 18.4537M12 18.5C12 18.5 11.6669 18.5 11.1288 18.4537M11.1288 18.4537C7.74368 18.0867 5.5 15.5681 5.5 12M11.1288 18.4537C8.87012 18.2594 3 17.2495 3 12M5.5 12C5.5 11.7021 5.51564 11.4115 5.54629 11.1288M5.5 12C5.5 12 5.5 11.6669 5.54629 11.1288M5.54629 11.1288C5.91329 7.74368 8.43193 5.5 12 5.5M5.54629 11.1288C5.74059 8.87012 6.75053 3 12 3M12 5.5C12 5.5 21 5 21 12M13 12C13 11.4477 12.5523 11 12 11C11.4477 11 11 11.4477 11 12C11 12.5523 11.4477 13 12 13C12.5523 13 13 12.5523 13 12Z" stroke="black" stroke-width="1.5" stroke-linecap="round"/>
</svg>
