<svg width="24" height="24" viewBox="0 0 24 24" fill="none" xmlns="http://www.w3.org/2000/svg">
<path d="M5 12V4C5 3.44772 5.44772 3 6 3H18C18.5523 3 19 3.44771 19 4V14M5 12V20C5 20.5523 5.44772 21 6 21H18C18.5523 21 19 20.5523 19 20V14M5 12H6.54899C8.11835 12 9.62342 12.6234 10.7331 13.7331C12.6531 15.6531 15.6334 16.02 17.9617 14.623L19 14M12 8C12 6.89543 12.8954 6 14 6C15.1046 6 16 6.89543 16 8C16 9.10457 15.1046 10 14 10C12.8954 10 12 9.10457 12 8Z" stroke="black" stroke-width="1.5" stroke-linecap="round"/>
</svg>
