<svg width="24" height="24" viewBox="0 0 24 24" fill="none" xmlns="http://www.w3.org/2000/svg">
<path d="M4 10V5C4 4.44772 4.44772 4 5 4H19C19.5523 4 20 4.44772 20 5V10M4 10V14M4 10L7.2929 6.70711C7.68342 6.31658 8.31659 6.31658 8.70711 6.70711L11.2929 9.29289C11.6834 9.68342 12.3166 9.68342 12.7071 9.29289L15.2929 6.70711C15.6834 6.31658 16.3166 6.31658 16.7071 6.70711L20 10M4 14L4 18M4 14L7.2929 10.7071C7.68342 10.3166 8.31659 10.3166 8.70711 10.7071L11.2929 13.2929C11.6834 13.6834 12.3166 13.6834 12.7071 13.2929L15.2929 10.7071C15.6834 10.3166 16.3166 10.3166 16.7071 10.7071L20 14M4 18L4 19C4 19.5523 4.44772 20 5 20H19C19.5523 20 20 19.5523 20 19L20 18M4 18L7.29289 14.7071C7.68342 14.3166 8.31658 14.3166 8.70711 14.7071L11.2929 17.2929C11.6834 17.6834 12.3166 17.6834 12.7071 17.2929L15.2929 14.7071C15.6834 14.3166 16.3166 14.3166 16.7071 14.7071L20 18M20 18L20 14M20 14V10" stroke="black" stroke-width="1.5" stroke-linecap="round"/>
</svg>
