<svg width="24" height="24" viewBox="0 0 24 24" fill="none" xmlns="http://www.w3.org/2000/svg">
<path d="M12 10.9998L20.9822 7.0079M12 10.9998V20.9904M12 10.9998L3.01779 7.0079M20.9822 7.0079C20.972 6.99312 20.9577 6.98106 20.9406 6.97345L12.0406 3.0179C12.0148 3.0064 11.9852 3.0064 11.9594 3.0179L3.05939 6.97345C3.04226 6.98106 3.02802 6.99312 3.01779 7.0079M20.9822 7.0079C20.9936 7.0243 21 7.04405 21 7.06483V16.9349C21 16.9744 20.9767 17.0102 20.9406 17.0262L12.0406 20.9818C12.0277 20.9875 12.0138 20.9904 12 20.9904M3.01779 7.0079C3.00643 7.0243 3 7.04405 3 7.06483V16.9349C3 16.9744 3.02327 17.0102 3.05939 17.0262L11.9594 20.9818C11.9723 20.9875 11.9862 20.9904 12 20.9904M11.9605 5.51693L8.71447 6.90809C8.63366 6.94272 8.63366 7.05728 8.71447 7.09191L11.9607 8.48316C11.9858 8.49392 12.0142 8.49394 12.0393 8.48324L15.2854 7.09941C15.3662 7.06493 15.3665 6.95037 15.2857 6.91558L12.0395 5.517C12.0143 5.50615 11.9857 5.50612 11.9605 5.51693Z" stroke="black" stroke-width="1.5" stroke-linecap="round"/>
</svg>
