<svg width="24" height="24" viewBox="0 0 24 24" fill="none" xmlns="http://www.w3.org/2000/svg">
<path d="M12 14C14.2091 14 16 12.2091 16 10M12 14C9.79086 14 8 12.2091 8 10M12 14C13.0027 12.8588 13.5013 11.4298 13.4995 10M12 14C10.998 12.8549 10.4971 11.4275 10.4971 10M16 10C16 7.79086 14.2091 6 12 6M16 10H13.4995M8 10C8 7.79086 9.79086 6 12 6M8 10H10.4971M12 6C12.9966 7.14366 13.4976 8.57223 13.4995 10M12 6C10.998 7.1451 10.4971 8.57255 10.4971 10M13.4995 10H10.4971M6.96727 15.2482L11.9248 20.914C11.9646 20.9595 12.0355 20.9595 12.0753 20.914L17.0328 15.2483C18.2946 13.8062 18.9466 11.9301 18.8509 10.0163L18.8246 9.49189C18.6428 5.85524 15.6412 3 12.0001 3C8.35886 3 5.35729 5.85524 5.17546 9.49189L5.14924 10.0163C5.05355 11.9301 5.70546 13.8062 6.96727 15.2482Z" stroke="black" stroke-width="1.5" stroke-linecap="round"/>
</svg>
