<svg width="24" height="24" viewBox="0 0 24 24" fill="none" xmlns="http://www.w3.org/2000/svg">
<path d="M7.5 8L9.75 6M7.5 8L5.25 10M7.5 8L16.5 16M9.75 6L11.9336 4.05905C11.9715 4.02538 12.0285 4.02538 12.0664 4.05905L14.25 6M9.75 6L18.75 14M16.5 8L14.25 6M16.5 8L18.75 10M16.5 8L7.5 16M14.25 6L5.25 14M18.75 10L20.9159 11.9253C20.9607 11.965 20.9607 12.035 20.9159 12.0747L18.75 14M18.75 10L9.75 18M16.5 16L18.75 14M16.5 16L14.25 18M14.25 18L12.0664 19.9409C12.0285 19.9746 11.9715 19.9746 11.9336 19.9409L9.75 18M14.25 18L5.25 10M7.5 16L9.75 18M7.5 16L5.25 14M5.25 14L3.08408 12.0747C3.03933 12.035 3.03933 11.965 3.08408 11.9253L5.25 10" stroke="black" stroke-width="1.5" stroke-linecap="round"/>
</svg>
