<svg width="24" height="24" viewBox="0 0 24 24" fill="none" xmlns="http://www.w3.org/2000/svg">
<path d="M13 8.82929C13.3726 8.69759 13.7115 8.49436 14 8.23611C14.6137 7.68679 15 6.8885 15 6C15 4.34315 13.6569 3 12 3C10.3431 3 9 4.34315 9 6C9 7.30622 9.83481 8.41746 11 8.82929M13 8.82929C12.6872 8.93985 12.3506 9 12 9C11.6494 9 11.3128 8.93985 11 8.82929M13 8.82929V10.5M11 8.82929V10.5M13 10.5V13.6413C13 13.9066 12.9011 14.1774 12.6608 14.2897C12.2586 14.4775 11.7414 14.4775 11.3392 14.2897C11.0989 14.1774 11 13.9066 11 13.6413V10.5M13 10.5L20.4061 13.7916C20.5612 13.8605 20.6926 13.9659 20.7921 14.095M11 10.5L3.59386 13.7916C3.43879 13.8605 3.30739 13.9659 3.20794 14.095M12 20.9057C11.8616 20.9057 11.7231 20.877 11.5939 20.8195L3.59386 17.2639C3.23273 17.1034 3 16.7453 3 16.3501V14.7054C3 14.4799 3.07577 14.2665 3.20794 14.095M12 20.9057C12.1384 20.9057 12.2769 20.877 12.4061 20.8195L20.4061 17.2639C20.7673 17.1034 21 16.7453 21 16.3501V14.7054C21 14.4799 20.9242 14.2665 20.7921 14.095M12 20.9057V18.0556M12 18.0556L3.20794 14.095M12 18.0556L20.7921 14.095" stroke="black" stroke-width="1.5" stroke-linecap="round"/>
</svg>
