<svg width="24" height="24" viewBox="0 0 24 24" fill="none" xmlns="http://www.w3.org/2000/svg">
<path d="M9.61305 8.89236L3.74419 12.3158C3.51332 12.4505 3.327 12.6415 3.19853 12.8657M9.61305 8.89236C8.78055 8.20455 8.25 7.16423 8.25 6C8.25 3.92893 9.92893 2.25 12 2.25C14.0711 2.25 15.75 3.92893 15.75 6C15.75 7.16423 15.2195 8.20455 14.3869 8.89236M9.61305 8.89236C9.88014 9.11303 10.1783 9.29741 10.5 9.43797M14.3869 8.89236L20.2558 12.3158C20.4867 12.4505 20.673 12.6415 20.8015 12.8657M14.3869 8.89236C14.1199 9.11303 13.8217 9.29741 13.5 9.43797M3.19853 12.8657L11.2442 17.559C11.4777 17.6953 11.7389 17.7634 12 17.7634M3.19853 12.8657C3.07056 13.089 3 13.3453 3 13.6115V15.6384C3 16.1719 3.28337 16.6652 3.74419 16.934L11.2442 21.309C11.4777 21.4453 11.7389 21.5134 12 21.5134M20.8015 12.8657C20.9294 13.089 21 13.3453 21 13.6115V15.6384C21 16.1719 20.7166 16.6652 20.2558 16.934L12.7558 21.309C12.5223 21.4453 12.2611 21.5134 12 21.5134M20.8015 12.8657L12.7558 17.559C12.5223 17.6953 12.2611 17.7634 12 17.7634M12 17.7634V21.5134M10.5 9.43797C10.9593 9.63866 11.4667 9.75 12 9.75C12.5333 9.75 13.0407 9.63866 13.5 9.43797M10.5 9.43797V11.884C10.5 12.4199 10.7859 12.9151 11.25 13.183C11.7141 13.451 12.2859 13.451 12.75 13.183C13.2141 12.9151 13.5 12.4199 13.5 11.884V9.43797" stroke="black" stroke-width="1.5" stroke-miterlimit="1.78829" stroke-linecap="round" stroke-linejoin="round"/>
</svg>
