<svg width="24" height="24" viewBox="0 0 24 24" fill="none" xmlns="http://www.w3.org/2000/svg">
<path d="M12 4H20.0838C20.9747 4 21.4209 5.07714 20.7909 5.70711L15.2051 11.2929C14.8146 11.6834 14.8146 12.3166 15.2051 12.7071L20.7909 18.2929C21.4209 18.9229 20.9747 20 20.0838 20H12M12 4H11.998M12 4V20M11.998 4V20M11.998 4H3.91421C3.0233 4 2.57713 5.07714 3.2071 5.70711L8.79289 11.2929C9.18341 11.6834 9.18341 12.3166 8.79289 12.7071L3.2071 18.2929C2.57714 18.9229 3.0233 20 3.91421 20H11.998M11.998 20H12" stroke="black" stroke-width="1.5" stroke-linecap="round"/>
</svg>
