<svg width="24" height="24" viewBox="0 0 24 24" fill="none" xmlns="http://www.w3.org/2000/svg">
<path d="M14.5 9V5.30278C14.5 5.10535 14.5584 4.91234 14.6679 4.74808L15.4355 3.59669C15.4776 3.53364 15.5 3.45957 15.5 3.3838C15.5 3.17183 15.3282 3 15.1162 3H7.8838C7.67183 3 7.5 3.17183 7.5 3.3838C7.5 3.45957 7.52243 3.53364 7.56446 3.59669L8.33205 4.74808C8.44156 4.91234 8.5 5.10535 8.5 5.30278V9.72965C8.5 9.90671 8.45299 10.0806 8.36378 10.2335L5.53616 15.0809C5.18502 15.6828 5 16.3672 5 17.0641C5 19.2378 6.76217 21 8.93593 21H15.25C17.0642 21 18.5775 19.7117 18.925 18C18.9742 17.7577 19 17.5068 19 17.25C19 16.4386 18.7368 15.6491 18.25 15L14.7 10.2667C14.5702 10.0936 14.5 9.88304 14.5 9.66667V9ZM14.5 9H12.5M12.5 12H14.5M12.5 15H14.5M12.5 18H14.5" stroke="black" stroke-width="1.5" stroke-linecap="round"/>
</svg>
