<svg width="24" height="24" viewBox="0 0 24 24" fill="none" xmlns="http://www.w3.org/2000/svg">
<path d="M12 19V20.5M12 2.5L12 7.5M12 7.5C12 7.5 9.00001 7.5 7 9.5C5.59932 10.9007 5.67007 12.7918 5.83824 13.7995C5.9091 14.224 6.29033 14.5 6.72076 14.5H17.2792C17.7097 14.5 18.0909 14.224 18.1618 13.7995C18.3299 12.7918 18.4007 10.9007 17 9.5C15 7.5 12 7.5 12 7.5ZM10 14.5C10 16.5 11 17 12 17C13 17 14 16.5 14 14.5M15.5 17.5L16.5 18.5M8.49999 17.5L7.5 18.5" stroke="black" stroke-width="1.5" stroke-linecap="round"/>
</svg>
