<svg width="24" height="24" viewBox="0 0 24 24" fill="none" xmlns="http://www.w3.org/2000/svg">
<path d="M12.0718 11H18.5807C18.8123 11 19 10.8123 19 10.5807C19 10.5274 18.9898 10.4746 18.97 10.425L16.2514 3.62861C16.0996 3.24895 15.7319 3 15.323 3H8.67703C8.26813 3 7.90042 3.24895 7.74856 3.62861L5.02999 10.425C5.01018 10.4746 5 10.5274 5 10.5807C5 10.8123 5.18771 11 5.41926 11H8.5359M12.0718 11V21M12.0718 11H8.5359M12.0718 21H17M12.0718 21H7M8.5359 11V16" stroke="black" stroke-width="1.5" stroke-linecap="round"/>
</svg>
