<svg width="24" height="24" viewBox="0 0 24 24" fill="none" xmlns="http://www.w3.org/2000/svg">
<path d="M18 9.99982C18.8284 9.99982 19.5 9.32825 19.5 8.49982C19.5 7.6714 18.8284 6.99982 18 6.99982C17.4472 6.99982 16.9643 7.29881 16.7041 7.74389M18 9.99982C17.4472 9.99982 16.9643 9.70083 16.7041 9.25575M18 9.99982V13.9998M18 13.9998C17.1716 13.9998 16.5 14.6714 16.5 15.4998C16.5 15.7755 16.5744 16.0338 16.7041 16.2558M18 13.9998C18.8284 13.9998 19.5 14.6714 19.5 15.4998C19.5 16.3282 18.8284 16.9998 18 16.9998C17.4472 16.9998 16.9643 16.7008 16.7041 16.2558M12 17.4998C12.5528 17.4998 13.0357 17.7988 13.2959 18.2439M12 17.4998C11.4472 17.4998 10.9643 17.7988 10.7041 18.2439M12 17.4998V13.4998M12 13.4998C12.8284 13.4998 13.5 12.8282 13.5 11.9998C13.5 11.7242 13.4256 11.4659 13.2959 11.2439M12 13.4998C11.1716 13.4998 10.5 12.8282 10.5 11.9998C10.5 11.7242 10.5744 11.4659 10.7041 11.2439M6 9.99982C5.17157 9.99982 4.5 9.32825 4.5 8.49982C4.5 7.6714 5.17157 6.99982 6 6.99982C6.55276 6.99982 7.03569 7.29881 7.29588 7.74389M6 9.99982C6.55276 9.99982 7.03569 9.70083 7.29588 9.25575M6 9.99982V14M6 14C5.17157 14 4.5 14.6716 4.5 15.5C4.5 16.3284 5.17157 17 6 17C6.55282 17 7.03578 16.7009 7.29596 16.2558M6 14C6.82843 14 7.5 14.6716 7.5 15.5C7.5 15.7756 7.42567 16.0339 7.29596 16.2558M10.7041 11.2439C10.9643 10.7988 11.4472 10.4998 12 10.4998C12.5528 10.4998 13.0357 10.7988 13.2959 11.2439M10.7041 11.2439L7.29588 9.25575M13.2959 11.2439L16.7041 9.25575M13.2959 18.2439C13.4256 18.4659 13.5 18.7242 13.5 18.9998C13.5 19.8282 12.8284 20.4998 12 20.4998C11.1716 20.4998 10.5 19.8282 10.5 18.9998C10.5 18.7242 10.5744 18.4659 10.7041 18.2439M13.2959 18.2439L16.7041 16.2558M10.7041 18.2439L7.29596 16.2558M7.29588 9.25575C7.42564 9.03379 7.5 8.77549 7.5 8.49982C7.5 8.22416 7.42564 7.96586 7.29588 7.74389M7.29588 7.74389L10.704 5.7558M13.296 5.7558C13.4257 5.53386 13.5 5.27561 13.5 5C13.5 4.17157 12.8284 3.5 12 3.5C11.1716 3.5 10.5 4.17157 10.5 5C10.5 5.27561 10.5743 5.53386 10.704 5.7558M13.296 5.7558C13.0358 6.20095 12.5528 6.5 12 6.5C11.4472 6.5 10.9642 6.20095 10.704 5.7558M13.296 5.7558L16.7041 7.74389M16.7041 7.74389C16.5744 7.96586 16.5 8.22416 16.5 8.49982C16.5 8.77549 16.5744 9.03379 16.7041 9.25575" stroke="black" stroke-width="1.5" stroke-linecap="round"/>
</svg>
