<svg width="24" height="24" viewBox="0 0 24 24" fill="none" xmlns="http://www.w3.org/2000/svg">
<path d="M15.375 11.9999L20.7715 14.3984C20.9105 14.4601 21 14.5979 21 14.7499C21 14.9019 20.9105 15.0397 20.7715 15.1015L12.4061 18.8194C12.1476 18.9343 11.8524 18.9343 11.5939 18.8194L3.22845 15.1015C3.08953 15.0397 3 14.9019 3 14.7499C3 14.5979 3.08953 14.4601 3.22845 14.3984L8.625 11.9999M15.375 11.9999L12.4061 13.3194C12.1476 13.4343 11.8524 13.4343 11.5939 13.3194L8.625 11.9999M15.375 11.9999L20.7715 9.60146C20.9105 9.53971 21 9.40195 21 9.24992C21 9.0979 20.9105 8.96013 20.7715 8.89839L12.4061 5.18043C12.1476 5.06551 11.8524 5.06551 11.5939 5.18043L3.22845 8.89839C3.08953 8.96013 3 9.0979 3 9.24992C3 9.40195 3.08953 9.53971 3.22845 9.60146L8.625 11.9999" stroke="black" stroke-width="1.5" stroke-linecap="round"/>
</svg>
