<svg width="24" height="24" viewBox="0 0 24 24" fill="none" xmlns="http://www.w3.org/2000/svg">
<path d="M8.08114 15.5C8.24698 14.9673 8.62728 14.4396 8.84303 13.5C8.90962 13.21 8.96054 12.8807 8.98464 12.5M15.9189 15.5C15.753 14.9673 15.3727 14.4396 15.157 13.5C15.0904 13.21 15.0395 12.8807 15.0154 12.5M15.9295 8C15.8204 8.42677 15.6027 8.90097 15.4054 9.5M8.07049 8C8.17956 8.42677 8.39727 8.90097 8.59458 9.5M10.5 6.95152C10.9275 6.72362 11.2692 6.4247 11.4714 6.05476C11.4895 6.02152 11.5239 6 11.5618 6H12.4465C12.4799 6 12.5111 6.01675 12.5299 6.0444C12.8474 6.51123 13.1655 6.82834 13.5 7.04375M10.5 16.2155C10.9557 16.3586 11.4376 16.5886 11.9397 16.9553C11.9756 16.9816 12.0244 16.9816 12.0603 16.9553C12.5624 16.5886 13.0443 16.3586 13.5 16.2155M12.0853 20.3767C13.0981 18.9638 15.0077 18.0503 16.9283 18.965C16.9702 18.9849 17.021 18.9748 17.0507 18.9392L19.4415 16.0702C19.4746 16.0304 19.472 15.9723 19.4366 15.9346C18.4789 14.9146 18 12.9573 18 11C18 9.05927 18.9416 8.06014 19.9111 7.54578C19.9599 7.5199 19.98 7.45996 19.9553 7.41056L18.5447 4.58944C18.52 4.54004 18.4603 4.52009 18.4095 4.5416C17.3372 4.99521 14.4968 4.94359 13.0305 3.04007C13.0112 3.01513 12.9815 3 12.95 3H11.05C11.0185 3 10.9887 3.01513 10.9695 3.04007C9.50319 4.94359 6.66276 4.99521 5.59055 4.5416C5.53968 4.52009 5.47998 4.54004 5.45528 4.58944L4.04472 7.41056C4.02002 7.45996 4.04008 7.5199 4.08887 7.54578C5.05839 8.06014 6 9.05927 6 11C6 12.9573 5.52113 14.9146 4.56338 15.9346C4.52798 15.9723 4.52535 16.0304 4.55846 16.0702L6.9493 18.9392C6.979 18.9748 7.02982 18.9849 7.07171 18.965C8.99233 18.0503 10.9019 18.9638 11.9147 20.3767C11.9563 20.4347 12.0437 20.4347 12.0853 20.3767Z" stroke="black" stroke-width="1.5" stroke-linecap="round"/>
</svg>
