<svg width="24" height="24" viewBox="0 0 24 24" fill="none" xmlns="http://www.w3.org/2000/svg">
<path d="M5.00006 10.2222L11.4786 14.1813C11.7987 14.377 12.2014 14.377 12.5215 14.1813L19.0001 10.2222M5.00006 10.2222V8M5.00006 10.2222L3.14986 9.09158M19.0001 10.2222V8M19.0001 10.2222L20.8502 9.09155M19.0001 8V6C19.0001 5.44772 18.5523 5 18.0001 5H6.00006C5.44778 5 5.00006 5.44772 5.00006 6V8M19.0001 8L20.4473 8.72361C20.6164 8.80817 20.7544 8.9368 20.8502 9.09155M5.00006 8L3.55285 8.72361C3.38372 8.80817 3.24569 8.93681 3.14986 9.09158M20.8502 9.09155C20.9464 9.2468 21.0001 9.42834 21.0001 9.61803V18.0001C21.0001 18.5524 20.5523 19.0001 20.0001 19.0001H4.00006C3.44778 19.0001 3.00006 18.5524 3.00006 18.0001V9.61803C3.00006 9.42835 3.05373 9.24682 3.14986 9.09158" stroke="black" stroke-width="1.5" stroke-linecap="round"/>
</svg>
