<svg width="24" height="24" viewBox="0 0 24 24" fill="none" xmlns="http://www.w3.org/2000/svg">
<path d="M3.32021 5.76681C3.49864 5.60124 3.73762 5.5 4.00024 5.5H20.0002C20.2628 5.5 20.5018 5.6012 20.6802 5.76672M3.32021 5.76681C3.1234 5.94944 3.00024 6.21034 3.00024 6.5V17.5C3.00024 18.0523 3.44796 18.5 4.00024 18.5H13.0247M3.32021 5.76681L11.3599 12.4665C11.7307 12.7755 12.2694 12.7756 12.6402 12.4665L20.6802 5.76672M20.6802 5.76672C20.877 5.94935 21.0002 6.21029 21.0002 6.5V13.9998M21.0002 13.9998C20.1645 13.372 19.1257 13 18 13C15.2386 13 13 15.2386 13 18C13 18.1687 13.0084 18.3355 13.0247 18.5M21.0002 13.9998C22.2146 14.912 23 16.3643 23 18C23 20.7614 20.7614 23 18 23C15.4073 23 13.2755 21.0267 13.0247 18.5M16 18L17.4293 19.4293C17.4683 19.4683 17.5317 19.4683 17.5707 19.4293L20 17" stroke="black" stroke-width="1.5" stroke-linecap="round"/>
</svg>
