<svg width="24" height="24" viewBox="0 0 24 24" fill="none" xmlns="http://www.w3.org/2000/svg">
<path d="M17.5 17L18 17.5M6.5 17L6 17.5M19.5 11.5H20.5M4.5 11.5H3.5M6 5.5L5.5 5M18 5.5L18.5 5M12 3V2M10.5 18.5V19C10.5 19.8284 11.1716 20.5 12 20.5C12.8284 20.5 13.5 19.8284 13.5 19V18.5M10.5 18.5H13.5M10.5 18.5C10.2239 18.5 10 18.2761 10 18V15.1187C10 15.0425 9.97069 14.9692 9.91815 14.9141C9.26443 14.2278 8.48842 13.6489 7.92078 12.8899C7.33042 12.1006 7 11.1322 7 10.1216C7 7.56917 9 5.5 12 5.5C15 5.5 17 7.56917 17 10.1216C17 11.1322 16.6696 12.1006 16.0792 12.8899C15.5116 13.6489 14.7356 14.2278 14.0819 14.9141C14.0293 14.9692 14 15.0425 14 15.1187V18C14 18.2761 13.7761 18.5 13.5 18.5" stroke="black" stroke-width="1.5" stroke-linecap="round"/>
</svg>
