<svg width="24" height="24" viewBox="0 0 24 24" fill="none" xmlns="http://www.w3.org/2000/svg">
<path d="M10.5 18V18.5C10.5 19.3284 11.1716 20 12 20C12.8284 20 13.5 19.3284 13.5 18.5V18M10.5 18H13.5M10.5 18C10.2239 18 10 17.7761 10 17.5V14.6187C10 14.5425 9.97069 14.4692 9.91815 14.4141C9.26443 13.7278 8.48842 13.1489 7.92078 12.3899C7.33042 11.6006 7 10.6322 7 9.62163C7 7.06917 9 5 12 5C15 5 17 7.06917 17 9.62163C17 10.6322 16.6696 11.6006 16.0792 12.3899C15.5116 13.1489 14.7356 13.7278 14.0819 14.4141C14.0293 14.4692 14 14.5425 14 14.6187V17.5C14 17.7761 13.7761 18 13.5 18" stroke="black" stroke-width="1.5" stroke-linecap="round"/>
</svg>
