<svg width="24" height="24" viewBox="0 0 24 24" fill="none" xmlns="http://www.w3.org/2000/svg">
<path d="M7.50006 19.5H17.382C17.7608 19.5 18.1071 19.286 18.2765 18.9472L19.6584 16.1831C20.3913 14.7173 20.8324 13.1264 20.9607 11.4989C21.0042 10.9483 20.5523 10.4999 20.0001 10.4999L15.854 10.4999C15.1812 10.4999 14.7004 9.84884 14.8982 9.20579L15.7648 6.38932C16.0884 5.33779 15.4291 4.2747 14.4111 4.04524C14.1524 3.98692 13.8947 4.10523 13.7072 4.29276L7.50006 10.4999M7.50006 19.5H4.00006C3.44778 19.5 3.00006 19.0523 3.00006 18.5V11.4999C3.00006 10.9476 3.44777 10.4999 4.00006 10.4999L7.50006 10.4999M7.50006 19.5V10.4999" stroke="black" stroke-width="1.5" stroke-linecap="round"/>
</svg>
