<svg width="24" height="24" viewBox="0 0 24 24" fill="none" xmlns="http://www.w3.org/2000/svg">
<path d="M10.5 12H19.5M10.5 5H19.5M10.5 19H19.5M4.5 3H5.9C5.95523 3 6 3.04477 6 3.1V7M7.5 13.5H4.6C4.54477 13.5 4.49944 13.4551 4.50539 13.4002C4.535 13.1267 4.68523 12.8785 4.91809 12.7258L6.94704 11.395C7.29405 11.1471 7.5 10.7469 7.5 10.3205C7.5 9.59119 6.90881 9 6.17953 9H6C5.17157 9 4.5 9.67157 4.5 10.5M6.5 18H6M6.5 18L6.81672 17.8416C7.23548 17.6323 7.5 17.2043 7.5 16.7361C7.5 16.0534 6.94659 15.5 6.26393 15.5H6C5.34689 15.5 4.79127 15.9174 4.58535 16.5M6.5 18L6.81672 18.1584C7.23548 18.3677 7.5 18.7957 7.5 19.2639C7.5 19.9466 6.94659 20.5 6.26393 20.5H6C5.34689 20.5 4.79127 20.0826 4.58535 19.5" stroke="black" stroke-width="1.5" stroke-linecap="round"/>
</svg>
