<svg width="24" height="24" viewBox="0 0 24 24" fill="none" xmlns="http://www.w3.org/2000/svg">
<path d="M10.5 12H19.5M10.5 5H19.5M10.5 19H19.5M5.5 19C5.5 19.4142 5.16421 19.75 4.75 19.75C4.33579 19.75 4 19.4142 4 19C4 18.5858 4.33579 18.25 4.75 18.25C5.16421 18.25 5.5 18.5858 5.5 19ZM5.5 5C5.5 5.41421 5.16421 5.75 4.75 5.75C4.33579 5.75 4 5.41421 4 5C4 4.58579 4.33579 4.25 4.75 4.25C5.16421 4.25 5.5 4.58579 5.5 5ZM5.5 12C5.5 12.4142 5.16421 12.75 4.75 12.75C4.33579 12.75 4 12.4142 4 12C4 11.5858 4.33579 11.25 4.75 11.25C5.16421 11.25 5.5 11.5858 5.5 12Z" stroke="black" stroke-width="1.5" stroke-linecap="round"/>
</svg>
