<svg width="24" height="24" viewBox="0 0 24 24" fill="none" xmlns="http://www.w3.org/2000/svg">
<path d="M12 14.5L7.99964 18.2068C7.44934 18.7167 6.72677 19 5.97654 19C4.33264 19 3 17.6674 3 16.0235V10.6827C3 8.53094 4.49448 6.6679 6.59499 6.20112C7.1923 6.06838 7.81012 6.05639 8.41214 6.16585L13 7.00001M12 14.5H13.208C13.71 14.5 14.2026 14.4209 14.6696 14.2705M12 14.5C10.8 11.3 12.1667 8.16667 13 7.00001M13 7.00001L17.3778 6.56222C17.7889 6.52112 18.204 6.55829 18.6012 6.67178L19.8587 7.03105C20.7858 7.29596 21.3543 8.22831 21.1652 9.17387C21.0603 9.69872 20.7332 10.1524 20.2685 10.418L17.9947 11.7173C17.6679 11.9041 17.3792 12.151 17.1441 12.4449L16.9318 12.7102C16.7752 12.906 16.6047 13.0876 16.4223 13.254M16.4223 13.254C16.9182 13.0892 17.4487 13 18 13C20.7614 13 23 15.2386 23 18C23 20.7614 20.7614 23 18 23C15.2386 23 13 20.7614 13 18C13 16.5177 13.645 15.1861 14.6696 14.2705M16.4223 13.254C15.7675 13.4716 15.1728 13.8209 14.6696 14.2705M18.9142 18.9142C18.5523 19.2761 18.0523 19.5 17.5 19.5C16.3954 19.5 15.5 18.6046 15.5 17.5C15.5 16.3954 16.3954 15.5 17.5 15.5C18.6046 15.5 19.5 16.3954 19.5 17.5C19.5 18.0523 19.2761 18.5523 18.9142 18.9142ZM18.9142 18.9142L20 20" stroke="black" stroke-width="1.5" stroke-linecap="round"/>
</svg>
