<svg width="24" height="24" viewBox="0 0 24 24" fill="none" xmlns="http://www.w3.org/2000/svg">
<path d="M12 14.5L7.99964 18.2068C7.44934 18.7167 6.72677 19 5.97654 19C4.33264 19 3 17.6674 3 16.0235V10.6827C3 8.53094 4.49448 6.6679 6.59499 6.20112C7.1923 6.06838 7.81012 6.05639 8.41214 6.16585L13 7.00001M12 14.5H13.208C14.6567 14.5 16.0268 13.8415 16.9318 12.7102L17.1441 12.4449C17.3792 12.151 17.6679 11.9041 17.9947 11.7173L20.2685 10.418C20.7332 10.1524 21.0603 9.69872 21.1652 9.17387C21.3543 8.22831 20.7858 7.29596 19.8587 7.03105L18.6012 6.67178C18.204 6.55829 17.7889 6.52112 17.3778 6.56222L13 7.00001M12 14.5C10.8 11.3 12.1667 8.16667 13 7.00001" stroke="black" stroke-width="1.5" stroke-linecap="round"/>
</svg>
