<svg width="24" height="24" viewBox="0 0 24 24" fill="none" xmlns="http://www.w3.org/2000/svg">
<path d="M5.00001 9.50004C3.83807 9.50004 3.20742 8.87499 3.01728 8.53273C3.00569 8.51186 3.00319 8.48731 3.00898 8.46415L3.98107 4.57578C3.9922 4.53127 4.0322 4.50004 4.07809 4.50004H5.92193C5.96782 4.50004 6.00782 4.53127 6.01895 4.57578L6.99104 8.46415C6.99683 8.48731 6.99433 8.51186 6.98274 8.53273C6.7926 8.87499 6.16195 9.50004 5.00001 9.50004ZM5.00001 9.50004L4.99998 19.5M18.7271 15.5H18.4771C18.0628 15.5 17.7271 15.8358 17.7271 16.25C17.7271 16.6642 17.3913 17 16.9771 17H11.2582C10.844 17 10.5082 16.6642 10.5082 16.25C10.5082 15.8358 10.1724 15.5 9.75817 15.5H9.72706M18.7271 15.5H19.5C20.0523 15.5 20.5 15.9477 20.5 16.5V18.5C20.5 19.0523 20.0523 19.5 19.5 19.5H8.72706C8.17478 19.5 7.72706 19.0523 7.72706 18.5V16.5C7.72706 15.9477 8.17478 15.5 8.72706 15.5H9.72706M18.7271 15.5V13.5C18.7271 12.9478 18.2793 12.5001 17.7271 12.5L10.7271 12.5C10.1748 12.5 9.72706 12.9477 9.72706 13.5V15.5M15.5 8H19.5C20.0523 8 20.5 7.55228 20.5 7V5.5C20.5 4.94772 20.0523 4.5 19.5 4.5H15.5C14.9477 4.5 14.5 4.94772 14.5 5.5V7C14.5 7.55228 14.9477 8 15.5 8Z" stroke="black" stroke-width="1.5" stroke-linecap="round"/>
</svg>
