<svg width="24" height="24" viewBox="0 0 24 24" fill="none" xmlns="http://www.w3.org/2000/svg">
<path fill-rule="evenodd" clip-rule="evenodd" d="M11.9247 20.914L6.96723 15.2482C5.70541 13.8062 5.0535 11.9301 5.14919 10.0163L5.17541 9.49189C5.35725 5.85524 8.35881 3 12 3C15.6412 3 18.6428 5.85524 18.8246 9.49189L18.8508 10.0163C18.9465 11.9301 18.2946 13.8062 17.0328 15.2483L12.0753 20.914C12.0354 20.9595 11.9646 20.9595 11.9247 20.914ZM12 7C13.6569 7 15 8.34315 15 10C15 11.6569 13.6569 13 12 13C10.3432 13 9.00001 11.6569 9.00001 10C9.00001 8.34315 10.3432 7 12 7Z" stroke="black" stroke-width="1.5" stroke-linecap="round"/>
</svg>
