<svg width="24" height="24" viewBox="0 0 24 24" fill="none" xmlns="http://www.w3.org/2000/svg">
<path d="M18 18V15.5M18 18H20.5M18 18V20.5M18 18H15.5M18.3763 13.0139C18.2521 13.0047 18.1266 13 18 13C15.2386 13 13 15.2386 13 18C13 18.5484 13.0883 19.0761 13.2514 19.5698M18.3763 13.0139C20.962 13.2063 23 15.3652 23 18C23 20.7614 20.7614 23 18 23C15.7869 23 13.9097 21.5622 13.2514 19.5698M18.3763 13.0139C18.737 12.067 18.9023 11.0471 18.8508 10.0163L18.8246 9.49189C18.6428 5.85524 15.6412 3 12 3C8.3588 3 5.35723 5.85524 5.1754 9.49189L5.14918 10.0163C5.05349 11.9301 5.70539 13.8062 6.96721 15.2482L11.2474 20.1399C11.6458 20.5952 12.3542 20.5952 12.7526 20.1399L13.2514 19.5698M15 10C15 8.34315 13.6568 7 12 7C10.3431 7 8.99999 8.34315 8.99999 10C8.99999 11.6569 10.3431 13 12 13C13.6568 13 15 11.6569 15 10Z" stroke="black" stroke-width="1.5" stroke-linecap="round"/>
</svg>
