<svg width="24" height="24" viewBox="0 0 24 24" fill="none" xmlns="http://www.w3.org/2000/svg">
<path d="M12 10.5V11M12 10.5C10.6193 10.5 9.49999 9.38071 9.49999 8C9.49999 6.61929 10.6193 5.5 12 5.5C13.3807 5.5 14.5 6.61929 14.5 8C14.5 9.38071 13.3807 10.5 12 10.5ZM12 11V14M12 11C12 11 13.1728 11.7819 13.7901 13M12 11C12 11 10.8271 11.7819 10.2099 13M12 14C12 14 13.1164 14.8333 13.311 16.5M12 14C12 14 10.75 14.8333 10.5322 16.5M11.2474 20.1399L6.96721 15.2482C5.70539 13.8062 5.05349 11.9301 5.14918 10.0163L5.1754 9.49189C5.35723 5.85524 8.3588 3 12 3C15.6412 3 18.6428 5.85524 18.8246 9.49189L18.8508 10.0163C18.9465 11.9301 18.2946 13.8062 17.0328 15.2483L12.7526 20.1399C12.3542 20.5952 11.6458 20.5952 11.2474 20.1399Z" stroke="black" stroke-width="1.5" stroke-linecap="round"/>
</svg>
