<svg width="24" height="24" viewBox="0 0 24 24" fill="none" xmlns="http://www.w3.org/2000/svg">
<path d="M14 12H12M17 13.1V4C17 3.44772 16.5523 3 16 3H8C7.44772 3 7 3.44772 7 4V20C7 20.5523 7.44772 21 8 21H13.9996M17 13.1C17.3231 13.0344 17.6575 13 18 13C20.7614 13 23 15.2386 23 18C23 20.7614 20.7614 23 18 23C16.3642 23 14.9118 22.2144 13.9996 21M17 13.1C14.7178 13.5633 13 15.581 13 18C13 19.1256 13.3719 20.1643 13.9996 21M16.5 17.5V16.5C16.5 15.6716 17.1716 15 18 15C18.8284 15 19.5 15.6716 19.5 16.5V17.5M16.5 17.5H19.5M16.5 17.5C16.2239 17.5 16 17.7239 16 18V19C16 19.5523 16.4477 20 17 20H19C19.5523 20 20 19.5523 20 19V18C20 17.7239 19.7761 17.5 19.5 17.5" stroke="black" stroke-width="1.5" stroke-linecap="round"/>
</svg>
