<svg width="24" height="24" viewBox="0 0 24 24" fill="none" xmlns="http://www.w3.org/2000/svg">
<path d="M8 10H6.5C5.94772 10 5.5 10.4477 5.5 11V20C5.5 20.5523 5.94772 21 6.5 21H13.9996M8 10V7C8 4.79086 9.79086 3 12 3C14.2091 3 16 4.79086 16 7V10M8 10H16M16 10H17.5C18.0523 10 18.5 10.4477 18.5 11V13.0247M16 18L17.4293 19.4293C17.4683 19.4683 17.5317 19.4683 17.5707 19.4293L20 17M18.5 13.0247C18.3355 13.0084 18.1687 13 18 13C15.2386 13 13 15.2386 13 18C13 19.1256 13.3719 20.1643 13.9996 21M18.5 13.0247C21.0267 13.2755 23 15.4073 23 18C23 20.7614 20.7614 23 18 23C16.3642 23 14.9118 22.2144 13.9996 21" stroke="black" stroke-width="1.5" stroke-linecap="round"/>
</svg>
