<svg width="24" height="24" viewBox="0 0 24 24" fill="none" xmlns="http://www.w3.org/2000/svg">
<path d="M8 10H6.5C5.94772 10 5.5 10.4477 5.5 11V20C5.5 20.5523 5.94772 21 6.5 21H17.5C18.0523 21 18.5 20.5523 18.5 20V11C18.5 10.4477 18.0523 10 17.5 10H16M8 10V7C8 4.79086 9.79086 3 12 3C14.2091 3 16 4.79086 16 7V10M8 10H16M9.5 14.5V16.5M9.5 14.5H8.5M9.5 14.5H12M9.5 14.5C9.5 13.1193 10.6193 12 12 12C13.2095 12 14.2184 12.8589 14.45 14M9.5 16.5H8.5M9.5 16.5H12M9.5 16.5C9.5 17.8807 10.6193 19 12 19C13.2095 19 14.2184 18.1411 14.45 17" stroke="black" stroke-width="1.5" stroke-linecap="round"/>
</svg>
