<svg width="24" height="24" viewBox="0 0 24 24" fill="none" xmlns="http://www.w3.org/2000/svg">
<path d="M7.23024 18.4231C5.27001 16.965 4.00012 14.6308 4.00012 12C4.00012 7.58172 7.58184 4 12.0001 4C16.4184 4 20.0001 7.58199 20.0001 12.0003C20.0001 16.4185 16.4184 20.0003 12.0001 20.0003M7.23024 18.4231L3.00012 18.5M7.23024 18.4231V14M11 10.75V13.25M9 11.5V12.5M15.4 13.75H13.1C13.0448 13.75 13 13.7052 13 13.65V10.35C13 10.2948 13.0448 10.25 13.1 10.25H15.4C15.4552 10.25 15.5 10.2948 15.5 10.35V13.65C15.5 13.7052 15.4552 13.75 15.4 13.75Z" stroke="black" stroke-width="1.5" stroke-linecap="round"/>
</svg>
