<svg width="24" height="24" viewBox="0 0 24 24" fill="none" xmlns="http://www.w3.org/2000/svg">
<path d="M12 10.9998L20.9822 7.0079M12 10.9998V20.9904M12 10.9998L7.50889 9.00387M20.9822 7.0079C20.972 6.99312 20.9577 6.98106 20.9406 6.97345L16.4906 4.99567M20.9822 7.0079C20.9936 7.0243 21 7.04405 21 7.06483V16.9349C21 16.9744 20.9767 17.0102 20.9406 17.0262L12.0406 20.9818C12.0277 20.9875 12.0138 20.9904 12 20.9904M3.01779 7.0079C3.02802 6.99312 3.04226 6.98106 3.05939 6.97345L11.9594 3.0179C11.9852 3.0064 12.0148 3.0064 12.0406 3.0179L16.4906 4.99567M3.01779 7.0079C3.00643 7.0243 3 7.04405 3 7.06483V16.9349C3 16.9744 3.02327 17.0102 3.05939 17.0262L7.50939 19.004M3.01779 7.0079L7.50889 9.00387M12 20.9904C11.9862 20.9904 11.9723 20.9875 11.9594 20.9818L7.50939 19.004M16.4906 4.99567L7.50889 9.00387M7.50889 9.00387L7.50939 19.004" stroke="black" stroke-width="1.5" stroke-linecap="round"/>
</svg>
