<svg width="24" height="24" viewBox="0 0 24 24" fill="none" xmlns="http://www.w3.org/2000/svg">
<path d="M12 7.11572H12.7192C13.1781 7.11572 13.5781 6.80343 13.6894 6.35826L14.2558 4.09271C14.3893 3.55848 14.9388 3.2411 15.4683 3.39238C17.0527 3.84505 17.9758 5.12943 18.8327 6.6136C19 6.90339 19.6289 8.11572 19.8263 8.85227C20.2995 10.6183 20.4459 11.9276 20.4862 13.6607M12 7.11572H11.193C10.7762 7.11572 10.4031 6.85715 10.2567 6.46685L9.30346 3.92492C9.13409 3.47325 8.63777 3.23647 8.18014 3.38901C6.80772 3.84649 6 4.61572 5.27327 6.29584C4.91863 7.11572 4.6449 7.96472 4.34972 9.06633C3.93456 10.6157 3.53854 12.1157 3.53857 14.2684C3.53862 17.0844 4.98171 19.6818 7.68932 20.4554L7.79317 20.485C8.95301 20.8164 10.1351 20.0351 10.2847 18.8381C10.2847 18.8381 10.9631 15.3676 11 13.1157C11.0056 12.7732 11 12.2385 11 12.2385C11 11.6182 11.5028 11.1154 12.1231 11.1154C12.6385 11.1154 13.0877 11.4661 13.2127 11.9661L13.2936 12.2899C13.4308 12.8388 13.6277 13.371 13.8807 13.8771L13.984 14.0837C14.0844 14.2846 14.1708 14.4907 14.243 14.7005M12 7.11572V3.11572M16 17.9998L17.4293 19.4291C17.4683 19.4681 17.5317 19.4681 17.5707 19.4291L20 17M20.4862 13.6607C19.7539 13.2402 18.905 12.9998 18 12.9998C16.5028 12.9998 15.1593 13.6578 14.243 14.7005M20.4862 13.6607C21.9883 14.5233 23 16.1434 23 17.9998C23 20.7612 20.7614 22.9998 18 22.9998C15.2386 22.9998 13 20.7612 13 17.9998C13 16.7356 13.4692 15.5809 14.243 14.7005" stroke="black" stroke-width="1.5" stroke-linecap="round"/>
</svg>
