<svg width="24" height="24" viewBox="0 0 24 24" fill="none" xmlns="http://www.w3.org/2000/svg">
<path d="M12 7.11572H12.7192C13.1781 7.11572 13.5781 6.80343 13.6894 6.35826L14.2558 4.09271C14.3893 3.55848 14.9388 3.2411 15.4683 3.39238C17.0527 3.84505 17.9758 5.12943 18.8327 6.6136C19 6.90339 19.6289 8.11572 19.8263 8.85227C20.4227 11.0779 20.5 12.5782 20.5 15.1157C20.5 18.0782 18.5957 19.9966 16.0795 20.4997C14.7663 20.7623 13.6588 19.4685 14.1562 18.2251C14.6929 16.8834 14.6303 15.3762 13.984 14.0837L13.8807 13.8771C13.6277 13.371 13.4308 12.8388 13.2936 12.2899L13.2127 11.9661C13.0877 11.4661 12.6385 11.1154 12.1231 11.1154C11.5028 11.1154 11 11.6182 11 12.2385C11 12.2385 11.0056 12.7732 11 13.1157C10.9631 15.3676 10.2847 18.8381 10.2847 18.8381C10.1351 20.0351 8.95301 20.8164 7.79317 20.485L7.68932 20.4554C4.98171 19.6818 3.53862 17.0844 3.53857 14.2684C3.53854 12.1157 3.93456 10.6157 4.34972 9.06633C4.6449 7.96472 4.91863 7.11572 5.27327 6.29584C6 4.61572 6.80772 3.84649 8.18014 3.38901C8.63777 3.23647 9.13409 3.47325 9.30346 3.92492L10.2567 6.46685C10.4031 6.85715 10.7762 7.11572 11.193 7.11572H12ZM12 7.11572V3.11572" stroke="black" stroke-width="1.5" stroke-linecap="round"/>
</svg>
