<svg width="24" height="24" viewBox="0 0 24 24" fill="none" xmlns="http://www.w3.org/2000/svg">
<path d="M9 17.5054C8.98932 17.5054 8.97864 17.5071 8.96838 17.5105L4.31623 19.0612C3.6687 19.2771 3 18.7951 3 18.1125V7.72072C3 7.29029 3.27543 6.90815 3.68377 6.77204L8.96838 5.0105C8.97864 5.00708 8.98932 5.00537 9 5.00537M9 17.5054C9.01068 17.5054 9.02136 17.5071 9.03162 17.5105L14.9684 19.4894C14.9786 19.4928 14.9893 19.4946 15 19.4946M9 17.5054V5.00537M9 5.00537C9.01068 5.00537 9.02136 5.00708 9.03162 5.0105L14.9684 6.98942C14.9786 6.99284 14.9893 6.99455 15 6.99455M15 6.99455C15.0107 6.99455 15.0214 6.99284 15.0316 6.98942L19.6838 5.4387C20.3313 5.22286 21 5.70483 21 6.38739V16.7792C21 17.2096 20.7246 17.5918 20.3162 17.7279L15.0316 19.4894C15.0214 19.4928 15.0107 19.4946 15 19.4946M15 6.99455V19.4946" stroke="black" stroke-width="1.5" stroke-linecap="round"/>
</svg>
