<svg width="24" height="24" viewBox="0 0 24 24" fill="none" xmlns="http://www.w3.org/2000/svg">
<path d="M6.14998 14.25L3.15733 12.5875C3.08875 12.5494 3.08875 12.4507 3.15733 12.4126L6.14998 10.75M6.14998 14.25L11.9514 17.4731C11.9816 17.4898 12.0183 17.4898 12.0485 17.4731L17.85 14.25M6.14998 14.25L3.15733 15.9126C3.08875 15.9507 3.08875 16.0494 3.15733 16.0875L11.9514 20.9731C11.9816 20.9898 12.0183 20.9898 12.0485 20.9731L20.8426 16.0875C20.9112 16.0494 20.9112 15.9507 20.8426 15.9126L17.85 14.25M17.85 14.25L20.8426 12.5875C20.9112 12.5494 20.9112 12.4507 20.8426 12.4126L17.85 10.75M17.85 10.75L12.0485 13.9731C12.0183 13.9898 11.9816 13.9898 11.9514 13.9731L6.14998 10.75M17.85 10.75L18.9711 10.0972C19.5995 9.73127 20.1404 9.23271 20.5563 8.63626L20.9366 8.09087C20.9705 8.04227 20.955 7.97503 20.9032 7.94626L12.0806 3.04482C12.0351 3.01952 11.9777 3.03342 11.9488 3.07677L11.6417 3.53752C11.2195 4.17083 10.6582 4.69939 10.0008 5.08291L8.99998 5.6667L3.15733 8.91262C3.08875 8.95072 3.08875 9.04935 3.15733 9.08745L6.14998 10.75" stroke="black" stroke-width="1.5" stroke-linecap="round"/>
</svg>
