<svg width="24" height="24" viewBox="0 0 24 24" fill="none" xmlns="http://www.w3.org/2000/svg">
<path d="M10.965 15.8627C12.0353 16.1495 13.1206 15.9738 14.0086 15.458C14.2562 15.3142 14.4884 15.144 14.7007 14.95M15.8627 13.035C15.8337 13.1434 15.8005 13.2496 15.7633 13.3534M21 7V4C21 3.44772 20.5523 3 20 3H17M7 3H4C3.44772 3 3 3.44772 3 4V7M3 17V20C3 20.5523 3.44772 21 4 21H7M21 17V20C21 20.5523 20.5523 21 20 21H17M17.7941 13.5525C16.9367 16.7525 13.6475 18.6516 10.4475 17.7941C7.24747 16.9367 5.34844 13.6475 6.20588 10.4475C7.06332 7.24747 10.3525 5.34844 13.5525 6.20588C16.7525 7.06332 18.6516 10.3525 17.7941 13.5525Z" stroke="black" stroke-width="1.5" stroke-linecap="round"/>
</svg>
