<svg width="24" height="24" viewBox="0 0 24 24" fill="none" xmlns="http://www.w3.org/2000/svg">
<path d="M8.5 12V6.5C8.5 4.567 10.067 3 12 3C12.9537 3 13.8182 3.38141 14.4495 4M6 10.5V12C6 13.2267 6.36815 14.3675 7 15.3178M18 10.5V12C18 15.3137 15.3137 18 12 18M12 18V21M12 18C10.7686 18 9.6239 17.6291 8.67145 16.9928M12 21H16M12 21H8M8.67145 16.9928L6 21M8.67145 16.9928L10.0583 14.9125M10.0583 14.9125C10.6139 15.2836 11.2817 15.5 12 15.5C13.933 15.5 15.5 13.933 15.5 12V6.75M10.0583 14.9125L15.5 6.75M18 3L15.5 6.75" stroke="black" stroke-width="1.5" stroke-linecap="round"/>
</svg>
