<svg width="24" height="24" viewBox="0 0 24 24" fill="none" xmlns="http://www.w3.org/2000/svg">
<path d="M8.49998 15.3811C8.54734 15.3788 8.59515 15.3731 8.64315 15.3638L9.64879 15.169C9.98691 15.1034 10.3349 15.2165 10.57 15.4683L11.269 16.217C11.6643 16.6405 12.3356 16.6405 12.7309 16.217L13.43 15.4683C13.665 15.2165 14.013 15.1034 14.3512 15.169L15.3568 15.3638C15.4048 15.3731 15.4526 15.3788 15.5 15.3811M8.49998 15.3811C7.98614 15.4061 7.52538 15.0309 7.46043 14.5045L7.33501 13.4879C7.29283 13.1461 7.07773 12.85 6.76568 12.7043L5.83755 12.2708C5.31268 12.0257 5.10525 11.3873 5.3858 10.8805L5.88189 9.98427C6.04869 9.68294 6.04869 9.31699 5.88189 9.01566L5.3858 8.11946C5.10525 7.61264 5.31268 6.97422 5.83755 6.7291L6.76568 6.29565C7.07773 6.14992 7.29283 5.85386 7.33501 5.51204L7.46043 4.4954C7.53136 3.92047 8.07444 3.5259 8.64315 3.63611L9.64879 3.83098C9.98691 3.8965 10.3349 3.78341 10.57 3.53166L11.269 2.78291C11.6643 2.35947 12.3356 2.35947 12.7309 2.78291L13.43 3.53166C13.665 3.78341 14.013 3.8965 14.3512 3.83098L15.3568 3.63611C15.9255 3.5259 16.4686 3.92047 16.5395 4.4954L16.6649 5.51204C16.7071 5.85386 16.9222 6.14992 17.2343 6.29565L18.1624 6.7291C18.6873 6.97422 18.8947 7.61264 18.6142 8.11946L18.1181 9.01566C17.9513 9.31699 17.9513 9.68294 18.1181 9.98427L18.6142 10.8805C18.8947 11.3873 18.6873 12.0257 18.1624 12.2708L17.2343 12.7043C16.9222 12.85 16.7071 13.1461 16.6649 13.4879L16.5395 14.5045C16.4746 15.0309 16.0138 15.4061 15.5 15.3811M8.49998 15.3811V20.6162C8.49998 20.8281 8.67181 21 8.88377 21C8.95954 21 9.03362 20.9775 9.09666 20.9355L11.4453 19.3698C11.7812 19.1458 12.2188 19.1458 12.5547 19.3698L14.9033 20.9355C14.9663 20.9775 15.0404 21 15.1162 21C15.3281 21 15.5 20.8281 15.5 20.6162V15.3811M9.5 9.5L11.4293 11.4293C11.4683 11.4683 11.5316 11.4683 11.5707 11.4293L15 8" stroke="black" stroke-width="1.5" stroke-linecap="round"/>
</svg>
