<svg width="24" height="24" viewBox="0 0 24 24" fill="none" xmlns="http://www.w3.org/2000/svg">
<path d="M15.5 15.3811V20.6162C15.5 20.8281 15.3281 21 15.1162 21C15.0404 21 14.9663 20.9775 14.9033 20.9355L12.5547 19.3698C12.2188 19.1458 11.7812 19.1458 11.4453 19.3698L9.09666 20.9355C9.03362 20.9775 8.95954 21 8.88377 21C8.67181 21 8.49998 20.8281 8.49998 20.6162V15.3811M9.64879 3.83098L8.64315 3.63611C8.07444 3.5259 7.53136 3.92047 7.46043 4.4954L7.33501 5.51204C7.29283 5.85386 7.07773 6.14992 6.76568 6.29565L5.83755 6.7291C5.31268 6.97422 5.10525 7.61264 5.3858 8.11946L5.88189 9.01566C6.04869 9.31699 6.04869 9.68294 5.88189 9.98427L5.3858 10.8805C5.10525 11.3873 5.31268 12.0257 5.83755 12.2708L6.76568 12.7043C7.07773 12.85 7.29283 13.1461 7.33501 13.4879L7.46043 14.5045C7.53136 15.0795 8.07444 15.474 8.64315 15.3638L9.64879 15.169C9.98691 15.1034 10.3349 15.2165 10.57 15.4683L11.269 16.217C11.6643 16.6405 12.3356 16.6405 12.7309 16.217L13.43 15.4683C13.665 15.2165 14.013 15.1034 14.3512 15.169L15.3568 15.3638C15.9255 15.474 16.4686 15.0795 16.5395 14.5045L16.6649 13.4879C16.7071 13.1461 16.9222 12.85 17.2343 12.7043L18.1624 12.2708C18.6873 12.0257 18.8947 11.3873 18.6142 10.8805L18.1181 9.98427C17.9513 9.68294 17.9513 9.31699 18.1181 9.01566L18.6142 8.11946C18.8947 7.61264 18.6873 6.97422 18.1624 6.7291L17.2343 6.29565C16.9222 6.14992 16.7071 5.85386 16.6649 5.51204L16.5395 4.4954C16.4686 3.92047 15.9255 3.5259 15.3568 3.63611L14.3512 3.83098C14.013 3.8965 13.665 3.78341 13.43 3.53166L12.7309 2.78291C12.3356 2.35947 11.6643 2.35947 11.269 2.78291L10.57 3.53166C10.3349 3.78341 9.98691 3.8965 9.64879 3.83098ZM10.7722 7.88949L8.39605 8.23476C8.31403 8.24668 8.28128 8.34748 8.34063 8.40533L10.06 10.0813C10.0836 10.1043 10.0943 10.1374 10.0888 10.1698L9.68287 12.5363C9.66886 12.618 9.7546 12.6803 9.82796 12.6417L11.9532 11.5244C11.9824 11.5091 12.0172 11.5091 12.0463 11.5244L14.1716 12.6417C14.2449 12.6803 14.3307 12.618 14.3166 12.5363L13.9108 10.1698C13.9052 10.1374 13.916 10.1043 13.9395 10.0813L15.6589 8.40533C15.7182 8.34748 15.6855 8.24668 15.6035 8.23476L13.2274 7.88949C13.1948 7.88476 13.1666 7.8643 13.1521 7.83479L12.0894 5.68166C12.0528 5.60734 11.9468 5.60734 11.9101 5.68166L10.8475 7.83479C10.8329 7.8643 10.8047 7.88476 10.7722 7.88949Z" stroke="black" stroke-width="1.5" stroke-linecap="round"/>
</svg>
