<svg width="24" height="24" viewBox="0 0 24 24" fill="none" xmlns="http://www.w3.org/2000/svg">
<path d="M16 6.00001H19C19.5523 6.00001 20 6.44772 20 7.00001L20 18.9999C20 19.5522 19.5523 19.9999 19 19.9999H5C4.44772 19.9999 4 19.5522 4 18.9999L3.99998 7.00001C3.99998 6.44772 4.44769 6.00001 4.99998 6.00001L7.99998 6M16 6.00001L15.4558 4.36755C15.1836 3.55086 14.4193 3.00001 13.5585 3.00001L10.4415 3C9.58064 3 8.81636 3.55085 8.54413 4.36755L7.99998 6M16 6.00001L7.99998 6M10.1 8.50001H13.9C13.9552 8.50001 14 8.54478 14 8.60001V10.9C14 10.9552 14.0447 11 14.1 11H16.4C16.4552 11 16.5 11.0448 16.5 11.1V14.9C16.5 14.9552 16.4552 15 16.4 15H14.1C14.0447 15 14 15.0448 14 15.1L14 17.3999C14 17.4551 13.9552 17.4999 13.9 17.4999H10.1C10.0448 17.4999 10 17.4551 10 17.3999L9.99998 15.1C9.99998 15.0448 9.95521 15 9.89998 15H7.59998C7.54475 15 7.49998 14.9552 7.49998 14.9V11.1C7.49998 11.0448 7.54475 11 7.59998 11H9.89998C9.95521 11 9.99998 10.9552 9.99998 10.9V8.60001C9.99998 8.54478 10.0447 8.50001 10.1 8.50001Z" stroke="black" stroke-width="1.5" stroke-linecap="round"/>
</svg>
