<svg width="24" height="24" viewBox="0 0 24 24" fill="none" xmlns="http://www.w3.org/2000/svg">
<path d="M5 15C3.89543 15 3 14.1046 3 13V9C3 7.89543 3.89543 7 5 7H11.6972C11.8946 7 12.0877 6.94156 12.2519 6.83205L16.4033 4.06446C16.4664 4.02243 16.5404 4 16.6162 4C16.8282 4 17 4.17183 17 4.3838V17.6162C17 17.8282 16.8282 18 16.6162 18C16.5404 18 16.4664 17.9776 16.4033 17.9355L12.2519 15.1679C12.0877 15.0584 11.8946 15 11.6972 15H10M5 15C6.02638 15 6.78879 15.9504 6.56614 16.9524L6.22886 18.4701C6.1045 19.0298 6.47515 19.5792 7.04065 19.6734L8.04491 19.8408C8.5773 19.9295 9.08404 19.5798 9.18989 19.0505L10 15M5 15H10M19.5 11H22M19.5 7.5L21 6M19.5 14.5L21 16" stroke="black" stroke-width="1.5" stroke-linecap="round"/>
</svg>
