<svg width="24" height="24" viewBox="0 0 24 24" fill="none" xmlns="http://www.w3.org/2000/svg">
<path d="M7 15.0002C5.89543 15.0002 5 14.1048 5 13.0002V9.00024C5 7.89567 5.89543 7.00024 7 7.00024H13.6972C13.8946 7.00024 14.0877 6.94181 14.2519 6.83229L18.4033 4.0647C18.4664 4.02267 18.5404 4.00024 18.6162 4.00024C18.8282 4.00024 19 4.17208 19 4.38404V17.6164C19 17.8284 18.8282 18.0002 18.6162 18.0002C18.5404 18.0002 18.4664 17.9778 18.4033 17.9358L14.2519 15.1682C14.0877 15.0587 13.8946 15.0002 13.6972 15.0002H12M7 15.0002C8.02638 15.0002 8.78879 15.9507 8.56614 16.9526L8.22886 18.4704C8.1045 19.03 8.47515 19.5794 9.04065 19.6737L10.0449 19.8411C10.5773 19.9298 11.084 19.58 11.1899 19.0508L12 15.0002M7 15.0002H12" stroke="black" stroke-width="1.5" stroke-linecap="round"/>
</svg>
