<svg width="24" height="24" viewBox="0 0 24 24" fill="none" xmlns="http://www.w3.org/2000/svg">
<path d="M15.5245 14C15.2271 15.4173 16 16.5 17 16.5C18.6549 16.5 20.1215 15.3255 20.7837 12.9766C20.9643 12.3361 21 11.6655 21 11C21 6.58172 17.4183 3 13 3H12C7.02944 3 3 7.02944 3 12C3 16.9706 7.02944 21 12 21C13.8501 21 15.5699 20.4417 17 19.4845M15.5245 14L15.9305 12.0738M15.5245 14L15.9088 12.1836C15.9166 12.147 15.9238 12.1104 15.9305 12.0738M15.5245 14L15.6479 13.4118M15.9305 12.0738C15.9339 12.0554 15.9371 12.037 15.9402 12.0186M15.9305 12.0738L16.8946 7.5M15.6479 13.4118L15.9402 12.0186M15.6479 13.4118C15.2703 15.2113 13.6833 16.5 11.8445 16.5C9.35836 16.5 7.51158 14.1978 8.0509 11.7708L8.32474 10.5385C8.71927 8.76316 10.2939 7.5 12.1126 7.5C14.5226 7.5 16.3351 9.66823 15.9402 12.0186M15.9402 12.0186L16.5735 9" stroke="black" stroke-width="1.5" stroke-linecap="round"/>
</svg>
