<svg width="24" height="24" viewBox="0 0 24 24" fill="none" xmlns="http://www.w3.org/2000/svg">
<path d="M14.4749 5.98937C15.0607 6.57516 16.0104 6.57516 16.5962 5.98937C16.7911 5.79445 16.9212 5.55922 16.9864 5.31051C17.1171 4.81181 16.9871 4.25891 16.5962 3.86805C16.2054 3.47719 15.6525 3.34713 15.1538 3.47786C14.905 3.54306 14.6698 3.67312 14.4749 3.86805C13.8891 4.45384 13.8891 5.40358 14.4749 5.98937ZM14.4749 5.98937L5.98961 14.4747M5.98961 14.4747C6.38048 14.8655 6.51054 15.4184 6.3798 15.9171C6.3146 16.1658 6.18454 16.401 5.98961 16.596C5.40383 17.1818 4.45408 17.1818 3.86829 16.596C3.28251 16.0102 3.28251 15.0604 3.86829 14.4747C4.06322 14.2797 4.29845 14.1497 4.54715 14.0845C5.04585 13.9537 5.59875 14.0838 5.98961 14.4747ZM18.0104 9.5249C18.5962 10.1107 19.546 10.1107 20.1317 9.5249C20.3267 9.32998 20.4567 9.09475 20.5219 8.84605C20.6527 8.34735 20.5226 7.79445 20.1317 7.40358C19.7409 7.01272 19.188 6.88266 18.6893 7.0134C18.4406 7.0786 18.2054 7.20866 18.0104 7.40358C17.4246 7.98937 17.4246 8.93912 18.0104 9.5249ZM18.0104 9.5249L9.52515 18.0102M9.52515 18.0102C9.91601 18.401 10.0461 18.9539 9.91534 19.4526C9.85014 19.7014 9.72008 19.9366 9.52515 20.1315C8.93936 20.7173 7.98962 20.7173 7.40383 20.1315C6.81804 19.5457 6.81804 18.596 7.40383 18.0102C7.59875 17.8153 7.83398 17.6852 8.08269 17.62C8.58139 17.4893 9.13429 17.6193 9.52515 18.0102ZM20.5 20.4998L16 15.9998M16 15.9998L19 15.9998M16 15.9998V18.9998M3.50002 3.49977L8.00002 7.99977M8.00002 7.99977V4.99958M8.00002 7.99977H5.00002" stroke="black" stroke-width="1.5" stroke-linecap="round"/>
</svg>
