<svg width="24" height="24" viewBox="0 0 24 24" fill="none" xmlns="http://www.w3.org/2000/svg">
<path d="M12 11.25C12.4142 11.25 12.75 10.9142 12.75 10.5C12.75 10.0858 12.4142 9.75 12 9.75C11.5858 9.75 11.25 10.0858 11.25 10.5C11.25 10.9142 11.5858 11.25 12 11.25Z" stroke="black" stroke-width="1.5" stroke-linecap="round"/>
<path d="M7.75 11.25C8.16421 11.25 8.5 10.9142 8.5 10.5C8.5 10.0858 8.16421 9.75 7.75 9.75C7.33579 9.75 7 10.0858 7 10.5C7 10.9142 7.33579 11.25 7.75 11.25Z" stroke="black" stroke-width="1.5" stroke-linecap="round"/>
<path d="M16.25 11.25C16.6642 11.25 17 10.9142 17 10.5C17 10.0858 16.6642 9.75 16.25 9.75C15.8358 9.75 15.5 10.0858 15.5 10.5C15.5 10.9142 15.8358 11.25 16.25 11.25Z" stroke="black" stroke-width="1.5" stroke-linecap="round"/>
</svg>
