<svg width="24" height="24" viewBox="0 0 24 24" fill="none" xmlns="http://www.w3.org/2000/svg">
<path d="M9.00006 4.5H15.0001C18.3138 4.5 21.0001 7.18629 21.0001 10.5C21.0001 13.8137 18.3138 16.5 15.0001 16.5H11.7208C11.2904 16.5 10.9054 16.7764 10.6794 17.1427C10.1588 17.9862 8.9186 19.3742 6.35378 19.492C6.15873 19.5009 6.00004 19.3417 6.00002 19.1465C6 19.0527 6.03821 18.9635 6.1003 18.8932C6.62983 18.2938 6.84772 17.4526 6.93738 16.862C7.00098 16.443 6.72884 16.0715 6.34876 15.8839C4.36481 14.9051 3.00006 12.8619 3.00006 10.5C3.00006 7.18629 5.68635 4.5 9.00006 4.5Z" stroke="black" stroke-width="1.5" stroke-linecap="round"/>
</svg>
