<svg width="24" height="24" viewBox="0 0 24 24" fill="none" xmlns="http://www.w3.org/2000/svg">
<path d="M15.9875 3.92934C15.7627 5.00402 15.48 5.6325 15.2349 6.01093C14.9465 6.45638 14.6127 6.71405 14.0283 6.98926C12.9778 7.48393 9.56588 8.29084 6.99787 11.1796C5.46589 12.903 4.63039 14.7744 4.25309 16.5837M15.9875 3.92934C14.7857 3.33439 13.4319 3 12 3C7.02944 3 3 7.02944 3 12C3 13.674 3.45702 15.2412 4.25309 16.5837M15.9875 3.92934C17.9642 4.90784 19.5299 6.59113 20.3562 8.65077M20.3562 8.65077C20.7715 9.68601 21 10.8163 21 12C21 16.9706 16.9706 21 12 21C11.3094 21 10.637 20.9222 9.99098 20.7749M20.3562 8.65077C20.2917 8.76067 20.2252 8.86847 20.1567 8.9742C19.1333 10.5546 17.8249 11.4285 16.5749 12.0172C13.9562 13.2503 12.9309 13.1017 11.403 14.8204C9.65164 16.7906 9.61676 19.221 9.99098 20.7749M9.99098 20.7749C7.55336 20.2192 5.49238 18.6737 4.25309 16.5837" stroke="black" stroke-width="1.5" stroke-linecap="round"/>
</svg>
