<svg width="24" height="24" viewBox="0 0 24 24" fill="none" xmlns="http://www.w3.org/2000/svg">
<path d="M3.50002 17.0004L7.50003 17.0008M7.50003 17.0008L7.50002 20.0003C7.50002 20.5526 7.94775 21.0004 8.50005 21.0003L19 21C19.5523 21 20 20.5523 20 20V18.6807C20 14.893 17.86 11.4304 14.4721 9.73644L13 9.00037M7.50003 17.0008L11.5 17.0004M13 9.00037L14.5528 5.8948C14.7998 5.40082 14.5996 4.80015 14.1056 4.55316L11.8944 3.44759C11.4005 3.2006 10.7998 3.40082 10.5528 3.8948L7.44723 10.1059C7.20024 10.5999 7.40046 11.2006 7.89444 11.4476L8.00002 11.5004M13 9.00037L11.4472 12.1059C11.2002 12.5999 10.5996 12.8002 10.1056 12.5532L10 12.5004M8.00002 11.5004L7.44723 12.6059C7.20024 13.0999 7.40046 13.7006 7.89444 13.9476L8.10559 14.0532C8.59957 14.3002 9.20024 14.0999 9.44723 13.6059L10 12.5004M8.00002 11.5004L10 12.5004" stroke="black" stroke-width="1.5" stroke-linecap="round"/>
</svg>
