<svg width="24" height="24" viewBox="0 0 24 24" fill="none" xmlns="http://www.w3.org/2000/svg">
<path d="M12 13.5V13M12 21V20.5M12 18.5V18M12 16V15.5M12 11V10.5M12 8.5V8M12 6V5.5M12 3.5V3M20.8 16H15.1C15.0448 16 15 15.9552 15 15.9V8.3C15 8.2039 15.1223 8.16312 15.18 8.24L20.88 15.84C20.9294 15.9059 20.8824 16 20.8 16ZM3.2 16H8.9C8.95523 16 9 15.9552 9 15.9V8.3C9 8.2039 8.87766 8.16312 8.82 8.24L3.12 15.84C3.07056 15.9059 3.1176 16 3.2 16Z" stroke="black" stroke-width="1.5" stroke-linecap="round"/>
</svg>
