<svg width="24" height="24" viewBox="0 0 24 24" fill="none" xmlns="http://www.w3.org/2000/svg">
<path d="M19.5 14H19.9999C20.5522 14 20.9999 13.5523 20.9999 13V6.5C20.9999 5.94772 20.5522 5.5 19.9999 5.5H7.99994C7.44766 5.5 6.99994 5.94772 6.99994 6.5L7 7M14.4999 15V13M5.49994 15V13M9.99994 16C8.89537 16 7.99994 15.1046 7.99994 14C7.99994 12.8954 8.89537 12 9.99994 12C11.1045 12 11.9999 12.8954 11.9999 14C11.9999 15.1046 11.1045 16 9.99994 16ZM15.9999 9.5H3.99994C3.44766 9.5 2.99994 9.94772 2.99994 10.5V17.5C2.99994 18.0523 3.44766 18.5 3.99994 18.5H15.9999C16.5522 18.5 16.9999 18.0523 16.9999 17.5V10.5C16.9999 9.94772 16.5522 9.5 15.9999 9.5Z" stroke="black" stroke-width="1.5" stroke-linecap="round"/>
</svg>
