<svg width="24" height="24" viewBox="0 0 24 24" fill="none" xmlns="http://www.w3.org/2000/svg">
<path d="M10 21C14.9706 21 19 16.9706 19 12C19 7.02944 14.9706 3 10 3C8.39385 3 6.88595 3.42074 5.58052 4.15802C5.26304 4.33733 5.15172 4.73269 5.30243 5.0647C5.42275 5.32978 5.68777 5.49621 5.9781 5.51731C9.34473 5.76206 12 8.57094 12 12C12 15.4291 9.34473 18.2379 5.9781 18.4827C5.68777 18.5038 5.42275 18.6702 5.30243 18.9353C5.15172 19.2673 5.26304 19.6627 5.58052 19.842C6.88595 20.5793 8.39385 21 10 21Z" stroke="black" stroke-width="1.5" stroke-linecap="round"/>
</svg>
