<svg width="24" height="24" viewBox="0 0 24 24" fill="none" xmlns="http://www.w3.org/2000/svg">
<path d="M5.99994 10.8333L3.22839 9.60146C3.08947 9.53971 2.99994 9.40195 2.99994 9.24992C2.99994 9.0979 3.08947 8.96013 3.22839 8.89839L11.5938 5.18043C11.8524 5.06551 12.1475 5.06551 12.4061 5.18043L20.7715 8.89839C20.9104 8.96013 20.9999 9.0979 20.9999 9.24992C20.9999 9.40195 20.9104 9.53971 20.7715 9.60146L17.9999 10.8333M5.99994 10.8333V16.1089C5.99994 16.3603 6.09301 16.6046 6.272 16.7811C9.44361 19.9088 14.5563 19.9088 17.7279 16.7811C17.9069 16.6046 17.9999 16.3603 17.9999 16.1089V10.8333M5.99994 10.8333L7.99994 11.7221M17.9999 10.8333L12.4061 13.3194C12.1475 13.4343 11.8524 13.4343 11.5938 13.3194L7.99994 11.7221M7.99994 11.7221L12.9999 8.99992M7.99994 11.7221V15.4999" stroke="black" stroke-width="1.5" stroke-linecap="round"/>
</svg>
