<svg width="24" height="24" viewBox="0 0 24 24" fill="none" xmlns="http://www.w3.org/2000/svg">
<path d="M16.5 5.5V11M14.5 5.5V11M5 5V4C5 3.44772 5.44772 3 6 3H18C18.5523 3 19 3.44772 19 4V20C19 20.5523 18.5523 21 18 21H6C5.44772 21 5 20.5523 5 20V17M5 5V11.5M5 5H6.9C6.95523 5 7 5.04477 7 5.1V11.4C7 11.4552 6.95523 11.5 6.9 11.5H5M5 11.5V14M5 14V17M5 14H14M5 17H14M9.6 7H11.9C11.9552 7 12 7.04477 12 7.1V9.4C12 9.45523 11.9552 9.5 11.9 9.5H9.6C9.54477 9.5 9.5 9.45523 9.5 9.4V7.1C9.5 7.04477 9.54477 7 9.6 7Z" stroke="black" stroke-width="1.5" stroke-linecap="round"/>
</svg>
