<svg width="24" height="24" viewBox="0 0 24 24" fill="none" xmlns="http://www.w3.org/2000/svg">
<path d="M16.5 11L13.3003 15.114C13.1108 15.3576 12.8195 15.5 12.5109 15.5H9M16.5 11L17.0843 12.6424M16.5 11H18.5C19.0523 11 19.5103 10.5477 19.4005 10.0065C19.0152 8.10776 17.5458 6.56578 15.5953 6.13232M16.5 11C15.8329 8.99867 13.231 8.49013 11.8295 10.0669C11.3051 10.6569 10.5484 11 9.75903 11H7.84191M17.0843 12.6424C17.3729 12.5499 17.6806 12.5 18 12.5C19.6569 12.5 21 13.8432 21 15.5C21 17.1569 19.6569 18.5 18 18.5C16.3431 18.5 15 17.1569 15 15.5C15 14.1625 15.8753 13.0295 17.0843 12.6424ZM9 15.5C9 14.5375 8.54669 13.6808 7.84191 13.1319C7.62811 12.9654 7.39117 12.8271 7.13672 12.7229M9 15.5C9 17.1569 7.65685 18.5 6 18.5C4.34315 18.5 3 17.1569 3 15.5C3 13.8432 4.34315 12.5 6 12.5C6.40232 12.5 6.78614 12.5792 7.13672 12.7229M7.13672 12.7229L7.84191 11M7.84191 11H3.5" stroke="black" stroke-width="1.5" stroke-linecap="round"/>
</svg>
