<svg width="24" height="24" viewBox="0 0 24 24" fill="none" xmlns="http://www.w3.org/2000/svg">
<path d="M16 12H20.5M20.5 12L18.5 10M20.5 12L18.5 14M12 8V3.5M12 3.5L14 5.5M12 3.5L10 5.5M8 12H3.5M3.5 12L5.5 14M3.5 12L5.5 10M12 16V20.5M12 20.5L14 18.5M12 20.5L10 18.5M13.5 12.0002C13.5 12.8286 12.8284 13.5002 12 13.5002C11.1716 13.5002 10.5 12.8286 10.5 12.0002C10.5 11.1718 11.1716 10.5002 12 10.5002C12.8284 10.5002 13.5 11.1718 13.5 12.0002Z" stroke="black" stroke-width="1.5" stroke-linecap="round"/>
</svg>
