<svg width="24" height="24" viewBox="0 0 24 24" fill="none" xmlns="http://www.w3.org/2000/svg">
<path d="M8.00008 9.00006L8.00009 6.08989C8.00009 6.04028 8.0403 6.00006 8.08992 6.00006C11.6894 6.00006 15.2816 5.67615 18.823 5.03225C18.9152 5.01549 19.0001 5.08632 19.0001 5.18003L19.0001 8.00006M8.00008 9.00006L8.00009 16.0001M8.00008 9.00006H8.08992C11.6894 9.00006 15.2816 8.67615 18.823 8.03225L19.0001 8.00006M8.00009 16.0001L8.00005 17.7501C8.00003 18.7166 7.21654 19.5001 6.25006 19.5001C5.28355 19.5001 4.50004 18.7165 4.50006 17.75C4.50008 16.7835 5.28358 16.0001 6.25006 16.0001H8.00009ZM19.0001 8.00006L19 15.0001M19 15.0001V16.7501C19 17.7166 18.2165 18.5001 17.25 18.5001C16.2835 18.5001 15.5 17.7166 15.5 16.7501C15.5 15.7836 16.2835 15.0001 17.25 15.0001H19Z" stroke="black" stroke-width="1.5" stroke-linecap="round"/>
</svg>
