<svg width="24" height="24" viewBox="0 0 24 24" fill="none" xmlns="http://www.w3.org/2000/svg">
<path d="M17.3282 6.62277C16.4948 7.78944 12.5002 12 8.50018 10.5C4.50018 8.99999 4.49853 5 7.0021 3M18.9983 9C19.665 10 20.9002 12.7 20.5002 15.5C20.0366 18.7451 18.4491 21.2961 16.0742 19.5044M16.0742 19.5044C15.8877 19.3636 15.6963 19.1961 15.5002 19C14.5002 18 13.9983 14 16.0002 14C17.3017 14 17.9668 17.8044 16.0742 19.5044ZM16.0742 19.5044C15.0559 20.419 13.297 20.7244 10.4983 19.5M18.6017 9.30175L3.07787 21.0622C2.98525 21.1324 2.86761 21.0147 2.93778 20.9221L14.6982 5.39831C14.8984 5.13406 15.1345 4.89908 15.3997 4.70018L15.7779 4.41658C16.5368 3.84739 17.5375 3.71503 18.4183 4.06735C19.1091 4.34363 19.6563 4.89093 19.9326 5.58164C20.285 6.46243 20.1526 7.46319 19.5834 8.2221L19.2998 8.60024C19.1009 8.86545 18.8659 9.10156 18.6017 9.30175ZM17.5 7C17.5 7.27614 17.2761 7.5 17 7.5C16.7238 7.5 16.5 7.27614 16.5 7C16.5 6.72386 16.7238 6.5 17 6.5C17.2761 6.5 17.5 6.72386 17.5 7Z" stroke="black" stroke-width="1.5" stroke-linecap="round"/>
</svg>
