<svg width="24" height="24" viewBox="0 0 24 24" fill="none" xmlns="http://www.w3.org/2000/svg">
<path d="M12 8V11.9999M12 8H14C14.5523 8 15 7.55228 15 7V5C15 4.44772 14.5523 4 14 4H10C9.44772 4 9 4.44772 9 5V7C9 7.55228 9.44772 8 10 8H12ZM12 11.9999L15 11.9999C16.1046 11.9999 17 12.8953 17 13.9999V16M12 11.9999H9C7.89543 11.9999 7 12.8953 7 13.9999V16M17 16H19C19.5523 16 20 16.4477 20 17V19C20 19.5523 19.5523 20 19 20H15C14.4477 20 14 19.5523 14 19V17C14 16.4477 14.4477 16 15 16H17ZM7 16L9.00001 16C9.55229 16 10 16.4477 10 17V19C10 19.5523 9.55228 20 9 20H5C4.44772 20 4 19.5523 4 19V17C4 16.4477 4.44771 16 4.99999 16L7 16Z" stroke="black" stroke-width="1.5" stroke-linecap="round"/>
</svg>
