<svg width="24" height="24" viewBox="0 0 24 24" fill="none" xmlns="http://www.w3.org/2000/svg">
<path d="M19.75 19H4.5C3.67157 19 3 18.3284 3 17.5V6C3 5.44772 3.44772 5 4 5H17.5C18.0523 5 18.5 5.44772 18.5 6V7M19.75 19C19.0596 19 18.5 18.4404 18.5 17.75V7M19.75 19C20.4404 19 21 18.4404 21 17.75V8C21 7.44772 20.5523 7 20 7H18.5M13 7.5H15.5M13 10H16M13 12.5H14.5M5.5 7.6V12.4C5.5 12.4552 5.54477 12.5 5.6 12.5H10.4C10.4552 12.5 10.5 12.4552 10.5 12.4V7.6C10.5 7.54477 10.4552 7.5 10.4 7.5H5.6C5.54477 7.5 5.5 7.54477 5.5 7.6Z" stroke="black" stroke-width="1.5" stroke-linecap="round"/>
</svg>
