<svg width="24" height="24" viewBox="0 0 24 24" fill="none" xmlns="http://www.w3.org/2000/svg">
<path d="M11.2593 11.6666L18.1874 15.6666M11.2593 11.6666C11.4717 11.2987 11.5106 10.8782 11.4012 10.5M11.2593 11.6666C11.0456 12.0367 10.698 12.2813 10.3131 12.3745M9.21027 12.2157C8.98737 12.087 8.80999 11.9097 8.68379 11.705C8.40379 11.2507 8.37571 10.6612 8.66123 10.1666M9.21027 12.2157L6.46027 16.9788M9.21027 12.2157C9.55759 12.4162 9.95178 12.462 10.3131 12.3745M10.7103 9.61758C10.3761 9.42466 9.99858 9.37491 9.64872 9.44931C9.24742 9.53466 8.88252 9.78333 8.66123 10.1666M10.7103 9.61758L12.2103 7.0195M10.7103 9.61758C11.0598 9.81939 11.2974 10.1406 11.4012 10.5M8.66123 10.1666L6.0661 8.66832M12.2103 7.0195C12.9277 7.43372 13.8451 7.1879 14.2593 6.47047C14.6735 5.75303 14.4277 4.83564 13.7103 4.42143C13.3761 4.2285 12.9986 4.17876 12.6487 4.25316C12.2474 4.3385 11.8825 4.58718 11.6612 4.97047C11.3757 5.46501 11.4038 6.05455 11.6838 6.50881C11.81 6.71355 11.9874 6.89081 12.2103 7.0195ZM6.46027 16.9788C7.17771 17.393 7.42352 18.3104 7.0093 19.0278C6.59509 19.7453 5.67771 19.9911 4.96027 19.5769C4.73737 19.4482 4.55999 19.2709 4.43379 19.0662C4.15379 18.6119 4.12571 18.0224 4.41123 17.5278C4.63252 17.1445 4.99742 16.8959 5.39872 16.8105C5.74858 16.7361 6.12611 16.7859 6.46027 16.9788ZM6.0661 8.66832C5.65189 9.38576 4.7345 9.63157 4.01707 9.21736C3.79417 9.08867 3.61679 8.91141 3.49059 8.70666C3.2106 8.25241 3.1825 7.66286 3.46803 7.16832C3.68932 6.78504 4.05422 6.53636 4.45552 6.45102C4.80538 6.37662 5.18291 6.42636 5.51707 6.61928C6.2345 7.0335 6.48032 7.95088 6.0661 8.66832ZM18.1874 15.6666C17.9019 16.1611 17.93 16.7507 18.21 17.2049C18.3362 17.4097 18.5136 17.5869 18.7365 17.7156C19.4539 18.1298 20.3713 17.884 20.7855 17.1666C21.1997 16.4491 20.9539 15.5318 20.2365 15.1175C19.9023 14.9246 19.5248 14.8749 19.1749 14.9493C18.7736 15.0346 18.4087 15.2833 18.1874 15.6666ZM11.4012 10.5L19 8.5M10.3131 12.3745L11.4065 15.9373" stroke="black" stroke-width="1.5" stroke-linecap="round"/>
</svg>
