<svg width="24" height="24" viewBox="0 0 24 24" fill="none" xmlns="http://www.w3.org/2000/svg">
<path d="M6 18V19C6 20.1046 6.89543 21 8 21H16M6 18V15M6 18H4.5M6 18H7.5M6 15V12M6 15H4.5M6 15H7.5M6 12V9M6 12H7.5M6 12H4.5M6 9V6M6 9H4.5M6 9H7.5M6 6V5C6 3.89543 6.89543 3 8 3H16M6 6H7.5M6 6H4.5M16 3H17C18.1046 3 19 3.89543 19 5V6M16 3V6M16 21H17C18.1046 21 19 20.1046 19 19V18M16 21V18M16 6H19M16 6V9M19 6V9M16 9H19M16 9V12M19 9V12M16 12H19M16 12V15M19 12V15M16 15H19M16 15V18M19 15V18M16 18H19" stroke="black" stroke-width="1.5" stroke-linecap="round"/>
</svg>
