<svg width="24" height="24" viewBox="0 0 24 24" fill="none" xmlns="http://www.w3.org/2000/svg">
<path d="M8 11H5.1C5.04477 11 5 11.0448 5 11.1L5 16.9519C5 16.9823 5.01381 17.011 5.03753 17.03L9.97261 20.9781C9.99034 20.9923 10.0124 21 10.0351 21H13.9649C13.9876 21 14.0097 20.9923 14.0274 20.9781L18.9625 17.03C18.9862 17.011 19 16.9823 19 16.9519L19 11.1C19 11.0448 18.9552 11 18.9 11H16M8 11V3.1C8 3.04477 8.04477 3 8.1 3H15.9C15.9552 3 16 3.04477 16 3.1V11M8 11H16M7 11L17 9M7 8.5L17 6.5M7 6L17 4" stroke="black" stroke-width="1.5" stroke-linecap="round"/>
</svg>
