<svg width="24" height="24" viewBox="0 0 24 24" fill="none" xmlns="http://www.w3.org/2000/svg">
<path d="M19.5001 12L19.5001 16M19.5001 12H17.5M19.5001 12H21.5M19.5001 16L19.5 19C19.5 19.5523 19.0523 20 18.5 20H14.5C13.9477 20 13.5 19.5523 13.5 19L13.5001 16M19.5001 16H13.5001M13.5001 16V12M13.5001 12H7M13.5001 12H15.5M4.49984 20L4.5 12M4.5 12H2.50012M4.5 12H7M17.5 12V9.6C17.5 9.54477 17.4553 9.5 17.4 9.5H17M17.5 12H15.5M7 12L7.00006 8M7.00006 8H4.60006C4.54483 8 4.50006 7.95523 4.50006 7.9V6.5C4.50006 5.11929 5.61934 4 7.00006 4C8.38078 4 9.50006 5.11929 9.50006 6.5V7.9C9.50006 7.95523 9.45529 8 9.40006 8H7.00006ZM15.5 12V9.6C15.5 9.54477 15.5448 9.5 15.6 9.5H17M17 9.5V7.5" stroke="black" stroke-width="1.5" stroke-linecap="round"/>
</svg>
