<svg width="24" height="24" viewBox="0 0 24 24" fill="none" xmlns="http://www.w3.org/2000/svg">
<path d="M12 21C9.61453 18.4742 8.42179 15.2371 8.42179 12M12 21C7.02944 21 3 16.9706 3 12M12 21C12.4517 20.5217 12.8607 20.0179 13.2268 19.4934M12 21C12.6383 21 13.2611 20.9336 13.8618 20.8072M8.42179 12C8.42179 8.7629 9.61453 5.52579 12 3M8.42179 12H15.5782M8.42179 12H3M12 3C7.02944 3 3 7.02944 3 12M12 3C16.9706 3 21 7.02944 21 12M12 3C14.3855 5.52579 15.5782 8.7629 15.5782 12M21 12H15.5782M21 12C21 12.6383 20.9336 13.2611 20.8072 13.8618M15.5782 12C15.5782 12.5634 15.5421 13.1268 15.4698 13.6865M18 18L19.5 16.5M18 18L19.5 19.5M18 18L16.5 19.5M18 18L16.5 16.5M15.4698 13.6865C13.992 14.5553 13 16.1618 13 18C13 18.5202 13.0794 19.0218 13.2268 19.4934M15.4698 13.6865C16.212 13.2502 17.0768 13 18 13C19.0406 13 20.0069 13.3179 20.8072 13.8618M13.2268 19.4934C13.3743 19.9652 13.5898 20.407 13.8618 20.8072M13.8618 20.8072C14.7613 22.1307 16.2792 23 18 23C20.7614 23 23 20.7614 23 18C23 16.2792 22.1307 14.7614 20.8072 13.8618" stroke="black" stroke-width="1.5" stroke-linecap="round"/>
</svg>
