<svg width="24" height="24" viewBox="0 0 24 24" fill="none" xmlns="http://www.w3.org/2000/svg">
<path d="M11 3.05493C11.3283 3.01863 11.662 3 12 3C16.9706 3 21 7.02944 21 12C21 16.9706 16.9706 21 12 21C11.6114 21 11.2285 20.9754 10.8529 20.9276M6.5 4.87555C7.10936 4.40444 7.78081 4.00977 8.5 3.70591M3.76137 8.37154C4.0259 7.77178 4.354 7.20636 4.73714 6.68381M3.04206 11.1243C3.01424 11.4125 3 11.7046 3 12C3 12.3168 3.01637 12.6298 3.04832 12.9382M4.75707 17.3433C4.36537 16.8132 4.03048 16.2386 3.76137 15.6285M8.33331 20.2217C7.74767 19.9601 7.1951 19.6378 6.68362 19.2627" stroke="black" stroke-width="1.5" stroke-linecap="round"/>
</svg>
