<svg width="24" height="24" viewBox="0 0 24 24" fill="none" xmlns="http://www.w3.org/2000/svg">
<path d="M8 4H4.1C4.04477 4 4 4.04477 4 4.1V8M8 4V8M8 4H12M8 20H4.1C4.04477 20 4 19.9552 4 19.9V16M8 20V16M8 20H12M8 8V12M8 8H12M8 8H4M8 12V16M8 12H4M8 12H12M8 16H12M8 16H4M12 4V8M12 4H16M12 20V16M12 20H16M12 8V12M12 8H16M12 12V16M12 12H16M12 16H16M16 20H19.9C19.9552 20 20 19.9552 20 19.9V16M16 20V16M16 4H19.9C19.9552 4 20 4.04477 20 4.1V8M16 4V8M16 16V12M16 16H20M16 12V8M16 12H20M16 8H20M20 8V12M4 8V12M4 12V16M20 12V16" stroke="black" stroke-width="1.5"/>
</svg>
