<svg width="24" height="24" viewBox="0 0 24 24" fill="none" xmlns="http://www.w3.org/2000/svg">
<path d="M6.00006 20.5L6.00002 18.5M6.00002 18.5C6.00002 18.5 9 18.4142 9 14.5C9 10.9785 6.57178 6.10399 6.08454 5.16134C6.04807 5.09077 5.95146 5.09036 5.91459 5.16072C5.42528 6.09439 3.00002 10.9035 3.00002 14.5C3.00002 18.5 6.00002 18.5 6.00002 18.5ZM6.00002 18.5L6 14M12.5 15H14M19 15H17.5M14 15L12 20.5M14 15H17.5M17.5 15L19.5 20.5M10.5 18H21M18.5 9.5V11M14.5 5.5H13M15.5 8.5L14.5 9.5M16.5 5.5C16.5 4.39543 17.3954 3.5 18.5 3.5C19.6046 3.5 20.5 4.39543 20.5 5.5C20.5 6.60457 19.6046 7.5 18.5 7.5C17.3954 7.5 16.5 6.60457 16.5 5.5Z" stroke="black" stroke-width="1.5" stroke-linecap="round"/>
</svg>
