<svg width="24" height="24" viewBox="0 0 24 24" fill="none" xmlns="http://www.w3.org/2000/svg">
<path d="M5 10.59C4.82252 10.7149 4.6542 10.852 4.49628 11C3.60393 11.8364 3.04324 13.0229 3.03369 14.3415C3.0151 16.9088 5.09117 19 7.65857 19H12.25C14.8733 19 17 16.8734 17 14.25C17.0002 14.236 17.0003 14.222 17.0004 14.2081C17.0142 11.7528 15.0271 9.75 12.5664 9.75H9M19 13.4334C19.1899 13.3023 19.3694 13.1573 19.5373 13C20.4375 12.1562 21 10.9563 21 9.625C21 7.07068 18.9293 5 16.375 5H11.75C9.12661 5 6.99996 7.12665 6.99996 9.75C6.99996 9.76552 7.00004 9.78103 7.00019 9.79652C7.02514 12.2604 9.0302 14.25 11.5 14.25H15" stroke="black" stroke-width="1.5" stroke-linecap="round"/>
</svg>
