<svg width="24" height="24" viewBox="0 0 24 24" fill="none" xmlns="http://www.w3.org/2000/svg">
<path d="M8.5 12.4998L5.24889 9.24865C4.69926 8.69902 4.95937 7.75992 5.71346 7.5714L19.8383 4.04019C19.8697 4.03233 19.8999 4.04005 19.9226 4.0572M8.5 12.4998L7.90423 14.8829C7.72113 15.6152 8.38453 16.2786 9.11691 16.0955L11.5 15.4998M8.5 12.4998L19.9226 4.0572M11.5 15.4998L14.7511 18.7509C15.3007 19.3005 16.2398 19.0404 16.4284 18.2863L19.9596 4.16145C19.9674 4.13017 19.9598 4.10014 19.9428 4.07743M11.5 15.4998L19.9428 4.07743M19.9428 4.07743C19.937 4.06978 19.9302 4.06296 19.9226 4.0572" stroke="black" stroke-width="1.5" stroke-linecap="round"/>
</svg>
