<svg width="24" height="24" viewBox="0 0 24 24" fill="none" xmlns="http://www.w3.org/2000/svg">
<path d="M17.5 6.49988C17.5 5.67146 18.1716 4.99988 19 4.99988C19.8284 4.99988 20.5 5.67146 20.5 6.49988C20.5 7.32831 19.8284 7.99988 19 7.99988C18.1716 7.99988 17.5 7.32826 17.5 6.49988ZM17.5 6.49988L9.5 6.5M6.49998 17.4999C7.3284 17.4999 7.99998 18.1715 7.99998 18.9999C7.99998 19.8283 7.32841 20.4999 6.49998 20.4999C5.67155 20.4999 4.99998 19.8283 4.99998 18.9999C4.99998 18.1715 5.67155 17.4999 6.49998 17.4999ZM6.49998 17.4999L6.5 9.5M15.3787 15.3786C14.8358 15.9215 14.5 16.6715 14.5 17.4999C14.5 19.1567 15.8431 20.4999 17.5 20.4999C19.1568 20.4999 20.5 19.1567 20.5 17.4999C20.5 15.843 19.1568 14.4999 17.5 14.4999C16.6716 14.4999 15.9216 14.8357 15.3787 15.3786ZM15.3787 15.3786L8.62137 8.62127M9.5 6.5C9.5 4.84315 8.15685 3.5 6.5 3.5C5.67157 3.5 4.92157 3.83579 4.37868 4.37868C3.83579 4.92157 3.5 5.67157 3.5 6.5C3.5 8.15685 4.84315 9.5 6.5 9.5M9.5 6.5C9.5 7.3284 9.16423 8.07838 8.62137 8.62127M6.5 9.5C7.32845 9.5 8.07847 9.16419 8.62137 8.62127" stroke="black" stroke-width="1.5" stroke-linecap="round"/>
</svg>
