<svg width="24" height="24" viewBox="0 0 24 24" fill="none" xmlns="http://www.w3.org/2000/svg">
<path d="M8 6.5V6C8 5.44772 8.44772 5 9 5H11M17 17.5H18.5C19.0523 17.5 19.5 17.0523 19.5 16.5V6C19.5 5.44772 19.0523 5 18.5 5H16.5M11 5V4.5C11 3.94772 11.4477 3.5 12 3.5H15.5C16.0523 3.5 16.5 3.94772 16.5 4.5V5M11 5V5.5C11 6.05228 11.4477 6.5 12 6.5H15.5C16.0523 6.5 16.5 6.05228 16.5 5.5V5M5.5 20.5H13.5C14.0523 20.5 14.5 20.0523 14.5 19.5V13.4142C14.5 13.149 14.3946 12.8946 14.2071 12.7071L10.7929 9.29289C10.6054 9.10536 10.351 9 10.0858 9H5.5C4.94772 9 4.5 9.44772 4.5 10V19.5C4.5 20.0523 4.94772 20.5 5.5 20.5Z" stroke="black" stroke-width="1.5" stroke-linecap="round"/>
</svg>
