<svg width="24" height="24" viewBox="0 0 24 24" fill="none" xmlns="http://www.w3.org/2000/svg">
<path d="M17.5 11.4998L19.7929 9.20696C20.1834 8.81643 20.1834 8.18327 19.7929 7.79274L16.2071 4.20696C15.8166 3.81643 15.1834 3.81643 14.7929 4.20696L12.5 6.49985M17.5 11.4998L12.5 6.49985M17.5 11.4998C18.7899 14.3376 17.1474 17.644 14.1068 18.3306L5.03761 20.3784C4.70292 20.454 4.35286 20.3527 4.11024 20.1101L3.99998 19.9998M12.5 6.49985C9.66226 5.20998 6.35585 6.85243 5.66927 9.893L3.62138 18.9622C3.54581 19.2969 3.6471 19.647 3.88971 19.8896L3.99998 19.9998M3.99998 19.9998L9.58576 14.4141M9.58576 14.4141C9.22384 14.0521 8.99998 13.5521 8.99998 12.9998C8.99998 11.8953 9.89541 10.9998 11 10.9998C12.1045 10.9998 13 11.8953 13 12.9998C13 14.1044 12.1045 14.9998 11 14.9998C10.4477 14.9998 9.94769 14.776 9.58576 14.4141Z" stroke="black" stroke-width="1.5" stroke-linecap="round"/>
</svg>
