<svg width="24" height="24" viewBox="0 0 24 24" fill="none" xmlns="http://www.w3.org/2000/svg">
<path d="M17.5 11.4998L19.7929 9.20696C20.1834 8.81643 20.1834 8.18327 19.7929 7.79274L16.2071 4.20696C15.8166 3.81643 15.1834 3.81643 14.7929 4.20696L12.5 6.49985M17.5 11.4998L11 17.9998M17.5 11.4998L12.5 6.49985M12.5 6.49985L5.99999 12.9998M11 17.9998V17.4395C11 16.1774 9.84534 15.2308 8.60776 15.4783C8.55649 15.4885 8.51129 15.4433 8.52154 15.3921C8.76906 14.1545 7.82248 12.9998 6.56038 12.9998H5.99999M11 17.9998L7.49999 18.9998M5.99999 12.9998L4.99999 16.4998M7.49999 18.9998L4.17307 19.9504C4.09763 19.972 4.02789 19.9022 4.04944 19.8268L4.99999 16.4998M7.49999 18.9998C6.5098 18.3397 5.66012 17.49 4.99999 16.4998" stroke="black" stroke-width="1.5" stroke-linecap="round"/>
</svg>
