<svg width="24" height="24" viewBox="0 0 24 24" fill="none" xmlns="http://www.w3.org/2000/svg">
<path d="M11.9999 21H15.4999M15.4999 21H18.9999M15.4999 21V5.99709C15.4999 4.34184 14.1581 3 12.5028 3C10.8476 3 9.50573 4.34185 9.50574 5.9971L9.50574 6.25583M9.50574 6.25583C10.0221 6.25404 10.5383 6.16874 11.0336 6C11.724 5.76478 12.4411 6.27806 12.4411 7.00748V10.5261C12.4411 11.1207 12.0627 11.6494 11.4999 11.8411C10.8534 12.0614 10.1798 12.1727 9.50574 12.1751M9.50574 6.25583C8.98875 6.25763 8.47147 6.17573 7.9745 6.01008L7.93907 5.99827C7.23393 5.76322 6.50574 6.28807 6.50574 7.03135V10.5017C6.50574 11.1101 6.89505 11.6503 7.47223 11.8427L7.50713 11.8543C8.15579 12.0705 8.83095 12.1774 9.50574 12.1751M9.50574 12.1751C9.67334 13.6167 9.50825 16.8 7.50713 18" stroke="black" stroke-width="1.5" stroke-linecap="round"/>
</svg>
