<svg width="24" height="24" viewBox="0 0 24 24" fill="none" xmlns="http://www.w3.org/2000/svg">
<path d="M3.85715 14L3.03642 16.8726C3.01817 16.9364 3.06614 17 3.13258 17H7.5M3.85715 14H7.92858M3.85715 14L4.57143 11.5M20.1429 14L20.9636 16.8726C20.9818 16.9364 20.9339 17 20.8674 17H16.5M20.1429 14H16.0714M20.1429 14L19.4286 11.5M7.92858 14H12M7.92858 14L8.28572 11.5M7.92858 14L7.5 17M12 14H16.0714M12 14V11.5M12 14V17M16.0714 14L15.7143 11.5M16.0714 14L16.5 17M19.4286 11.5H15.7143M19.4286 11.5L18.7143 9.00003M4.57143 11.5H8.28572M4.57143 11.5L5.28572 9.00003M15.7143 11.5H12M15.7143 11.5L15.3571 9.00003M12 11.5H8.28572M12 11.5V9.00003M8.28572 11.5L8.64286 9.00003M5.28572 9.00003H8.64286M5.28572 9.00003L5.97928 6.57261C5.99155 6.52968 6.03079 6.50009 6.07543 6.50009L17.9246 6.49994C17.9692 6.49994 18.0085 6.52954 18.0207 6.57247L18.7143 9.00003M18.7143 9.00003H15.3571M8.64286 9.00003H12M8.64286 9.00003L9 6.5M12 9.00003H15.3571M12 9.00003V6.50003M15.3571 9.00003L15 6.5M12 17H16.5M12 17H7.5" stroke="black" stroke-width="1.5"/>
</svg>
