<svg width="24" height="24" viewBox="0 0 24 24" fill="none" xmlns="http://www.w3.org/2000/svg">
<path d="M9 13.5C10.6569 13.5 12 12.1569 12 10.5C12 8.84315 10.6569 7.5 9 7.5C7.34315 7.5 6 8.84315 6 10.5C6 12.1569 7.34315 13.5 9 13.5ZM9 13.5H10C11.313 13.5 12.4289 14.3435 12.8356 15.5181C13.0163 16.04 12.5523 16.5 12 16.5H6.17071C5.61842 16.5 5.15439 16.04 5.33508 15.5181C5.74176 14.3435 6.85773 13.5 8.17071 13.5H9ZM15 9.5H18.5M15 12H18.5M15 14.5H17M3 18V6C3 5.44772 3.44772 5 4 5H20C20.5523 5 21 5.44772 21 6V18C21 18.5523 20.5523 19 20 19H4C3.44772 19 3 18.5523 3 18Z" stroke="black" stroke-width="1.5" stroke-linecap="round"/>
</svg>
