<svg width="24" height="24" viewBox="0 0 24 24" fill="none" xmlns="http://www.w3.org/2000/svg">
<path d="M9.54493 6.84558C9.83085 7.24343 9.78643 7.78985 9.43999 8.13628L8.74345 8.83282C8.67515 8.90113 8.66345 9.00771 8.71531 9.08921C10.2869 11.5588 12.3814 13.6534 14.851 15.2249C14.9325 15.2768 15.0391 15.2651 15.1074 15.1968L15.8021 14.5021C16.1493 14.1549 16.6974 14.1111 17.0953 14.399L19.3813 16.0525C19.7466 16.3167 19.8888 16.7926 19.6805 17.1924C19.4216 17.6895 19.0062 18.3693 18.4375 18.9381C17.4024 19.9732 15.8688 20.3929 14.5311 19.7985C10.2388 17.8914 6.68311 14.3146 4.34663 9.55092C3.65465 8.14011 4.03727 6.46793 5.1484 5.3568C5.76748 4.73772 6.42667 4.3873 6.8891 4.19834C7.25179 4.05013 7.64662 4.20415 7.87527 4.52231L9.54493 6.84558Z" stroke="black" stroke-width="1.5" stroke-linecap="round"/>
</svg>
