<svg width="24" height="24" viewBox="0 0 24 24" fill="none" xmlns="http://www.w3.org/2000/svg">
<path d="M12 9C12.7678 9 13.5355 9.29289 14.1213 9.87868C14.7071 10.4645 15 11.2322 15 12M21 12C21 7.02944 16.9706 3 12 3M18 12C18 8.68629 15.3137 6 12 6M4.34663 9.55083C6.68311 14.3145 10.2388 17.8913 14.5311 19.7984C15.8688 20.3928 17.4024 19.9731 18.4375 18.938C19.0062 18.3692 19.4216 17.6894 19.6805 17.1923C19.8888 16.7925 19.7465 16.3166 19.3813 16.0524L17.0953 14.3989C16.6974 14.1111 16.1493 14.1548 15.8021 14.502L15.1074 15.1967C15.0391 15.265 14.9325 15.2767 14.851 15.2248C12.3814 13.6533 10.2869 11.5587 8.7153 9.08912C8.66344 9.00762 8.67514 8.90104 8.74345 8.83274L9.43999 8.13619C9.78642 7.78976 9.83085 7.24335 9.54493 6.8455L7.87527 4.52222C7.64662 4.20406 7.25178 4.05005 6.8891 4.19825C6.42667 4.38721 5.76748 4.73764 5.1484 5.35671C4.03727 6.46784 3.65465 8.14002 4.34663 9.55083Z" stroke="black" stroke-width="1.5" stroke-linecap="round"/>
</svg>
