<svg width="24" height="24" viewBox="0 0 24 24" fill="none" xmlns="http://www.w3.org/2000/svg">
<path d="M13.5 10.5001L19 5.00009M19 5.00009V10.0892M19 5.00009H13.851M4.34663 9.55092C6.68311 14.3146 10.2388 17.8914 14.5311 19.7985C15.8688 20.3929 17.4024 19.9732 18.4375 18.9381C19.0062 18.3693 19.4216 17.6895 19.6805 17.1924C19.8888 16.7926 19.7465 16.3167 19.3813 16.0525L17.0953 14.399C16.6974 14.1111 16.1493 14.1549 15.8021 14.5021L15.1074 15.1968C15.0391 15.2651 14.9325 15.2768 14.851 15.2249C12.3814 13.6534 10.2869 11.5588 8.7153 9.08921C8.66344 9.00771 8.67514 8.90113 8.74345 8.83282L9.43999 8.13628C9.78642 7.78985 9.83085 7.24343 9.54493 6.84558L7.87527 4.52231C7.64662 4.20415 7.25178 4.05013 6.8891 4.19834C6.42667 4.3873 5.76748 4.73772 5.1484 5.3568C4.03727 6.46793 3.65465 8.14011 4.34663 9.55092Z" stroke="black" stroke-width="1.5" stroke-linecap="round"/>
</svg>
