<svg width="24" height="24" viewBox="0 0 24 24" fill="none" xmlns="http://www.w3.org/2000/svg">
<path d="M18 3L11.5816 12.6276M11.5816 12.6276C12.5748 13.6022 13.67 14.4733 14.851 15.2248C14.9325 15.2767 15.0391 15.265 15.1074 15.1967L15.8021 14.502C16.1493 14.1548 16.6974 14.1111 17.0953 14.3989L19.3813 16.0524C19.7465 16.3166 19.8888 16.7925 19.6805 17.1923C19.4216 17.6894 19.0062 18.3692 18.4375 18.938C17.4024 19.9731 15.8688 20.3928 14.5311 19.7984C12.5837 18.9332 10.7879 17.7242 9.18886 16.2167M11.5816 12.6276L9.18886 16.2167M9.18886 16.2167L6 21M9.70091 10.5C9.35294 10.0449 9.02403 9.57426 8.7153 9.08912C8.66344 9.00762 8.67514 8.90104 8.74345 8.83274L9.43999 8.13619C9.78642 7.78976 9.83085 7.24335 9.54493 6.8455L7.87527 4.52222C7.64662 4.20406 7.25178 4.05005 6.8891 4.19825C6.42667 4.38721 5.76748 4.73764 5.1484 5.35671C4.03727 6.46784 3.65465 8.14002 4.34663 9.55083C5.16677 11.2229 6.13712 12.7488 7.23683 14.1076" stroke="black" stroke-width="1.5" stroke-linecap="round"/>
</svg>
