<svg width="24" height="24" viewBox="0 0 24 24" fill="none" xmlns="http://www.w3.org/2000/svg">
<path d="M20.9999 11.9998C20.9999 14.3032 20.1213 16.6065 18.3638 18.364C14.8491 21.8787 9.15064 21.8787 5.63592 18.364C2.1212 14.8492 2.1212 9.15076 5.63592 5.63604C8.79049 2.48146 13.7042 2.15822 17.2193 4.66632M17.2193 4.66632C16.719 5.25567 16.7469 6.1403 17.3032 6.6966C17.889 7.28239 18.8388 7.28239 19.4246 6.6966C20.0104 6.11081 20.0104 5.16106 19.4246 4.57528C18.8388 3.98949 17.889 3.98949 17.3032 4.57527C17.2738 4.60473 17.2458 4.63511 17.2193 4.66632ZM14.1213 14.1212C12.9497 15.2928 11.0502 15.2928 9.87862 14.1212C8.70705 12.9497 8.70705 11.0502 9.87862 9.87858C10.4644 9.29279 11.2322 8.9999 11.9999 8.9999C12.7677 8.9999 13.5355 9.29279 14.1213 9.87858C15.2928 11.0502 15.2928 12.9497 14.1213 14.1212Z" stroke="black" stroke-width="1.5" stroke-linecap="round"/>
</svg>
