<svg width="24" height="24" viewBox="0 0 24 24" fill="none" xmlns="http://www.w3.org/2000/svg">
<path d="M4.99999 11.5001C3.52412 11.5001 2.48196 10.0542 2.94868 8.65404L2.99999 8.50009M4.99999 11.5001C4.99999 9.08425 6.00001 5.50017 12.5 5.50017C13.2594 5.50017 14.0187 5.57078 14.7424 5.7069C14.9116 5.73874 15.0863 5.73129 15.2507 5.6796L18.594 4.62789C18.7952 4.5646 19 4.71486 19 4.9258C19 4.9747 18.9885 5.02291 18.9665 5.06656L18.3884 6.21144C18.1652 6.65352 18.3138 7.1824 18.6388 7.55609C19.0392 8.01661 19.3181 8.58488 19.4364 9.25361C19.5086 9.66149 19.8358 10.0001 20.25 10.0001C20.6642 10.0001 21 10.3359 21 10.7501L21 13.9385C21 14.2487 20.7486 14.5001 20.4385 14.5001C20.1808 14.5001 19.9552 14.6751 19.863 14.9157C19.6801 15.3938 19.2993 16.1758 18.6357 16.6662C18.2896 16.9221 18 17.2903 18 17.7208V17.9999C18 18.5522 17.5523 18.9999 17 18.9999H14.75C14.3358 18.9999 14 18.6641 14 18.25C14 17.8358 13.6642 17.5 13.2501 17.5H11.75C11.3358 17.5 11 17.8358 11 18.25C11 18.6641 10.6642 18.9999 10.2501 18.9999H8.00001C7.44773 18.9999 7.00001 18.5522 7.00001 17.9999V17.5C7.00001 17.1852 6.84769 16.8924 6.61012 16.6859C5 15.2861 5 13.8258 4.99999 11.5001ZM10 8.00009C11.6049 7.35815 13.3951 7.35815 15 8.00009" stroke="black" stroke-width="1.5" stroke-linecap="round"/>
</svg>
