<svg width="24" height="24" viewBox="0 0 24 24" fill="none" xmlns="http://www.w3.org/2000/svg">
<path fill-rule="evenodd" clip-rule="evenodd" d="M5 20V4C5 3.44772 5.44772 3 6 3H18C18.5523 3 19 3.44772 19 4L19 20C19 20.5523 18.5523 21 18 21H6C5.44772 21 5 20.5523 5 20ZM9.25 15.5C9.94036 15.5 10.5 16.0596 10.5 16.75C10.5 17.4404 9.94036 18 9.25 18C8.55964 18 8 17.4404 8 16.75C8 16.0596 8.55964 15.5 9.25 15.5ZM14.75 15.5C15.4404 15.5 16 16.0596 16 16.75C16 17.4404 15.4404 18 14.75 18C14.0596 18 13.5 17.4404 13.5 16.75C13.5 16.0596 14.0596 15.5 14.75 15.5ZM9.25 10.75C9.94036 10.75 10.5 11.3096 10.5 12C10.5 12.6904 9.94036 13.25 9.25 13.25C8.55964 13.25 8 12.6904 8 12C8 11.3096 8.55964 10.75 9.25 10.75ZM16 12C16 11.3096 15.4404 10.75 14.75 10.75C14.0596 10.75 13.5 11.3096 13.5 12C13.5 12.6904 14.0596 13.25 14.75 13.25C15.4404 13.25 16 12.6904 16 12ZM9.25 6C9.94036 6 10.5 6.55964 10.5 7.25C10.5 7.94036 9.94036 8.5 9.25 8.5C8.55964 8.5 8 7.94036 8 7.25C8 6.55964 8.55964 6 9.25 6ZM14.75 6C15.4404 6 16 6.55964 16 7.25C16 7.94036 15.4404 8.5 14.75 8.5C14.0596 8.5 13.5 7.94036 13.5 7.25C13.5 6.55964 14.0596 6 14.75 6Z" stroke="black" stroke-width="1.5" stroke-linecap="round"/>
</svg>
