<svg width="24" height="24" viewBox="0 0 24 24" fill="none" xmlns="http://www.w3.org/2000/svg">
<path d="M7.30628 7.30628C4.72336 8.27295 3 10.0135 3 12C3 13.9865 4.72336 15.7271 7.30628 16.6937M7.30628 7.30628C8.67288 6.79482 10.2801 6.5 12 6.5C13.7199 6.5 15.3271 6.79482 16.6937 7.30628M7.30628 7.30628C6.79482 8.67288 6.5 10.2801 6.5 12C6.5 12.6874 6.54709 13.3568 6.63629 14M7.30628 7.30628C8.27295 4.72336 10.0135 3 12 3C13.9865 3 15.727 4.72336 16.6937 7.30628M16.6937 7.30628C19.2766 8.27295 21 10.0135 21 12C21 13.9865 19.2766 15.7271 16.6937 16.6937M16.6937 7.30628C17.2052 8.67288 17.5 10.2801 17.5 12C17.5 13.7199 17.2052 15.3271 16.6937 16.6937M16.6937 16.6937C15.7271 19.2766 13.9865 21 12 21C10.0135 21 8.27295 19.2766 7.30628 16.6937M6.63629 14L5.27257 12.6363M6.63629 14L8 12.6363M7.30628 16.6937C8.12669 17.0008 9.03383 17.2297 10 17.3637C10.6432 17.4529 11.3126 17.5 12 17.5C12.6874 17.5 13.3568 17.4529 14 17.3637M14 17.3637L12.6363 16M14 17.3637L12.6363 18.7274M13.5 12C13.5 12.8284 12.8284 13.5 12 13.5C11.1716 13.5 10.5 12.8284 10.5 12C10.5 11.1716 11.1716 10.5 12 10.5C12.8284 10.5 13.5 11.1716 13.5 12Z" stroke="black" stroke-width="1.5" stroke-linecap="round"/>
</svg>
