<svg width="24" height="24" viewBox="0 0 24 24" fill="none" xmlns="http://www.w3.org/2000/svg">
<path d="M11.9999 8.99982C11.9999 8.99982 10.5 9.99966 8.99997 9.49974C7.67097 9.05681 6.73446 7.04387 6.53821 6.59068C6.51626 6.53999 6.54151 6.4836 6.59348 6.46489C7.01396 6.31351 8.76613 5.74605 10.0803 6.27914M11.9999 8.99982C11.9999 8.99982 12 7.49964 10.5 6.49981C10.3671 6.41127 10.2264 6.3384 10.0803 6.27914M11.9999 8.99982C11.9999 8.99982 13.5 9.99966 15 9.49974C16.329 9.05681 17.2655 7.04387 17.4617 6.59068C17.4837 6.53999 17.4584 6.4836 17.4065 6.46489C16.986 6.31351 15.2338 5.74605 13.9196 6.27914M11.9999 8.99982C11.9999 8.99982 12 7.49964 13.5 6.49981C13.6328 6.41126 13.7735 6.3384 13.9196 6.27914M11.9999 8.99982L11.9999 11.9998M13.9196 6.27914C13.5937 4.76598 12.3734 3.39512 12.0691 3.07167C12.0312 3.03145 11.9687 3.03145 11.9309 3.07167C11.6265 3.39512 10.4063 4.76599 10.0803 6.27914M11.9999 11.9998H15.4C15.4552 11.9998 15.5 12.0446 15.5 12.0998V12.4761C15.5 12.4916 15.4964 12.5069 15.4894 12.5208L15.2393 13.021C15.0898 13.3201 15.0996 13.6741 15.2655 13.9644L15.5967 14.544C16.9096 16.3739 16.5565 19.1178 15.277 20.6921C15.1098 20.8979 14.851 20.9998 14.5858 20.9998H9.41417C9.14896 20.9998 8.89021 20.8979 8.72293 20.6921C7.44347 19.1179 7.0903 16.3739 8.40325 14.5439L8.73444 13.9644C8.90032 13.6741 8.91015 13.3201 8.76064 13.021L8.51055 12.5208C8.50361 12.5069 8.5 12.4916 8.5 12.4761V12.0997C8.5 12.0445 8.54477 11.9997 8.6 11.9997L11.9999 11.9998Z" stroke="black" stroke-width="1.5" stroke-linecap="round"/>
</svg>
