<svg width="24" height="24" viewBox="0 0 24 24" fill="none" xmlns="http://www.w3.org/2000/svg">
<path d="M16.75 13.25V16.5M16.75 19.75V16.5M13.5 16.5H16.75M20 16.5H16.75M4.25002 15.5V18C4.25002 19.1046 5.14545 20 6.25002 20H8.75002C9.85459 20 10.75 19.1046 10.75 18L10.75 15.5C10.75 14.3954 9.85459 13.5 8.75002 13.5H6.25002C5.14545 13.5 4.25002 14.3954 4.25002 15.5ZM13.5 7.50002C13.5 5.70509 14.9551 4.25002 16.75 4.25002C18.5449 4.25002 20 5.70509 20 7.50002C20 9.29494 18.5449 10.75 16.75 10.75C14.9551 10.75 13.5 9.29494 13.5 7.50002ZM4.56068 6.43936L6.43936 4.56068C7.02514 3.97489 7.97489 3.97489 8.56068 4.56068L10.4394 6.43936C11.0251 7.02514 11.0251 7.97489 10.4394 8.56068L8.56068 10.4394C7.97489 11.0251 7.02515 11.0251 6.43936 10.4394L4.56068 8.56068C3.97489 7.97489 3.97489 7.02515 4.56068 6.43936Z" stroke="black" stroke-width="1.5" stroke-linecap="round"/>
</svg>
