<svg width="24" height="24" viewBox="0 0 24 24" fill="none" xmlns="http://www.w3.org/2000/svg">
<path d="M7.50006 9H6.00006C5.44778 9 5.00006 9.44772 5.00006 10V12C5.00006 15.0695 6.97573 17.6776 9.72481 18.6219C10.1694 18.7747 10.5 19.174 10.5 19.6441V21.5M7.50006 9L7.50001 4.25001C7.50001 3.55965 8.05965 3 8.75001 3C9.44037 3 10 3.55964 10 4.24999L10.0001 9M7.50006 9H10.0001M10.0001 9H14.0001M16.5001 9H18.0001C18.5523 9 19.0001 9.44771 19.0001 10V12C19.0001 15.0695 17.0243 17.6776 14.2752 18.622C13.8306 18.7747 13.5 19.1741 13.5 19.6442V21.5M16.5001 9L16.5 4.24999C16.5 3.55964 15.9404 3 15.25 3C14.5597 3 14 3.55965 14 4.25001L14.0001 9M16.5001 9H14.0001" stroke="black" stroke-width="1.5" stroke-linecap="round"/>
</svg>
