<svg width="24" height="24" viewBox="0 0 24 24" fill="none" xmlns="http://www.w3.org/2000/svg">
<path d="M4 8.5H7M4 8.5V19C4 19.5523 4.44772 20 5 20H19C19.5523 20 20 19.5523 20 19V8.5M4 8.5V5C4 4.44772 4.44772 4 5 4H19C19.5523 4 20 4.44772 20 5V8.5M7 8.5V7.5C7 6.94772 7.44772 6.5 8 6.5H10C10.5523 6.5 11 6.94772 11 7.5V8.5M7 8.5V9.5C7 10.0523 7.44772 10.5 8 10.5H9M11 8.5V9.5C11 10.0523 10.5523 10.5 10 10.5H9M11 8.5H20M9 10.5V11.5M6.5 17H8M8 17V18M8 17H16M16 17H17.5M16 17V18" stroke="black" stroke-width="1.5" stroke-linecap="round"/>
</svg>
