<svg width="24" height="24" viewBox="0 0 24 24" fill="none" xmlns="http://www.w3.org/2000/svg">
<path d="M12 7H13C13.5523 7 14 6.55228 14 6V4C14 3.44772 13.5523 3 13 3H11C10.4477 3 10 3.44772 10 4V6C10 6.55228 10.4477 7 11 7H12ZM12 7V8M12 17V20.9167M12 17L17.8094 14.5794M12 17L6.19642 14.5818M11 12.5L6.62861 14.2486C6.45248 14.319 6.30448 14.4359 6.19642 14.5818M12 10C12 10.6667 12.6 12.25 15 13.25L17.3846 14.2436C17.5582 14.3159 17.7036 14.4336 17.8094 14.5794M12 20.9167C11.8692 20.9167 11.7385 20.891 11.6154 20.8397L6.61538 18.7564C6.24274 18.6011 6 18.237 6 17.8333V15.177C6 14.9578 6.07154 14.7505 6.19642 14.5818M12 20.9167C12.1308 20.9167 12.2615 20.891 12.3846 20.8397L17.3846 18.7564C17.7573 18.6011 18 18.237 18 17.8333V15.1667C18 14.951 17.9307 14.7467 17.8094 14.5794" stroke="black" stroke-width="1.5" stroke-linecap="round"/>
</svg>
