<svg width="24" height="24" viewBox="0 0 24 24" fill="none" xmlns="http://www.w3.org/2000/svg">
<path d="M6 10H4C3.44772 10 3 10.4477 3 11V17C3 17.5523 3.44772 18 4 18H6M6 10V11.4C6 11.4552 6.04477 11.5 6.1 11.5H17.9C17.9552 11.5 18 11.4552 18 11.4V10M6 10V5C6 4.44772 6.44772 4 7 4H14.0462C14.2058 4 14.361 4.0381 14.5 4.10888M18 10H20C20.5523 10 21 10.4477 21 11V17C21 17.5523 20.5523 18 20 18H18M18 10V8.37574C18 8.24589 17.9747 8.11842 17.9267 8M18 18V15.6C18 15.5448 17.9552 15.5 17.9 15.5H6.1C6.04477 15.5 6 15.5448 6 15.6V18M18 18V19C18 19.5523 17.5523 20 17 20H7C6.44772 20 6 19.5523 6 19V18M17.9267 8C17.8852 7.89751 17.8266 7.80181 17.7526 7.71723L14.7988 4.3415C14.714 4.24453 14.6123 4.16605 14.5 4.10888M17.9267 8H15.5C14.9477 8 14.5 7.55228 14.5 7V4.10888" stroke="black" stroke-width="1.5" stroke-linecap="round"/>
</svg>
