<svg width="24" height="24" viewBox="0 0 24 24" fill="none" xmlns="http://www.w3.org/2000/svg">
<path d="M8.78871 13.321C9.00038 13.4352 9.24262 13.5 9.5 13.5C10.3284 13.5 11 12.8284 11 12C11 11.1716 10.3284 10.5 9.5 10.5C9.11415 10.5 8.76233 10.6457 8.49654 10.885M8.78871 13.321C8.3191 13.0676 8 12.571 8 12C8 11.5574 8.19168 11.1596 8.49654 10.885M8.78871 13.321L6.71129 17.179M8.49654 10.885L6.00346 8.11495M6.00346 8.11495C6.30832 7.84039 6.5 7.44258 6.5 7C6.5 6.92041 6.4938 6.84226 6.48186 6.76602M6.00346 8.11495C5.73767 8.35431 5.38585 8.5 5 8.5C4.17157 8.5 3.5 7.82843 3.5 7C3.5 6.17157 4.17157 5.5 5 5.5C5.74883 5.5 6.36951 6.04873 6.48186 6.76602M6.48186 6.76602L13.0181 5.73398M13.0181 5.73398C13.1305 6.45127 13.7512 7 14.5 7C14.7776 7 15.0376 6.92458 15.2607 6.7931M13.0181 5.73398C13.0062 5.65774 13 5.57959 13 5.5C13 4.67157 13.6716 4 14.5 4C15.3284 4 16 4.67157 16 5.5C16 6.0508 15.7031 6.53226 15.2607 6.7931M15.2607 6.7931L18.7393 12.7067M18.7393 12.7067C18.2969 12.9676 18 13.449 18 13.9998C18 14.8282 18.6716 15.4998 19.5 15.4998C20.3284 15.4998 21 14.8282 21 13.9998C21 13.1714 20.3284 12.4998 19.5 12.4998C19.2224 12.4998 18.9624 12.5752 18.7393 12.7067ZM6.71129 17.179C6.49962 17.0648 6.25738 17 6 17C5.17157 17 4.5 17.6716 4.5 18.5C4.5 19.3284 5.17157 20 6 20C6.82843 20 7.5 19.3284 7.5 18.5C7.5 17.929 7.1809 17.4324 6.71129 17.179Z" stroke="black" stroke-width="1.5" stroke-linecap="round"/>
</svg>
