<svg width="24" height="24" viewBox="0 0 24 24" fill="none" xmlns="http://www.w3.org/2000/svg">
<path d="M10 17.5C10 18.6046 10.8954 19.5 12 19.5C13.1046 19.5 14 18.6046 14 17.5M10 17.5C10 16.3954 10.8954 15.5 12 15.5M10 17.5H2.5M14 17.5C14 16.3954 13.1046 15.5 12 15.5M14 17.5H21.5M12 15.5V11M12 11H20C20.5523 11 21 10.5523 21 10V6.5C21 5.94772 20.5523 5.5 20 5.5H4C3.44772 5.5 3 5.94772 3 6.5V10C3 10.5523 3.44772 11 4 11H12ZM6 7.5V9M9 7.5V9" stroke="black" stroke-width="1.5" stroke-linecap="round"/>
</svg>
