<svg width="24" height="24" viewBox="0 0 24 24" fill="none" xmlns="http://www.w3.org/2000/svg">
<path d="M5.48411 5.54166L3.01387 11.9643C3.00498 11.9874 3.00498 12.013 3.01387 12.0361L5.48411 18.4587C5.49426 18.4851 5.51513 18.506 5.54154 18.5161L11.9642 20.9864C11.9873 20.9953 12.0129 20.9953 12.036 20.9864L18.4586 18.5161C18.485 18.506 18.5059 18.4851 18.516 18.4587L20.9863 12.0361C20.9951 12.013 20.9951 11.9874 20.9863 11.9643L18.516 5.54166C18.5059 5.51526 18.485 5.49439 18.4586 5.48423L12.036 3.01399C12.0129 3.0051 11.9873 3.0051 11.9642 3.01399L5.54154 5.48423C5.51513 5.49439 5.49426 5.51526 5.48411 5.54166Z" stroke="black" stroke-width="1.5" stroke-linecap="round"/>
</svg>
