<svg width="24" height="24" viewBox="0 0 24 24" fill="none" xmlns="http://www.w3.org/2000/svg">
<path d="M14.7953 7.79541V16.7954C14.7953 17.3477 14.3475 17.7954 13.7953 17.7954L3.79526 17.7954C3.24297 17.7954 2.79526 17.3477 2.79526 16.7954V6.79541C2.79526 6.24313 3.24297 5.79541 3.79526 5.79541H13.7953C14.3475 5.79541 14.7953 6.24313 14.7953 6.79541V7.79541ZM14.7953 7.79541L15.9159 7.47524C17.6009 6.99381 18.8609 9.0232 17.6821 10.3199C17.1576 10.8968 17.0807 11.7522 17.494 12.4134L17.747 12.8182M17.747 12.8182L18.6649 14.2869C19.0298 14.8707 19.7603 15.1094 20.3995 14.8537C21.1315 14.5609 21.4275 13.6824 21.0218 13.0064L20.9565 12.8974C20.5734 12.259 19.789 11.9852 19.0919 12.2467L18.2593 12.5589C18.0765 12.6275 17.9051 12.7148 17.747 12.8182ZM17.747 12.8182C16.9131 13.3632 16.4463 14.3525 16.5919 15.372L16.6165 15.5443C16.7303 16.3404 17.1777 17.0504 17.8468 17.4965M9.7953 8.79541L7.43198 11.6314C7.37771 11.6965 7.42402 11.7954 7.50881 11.7954L10.0818 11.7954C10.1666 11.7954 10.2129 11.8943 10.1586 11.9594L7.7953 14.7954" stroke="black" stroke-width="1.5" stroke-linecap="round"/>
</svg>
