<svg width="24" height="24" viewBox="0 0 24 24" fill="none" xmlns="http://www.w3.org/2000/svg">
<path d="M7 12.25H8.99604C9.21919 12.25 9.41809 12.1163 9.49236 11.9164L10.9064 8.11028C10.9309 8.0442 10.9967 8 11.0705 8C11.1522 8 11.223 8.05409 11.2405 8.12997L13.0232 15.8724C13.0404 15.9469 13.1099 16 13.1902 16C13.2649 16 13.331 15.9539 13.3533 15.8861L14.5162 12.3509C14.5848 12.1421 14.7883 12 15.0185 12H17M21 12C21 16.9706 16.9706 21 12 21C7.02944 21 3 16.9706 3 12C3 7.02944 7.02944 3 12 3C16.9706 3 21 7.02944 21 12Z" stroke="black" stroke-width="1.5" stroke-linecap="round"/>
</svg>
