<svg width="24" height="24" viewBox="0 0 24 24" fill="none" xmlns="http://www.w3.org/2000/svg">
<path d="M20.5 6.5V4.5C20.5 3.94772 20.0523 3.5 19.5 3.5H17.5M6.50001 3.5H4.50001C3.94772 3.5 3.50001 3.94772 3.50001 4.5V6.5M20.5 17.5L20.5 19.5C20.5 20.0523 20.0523 20.5 19.5 20.5L17.5 20.5M6.5 20.5L4.5 20.5C3.94772 20.5 3.5 20.0523 3.5 19.5V17.5M11 11.5H10.1C10.0448 11.5 10 11.5448 10 11.6V12.4C10 12.4552 9.95523 12.5 9.9 12.5H8.1C8.04477 12.5 8 12.5448 8 12.6V15M18 9H15.1C15.0448 9 15 8.95523 15 8.9V6M18 9V7C18 6.44772 17.5523 6 17 6H15M18 9V12M15 6H11.5M6 9V7C6 6.44772 6.44772 6 7 6H9M6 9V15M6 9H8M6 15V17C6 17.5523 6.44772 18 7 18H9M6 15H8M9 18V15.1C9 15.0448 8.95523 15 8.9 15H8M9 18H11.5M9 6V8.9C9 8.95523 8.95523 9 8.9 9H8M9 6H11.5M11.5 6V8M11.5 8H13M11.5 8V9M11 14.5V15M11.5 18V17M11.5 18H15.5M15.5 18H17C17.5523 18 18 17.5523 18 17V15M15.5 18V17M13 10.5H13.5M18 12V15M18 12H15.5M18 15H16.5M15.5 11V12M15.5 12V12.9C15.5 12.9552 15.4552 13 15.4 13H13.1C13.0448 13 13 13.0448 13 13.1V14.9C13 14.9552 13.0448 15 13.1 15H14M8 9V10" stroke="black" stroke-width="1.5" stroke-linecap="round"/>
</svg>
