<svg width="24" height="24" viewBox="0 0 24 24" fill="none" xmlns="http://www.w3.org/2000/svg">
<path d="M12 13C10.6193 13 9.5 11.8807 9.5 10.5C9.5 9.11929 10.6193 8 12 8C13.3807 8 14.5 9.11929 14.5 10.5C14.5 11.8807 13.3807 13 12 13ZM12 13V21M14.5 14.8311C15.9945 13.9666 17 12.3507 17 10.5C17 7.73858 14.7614 5.5 12 5.5C9.23858 5.5 7 7.73858 7 10.5C7 12.3507 8.0055 13.9666 9.5 14.8311M15.7584 16.9918C17.9955 15.6938 19.5 13.2726 19.5 10.5C19.5 6.35786 16.1421 3 12 3C7.85786 3 4.5 6.35786 4.5 10.5C4.5 13.2877 6.02096 15.7202 8.27832 17.0129" stroke="black" stroke-width="1.5" stroke-linecap="round"/>
</svg>
