<svg width="24" height="24" viewBox="0 0 24 24" fill="none" xmlns="http://www.w3.org/2000/svg">
<path d="M16.5 8.5H4C3.44772 8.5 3 8.94772 3 9.5V18C3 18.5523 3.44772 19 4 19H20C20.5523 19 21 18.5523 21 18V9.5C21 8.94772 20.5523 8.5 20 8.5H16.5ZM16.5 8.5L20.5 4.5M16.5 8.5L12.5 4.5M14 15.5H17.5M17.5 15.5H18.5M17.5 15.5V14M17.5 15.5V17M11.5 13.75C11.5 11.9551 10.0449 10.5 8.25 10.5C6.45507 10.5 5 11.9551 5 13.75C5 15.5449 6.45507 17 8.25 17C10.0449 17 11.5 15.5449 11.5 13.75Z" stroke="black" stroke-width="1.5" stroke-linecap="round"/>
</svg>
