<svg width="24" height="24" viewBox="0 0 24 24" fill="none" xmlns="http://www.w3.org/2000/svg">
<path d="M15.9999 18.428C16.2761 18.9063 16.1139 19.5236 15.6079 19.7451C14.4735 20.2415 13.2454 20.5001 12 20.5001C10.7545 20.5001 9.52634 20.2415 8.3919 19.745C7.88598 19.5236 7.72378 18.9064 7.99986 18.4281L9.49948 15.8301C9.77581 15.3514 10.3877 15.2021 10.9198 15.3517C11.2633 15.4483 11.6255 15.5001 12 15.5001C12.3743 15.5001 12.7363 15.4482 13.0796 15.3516C13.6115 15.2019 14.2231 15.3512 14.4995 15.8297L15.9999 18.428Z" stroke="black" stroke-width="1.5" stroke-linecap="round"/>
<path d="M9.50046 7.17108C9.77642 7.64905 9.60108 8.25311 9.2061 8.63859C8.68868 9.14358 8.30761 9.78756 8.12349 10.5103C7.98715 11.0455 7.55227 11.5001 6.99999 11.5001H3.99999C3.4477 11.5001 2.99424 11.0511 3.05552 10.5022C3.1929 9.27155 3.58333 8.07872 4.20604 7.00014C4.82871 5.92165 5.66648 4.98743 6.66347 4.25327C7.10819 3.92578 7.72385 4.09394 8 4.57224L9.50046 7.17108Z" stroke="black" stroke-width="1.5" stroke-linecap="round"/>
<path d="M15.9999 4.57201C16.2761 4.09382 16.8917 3.92573 17.3364 4.25317C18.3334 4.98735 19.1712 5.9216 19.7939 7.00014C20.4166 8.07872 20.8071 9.27155 20.9445 10.5022C21.0057 11.0511 20.5523 11.5001 20 11.5001H17C16.4477 11.5001 16.0128 11.0455 15.8764 10.5103C15.6922 9.78752 15.311 9.14358 14.7933 8.63864C14.3982 8.25314 14.2228 7.64889 14.4989 7.17084L15.9999 4.57201Z" stroke="black" stroke-width="1.5" stroke-linecap="round"/>
<path d="M10.5 11.5001C10.5 12.3286 11.1716 13.0001 12 13.0001C12.8284 13.0001 13.5 12.3286 13.5 11.5001C13.5 10.6717 12.8284 10.0001 12 10.0001C11.1716 10.0001 10.5 10.6717 10.5 11.5001Z" stroke="black" stroke-width="1.5" stroke-linecap="round"/>
</svg>
