<svg width="24" height="24" viewBox="0 0 24 24" fill="none" xmlns="http://www.w3.org/2000/svg">
<path d="M12 12.0001C10.6193 12.0001 9.5 10.8808 9.5 9.50007C9.5 8.11936 10.6193 7.00007 12 7.00007C13.3807 7.00007 14.5 8.11936 14.5 9.50007C14.5 10.8808 13.3807 12.0001 12 12.0001ZM12 12.0001V21.5001M14.5 13.8312C15.9945 12.9666 17 11.3508 17 9.50007C17 7.64936 15.9945 6.0335 14.5 5.16898M9.5 13.8312C8.0055 12.9666 7 11.3508 7 9.50007C7 7.64936 8.0055 6.0335 9.5 5.16898M15.7584 3.0083C17.9955 4.30628 19.5 6.72748 19.5 9.50007C19.5 12.2727 17.9955 14.6939 15.7584 15.9918M8.24161 15.9918C6.00448 14.6939 4.5 12.2727 4.5 9.50007C4.5 6.72748 6.00448 4.30628 8.2416 3.0083" stroke="black" stroke-width="1.5" stroke-linecap="round"/>
</svg>
