<svg width="24" height="24" viewBox="0 0 24 24" fill="none" xmlns="http://www.w3.org/2000/svg">
<path d="M3.50012 15.5V17.4C3.50012 17.4552 3.54489 17.5 3.60012 17.5H7.90012C7.95535 17.5 8.00012 17.4552 8.00012 17.4V15.5M3.50012 15.5H8.00012M3.50012 15.5C3.22398 15.5 3.00012 15.2761 3.00012 15V11.5C3.00012 10.9477 3.44784 10.5 4.00012 10.5H16.0001C16.5524 10.5 17.0001 10.9477 17.0001 11.5V15C17.0001 15.2761 16.7763 15.5 16.5001 15.5M16.5001 15.5V17.4C16.5001 17.4552 16.4554 17.5 16.4001 17.5H10.1001C10.0449 17.5 10.0001 17.4552 10.0001 17.4V15.5M16.5001 15.5H10.0001M10.0001 15.5H8.00012M19.5001 14H20.1501C20.2054 14 20.2501 13.9552 20.2501 13.9V12.375C20.2501 12.1679 20.418 12 20.6251 12C20.8322 12 21.0001 11.8321 21.0001 11.625V8C21.0001 7.44772 20.5524 7 20.0001 7H6.00012C5.44784 7 5.00012 7.44772 5.00012 8" stroke="black" stroke-width="1.5" stroke-linecap="round"/>
</svg>
