<svg width="24" height="24" viewBox="0 0 24 24" fill="none" xmlns="http://www.w3.org/2000/svg">
<path d="M4.00012 14V15.9C4.00012 15.9552 4.04489 16 4.10012 16H9.90012C9.95535 16 10.0001 15.9552 10.0001 15.9V14M4.00012 14H10.0001M4.00012 14C3.44784 14 3.00012 13.5523 3.00012 13V9C3.00012 8.44772 3.44784 8 4.00012 8H20.0001C20.5524 8 21.0001 8.44772 21.0001 9V13C21.0001 13.5523 20.5524 14 20.0001 14M10.0001 14H12.0001M20.0001 14V15.9C20.0001 15.9552 19.9554 16 19.9001 16H12.1001C12.0449 16 12.0001 15.9552 12.0001 15.9V14M20.0001 14H12.0001" stroke="black" stroke-width="1.5" stroke-linecap="round"/>
</svg>
