<svg width="24" height="24" viewBox="0 0 24 24" fill="none" xmlns="http://www.w3.org/2000/svg">
<path d="M8.5 6.99996H12.5M15.5 6.99996H14.5M8.5 9.99996H12.5M15.5 9.99996H14.5M8.5 13H12.5M15.5 13H14.5M6 3.1387V20.8612C6 20.9295 6.06687 20.9777 6.13162 20.9561L7.46838 20.5105C7.4889 20.5037 7.5111 20.5037 7.53162 20.5105L8.96838 20.9894C8.9889 20.9963 9.0111 20.9963 9.03162 20.9894L10.4684 20.5105C10.4889 20.5037 10.5111 20.5037 10.5316 20.5105L11.9684 20.9894C11.9889 20.9963 12.0111 20.9963 12.0316 20.9894L13.4684 20.5105C13.4889 20.5037 13.5111 20.5037 13.5316 20.5105L14.9684 20.9894C14.9889 20.9963 15.0111 20.9963 15.0316 20.9894L16.4684 20.5105C16.4889 20.5037 16.5111 20.5037 16.5316 20.5105L17.8684 20.9561C17.9331 20.9777 18 20.9295 18 20.8612V3.1387C18 3.07045 17.9331 3.02225 17.8684 3.04384L16.5316 3.48942C16.5111 3.49626 16.4889 3.49626 16.4684 3.48942L15.0316 3.0105C15.0111 3.00366 14.9889 3.00366 14.9684 3.0105L13.5316 3.48942C13.5111 3.49626 13.4889 3.49626 13.4684 3.48942L12.0316 3.0105C12.0111 3.00366 11.9889 3.00366 11.9684 3.0105L10.5316 3.48942C10.5111 3.49626 10.4889 3.49626 10.4684 3.48942L9.03162 3.0105C9.0111 3.00366 8.9889 3.00366 8.96838 3.0105L7.53162 3.48942C7.5111 3.49626 7.4889 3.49626 7.46838 3.48942L6.13162 3.04384C6.06687 3.02225 6 3.07045 6 3.1387Z" stroke="black" stroke-width="1.5" stroke-linecap="round"/>
</svg>
