<svg width="24" height="24" viewBox="0 0 24 24" fill="none" xmlns="http://www.w3.org/2000/svg">
<path d="M6.99994 18.0002H4.76613C3.98884 18.0002 3.50872 17.1522 3.90864 16.4857L8.62494 8.6252M8.62494 8.6252L4.64747 9.61957M8.62494 8.6252L9.61931 12.6027M17.6249 12.3752L18.6193 8.39772M17.6249 12.3752L13.6475 11.3808M17.6249 12.3752L12.8574 4.42935C12.469 3.78201 11.5309 3.78201 11.1424 4.42935L10.2001 6L10 6.33343M9.74994 18.0002H19.2338C20.011 18.0002 20.4912 17.1522 20.0912 16.4857L19.1249 14.8751M9.74994 18.0002L12.733 20.9833M9.74994 18.0002L12.7329 15.017" stroke="black" stroke-width="1.5" stroke-linecap="round"/>
</svg>
