<svg width="24" height="24" viewBox="0 0 24 24" fill="none" xmlns="http://www.w3.org/2000/svg">
<path d="M20.9822 7.0079C20.972 6.99312 20.9577 6.98106 20.9406 6.97345L16.4906 4.99567M20.9822 7.0079C20.9936 7.0243 21 7.04405 21 7.06483V11.9998M20.9822 7.0079L16.4911 9.00387M3.01779 7.0079C3.02802 6.99312 3.04226 6.98106 3.05939 6.97345L11.9594 3.0179C11.9852 3.0064 12.0148 3.0064 12.0406 3.0179L16.4906 4.99567M3.01779 7.0079C3.00643 7.0243 3 7.04405 3 7.06483V16.9349C3 16.9744 3.02327 17.0102 3.05939 17.0262L7.50939 19.004M3.01779 7.0079L7.50889 9.00387M12 20.9904C11.9862 20.9904 11.9723 20.9875 11.9594 20.9818L7.50939 19.004M12 20.9904C12.0138 20.9904 12.0277 20.9875 12.0406 20.9818L13.5621 20.3056M12 20.9904V15.9951M16.4906 4.99567L11.9998 6.99977M12 10.9998L7.50889 9.00387M12 10.9998L16.4911 9.00387M12 10.9998V15.9951M7.50889 9.00387L11.9998 6.99977M7.50889 9.00387L7.50914 14.0039M7.50939 19.004L7.50914 14.0039M11.9998 6.99977L16.4911 9.00387M16.4911 9.00387L16.4909 13.2318M12 15.9951L7.50914 14.0039M12 15.9951L13.8846 15.1595M21 11.9998L18.6543 13.0424M21 11.9998V13.9996M18.9142 18.9142C18.5523 19.2761 18.0523 19.5 17.5 19.5C16.3954 19.5 15.5 18.6046 15.5 17.5C15.5 16.3954 16.3954 15.5 17.5 15.5C18.6046 15.5 19.5 16.3954 19.5 17.5C19.5 18.0523 19.2761 18.5523 18.9142 18.9142ZM18.9142 18.9142L20 20M18.6543 13.0424C18.4401 13.0144 18.2218 13 18 13C17.474 13 16.9671 13.0812 16.4909 13.2318M18.6543 13.0424C19.527 13.1565 20.329 13.4956 21 13.9996M21 13.9996C22.2144 14.9118 23 16.3642 23 18C23 20.7614 20.7614 23 18 23C16.0701 23 14.3956 21.9066 13.5621 20.3056M13.8846 15.1595C13.3268 15.9662 13 16.9449 13 18C13 18.8316 13.203 19.6157 13.5621 20.3056M13.8846 15.1595C14.5088 14.2569 15.4222 13.5697 16.4909 13.2318" stroke="black" stroke-width="1.5" stroke-linecap="round"/>
</svg>
