<svg width="24" height="24" viewBox="0 0 24 24" fill="none" xmlns="http://www.w3.org/2000/svg">
<path d="M18.5 9.5V16M18.5 9.5L12.0294 7.50905C12.0102 7.50315 11.9898 7.50315 11.9706 7.50905L5.5 9.5M18.5 9.5L12 11.5M5.5 9.5V16M5.5 9.5L12 11.5M12 11.5V16M12 16V17.125M12 16H18.5M12 16H5.5M18.5 16H20.9C20.9552 16 21 15.9552 21 15.9V4.6C21 4.54477 20.9552 4.5 20.9 4.5H3.1C3.04477 4.5 3 4.54477 3 4.6V15.9C3 15.9552 3.04477 16 3.1 16H5.5M6.3125 18.75L5.57059 18.5217C5.52863 18.5088 5.5 18.47 5.5 18.4261V17.9375M11.1875 20.25L11.9706 20.491C11.9802 20.4939 11.9901 20.4954 12 20.4954M12.8125 20.25L12.0294 20.491C12.0198 20.4939 12.0099 20.4954 12 20.4954M17.6875 18.75L18.4294 18.5217C18.4714 18.5088 18.5 18.47 18.5 18.4261V17.9375M8.14062 19.3125L9.35938 19.6875M14.6406 19.6875L15.8594 19.3125M12 19.375V20.4954" stroke="black" stroke-width="1.5" stroke-linecap="round"/>
</svg>
