<svg width="24" height="24" viewBox="0 0 24 24" fill="none" xmlns="http://www.w3.org/2000/svg">
<path d="M15.9999 13C15.9999 11.3431 14.6568 9.99999 13 9.99998L7.99994 9.99994M7.99994 9.99994L10.4999 7.49994M7.99994 9.99994L10.4999 12.4999M9 4.5H15C18.3137 4.5 21 7.18629 21 10.5C21 12.8619 19.6352 14.9051 17.6513 15.8839C17.2712 16.0715 16.9991 16.4429 17.0627 16.862C17.1523 17.4526 17.3702 18.2938 17.8997 18.8933C17.9618 18.9635 18 19.0527 18 19.1464C18 19.3417 17.8413 19.5009 17.6463 19.492C15.0815 19.3742 13.8412 17.9862 13.3207 17.1427C13.0946 16.7764 12.7097 16.5 12.2792 16.5H9C5.68629 16.5 3 13.8137 3 10.5C3 7.18629 5.68629 4.5 9 4.5Z" stroke="black" stroke-width="1.5" stroke-linecap="round"/>
</svg>
