<svg width="24" height="24" viewBox="0 0 24 24" fill="none" xmlns="http://www.w3.org/2000/svg">
<path d="M8 19H4C3.44772 19 3 18.5523 3 18V11C3 10.7749 3.07441 10.5671 3.19997 10.3999M8 19L12 10M8 19H16M8 19L3.19997 10.3999M12 10H20C20.3271 10 20.6176 10.1571 20.8 10.3999M12 10H4C3.67286 10 3.38241 10.1571 3.19997 10.3999M12 10L16 19M16 19H20C20.5523 19 21 18.5523 21 18V11C21 10.7749 20.9256 10.5671 20.8 10.3999M16 19L20.8 10.3999M12 3.5V8M12 8L10 6M12 8L14 6" stroke="black" stroke-width="1.5" stroke-linecap="round"/>
</svg>
