<svg width="24" height="24" viewBox="0 0 24 24" fill="none" xmlns="http://www.w3.org/2000/svg">
<path d="M16.77 18.4231C18.7302 16.965 20.0001 14.6308 20.0001 12C20.0001 7.58172 16.4184 4 12.0001 4C7.58185 4 4.00012 7.58199 4.00012 12.0003C4.00012 16.4185 7.58184 20.0003 12.0001 20.0003M16.77 18.4231L21.0001 18.5M16.77 18.4231V14M10.5003 12C10.5003 12.8284 11.1718 13.5 12.0003 13.5C12.8287 13.5 13.5003 12.8284 13.5003 12C13.5003 11.1716 12.8287 10.5 12.0003 10.5C11.1718 10.5 10.5003 11.1716 10.5003 12Z" stroke="black" stroke-width="1.5" stroke-linecap="round"/>
</svg>
