<svg width="24" height="24" viewBox="0 0 24 24" fill="none" xmlns="http://www.w3.org/2000/svg">
<path d="M12 12L18.364 18.364M15 9L20.6144 14.6144M9 15L14.6144 20.6144M20.6144 14.6144C20.8652 13.787 21 12.9093 21 12C21 7.02944 16.9706 3 12 3C7.02944 3 3 7.02944 3 12C3 16.9706 7.02944 21 12 21C12.9093 21 13.787 20.8652 14.6144 20.6144M20.6144 14.6144C20.1797 16.0485 19.3968 17.3311 18.364 18.364M18.364 18.364C17.3311 19.3968 16.0485 20.1797 14.6144 20.6144" stroke="black" stroke-width="1.5" stroke-linecap="round"/>
</svg>
