<svg width="24" height="24" viewBox="0 0 24 24" fill="none" xmlns="http://www.w3.org/2000/svg">
<path d="M15 5.5C15 6.60457 15.8954 7.5 17 7.5C18.1046 7.5 19 6.60457 19 5.5C19 4.39543 18.1046 3.5 17 3.5C15.8954 3.5 15 4.39543 15 5.5ZM15 5.5H8.25C6.45507 5.5 5 6.95507 5 8.75C5 10.5449 6.45507 12 8.25 12H16.75C18.5449 12 20 13.4551 20 15.25C20 17.0449 18.5449 18.5 16.75 18.5H8M8 18.5C8 17.3954 7.10457 16.5 6 16.5C4.89543 16.5 4 17.3954 4 18.5C4 19.6046 4.89543 20.5 6 20.5C7.10457 20.5 8 19.6046 8 18.5Z" stroke="black" stroke-width="1.5" stroke-linecap="round"/>
</svg>
