<svg width="24" height="24" viewBox="0 0 24 24" fill="none" xmlns="http://www.w3.org/2000/svg">
<path d="M17 19.5H20C20.5523 19.5 21 19.0523 21 18.5V16.5M17 19.5C17.5523 19.5 18 19.0523 18 18.5V17.9142C18 17.649 17.8946 17.3946 17.7071 17.2071L16.5 16M17 19.5H15M21 7.5V5.5C21 4.94772 20.5523 4.5 20 4.5H17.5C16.9477 4.5 16.5 4.94772 16.5 5.5V16M21 7.5H19.5M21 7.5V10.5M21 10.5H19.5M21 10.5V13.5M21 13.5H19.5M21 13.5V16.5M21 16.5H19.5M16.5 16L5.29289 4.79289C5.10536 4.60536 4.851 4.5 4.58579 4.5H4C3.44772 4.5 3 4.94772 3 5.5V7.5M15 19.5V18M15 19.5H12M12 19.5V18M12 19.5H9M9 19.5V18M9 19.5H6M6 19.5H4C3.44772 19.5 3 19.0523 3 18.5V16.5M6 19.5V18M3 7.5H4.5M3 7.5V10.5M3 10.5H4.5M3 10.5V13.5M3 13.5H4.5M3 13.5V16.5M3 16.5H4.5M7.5 12.2414V14.9C7.5 14.9552 7.54477 15 7.6 15H10.2586C10.3477 15 10.3923 14.8923 10.3293 14.8293L7.67071 12.1707C7.60771 12.1077 7.5 12.1523 7.5 12.2414Z" stroke="black" stroke-width="1.5" stroke-linecap="round"/>
</svg>
