<svg width="24" height="24" viewBox="0 0 24 24" fill="none" xmlns="http://www.w3.org/2000/svg">
<path d="M10.5 14.5L13.5637 15.6489C14.0808 15.8428 14.3428 16.4192 14.1489 16.9363L13.1875 19.5M10.5 14.5L9.07586 17.823C9.02575 17.9399 8.95378 18.0462 8.86382 18.1362L6.5 20.5M10.5 14.5L13.0825 8.32625M13.0825 8.32625L14.062 11.556C14.2698 12.2411 15.1092 12.4923 15.6592 12.034L17 10.9167M13.0825 8.32625C12.1557 7.96042 11.5 7.05678 11.5 6C11.5 4.61929 12.6193 3.5 14 3.5C15.3807 3.5 16.5 4.61929 16.5 6C16.5 7.38071 15.3807 8.5 14 8.5C13.6761 8.5 13.3665 8.43839 13.0825 8.32625ZM13.0825 8.32625L9.91371 8.92219C9.64915 8.97195 9.41582 9.12627 9.26649 9.35026L7.83333 11.5" stroke="black" stroke-width="1.5" stroke-linecap="round"/>
</svg>
