<svg width="24" height="24" viewBox="0 0 24 24" fill="none" xmlns="http://www.w3.org/2000/svg">
<path d="M4 4.5V4.10019C4 4.04496 4.04477 4.00019 4.1 4.00019H4.5M20 4.5V4.10015C20 4.04493 19.9553 4.00017 19.9 4.00015L19.5 4M16.5 4H15.5M7.5 4H8.5M11.5 4.00019H12.5M4 7.5V8.5M4 11.5V12.5M19.5 20H19.9C19.9552 20 20 19.9552 20 19.9V19.5M20 7.5V8.5M20 11.5V12.5M20 15.5V16.5M16.5 20H15.5M11.5 20.0002H12.5M11.5 12.5L16.5 7.5M16.5 7.5V11.5M16.5 7.5H12.5M9.5 14.6V19.9C9.5 19.9552 9.45523 20 9.4 20H4.1C4.04477 20 4 19.9552 4 19.9V14.6C4 14.5448 4.04477 14.5 4.1 14.5H9.4C9.45523 14.5 9.5 14.5448 9.5 14.6Z" stroke="black" stroke-width="1.5" stroke-linecap="round"/>
</svg>
