<svg width="24" height="24" viewBox="0 0 24 24" fill="none" xmlns="http://www.w3.org/2000/svg">
<path d="M11.9999 11.9995C10.7855 12.9117 10 14.364 10 15.9998C10 16.4345 10.0555 16.8563 10.1597 17.2584M11.9999 11.9995C12.8356 11.3718 13.8743 10.9998 15 10.9998C17.7614 10.9998 20 13.2384 20 15.9998C20 18.7612 17.7614 20.9998 15 20.9998C12.6733 20.9998 10.7178 19.4106 10.1597 17.2584M11.9999 11.9995L8.92848 4.32099C8.59322 3.48285 7.40678 3.48285 7.07152 4.32099L3.07152 14.321C3.02427 14.4391 2.99682 14.5654 3.01144 14.6918C3.13211 15.7347 4.24222 17.4998 8 17.4998C8.84856 17.4998 9.56211 17.4098 10.1597 17.2584M17.8311 17C17.392 17.7591 16.7591 18.392 16 18.8311M20 5.9998C20 6.82823 19.3284 7.4998 18.5 7.4998C17.6716 7.4998 17 6.82823 17 5.9998C17 5.17137 17.6716 4.4998 18.5 4.4998C19.3284 4.4998 20 5.17137 20 5.9998Z" stroke="black" stroke-width="1.5" stroke-linecap="round"/>
</svg>
