<svg width="24" height="24" viewBox="0 0 24 24" fill="none" xmlns="http://www.w3.org/2000/svg">
<path d="M12.5 11L11 12.5M12.5 11L7.58586 6.08575C7.21079 5.71067 7.00008 5.20197 7.00008 4.67154C7.00008 4.56509 6.94423 4.46645 6.85295 4.41168L4.56703 3.04013C4.52769 3.01652 4.47732 3.02272 4.44487 3.05517L3.05529 4.44475C3.02285 4.4772 3.01665 4.52756 3.04025 4.56691L4.41182 6.85285C4.46658 6.94412 4.56521 6.99996 4.67164 6.99996C5.20208 6.99996 5.71079 7.21068 6.08587 7.58576L11 12.5M12.5 11C12.7907 10.7092 13.2463 10.6641 13.5884 10.8922L15.6856 12.2904C17.8576 13.7383 19.6141 15.7281 20.7815 18.0628C20.912 18.3239 20.8608 18.6391 20.6545 18.8455L18.8455 20.6544C18.6392 20.8608 18.324 20.9119 18.063 20.7814C15.7281 19.614 13.7384 17.8575 12.2904 15.6855L10.8922 13.5883C10.6642 13.2462 10.7093 12.7907 11 12.5" stroke="black" stroke-width="1.5" stroke-linecap="round"/>
</svg>
