<svg width="24" height="24" viewBox="0 0 24 24" fill="none" xmlns="http://www.w3.org/2000/svg">
<path d="M12 11.9998C12.6104 8.91292 16.8698 6.42893 19.872 7.3799C19.9198 7.39502 19.948 7.44382 19.9372 7.49274C19.2596 10.5682 14.9785 13.0146 12 11.9998ZM12 11.9998L12 14.9998M12 11.9998V7.99992M12 14.9998C10.3431 14.9998 8.99996 16.3429 8.99996 17.9998C8.99996 19.6566 10.3431 20.9998 12 20.9998C13.6568 20.9998 15 19.6566 15 17.9998C15 16.3429 13.6568 14.9998 12 14.9998ZM12 7.99992C11.3896 4.91304 7.13014 2.42905 4.12793 3.38001C4.08017 3.39514 4.052 3.44393 4.06278 3.49286C4.74033 6.56834 9.02146 9.01471 12 7.99992Z" stroke="black" stroke-width="1.5" stroke-linecap="round"/>
</svg>
