<svg width="24" height="24" viewBox="0 0 24 24" fill="none" xmlns="http://www.w3.org/2000/svg">
<path d="M7.5 5.5V6.5C7.5 7.05228 7.05228 7.5 6.5 7.5H5.5M7.5 5.5V4.5C7.5 3.94772 7.05228 3.5 6.5 3.5H4.5C3.94772 3.5 3.5 3.94772 3.5 4.5V6.5C3.5 7.05228 3.94772 7.5 4.5 7.5H5.5M7.5 5.5H16.5M16.5 5.5V4.5C16.5 3.94772 16.9477 3.5 17.5 3.5H19.5C20.0523 3.5 20.5 3.94772 20.5 4.5V6.5C20.5 7.05228 20.0523 7.5 19.5 7.5H18.5M16.5 5.5V6.5C16.5 7.05228 16.9477 7.5 17.5 7.5H18.5M18.5 7.5V16.5M18.5 16.5H19.5C20.0523 16.5 20.5 16.9477 20.5 17.5V19.5C20.5 20.0523 20.0523 20.5 19.5 20.5H17.5C16.9477 20.5 16.5 20.0523 16.5 19.5V18.5M18.5 16.5H17.5C16.9477 16.5 16.5 16.9477 16.5 17.5V18.5M16.5 18.5H7.5M7.5 18.5V19.5C7.5 20.0523 7.05228 20.5 6.5 20.5H4.5C3.94772 20.5 3.5 20.0523 3.5 19.5V17.5C3.5 16.9477 3.94772 16.5 4.5 16.5H5.5M7.5 18.5V17.5C7.5 16.9477 7.05228 16.5 6.5 16.5H5.5M5.5 16.5V7.5" stroke="black" stroke-width="1.5" stroke-linecap="round"/>
</svg>
