<svg width="24" height="24" viewBox="0 0 24 24" fill="none" xmlns="http://www.w3.org/2000/svg">
<path d="M15.0234 19.6561L15.4453 19.4686M17.5547 18.5311L17.9766 18.3436M20.1562 17.3748L20.9406 17.0262C20.9767 17.0102 21 16.9744 21 16.9349V15.8748M21 13.0936V13.5311M21 10.4686V10.9061M21 8.12485V7.06483C21 7.04405 20.9936 7.0243 20.9822 7.0079M20.1562 6.62485L20.9406 6.97345C20.9577 6.98106 20.972 6.99312 20.9822 7.0079M17.5547 5.4686L17.9766 5.6561M15.0234 4.3436L15.4453 4.5311M12.8438 3.37485L12.0406 3.0179C12.0148 3.0064 11.9852 3.0064 11.9594 3.0179L11.1562 3.37485M8.97656 4.3436L8.55469 4.5311M6.44531 5.4686L6.02344 5.6561M3.84375 6.62485L3.05939 6.97345C3.04226 6.98106 3.02803 6.99312 3.01779 7.0079M3 8.12485V7.06483C3 7.04405 3.00644 7.0243 3.01779 7.0079M3 10.9061V10.4686M3 13.5311V13.0936M3 15.8748V16.9349C3 16.9744 3.02327 17.0102 3.05939 17.0262L3.84375 17.3748M6.44531 18.5311L6.02344 18.3436M9.1875 19.7498L8.55469 19.4686M6.44531 8.5311L6.02344 8.3436M8.97656 9.6561L8.55469 9.4686M15.0234 9.6561L15.4453 9.4686M17.5547 8.5311L17.9766 8.3436M3.01779 7.0079L3.84375 7.37485M20.9822 7.0079L20.1562 7.37485M11 11V19.5C11 20.0523 11.4477 20.5 12 20.5C12.5523 20.5 13 20.0523 13 19.5V11C13 10.4477 12.5523 10 12 10C11.4477 10 11 10.4477 11 11Z" stroke="black" stroke-width="1.5" stroke-linecap="round"/>
</svg>
