<svg width="24" height="24" viewBox="0 0 24 24" fill="none" xmlns="http://www.w3.org/2000/svg">
<path d="M13 8V8.5M16 8V8.5M13 15.5V16M16 15.5V16M5 17.75C3.89543 17.75 3 16.8546 3 15.75C3 14.6454 3.89543 13.75 5 13.75M5 17.75C6.10457 17.75 7 16.8546 7 15.75M5 17.75V20M7 15.75C7 14.6454 6.10457 13.75 5 13.75M7 15.75H10M5 13.75V10.25M10 15.75V17.5C10 18.0523 10.4477 18.5 11 18.5H20C20.5523 18.5 21 18.0523 21 17.5V14C21 13.4477 20.5523 13 20 13H11C10.4477 13 10 13.4477 10 14V15.75ZM10 8.25V10C10 10.5523 10.4477 11 11 11H20C20.5523 11 21 10.5523 21 10V6.5C21 5.94772 20.5523 5.5 20 5.5H11C10.4477 5.5 10 5.94772 10 6.5V8.25ZM10 8.25H7M5 10.25C3.89543 10.25 3 9.35457 3 8.25C3 7.14543 3.89543 6.25 5 6.25M5 10.25C6.10457 10.25 7 9.35457 7 8.25M7 8.25C7 7.14543 6.10457 6.25 5 6.25M5 6.25V4" stroke="black" stroke-width="1.5" stroke-linecap="round"/>
</svg>
