<svg width="24" height="24" viewBox="0 0 24 24" fill="none" xmlns="http://www.w3.org/2000/svg">
<path d="M14.9136 15.0864L9.33302 20.667M18.2603 15.7397L13 21M20.7488 17.2512L17.5259 20.4741M6.3383 19.6617L9.06227 16.9377M9.06227 16.9377C9.369 16.9788 9.68203 17 10 17C11.867 17 13.5633 16.2691 14.8183 15.0778C16.1621 13.8023 17 11.999 17 10C17 6.13401 13.866 3 10 3C6.13401 3 3 6.13401 3 10C3 12.6632 4.4872 14.9789 6.6764 16.1622C7.40379 16.5553 8.20868 16.8235 9.06227 16.9377Z" stroke="black" stroke-width="1.5" stroke-linecap="round"/>
</svg>
