<svg width="24" height="24" viewBox="0 0 24 24" fill="none" xmlns="http://www.w3.org/2000/svg">
<path d="M14.9136 15.0864C16.1727 15.2023 17.3146 15.4299 18.2603 15.7397M14.9136 15.0864L9.33302 20.667M14.9136 15.0864C14.8819 15.0835 14.8501 15.0806 14.8183 15.0778M18.2603 15.7397L13 21M18.2603 15.7397C19.4579 16.1319 20.3409 16.6558 20.7488 17.2512M13 21C14.6799 21 16.2388 20.8058 17.5259 20.4741M13 21C11.6783 21 10.4315 20.8798 9.33302 20.667M20.7488 17.2512C20.9128 17.4906 21 17.7415 21 18C21 19.0269 19.6241 19.9333 17.5259 20.4741M20.7488 17.2512L17.5259 20.4741M9.33302 20.667C8.12146 20.4323 7.09036 20.0848 6.3383 19.6617M6.3383 19.6617C5.4928 19.186 5 18.6146 5 18C5 17.3076 5.6256 16.6699 6.6764 16.1622M6.3383 19.6617L9.06227 16.9377M14.8183 15.0778C16.1621 13.8023 17 11.999 17 10C17 6.13401 13.866 3 10 3C6.13401 3 3 6.13401 3 10C3 12.6632 4.4872 14.9789 6.6764 16.1622M14.8183 15.0778C13.5633 16.2691 11.867 17 10 17C9.68203 17 9.369 16.9788 9.06227 16.9377M6.6764 16.1622C7.40379 16.5553 8.20868 16.8235 9.06227 16.9377" stroke="black" stroke-width="1.5"/>
</svg>
