<svg width="24" height="24" viewBox="0 0 24 24" fill="none" xmlns="http://www.w3.org/2000/svg">
<path d="M18 16.0002C18.5523 16.0002 19.0523 16.2241 19.4142 16.586M18 16.0002V15.0002M18 16.0002C17.4477 16.0002 16.9477 16.2241 16.5858 16.586M19.4142 16.586C19.7761 16.9479 20 17.4479 20 18.0002M19.4142 16.586L20 16.0002M20 18.0002H21M20 18.0002C20 18.5525 19.7761 19.0525 19.4142 19.4144M18 20.0002L18 21.0002M18 20.0002C18.5523 20.0002 19.0523 19.7764 19.4142 19.4144M18 20.0002C17.4477 20.0002 16.9477 19.7764 16.5858 19.4144M16 18.0002H15M16 18.0002C16 17.4479 16.2239 16.9479 16.5858 16.586M16 18.0002C16 18.5525 16.2239 19.0525 16.5858 19.4144M16.5858 16.586L16 16.0002M19.4142 19.4144L20 20.0002M16.5858 19.4144L16 20.0002M20.8072 13.862C22.1306 14.7615 23 16.2793 23 18.0002C23 20.7616 20.7614 23.0002 18 23.0002C16.2791 23.0002 14.7612 22.1308 13.8617 20.8072M20.8072 13.862C20.0069 13.3181 19.0406 13.0002 18 13.0002C15.2386 13.0002 13 15.2388 13 18.0002C13 19.0407 13.3178 20.007 13.8617 20.8072M20.8072 13.862C20.9335 13.2612 21 12.6384 21 12C21 7.02944 16.9706 3 12 3C7.02944 3 3 7.02944 3 12C3 16.9706 7.02944 21 12 21C12.6383 21 13.261 20.9336 13.8617 20.8072M13.5529 6.20447C11.947 5.77418 10.3187 6.0379 8.98635 6.81177C8.43338 7.13296 7.93139 7.54203 7.50315 8.02583M6.20444 10.4471C6.24802 10.2845 6.29788 10.1252 6.35369 9.96946" stroke="black" stroke-width="1.5" stroke-linecap="round"/>
</svg>
