<svg width="24" height="24" viewBox="0 0 24 24" fill="none" xmlns="http://www.w3.org/2000/svg">
<path d="M9.14642 5C9.05265 5 8.96272 5.03725 8.89642 5.10355L3.70708 10.2929C3.31655 10.6834 3.31655 11.3166 3.70708 11.7071L8.89642 16.8964C8.96272 16.9628 9.05265 17 9.14642 17C9.34168 17 9.49997 16.8417 9.49997 16.6464V15C9.49997 14.4477 9.94769 14 10.5 14H11.8771C14.7122 14 17.3816 15.3359 19.081 17.6052L20.4 19.3665C20.4629 19.4505 20.5618 19.5 20.6667 19.5C20.8508 19.5 21 19.3508 21 19.1668V17C21 12.0294 16.9705 8 12 8H10.5C9.94769 8 9.49997 7.55228 9.49997 7V5.35355C9.49997 5.15829 9.34168 5 9.14642 5Z" stroke="black" stroke-width="1.5" stroke-linecap="round"/>
</svg>
