<svg width="24" height="24" viewBox="0 0 24 24" fill="none" xmlns="http://www.w3.org/2000/svg">
<path d="M2.5 5C4 6 7.2 7.5 12 7.5C16.8 7.5 20 6 21.5 5M19 3.5L17.5 7.78215M17.5 7.78215V9.5M17.5 7.78215C18.6406 7.50725 20 8 20 9V17.882C20 18.2607 19.7878 18.61 19.438 18.7551C18.1752 19.2788 15.7367 20 12 20C8.26333 20 5.82485 19.2788 4.56206 18.7551C4.21218 18.61 4 18.2607 4 17.882V9C4 8 5.35942 7.50725 6.5 7.78215M17.5 7.78215C16.5 8 15.5 8.5 14 10M17.5 7.78215L16 3.5M14 10C12.5 11.5 10.5 12.5 8 12.5M14 10C10.4 10 7.5 8.02317 6.5 7.78215M5 3.5L6.5 7.78215M6.5 7.78215V9.5M6.5 7.78215L8 3.5" stroke="black" stroke-width="1.5" stroke-linecap="round"/>
</svg>
