<svg width="24" height="24" viewBox="0 0 24 24" fill="none" xmlns="http://www.w3.org/2000/svg">
<path d="M16 18L17.4293 19.4293C17.4683 19.4683 17.5317 19.4683 17.5707 19.4293L20 17M18.9419 13.0886C18.6368 13.0304 18.322 13 18 13C15.2386 13 13 15.2386 13 18C13 18.8397 13.207 19.6311 13.5728 20.3259M18.9419 13.0886C21.253 13.5291 23 15.5605 23 18C23 20.7614 20.7614 23 18 23C16.0783 23 14.4098 21.9159 13.5728 20.3259M18.9419 13.0886C18.9803 12.7516 19 12.4101 19 12.0654V4C19 3.44772 18.5523 3 18 3H6C5.44772 3 5 3.44772 5 4V12.0654C5 15.6657 7.14557 18.9195 10.4547 20.3377L11.6061 20.8312C11.8576 20.939 12.1424 20.939 12.3939 20.8312L13.5453 20.3377L13.5728 20.3259" stroke="black" stroke-width="1.5" stroke-linecap="round"/>
</svg>
