<svg width="24" height="24" viewBox="0 0 24 24" fill="none" xmlns="http://www.w3.org/2000/svg">
<path d="M8.00002 8H5.92605C5.40351 8 4.96907 8.40231 4.92899 8.9233L4.08284 19.9233C4.03816 20.5041 4.49738 21 5.07989 21H13.9997M8.00002 8V7C8.00002 4.79086 9.79088 3 12 3C14.2092 3 16 4.79086 16 7V8M8.00002 8H16M16 8H18.074C18.5965 8 19.031 8.40231 19.071 8.9233L19.3999 13.1986M8.00002 10.5V11C8.00002 13.2091 9.79088 15 12 15C14.2092 15 16 13.2091 16 11V10.5M19.3999 13.1986C18.9557 13.0693 18.486 13 18 13C15.2386 13 13 15.2386 13 18C13 19.1256 13.372 20.1643 13.9997 21M19.3999 13.1986C21.48 13.8041 23 15.7245 23 18C23 20.7614 20.7614 23 18 23C16.3642 23 14.9119 22.2144 13.9997 21M16 18L17.4293 19.4293C17.4684 19.4683 17.5317 19.4683 17.5707 19.4293L20 17" stroke="black" stroke-width="1.5" stroke-linecap="round"/>
</svg>
