<svg width="24" height="24" viewBox="0 0 24 24" fill="none" xmlns="http://www.w3.org/2000/svg">
<path d="M7.99999 8H5.92602C5.40348 8 4.96904 8.40231 4.92896 8.9233L4.08281 19.9233C4.03813 20.5041 4.49735 21 5.07986 21H18.9201C19.5026 21 19.9618 20.5041 19.9172 19.9233L19.071 8.9233C19.0309 8.40231 18.5965 8 18.074 8H16M7.99999 8V7C7.99999 4.79086 9.79085 3 12 3C14.2091 3 16 4.79086 16 7V8M7.99999 8H16M7.99999 10.5V11C7.99999 13.2091 9.79085 15 12 15C14.2091 15 16 13.2091 16 11V10.5" stroke="black" stroke-width="1.5" stroke-linecap="round"/>
</svg>
