<svg width="24" height="24" viewBox="0 0 24 24" fill="none" xmlns="http://www.w3.org/2000/svg">
<path d="M7.99999 8H5.92602C5.40348 8 4.96904 8.40231 4.92896 8.9233L4.08281 19.9233C4.03813 20.5041 4.49735 21 5.07986 21H13.9996M7.99999 8V7C7.99999 4.79086 9.79085 3 12 3C14.2091 3 16 4.79086 16 7V8M7.99999 8H16M16 8H18.074C18.5965 8 19.0309 8.40231 19.071 8.9233L19.3999 13.1986M7.99999 10.5V11C7.99999 13.2091 9.79085 15 12 15C14.2091 15 16 13.2091 16 11V10.5M18 18V15.5M18 18H20.5M18 18V20.5M18 18H15.5M19.3999 13.1986C18.9557 13.0693 18.4859 13 18 13C15.2386 13 13 15.2386 13 18C13 19.1256 13.3719 20.1643 13.9996 21M19.3999 13.1986C21.48 13.8041 23 15.7245 23 18C23 20.7614 20.7614 23 18 23C16.3642 23 14.9118 22.2144 13.9996 21" stroke="black" stroke-width="1.5" stroke-linecap="round"/>
</svg>
