<svg width="24" height="24" viewBox="0 0 24 24" fill="none" xmlns="http://www.w3.org/2000/svg">
<path d="M12 5H17.5858C17.851 5 18.1053 5.10536 18.2929 5.29289L19.7929 6.79289C20.1834 7.18342 20.1834 7.81658 19.7929 8.20711L18.2929 9.70711C18.1053 9.89464 17.851 10 17.5858 10H12M12 5H6.99997C6.44769 5 5.99997 5.44772 5.99997 6V9C5.99997 9.55228 6.44769 10 6.99997 10H12M12 5V3M12 17H17C17.5523 17 18 16.5523 18 16V13C18 12.4477 17.5523 12 17 12H12M12 17H6.41418C6.14897 17 5.89461 16.8946 5.70708 16.7071L4.20708 15.2071C3.81655 14.8166 3.81655 14.1834 4.20708 13.7929L5.70708 12.2929C5.89461 12.1054 6.14897 12 6.41418 12H12M12 17V21M12 12V10" stroke="black" stroke-width="1.5" stroke-linecap="round"/>
</svg>
