<svg width="24" height="24" viewBox="0 0 24 24" fill="none" xmlns="http://www.w3.org/2000/svg">
<path d="M9.17157 9.17152C7.60948 10.7336 7.60948 13.2663 9.17157 14.8284M14.8284 9.17152C16.3905 10.7336 16.3905 13.2663 14.8284 14.8284M7.40381 7.40375C4.8654 9.94216 4.8654 14.0577 7.40381 16.5961M16.5962 7.40375C19.1346 9.94216 19.1346 14.0577 16.5962 16.5961M18.364 5.63599C21.8787 9.15071 21.8787 14.8492 18.364 18.3639M5.63604 5.63599C2.12132 9.1507 2.12132 14.8492 5.63604 18.3639M13.0607 10.9393C12.4749 10.3535 11.5251 10.3535 10.9393 10.9393C10.3536 11.5251 10.3536 12.4748 10.9393 13.0606C11.5251 13.6464 12.4749 13.6464 13.0607 13.0606C13.6464 12.4748 13.6464 11.5251 13.0607 10.9393Z" stroke="black" stroke-width="1.5" stroke-linecap="round"/>
</svg>
