<svg width="24" height="24" viewBox="0 0 24 24" fill="none" xmlns="http://www.w3.org/2000/svg">
<path d="M10 21H8.99994C8.44766 21 7.99995 20.5523 7.99997 20C7.99999 19.4477 7.55228 19 7 19H6.11806C5.73931 19 5.39305 18.786 5.22365 18.4472C5.08286 18.1657 5.08286 17.8343 5.22364 17.5528C5.39305 17.214 5.35649 16.8086 5.12923 16.5056L4.52557 15.7007C4.18442 15.2459 4 14.6926 4 14.1241V13.6899C4 12.914 4.22967 12.1555 4.66006 11.5099C4.87455 11.1882 4.92269 10.7858 4.82427 10.4118C3.36535 4.86857 8.61696 3 12 3C15.383 3 20.6347 4.86857 19.1757 10.4118C19.0773 10.7858 19.1255 11.1882 19.3399 11.5099C19.7703 12.1555 20 12.914 20 13.69V14.1241C20 14.6926 19.8156 15.2459 19.4744 15.7007L18.8708 16.5056C18.6436 16.8086 18.607 17.214 18.7764 17.5528C18.9172 17.8343 18.9172 18.1657 18.7764 18.4472C18.607 18.786 18.2607 19 17.882 19H17C16.4477 19 16 19.4477 16 20C16 20.5523 15.5523 21 15 21H14M10 21V19.5M10 21H12M14 21V19.5M14 21H12M12 21V19.5M13 17.5L12.5 17C12.2239 16.7239 11.7762 16.7239 11.5 17L11 17.5M6.50003 13.7345V13.9384C6.50003 14.8562 7.12462 15.6561 8.01495 15.8787L8.27988 15.945C9.45472 16.2387 10.619 15.4291 10.7527 14.2255L10.7791 13.9878C10.9011 12.89 10.11 11.9011 9.01223 11.7791L8.72089 11.7468C7.53616 11.6151 6.50003 12.5425 6.50003 13.7345ZM13.2209 13.9878L13.2473 14.2256C13.381 15.4291 14.5453 16.2387 15.7201 15.945L15.9851 15.8787C16.8754 15.6561 17.5 14.8562 17.5 13.9384V13.7345C17.5 12.5425 16.4639 11.6151 15.2792 11.7468L14.9878 11.7791C13.89 11.9011 13.0989 12.89 13.2209 13.9878Z" stroke="black" stroke-width="1.5" stroke-linecap="round"/>
</svg>
