<svg width="24" height="24" viewBox="0 0 24 24" fill="none" xmlns="http://www.w3.org/2000/svg">
<path d="M6.14998 13.7501L3.15733 12.0875C3.08875 12.0494 3.08875 11.9508 3.15733 11.9127L6.14998 10.2501M6.14998 13.7501L11.9514 16.9731C11.9816 16.9899 12.0183 16.9899 12.0485 16.9731L17.85 13.7501M6.14998 13.7501L3.15733 15.4127C3.08875 15.4508 3.08875 15.5494 3.15733 15.5875L11.9514 20.4731C11.9816 20.4899 12.0183 20.4899 12.0485 20.4731L20.8426 15.5875C20.9112 15.5494 20.9112 15.4508 20.8426 15.4127L17.85 13.7501M17.85 13.7501L20.8426 12.0875C20.9112 12.0494 20.9112 11.9508 20.8426 11.9127L17.85 10.2501M17.85 10.2501L12.0485 13.4731C12.0183 13.4899 11.9816 13.4899 11.9514 13.4731L6.14998 10.2501M17.85 10.2501L20.8426 8.58767C20.9112 8.54957 20.9112 8.45093 20.8426 8.41283L12.0486 3.52723C12.0184 3.51045 11.9816 3.51045 11.9514 3.52723L3.15733 8.41267C3.08875 8.45077 3.08875 8.5494 3.15733 8.5875L6.14998 10.2501" stroke="black" stroke-width="1.5" stroke-linecap="round"/>
</svg>
