<svg width="24" height="24" viewBox="0 0 24 24" fill="none" xmlns="http://www.w3.org/2000/svg">
<path d="M9.5 14.5L9.66795 14.7519C10.1878 15.5317 11.0629 16 12 16C12.9371 16 13.8122 15.5317 14.3321 14.7519L14.5 14.5M12 21C7.02944 21 3 16.9706 3 12C3 7.02944 7.02944 3 12 3C16.9706 3 21 7.02944 21 12C21 16.9706 16.9706 21 12 21ZM7 11.75C7 11.3358 7.33579 11 7.75 11C8.16421 11 8.5 11.3358 8.5 11.75C8.5 12.1642 8.16421 12.5 7.75 12.5C7.33579 12.5 7 12.1642 7 11.75ZM15.5 11.75C15.5 11.3358 15.8358 11 16.25 11C16.6642 11 17 11.3358 17 11.75C17 12.1642 16.6642 12.5 16.25 12.5C15.8358 12.5 15.5 12.1642 15.5 11.75Z" stroke="black" stroke-width="1.5" stroke-linecap="round"/>
</svg>
