<svg width="24" height="24" viewBox="0 0 24 24" fill="none" xmlns="http://www.w3.org/2000/svg">
<path d="M6 19.5002C6 20.3286 5.32843 21.0002 4.5 21.0002C3.67157 21.0002 3 20.3286 3 19.5002C3 18.6718 3.67157 18.0002 4.5 18.0002M6 19.5002C6 18.6718 5.32843 18.0002 4.5 18.0002M6 19.5002H11.5M4.5 18.0002V12.5002M11.5 19.5002C11.5 20.3286 12.1716 21.0002 13 21.0002C13.8284 21.0002 14.5 20.3286 14.5 19.5002C14.5 18.6718 13.8284 18.0002 13 18.0002C12.1716 18.0002 11.5 18.6718 11.5 19.5002ZM4.5 12.5002C3.67157 12.5002 3 11.8286 3 11.0002C3 10.1718 3.67157 9.50022 4.5 9.50022C5.32843 9.50022 6 10.1718 6 11.0002C6 11.8286 5.32843 12.5002 4.5 12.5002ZM14.9393 10.4749L13.2423 12.1719C13.2032 12.211 13.2032 12.2743 13.2423 12.3134L15.9293 15.0004C15.9683 15.0394 16.0317 15.0394 16.0707 15.0004L17.7678 13.3033M14.9393 10.4749L16.3536 9.06066C16.7441 8.67014 16.7441 8.03697 16.3536 7.64645C15.963 7.25592 15.3299 7.25592 14.9393 7.64645L13.5251 9.06066M14.9393 10.4749L17.7678 13.3033M17.7678 13.3033L19.5355 11.5355C21.4882 9.58291 21.4882 6.41709 19.5355 4.46447C17.5829 2.51184 14.4171 2.51184 12.4645 4.46447L10.6967 6.23223M13.5251 9.06066L11.8281 10.7577C11.789 10.7968 11.7257 10.7968 11.6866 10.7577L8.99964 8.07071C8.96059 8.03166 8.96059 7.96834 8.99964 7.92929L10.6967 6.23223M13.5251 9.06066L10.6967 6.23223" stroke="black" stroke-width="1.5" stroke-linecap="round"/>
</svg>
