<svg width="24" height="24" viewBox="0 0 24 24" fill="none" xmlns="http://www.w3.org/2000/svg">
<path d="M14.9393 10.4749L13.2423 12.1719C13.2032 12.211 13.2032 12.2743 13.2423 12.3134L15.9293 15.0004C15.9683 15.0394 16.0317 15.0394 16.0707 15.0004L17.7678 13.3033M14.9393 10.4749L16.3536 9.06066C16.7441 8.67014 16.7441 8.03697 16.3536 7.64645C15.963 7.25592 15.3299 7.25592 14.9393 7.64645L13.5251 9.06066M14.9393 10.4749L17.7678 13.3033M17.7678 13.3033L19.5355 11.5355C21.4882 9.58291 21.4882 6.41709 19.5355 4.46447C17.5829 2.51184 14.4171 2.51184 12.4645 4.46447L10.6967 6.23223M13.5251 9.06066L11.8281 10.7577C11.789 10.7968 11.7257 10.7968 11.6866 10.7577L8.99964 8.07071C8.96059 8.03166 8.96059 7.96834 8.99964 7.92929L10.6967 6.23223M13.5251 9.06066L10.6967 6.23223M3 17.0002L3 20.0002C3 20.5525 3.44772 21.0002 4 21.0002H7M3 17.0002L3 14.0002C3 13.4479 3.44772 13.0002 4 13.0002L7 13.0002M3 17.0002L11 17.0002M11 17.0002L11 14.0002C11 13.4479 10.5523 13.0002 10 13.0002H7M11 17.0002L11 20.0002C11 20.5525 10.5523 21.0002 10 21.0002H7M7 13.0002V21.0002" stroke="black" stroke-width="1.5" stroke-linecap="round"/>
</svg>
