<svg width="24" height="24" viewBox="0 0 24 24" fill="none" xmlns="http://www.w3.org/2000/svg">
<path d="M12 17.5V21M12 17.5L9.49998 20M12 17.5L14.5 20M12 17.5V6.5M12 6.5V3M12 6.5L14.5 4M12 6.5L9.49998 4M7.23684 14.75L4.20575 16.5M7.23684 14.75L3.82178 13.8349M7.23684 14.75L6.32178 18.1651M7.23684 14.75L16.7631 9.25M16.7631 9.25L19.7942 7.5M16.7631 9.25L20.1782 10.1651M16.7631 9.25L17.6782 5.83494M7.23686 9.25002L4.20577 7.50002M7.23686 9.25002L6.3218 5.83496M7.23686 9.25002L3.8218 10.1651M7.23686 9.25002L12 12L16.7631 14.75M16.7631 14.75L19.7942 16.5M16.7631 14.75L17.6782 18.1651M16.7631 14.75L20.1782 13.835" stroke="black" stroke-width="1.5" stroke-linecap="round"/>
</svg>
