<svg width="24" height="24" viewBox="0 0 24 24" fill="none" xmlns="http://www.w3.org/2000/svg">
<path d="M5.5 10.5001H4C3.44772 10.5001 3 10.9478 3 11.5001V15.5001C3 16.0524 3.44772 16.5001 4 16.5001H4.25M5.5 10.5001V14.0001M5.5 10.5001V8.5C5.5 7.94772 5.94772 7.5 6.5 7.5H12.25M19 10.5001H20.5C21.0523 10.5001 21.5 10.9478 21.5 11.5001V15.5001C21.5 16.0524 21.0523 16.5001 20.5 16.5001H20.25M19 10.5001V14.0001M19 10.5001V8.5C19 7.94772 18.5523 7.5 18 7.5L12.25 7.5M5.5 16.5001H19M5.5 16.5001V14.0001M5.5 16.5001H4.25M19 16.5001V14.0001M19 16.5001H20.25M5.5 14.0001L12.25 14.0001M19 14.0001L12.25 14.0001M20.25 16.5001V18.0001M4.25 16.5001V18.0001M12.25 7.5V14.0001" stroke="black" stroke-width="1.5" stroke-linecap="round"/>
</svg>
