<svg width="24" height="24" viewBox="0 0 24 24" fill="none" xmlns="http://www.w3.org/2000/svg">
<path d="M5.49996 16.3228C6.89951 16.745 8.98639 17.1157 12 17.1157C15.0135 17.1157 17.1004 16.745 18.5 16.3228M11.9999 3.5V8M11.9999 8L9.99994 6M11.9999 8L13.9999 6M3.38947 17.9076C4.25255 18.4627 6.68497 19.6157 12 19.6157C17.3149 19.6157 19.7474 18.4627 20.6104 17.9076C20.87 17.7407 20.9776 17.4366 20.9393 17.1304L20.1753 11.0182C20.0897 10.3336 19.3246 9.87629 18.6519 10.0298C17.4469 10.3049 15.3451 10.6157 12 10.6157C8.65485 10.6157 6.55305 10.3049 5.34797 10.0298C4.67531 9.87629 3.91022 10.3336 3.82465 11.0182L3.06062 17.1304C3.02234 17.4366 3.12993 17.7407 3.38947 17.9076Z" stroke="black" stroke-width="1.5" stroke-linecap="round"/>
</svg>
