<svg width="24" height="24" viewBox="0 0 24 24" fill="none" xmlns="http://www.w3.org/2000/svg">
<path d="M15 13.4999L20.766 11.5778M15 13.4999V20.4458M15 13.4999L9.23401 11.5778M20.766 11.5778C20.9137 11.7538 21 11.9797 21 12.2207V17.7791C21 18.2096 20.7246 18.5917 20.3162 18.7278L15.3162 20.3945C15.2136 20.4287 15.1068 20.4458 15 20.4458M20.766 11.5778C20.6499 11.4395 20.4959 11.3319 20.3162 11.272L15.3162 9.60532C15.111 9.53689 14.889 9.53689 14.6838 9.60532L9.68377 11.272C9.50406 11.3319 9.35008 11.4395 9.23401 11.5778M15 20.4458C14.8932 20.4458 14.7864 20.4287 14.6838 20.3945L9.68377 18.7278C9.27543 18.5917 9 18.2096 9 17.7791V12.2207C9 11.9797 9.08634 11.7538 9.23401 11.5778M3.5 6.4998L5.4168 3.62461C5.45638 3.56523 5.54362 3.56523 5.58321 3.62461L7.5 6.4998L7.61501 6.68381C8.65326 8.34501 7.45897 10.4998 5.5 10.4998C3.54104 10.4998 2.34675 8.34501 3.385 6.68381L3.5 6.4998Z" stroke="black" stroke-width="1.5" stroke-linecap="round"/>
</svg>
