<svg width="24" height="24" viewBox="0 0 24 24" fill="none" xmlns="http://www.w3.org/2000/svg">
<path d="M10.1236 4.72149L9.59627 2.84299C9.56895 2.7457 9.43103 2.7457 9.40371 2.84299L8.87634 4.72149C8.3107 6.73626 6.7362 8.31077 4.72143 8.8764L2.84293 9.40377C2.74563 9.43109 2.74563 9.56901 2.84293 9.59633L4.72143 10.1237C6.7362 10.6893 8.3107 12.2638 8.87634 14.2786L9.40371 16.1571C9.43103 16.2544 9.56895 16.2544 9.59627 16.1571L10.1236 14.2786C10.6893 12.2638 12.2638 10.6893 14.2786 10.1237L16.1571 9.59633C16.2543 9.56901 16.2543 9.43109 16.1571 9.40377L14.2786 8.8764C12.2638 8.31077 10.6893 6.73626 10.1236 4.72149Z" stroke="black" stroke-width="1.5" stroke-linecap="round" stroke-linejoin="bevel"/>
<path d="M17.8792 14.3509L17.5963 13.343C17.569 13.2457 17.431 13.2457 17.4037 13.343L17.1208 14.3509C16.7437 15.6941 15.694 16.7437 14.3508 17.1208L13.3429 17.4038C13.2456 17.4311 13.2456 17.569 13.3429 17.5963L14.3508 17.8793C15.694 18.2564 16.7437 19.306 17.1208 20.6492L17.4037 21.6571C17.431 21.7544 17.569 21.7544 17.5963 21.6571L17.8792 20.6492C18.2563 19.306 19.306 18.2564 20.6492 17.8793L21.6571 17.5963C21.7543 17.569 21.7543 17.4311 21.6571 17.4038L20.6492 17.1208C19.306 16.7437 18.2563 15.6941 17.8792 14.3509Z" stroke="black" stroke-width="1.5" stroke-linecap="round" stroke-linejoin="bevel"/>
</svg>
