<svg width="24" height="24" viewBox="0 0 24 24" fill="none" xmlns="http://www.w3.org/2000/svg">
<path d="M15.5 8.66667C17.4871 10.5076 17.4871 13.4924 15.5 15.3333M17.6587 7.33334C20.4406 9.91067 20.4406 14.0893 17.6587 16.6667M7.75 8.75C7.75 8.05964 8.30964 7.5 9 7.5C9.69036 7.5 10.25 8.05964 10.25 8.75C10.25 9.44036 9.69036 10 9 10C8.30964 10 7.75 9.44036 7.75 8.75ZM9 12.5C7.89543 12.5 7 13.3954 7 14.5C7 15.6046 7.89543 16.5 9 16.5C10.1046 16.5 11 15.6046 11 14.5C11 13.3954 10.1046 12.5 9 12.5ZM4.5 18V6C4.5 5.44772 4.94772 5 5.5 5H12.5C13.0523 5 13.5 5.44772 13.5 6V18C13.5 18.5523 13.0523 19 12.5 19H5.5C4.94772 19 4.5 18.5523 4.5 18Z" stroke="black" stroke-width="1.5" stroke-linecap="round"/>
</svg>
