<svg width="24" height="24" viewBox="0 0 24 24" fill="none" xmlns="http://www.w3.org/2000/svg">
<path d="M17 8.66669C18.9871 10.5076 18.9871 13.4924 17 15.3334M9.25 8.75C9.25 8.05964 9.80964 7.5 10.5 7.5C11.1904 7.5 11.75 8.05964 11.75 8.75C11.75 9.44036 11.1904 10 10.5 10C9.80964 10 9.25 9.44036 9.25 8.75ZM10.5 12.5C9.39543 12.5 8.5 13.3954 8.5 14.5C8.5 15.6046 9.39543 16.5 10.5 16.5C11.6046 16.5 12.5 15.6046 12.5 14.5C12.5 13.3954 11.6046 12.5 10.5 12.5ZM6 18V6C6 5.44772 6.44772 5 7 5H14C14.5523 5 15 5.44772 15 6V18C15 18.5523 14.5523 19 14 19H7C6.44772 19 6 18.5523 6 18Z" stroke="black" stroke-width="1.5" stroke-linecap="round"/>
</svg>
