<svg width="24" height="24" viewBox="0 0 24 24" fill="none" xmlns="http://www.w3.org/2000/svg">
<path d="M15.5 5H8.5C7.94772 5 7.5 5.44772 7.5 6V18C7.5 18.5523 7.94772 19 8.5 19H15.5C16.0523 19 16.5 18.5523 16.5 18V6C16.5 5.44772 16.0523 5 15.5 5Z" stroke="black" stroke-width="1.5" stroke-linecap="round"/>
<path d="M12 7.5C11.3096 7.5 10.75 8.05964 10.75 8.75C10.75 9.44036 11.3096 10 12 10C12.6904 10 13.25 9.44036 13.25 8.75C13.25 8.05964 12.6904 7.5 12 7.5Z" stroke="black" stroke-width="1.5" stroke-linecap="round"/>
<path d="M10 14.5C10 13.3954 10.8954 12.5 12 12.5C13.1046 12.5 14 13.3954 14 14.5C14 15.6046 13.1046 16.5 12 16.5C10.8954 16.5 10 15.6046 10 14.5Z" stroke="black" stroke-width="1.5" stroke-linecap="round"/>
</svg>
