<svg width="24" height="24" viewBox="0 0 24 24" fill="none" xmlns="http://www.w3.org/2000/svg">
<path d="M18.3175 6C21.8942 9.31371 21.8942 14.6863 18.3175 18M14 8.66667C15.9871 10.5076 15.9871 13.4924 14 15.3333M16.1587 7.33333C18.9406 9.91066 18.9406 14.0893 16.1587 16.6667M6.25 8.75C6.25 8.05964 6.80964 7.5 7.5 7.5C8.19036 7.5 8.75 8.05964 8.75 8.75C8.75 9.44036 8.19036 10 7.5 10C6.80964 10 6.25 9.44036 6.25 8.75ZM7.5 12.5C6.39543 12.5 5.5 13.3954 5.5 14.5C5.5 15.6046 6.39543 16.5 7.5 16.5C8.60457 16.5 9.5 15.6046 9.5 14.5C9.5 13.3954 8.60457 12.5 7.5 12.5ZM3 18V6C3 5.44772 3.44772 5 4 5H11C11.5523 5 12 5.44772 12 6V18C12 18.5523 11.5523 19 11 19H4C3.44772 19 3 18.5523 3 18Z" stroke="black" stroke-width="1.5" stroke-linecap="round"/>
</svg>
