<svg width="24" height="24" viewBox="0 0 24 24" fill="none" xmlns="http://www.w3.org/2000/svg">
<path d="M7.66664 13L10.6837 3.94868C10.8726 3.38214 11.4028 3 12 3C12.5972 3 13.1273 3.38214 13.3162 3.94868L16.3333 13M7.66664 13H16.3333M7.66664 13L6.16664 17.5M16.3333 13L17.8333 17.5M20.4142 20.0858L20 20.5C19.4477 21.0523 18.5523 21.0523 18 20.5C17.7238 20.2239 17.3619 20.0858 17 20.0858C16.638 20.0858 16.2761 20.2239 16 20.5C15.4477 21.0523 14.5523 21.0523 14 20.5C13.4477 19.9477 12.5523 19.9477 12 20.5C11.4477 21.0523 10.5523 21.0523 9.99997 20.5C9.44768 19.9477 8.55225 19.9477 7.99997 20.5C7.72383 20.7761 7.3619 20.9142 6.99997 20.9142C6.63804 20.9142 6.27611 20.7761 5.99997 20.5C5.44768 19.9477 4.55225 19.9477 3.99997 20.5L3.58575 20.9142" stroke="black" stroke-width="1.5" stroke-linecap="round"/>
</svg>
