<svg width="24" height="24" viewBox="0 0 24 24" fill="none" xmlns="http://www.w3.org/2000/svg">
<path d="M12 8.5C10.6193 8.5 9.5 7.38071 9.5 6C9.5 4.61929 10.6193 3.5 12 3.5C13.3807 3.5 14.5 4.61929 14.5 6C14.5 7.38071 13.3807 8.5 12 8.5ZM12 8.5V15M12 8.5L13.8682 11.7694C13.9546 11.9205 14 12.0915 14 12.2656V14.5M12 8.5L10.1318 11.7694C10.0454 11.9205 10 12.0915 10 12.2656V14.5M12 15L11.0513 17.8461C11.0173 17.948 11 18.0548 11 18.1623V21.5M12 15L12.9487 17.8461C12.9827 17.948 13 18.0548 13 18.1623V21.5" stroke="black" stroke-width="1.5" stroke-linecap="round"/>
</svg>
