<svg width="24" height="24" viewBox="0 0 24 24" fill="none" xmlns="http://www.w3.org/2000/svg">
<path d="M10 4.99986L11.4453 4.03633C12.1099 3.59329 13 4.06969 13 4.86838V10.9999C13 13.7613 10.7614 15.9999 8 15.9999M6 4.99986L4.5547 4.03633C3.89015 3.59329 3 4.06969 3 4.86838V10.9999C3 13.7613 5.23858 15.9999 8 15.9999M8 15.9999V16.2357C8 18.3146 9.68527 19.9999 11.7642 19.9999C15.4843 19.9999 18.5 16.9841 18.5 13.264V11.9999M18.5 11.9999C19.8807 11.9999 21 10.8806 21 9.49986C21 8.11915 19.8807 6.99986 18.5 6.99986C17.1193 6.99986 16 8.11915 16 9.49986C16 10.8806 17.1193 11.9999 18.5 11.9999Z" stroke="black" stroke-width="1.5" stroke-linecap="round"/>
</svg>
