<svg width="24" height="24" viewBox="0 0 24 24" fill="none" xmlns="http://www.w3.org/2000/svg">
<path d="M10 19.9102C10.1288 19.9688 10.2699 20 10.4142 20H19C19.5523 20 20 19.5523 20 19V5C20 4.44772 19.5523 4 19 4H5C4.44772 4 4 4.44772 4 5V13.5858C4 13.7301 4.03118 13.8712 4.08982 14M10 19.9102C9.89201 19.861 9.79262 19.7926 9.70711 19.7071L4.29289 14.2929C4.20739 14.2074 4.13896 14.108 4.08982 14M10 19.9102V15C10 14.4477 9.55228 14 9 14H4.08982" stroke="black" stroke-width="1.5" stroke-linecap="round"/>
</svg>
