<svg width="24" height="24" viewBox="0 0 24 24" fill="none" xmlns="http://www.w3.org/2000/svg">
<path d="M6 4.5C6 3.94772 6.44772 3.5 7 3.5H19.5C20.0523 3.5 20.5 3.94772 20.5 4.5V16C20.5 16.5523 20.0523 17 19.5 17M9.5 20.4102C9.62885 20.4688 9.76992 20.5 9.91421 20.5H16C16.5523 20.5 17 20.0523 17 19.5V8C17 7.44772 16.5523 7 16 7H4.5C3.94772 7 3.5 7.44772 3.5 8V14.0858C3.5 14.2301 3.53118 14.3712 3.58982 14.5M9.5 20.4102C9.39201 20.361 9.29261 20.2926 9.20711 20.2071L3.79289 14.7929C3.70739 14.7074 3.63896 14.608 3.58982 14.5M9.5 20.4102V15.5C9.5 14.9477 9.05228 14.5 8.5 14.5H3.58982" stroke="black" stroke-width="1.5" stroke-linecap="round"/>
</svg>
