<svg width="24" height="24" viewBox="0 0 24 24" fill="none" xmlns="http://www.w3.org/2000/svg">
<path d="M11.5001 3.5V4.75736C11.5001 5.55301 11.8161 6.31607 12.3787 6.87868C12.9848 7.48476 12.9011 8.4978 12.1283 8.86852C10.7059 9.55086 9.12229 9.87497 7.5176 9.79051L7.20223 9.77391C4.60098 9.637 2.59656 12.0355 3.19323 14.5711L3.27754 14.9294C3.43767 15.6098 3.75938 16.2198 4.1971 16.7212C4.37977 16.9305 4.50005 17.1917 4.50005 17.4695V20.5M14.5001 3.5V4.17163C14.5001 4.70211 14.7108 5.21086 15.0859 5.58594C15.6337 6.13366 16.4388 6.29876 17.2103 6.36823C18.2364 6.46062 19.2218 6.98701 19.8632 7.9134L20.1043 8.26173C21.2021 9.84728 20.9852 12.0147 19.6216 13.3784C16.6799 16.3201 12.69 18.0493 8.55438 18.17C7.98815 18.1865 7.5176 18.6367 7.5176 19.2032V20.5" stroke="black" stroke-width="1.5" stroke-linecap="round"/>
</svg>
