<svg width="24" height="24" viewBox="0 0 24 24" fill="none" xmlns="http://www.w3.org/2000/svg">
<path d="M11.5001 3.5V4.75736C11.5001 5.55301 11.8161 6.31607 12.3787 6.87868C12.9848 7.48476 12.9011 8.4978 12.1283 8.86852C10.7059 9.55086 9.12229 9.87497 7.5176 9.79051L7.20223 9.77391C4.60098 9.637 2.59656 12.0355 3.19323 14.5711L3.27754 14.9294C3.43767 15.6098 3.75938 16.2198 4.1971 16.7212C4.37977 16.9305 4.50005 17.1917 4.50005 17.4695V20.5M14.5001 3.5V4.17163C14.5001 4.70211 14.7108 5.21086 15.0859 5.58594C15.6337 6.13366 16.4388 6.29876 17.2103 6.36823C18.2364 6.46062 19.2218 6.98701 19.8632 7.9134L20.1043 8.26173C21.1805 9.816 20.9932 11.9294 19.7009 13.2967M7.5176 20.5V19.2032C7.5176 18.6367 7.98815 18.1865 8.55438 18.17C10.0834 18.1254 11.5925 17.8609 13.036 17.3965M16 18L17.4293 19.4292C17.4683 19.4683 17.5317 19.4683 17.5707 19.4292L20 17M13.036 17.3965C13.0122 17.5944 13 17.7957 13 18C13 20.7614 15.2386 23 18 23C20.7614 23 23 20.7614 23 18C23 15.8358 21.625 13.9927 19.7009 13.2967M13.036 17.3965C13.334 14.9197 15.4428 13 18 13C18.5972 13 19.17 13.1047 19.7009 13.2967" stroke="black" stroke-width="1.5" stroke-linecap="round"/>
</svg>
