<svg width="24" height="24" viewBox="0 0 24 24" fill="none" xmlns="http://www.w3.org/2000/svg">
<path d="M12 6V3M12 6C7.85786 6 4.5 9.35786 4.5 13.5C4.5 17.6421 7.85786 21 12 21C12.6344 21 13.2504 20.9212 13.8387 20.773M12 6C13.3663 6 14.6473 6.36537 15.7506 7.00373M12 3H14M12 3H10M15.7506 7.00373L16.5 5.5M15.7506 7.00373C17.9183 8.25796 19.4 10.566 19.4951 13.2274M16.5 11L12.0589 14.4542C12.0239 14.4814 11.9753 14.4824 11.9393 14.4567L8.5 12M18 18V15.5M18 18H20.5M18 18V20.5M18 18H15.5M19.4951 13.2274C19.023 13.0796 18.5208 13 18 13C15.2386 13 13 15.2386 13 18C13 19.0258 13.3089 19.9794 13.8387 20.773M19.4951 13.2274C21.5262 13.863 23 15.7594 23 18C23 20.7614 20.7614 23 18 23C16.2644 23 14.7353 22.1156 13.8387 20.773" stroke="black" stroke-width="1.5" stroke-linecap="round"/>
</svg>
