<svg width="24" height="24" viewBox="0 0 24 24" fill="none" xmlns="http://www.w3.org/2000/svg">
<path d="M15.125 8.5C15.125 10.0188 16.7312 11.5 18.25 11.5C18.51 11.5 18.7616 11.4639 19 11.3965M15.125 8.5C15.125 10.0188 13.5188 11.5 12 11.5C10.4812 11.5 8.875 10.0188 8.875 8.5M15.125 8.5L14.9805 8.24315C14.3377 7.10033 14 5.81121 14 4.5M8.875 8.5C8.875 10.0188 7.26878 11.5 5.75 11.5C5.48999 11.5 5.23842 11.4639 5 11.3965M8.875 8.5L9.01948 8.24315C9.66231 7.10033 10 5.81121 10 4.5M19 11.3965C20.1543 11.07 21 10.0088 21 8.75C21 8.58993 20.9355 8.43726 20.8264 8.3201C19.9429 7.37122 19.3389 6.1944 19.084 4.91987C19.0351 4.67574 18.8208 4.5 18.5718 4.5H14M19 11.3965V18.5C19 19.0523 18.5523 19.5 18 19.5H16C15.4477 19.5 15 19.0523 15 18.5V16C15 14.8954 14.1046 14 13 14H11C9.89543 14 9 14.8954 9 16V18.5C9 19.0523 8.55228 19.5 8 19.5H6C5.44772 19.5 5 19.0523 5 18.5V11.3965M5 11.3965C3.84575 11.07 3 10.0088 3 8.75C3 8.58993 3.06451 8.43726 3.17359 8.3201C4.05707 7.37122 4.66112 6.1944 4.91602 4.91988C4.96485 4.67574 5.17922 4.5 5.42819 4.5H10M14 4.5H10" stroke="black" stroke-width="1.5" stroke-linecap="round"/>
</svg>
