<svg width="24" height="24" viewBox="0 0 24 24" fill="none" xmlns="http://www.w3.org/2000/svg">
<path d="M12 10.9998L7.50889 9.00387M12 10.9998L16.4911 9.00387M12 10.9998V15.9951M20.9822 7.0079C20.972 6.99312 20.9577 6.98106 20.9406 6.97345L16.4906 4.99567M20.9822 7.0079C20.9936 7.0243 21 7.04405 21 7.06483V11.9998M20.9822 7.0079L16.4911 9.00387M3.01779 7.0079C3.02802 6.99312 3.04226 6.98106 3.05939 6.97345L7.50939 4.99567M3.01779 7.0079C3.00643 7.0243 3 7.04405 3 7.06483V11.9998M3.01779 7.0079L7.50889 9.00387M12 20.9904C11.9862 20.9904 11.9723 20.9875 11.9594 20.9818L7.50939 19.004M12 20.9904C12.0138 20.9904 12.0277 20.9875 12.0406 20.9818L16.4906 19.004M12 20.9904V15.9951M16.4906 4.99567L12.0406 3.0179C12.0148 3.0064 11.9852 3.0064 11.9594 3.0179L7.50939 4.99567M16.4906 4.99567L11.9998 6.99977M7.50889 9.00387L11.9998 6.99977M7.50889 9.00387L7.50914 14.0039M7.50939 19.004L3.05939 17.0262C3.02327 17.0102 3 16.9744 3 16.9349V11.9998M7.50939 19.004L7.50914 14.0039M11.9998 6.99977L16.4911 9.00387M11.9998 6.99977L7.50939 4.99567M16.4911 9.00387L16.4909 14.0039M16.4906 19.004L20.9406 17.0262C20.9767 17.0102 21 16.9744 21 16.9349V11.9998M16.4906 19.004L16.4909 14.0039M12 15.9951L7.50914 14.0039M12 15.9951L16.4909 14.0039M16.4909 14.0039L21 11.9998M7.50914 14.0039L3 11.9998" stroke="black" stroke-width="1.5" stroke-linecap="round"/>
</svg>
