<svg width="24" height="24" viewBox="0 0 24 24" fill="none" xmlns="http://www.w3.org/2000/svg">
<path d="M12 13.4998V17.2498M14.25 9.99976L17.625 8.49976M9.75 9.99976L6.375 8.49976M10.7816 3.54128L4.78159 6.20795C3.6982 6.68945 3 7.76382 3 8.94938V15.0501C3 16.2357 3.6982 17.3101 4.78158 17.7916L10.7816 20.4582C11.5573 20.803 12.4427 20.803 13.2184 20.4582L19.2184 17.7916C20.3018 17.3101 21 16.2357 21 15.0501V8.94938C21 7.76381 20.3018 6.68945 19.2184 6.20795L13.2184 3.54128C12.4427 3.19653 11.5573 3.19653 10.7816 3.54128Z" stroke="black" stroke-width="1.5" stroke-linecap="round"/>
</svg>
