<svg width="24" height="24" viewBox="0 0 24 24" fill="none" xmlns="http://www.w3.org/2000/svg">
<path d="M16 8V5C16 4.44772 15.5523 4 15 4H5C4.44772 4 4 4.44772 4 5V15C4 15.5523 4.44772 16 5 16H8M16 8H19C19.2761 8 19.5261 8.11193 19.7071 8.29289M16 8V12M8 16V19C8 19.2761 8.11193 19.5261 8.29289 19.7071M8 16H12M16 12V15C16 15.5523 15.5523 16 15 16H12M16 12L19.7071 8.29289M12 16L8.29289 19.7071M20 12V9C20 8.72386 19.8881 8.47386 19.7071 8.29289M20 12V16M20 12L12 20M12 20H9C8.72386 20 8.47386 19.8881 8.29289 19.7071M12 20H16M20 16V19C20 19.5523 19.5523 20 19 20H16M20 16L16 20" stroke="black" stroke-width="1.5" stroke-linecap="round"/>
</svg>
