<svg width="24" height="24" viewBox="0 0 24 24" fill="none" xmlns="http://www.w3.org/2000/svg">
<path d="M16 8.00001H20C20.5523 8.00001 21 8.44772 21 9.00001V18C21 18.5523 20.5523 19 20 19H4C3.44772 19 3 18.5523 3 18V9.00001C3 8.44772 3.44771 8.00001 4 8.00001L8 8M16 8.00001L15.4558 6.36755C15.1836 5.55087 14.4193 5.00001 13.5585 5.00001L10.4415 5C9.58066 5 8.81638 5.55086 8.54415 6.36755L8 8M16 8.00001L8 8M15.25 13.2499L13.0949 12.5316C13.0425 12.5141 12.9858 12.5424 12.9684 12.5948L12.0316 15.4051C12.0142 15.4575 12.0425 15.5141 12.0949 15.5316L14.9051 16.4683C14.9575 16.4858 15.0142 16.4575 15.0316 16.4051L15.6667 14.4999M15.25 13.2499L15.0316 12.5948C15.0142 12.5424 15.0425 12.4858 15.0949 12.4683L17.9051 11.5316C17.9575 11.5141 18.0142 11.5424 18.0316 11.5948L18.9684 14.4051C18.9858 14.4575 18.9575 14.5141 18.9051 14.5316L16.0949 15.4683C16.0425 15.4858 15.9858 15.4575 15.9684 15.4051L15.6667 14.4999M15.25 13.2499L15.6667 14.4999M8.5 11.9999C8.5 11.1715 7.82843 10.4999 7 10.4999C6.17157 10.4999 5.5 11.1715 5.5 11.9999C5.5 12.8284 6.17157 13.4999 7 13.4999C7.82843 13.4999 8.5 12.8284 8.5 11.9999Z" stroke="black" stroke-width="1.5" stroke-linecap="round"/>
</svg>
