<svg width="24" height="24" viewBox="0 0 24 24" fill="none" xmlns="http://www.w3.org/2000/svg">
<path d="M3.5 20.5L6 18M6 18H8.58579C8.851 18 9.10536 17.8946 9.29289 17.7071L10 17M6 18V15.4142C6 15.149 6.10536 14.8946 6.29289 14.7071L13.5 7.5M16.5 10.5L16.7378 10.7378C17.5738 11.5738 18.2696 12.5391 18.7983 13.5966M16.5 10.5L15 9M16.5 10.5L14 13M13.5 7.5L13.2622 7.26222C12.4262 6.42621 11.4609 5.73044 10.4034 5.2017M13.5 7.5L15 9M15 9L19 5M19 5L21.5 7.5M19 5L16.5 2.5M10 17L9 16M10 17L12 15M12 15L14 13M12 15L11 14M14 13L13 12" stroke="black" stroke-width="1.5" stroke-linecap="round"/>
</svg>
