<svg width="24" height="24" viewBox="0 0 24 24" fill="none" xmlns="http://www.w3.org/2000/svg">
<path fill-rule="evenodd" clip-rule="evenodd" d="M19.7929 13.2071L13.2071 19.7929C12.8166 20.1834 12.1834 20.1834 11.7929 19.7929L4.29289 12.2929C4.10536 12.1054 4 11.851 4 11.5858V7C4 5.34315 5.34315 4 7 4H11.5858C11.851 4 12.1054 4.10536 12.2929 4.29289L19.7929 11.7929C20.1834 12.1834 20.1834 12.8166 19.7929 13.2071ZM8.5 7C9.32843 7 10 7.67157 10 8.5C10 9.32843 9.32843 10 8.5 10C7.67157 10 7 9.32843 7 8.5C7 7.67157 7.67157 7 8.5 7Z" stroke="black" stroke-width="1.5" stroke-linecap="round"/>
<path d="M10 8.5C10 7.67157 9.32843 7 8.5 7C7.67157 7 7 7.67157 7 8.5C7 9.32843 7.67157 10 8.5 10C9.32843 10 10 9.32843 10 8.5Z" stroke="black" stroke-width="1.5" stroke-linecap="round"/>
</svg>
