<svg width="24" height="24" viewBox="0 0 24 24" fill="none" xmlns="http://www.w3.org/2000/svg">
<path d="M7.50002 10.9994L7.20712 10.7065C6.8166 10.316 6.8166 9.6828 7.20712 9.29227L12.7929 3.70647C13.1834 3.31595 13.8166 3.31594 14.2071 3.70645L17.293 6.79214C17.6835 7.18264 17.6835 7.81577 17.2931 8.20631L14.5001 10.9998M7.50002 10.9994L10.0001 13.4992M7.50002 10.9994L5.20665 13.2929C4.81634 13.6835 4.81647 14.3165 5.20693 14.7069L6.29286 15.7928C6.68342 16.1833 7.31662 16.1832 7.70712 15.7926L10.0001 13.4992M10.0001 13.4992L10.5004 13.9995C10.7764 14.2755 11.2239 14.2756 11.5001 13.9998M11.5001 13.9998L12.0001 14.4998C12.1344 14.6341 12.2822 14.7466 12.4392 14.8373M11.5001 13.9998L14.5001 10.9998M14.5001 10.9998L15.0001 11.4998C15.8285 12.3282 15.8285 13.6713 15.0001 14.4998C14.8658 14.6341 14.718 14.7466 14.561 14.8373M14.561 14.8373L18.0001 21.16M14.561 14.8373C14.2339 15.0265 13.8669 15.1211 13.5001 15.1211M13.5001 15.1211V21.4998M13.5001 15.1211C13.1332 15.1211 12.7663 15.0265 12.4392 14.8373M12.4392 14.8373L9.00007 21.16" stroke="black" stroke-width="1.5" stroke-linecap="round"/>
</svg>
