<svg width="24" height="24" viewBox="0 0 24 24" fill="none" xmlns="http://www.w3.org/2000/svg">
<path fill-rule="evenodd" clip-rule="evenodd" d="M7.1 20H13.5C15.7091 20 17.5 18.2091 17.5 16C17.5 14.2756 16.4089 12.8061 14.8794 12.2442C14.7919 12.2121 14.7831 12.0828 14.8656 12.0392C16.1349 11.3687 17 10.0354 17 8.5C17 6.29086 15.2091 4.5 13 4.5H7.1C7.04477 4.5 7 4.54477 7 4.6V19.9C7 19.9552 7.04477 20 7.1 20ZM13.5 12.5H7.6C7.54477 12.5 7.5 12.5448 7.5 12.6V19.4C7.5 19.4552 7.54477 19.5 7.6 19.5H13.5C15.433 19.5 17 17.933 17 16C17 14.067 15.433 12.5 13.5 12.5ZM13 5H7.6C7.54477 5 7.5 5.04477 7.5 5.1V11.9C7.5 11.9552 7.54477 12 7.6 12H13C14.933 12 16.5 10.433 16.5 8.5C16.5 6.567 14.933 5 13 5Z" fill="#D9D9D9" stroke="black" stroke-width="1.5" stroke-linecap="round"/>
</svg>
