<svg width="24" height="24" viewBox="0 0 24 24" fill="none" xmlns="http://www.w3.org/2000/svg">
<path d="M18.75 2.25L19.4615 2.01283C19.3594 1.70657 19.0728 1.5 18.75 1.5C18.4272 1.5 18.1406 1.70657 18.0385 2.01283L18.75 2.25ZM19.0257 3.07697L18.3141 3.31415L18.3141 3.31415L19.0257 3.07697ZM20.923 4.97434L20.6859 5.68585L20.6859 5.68585L20.923 4.97434ZM21.75 5.25L21.9872 5.96151C22.2934 5.85943 22.5 5.57282 22.5 5.25C22.5 4.92718 22.2934 4.64057 21.9872 4.53849L21.75 5.25ZM20.923 5.52566L20.6859 4.81415L20.6859 4.81415L20.923 5.52566ZM19.0257 7.42302L18.3141 7.18585L18.3141 7.18585L19.0257 7.42302ZM18.75 8.25L18.0385 8.48717C18.1406 8.79343 18.4272 9 18.75 9C19.0728 9 19.3594 8.79343 19.4615 8.48717L18.75 8.25ZM18.4743 7.42302L19.1859 7.18585L19.1859 7.18585L18.4743 7.42302ZM16.577 5.52566L16.3398 6.23717L16.3398 6.23717L16.577 5.52566ZM15.75 5.25L15.5128 4.53849C15.2066 4.64057 15 4.92718 15 5.25C15 5.57282 15.2066 5.85943 15.5128 5.96151L15.75 5.25ZM16.577 4.97434L16.3398 4.26283L16.3398 4.26283L16.577 4.97434ZM18.4743 3.07697L19.1859 3.31415L19.1859 3.31415L18.4743 3.07697ZM15.75 9.75L16.4615 9.51283C16.3595 9.20657 16.0728 9 15.75 9C15.4272 9 15.1406 9.20657 15.0385 9.51283L15.75 9.75ZM16.0257 10.577L15.3142 10.8141L15.3142 10.8141L16.0257 10.577ZM17.923 12.4743L17.6859 13.1859L17.6859 13.1859L17.923 12.4743ZM18.75 12.75L18.9872 13.4615C19.2935 13.3594 19.5 13.0728 19.5 12.75C19.5 12.4272 19.2935 12.1406 18.9872 12.0385L18.75 12.75ZM17.923 13.0257L17.6859 12.3141L17.6859 12.3141L17.923 13.0257ZM16.0257 14.923L16.7372 15.1602L16.7372 15.1602L16.0257 14.923ZM15.75 15.75L15.0385 15.9872C15.1406 16.2934 15.4272 16.5 15.75 16.5C16.0728 16.5 16.3595 16.2934 16.4615 15.9872L15.75 15.75ZM15.4744 14.923L14.7629 15.1602L14.7629 15.1602L15.4744 14.923ZM13.577 13.0257L13.8142 12.3141L13.8142 12.3141L13.577 13.0257ZM12.75 12.75L12.5129 12.0385C12.2066 12.1406 12 12.4272 12 12.75C12 13.0728 12.2066 13.3594 12.5129 13.4615L12.75 12.75ZM13.577 12.4743L13.8142 13.1859L13.8142 13.1859L13.577 12.4743ZM15.4744 10.577L16.1859 10.8141L16.1859 10.8141L15.4744 10.577ZM22.5 8.25C22.5 7.83579 22.1642 7.5 21.75 7.5C21.3358 7.5 21 7.83579 21 8.25H21.75H22.5ZM13.5 7.5C13.9142 7.5 14.25 7.16421 14.25 6.75C14.25 6.33579 13.9142 6 13.5 6V6.75V7.5ZM18.75 2.25L18.0385 2.48717L18.3141 3.31415L19.0257 3.07697L19.7372 2.8398L19.4615 2.01283L18.75 2.25ZM20.923 4.97434L20.6859 5.68585L21.5128 5.96151L21.75 5.25L21.9872 4.53849L21.1602 4.26283L20.923 4.97434ZM21.75 5.25L21.5128 4.53849L20.6859 4.81415L20.923 5.52566L21.1602 6.23717L21.9872 5.96151L21.75 5.25ZM19.0257 7.42302L18.3141 7.18585L18.0385 8.01283L18.75 8.25L19.4615 8.48717L19.7372 7.6602L19.0257 7.42302ZM18.75 8.25L19.4615 8.01283L19.1859 7.18585L18.4743 7.42302L17.7628 7.6602L18.0385 8.48717L18.75 8.25ZM16.577 5.52566L16.8141 4.81415L15.9872 4.53849L15.75 5.25L15.5128 5.96151L16.3398 6.23717L16.577 5.52566ZM15.75 5.25L15.9872 5.96151L16.8141 5.68585L16.577 4.97434L16.3398 4.26283L15.5128 4.53849L15.75 5.25ZM18.4743 3.07697L19.1859 3.31415L19.4615 2.48717L18.75 2.25L18.0385 2.01283L17.7628 2.8398L18.4743 3.07697ZM15.75 9.75L15.0385 9.98717L15.3142 10.8141L16.0257 10.577L16.7372 10.3398L16.4615 9.51283L15.75 9.75ZM17.923 12.4743L17.6859 13.1859L18.5129 13.4615L18.75 12.75L18.9872 12.0385L18.1602 11.7628L17.923 12.4743ZM18.75 12.75L18.5129 12.0385L17.6859 12.3141L17.923 13.0257L18.1602 13.7372L18.9872 13.4615L18.75 12.75ZM16.0257 14.923L15.3142 14.6859L15.0385 15.5128L15.75 15.75L16.4615 15.9872L16.7372 15.1602L16.0257 14.923ZM15.75 15.75L16.4615 15.5128L16.1859 14.6859L15.4744 14.923L14.7629 15.1602L15.0385 15.9872L15.75 15.75ZM13.577 13.0257L13.8142 12.3141L12.9872 12.0385L12.75 12.75L12.5129 13.4615L13.3398 13.7372L13.577 13.0257ZM12.75 12.75L12.9872 13.4615L13.8142 13.1859L13.577 12.4743L13.3398 11.7628L12.5129 12.0385L12.75 12.75ZM15.4744 10.577L16.1859 10.8141L16.4615 9.98717L15.75 9.75L15.0385 9.51283L14.7629 10.3398L15.4744 10.577ZM13.577 12.4743L13.8142 13.1859C14.9339 12.8126 15.8126 11.9339 16.1859 10.8141L15.4744 10.577L14.7629 10.3398C14.5389 11.0117 14.0117 11.5389 13.3398 11.7628L13.577 12.4743ZM15.4744 14.923L16.1859 14.6859C15.8126 13.5661 14.9339 12.6874 13.8142 12.3141L13.577 13.0257L13.3398 13.7372C14.0117 13.9611 14.5389 14.4883 14.7629 15.1602L15.4744 14.923ZM17.923 13.0257L17.6859 12.3141C16.5661 12.6874 15.6874 13.5661 15.3142 14.6859L16.0257 14.923L16.7372 15.1602C16.9612 14.4883 17.4884 13.9611 18.1602 13.7372L17.923 13.0257ZM16.0257 10.577L15.3142 10.8141C15.6874 11.9339 16.5661 12.8126 17.6859 13.1859L17.923 12.4743L18.1602 11.7628C17.4884 11.5389 16.9612 11.0117 16.7372 10.3398L16.0257 10.577ZM16.577 4.97434L16.8141 5.68585C17.9339 5.3126 18.8126 4.43391 19.1859 3.31415L18.4743 3.07697L17.7628 2.8398C17.5389 3.51167 17.0117 4.03888 16.3398 4.26283L16.577 4.97434ZM18.4743 7.42302L19.1859 7.18585C18.8126 6.06609 17.9339 5.1874 16.8141 4.81415L16.577 5.52566L16.3398 6.23717C17.0117 6.46112 17.5389 6.98833 17.7628 7.6602L18.4743 7.42302ZM20.923 5.52566L20.6859 4.81415C19.5661 5.1874 18.6874 6.06609 18.3141 7.18585L19.0257 7.42302L19.7372 7.6602C19.9611 6.98833 20.4883 6.46112 21.1602 6.23717L20.923 5.52566ZM19.0257 3.07697L18.3141 3.31415C18.6874 4.43391 19.5661 5.3126 20.6859 5.68585L20.923 4.97434L21.1602 4.26283C20.4883 4.03888 19.9611 3.51167 19.7372 2.8398L19.0257 3.07697ZM9.75 18H9C9 18.2544 8.82423 18.6128 8.26578 18.9479C7.72226 19.274 6.92297 19.5 6 19.5V20.25V21C7.14809 21 8.22381 20.7223 9.03752 20.2341C9.8363 19.7548 10.5 18.9883 10.5 18H9.75ZM6 20.25V19.5C5.07703 19.5 4.27774 19.274 3.73422 18.9479C3.17577 18.6128 3 18.2544 3 18H2.25H1.5C1.5 18.9883 2.1637 19.7548 2.96248 20.2341C3.77619 20.7223 4.85191 21 6 21V20.25ZM2.25 18H3C3 17.7456 3.17577 17.3872 3.73422 17.0521C4.27774 16.726 5.07703 16.5 6 16.5V15.75V15C4.85191 15 3.77619 15.2777 2.96248 15.7659C2.1637 16.2452 1.5 17.0117 1.5 18H2.25ZM6 15.75V16.5C6.92297 16.5 7.72226 16.726 8.26578 17.0521C8.82423 17.3872 9 17.7456 9 18H9.75H10.5C10.5 17.0117 9.8363 16.2452 9.03752 15.7659C8.22381 15.2777 7.14809 15 6 15V15.75ZM2.25 5.25H3C3 4.99562 3.17577 4.6372 3.73422 4.30213C4.27774 3.97602 5.07703 3.75 6 3.75V3V2.25C4.85191 2.25 3.77619 2.52766 2.96248 3.01589C2.1637 3.49516 1.5 4.26173 1.5 5.25H2.25ZM6 3V3.75C6.92297 3.75 7.72226 3.97602 8.26578 4.30213C8.82423 4.6372 9 4.99562 9 5.25H9.75H10.5C10.5 4.26174 9.8363 3.49516 9.03752 3.01589C8.22381 2.52766 7.14809 2.25 6 2.25V3ZM2.25 5.25H1.5V18H2.25H3V5.25H2.25ZM6 20.25V21H20.25V20.25V19.5H6V20.25ZM21.75 18.75H22.5V8.25H21.75H21V18.75H21.75ZM9.75 18H10.5V6.75H9.75H9V18H9.75ZM9.75 6.75H10.5V5.25H9.75H9V6.75H9.75ZM20.25 20.25V21C21.4926 21 22.5 19.9926 22.5 18.75H21.75H21C21 19.1642 20.6642 19.5 20.25 19.5V20.25ZM13.5 6.75V6H9.75V6.75V7.5H13.5V6.75Z" fill="black"/>
</svg>
