<svg width="24" height="24" viewBox="0 0 24 24" fill="none" xmlns="http://www.w3.org/2000/svg">
<path d="M7.49998 11.5V7.5C7.49998 6.94772 7.94769 6.5 8.49998 6.5H15.5C16.0523 6.5 16.5 6.94772 16.5 7.5V13.7971M7.49998 11.5V16.5C7.49998 17.0523 7.94769 17.5 8.49998 17.5H15.5C16.0523 17.5 16.5 17.0523 16.5 16.5V13.7971M7.49998 11.5H7.71704C8.9501 11.5 10.1327 12.0195 11.0046 12.9443C12.4629 14.491 14.6999 14.8282 16.5 13.7971M20.6933 14.3292C19.4068 19.1304 14.4718 21.9796 9.6706 20.6931C4.86941 19.4066 2.02017 14.4716 3.30664 9.67042C4.59312 4.86923 9.52815 2.01998 14.3293 3.30646C19.1305 4.59294 21.9798 9.52797 20.6933 14.3292ZM13 11C13.5523 11 14 10.5523 14 10C14 9.44772 13.5523 9 13 9C12.4477 9 12 9.44772 12 10C12 10.5523 12.4477 11 13 11Z" stroke="black" stroke-width="1.5" stroke-linecap="round"/>
</svg>
