<svg width="24" height="24" viewBox="0 0 24 24" fill="none" xmlns="http://www.w3.org/2000/svg">
<path d="M9.5 17.9998C9.5 16.9997 8.5 15.9998 6.5 15.9998C4.5 15.9998 3.5 16.9998 3.5 17.9998M9.5 17.9998C9.5 18.9998 8.5 19.9998 6.5 19.9998M9.5 17.9998L9.5 7.99977M6.5 19.9998C4.5 19.9998 3.5 18.9997 3.5 17.9998M6.5 19.9998L20.4 19.9997C20.4552 19.9997 20.5 19.955 20.5 19.8997V10.4998M3.5 17.9998L3.5 5.99977C3.5 4.99978 4.5 3.99978 6.5 3.99978C8.5 3.99978 9.5 4.99978 9.5 5.99977V7.99977M9.5 7.99977L14.5 7.99977M15.9903 5.59782L16.0388 5.60753C17.2264 5.84505 18.1547 6.77334 18.3922 7.96093L18.4019 8.00947C18.4234 8.11666 18.5766 8.11666 18.5981 8.00947L18.6078 7.96093C18.8453 6.77334 19.7736 5.84505 20.9612 5.60753L21.0097 5.59783C21.1169 5.57639 21.1169 5.42315 21.0097 5.40171L20.9612 5.392C19.7736 5.15448 18.8453 4.22619 18.6078 3.03861L18.5981 2.99006C18.5766 2.88287 18.4234 2.88287 18.4019 2.99006L18.3922 3.03861C18.1547 4.22619 17.2264 5.15448 16.0388 5.392L15.9903 5.40171C15.8831 5.42315 15.8831 5.57639 15.9903 5.59782ZM12.9903 13.0978L13.0388 13.1075C14.2264 13.3451 15.1547 14.2733 15.3922 15.4609L15.4019 15.5095C15.4234 15.6167 15.5766 15.6167 15.5981 15.5095L15.6078 15.4609C15.8453 14.2733 16.7736 13.3451 17.9612 13.1075L18.0097 13.0978C18.1169 13.0764 18.1169 12.9231 18.0097 12.9017L17.9612 12.892C16.7736 12.6545 15.8453 11.7262 15.6078 10.5386L15.5981 10.4901C15.5766 10.3829 15.4234 10.3829 15.4019 10.4901L15.3922 10.5386C15.1547 11.7262 14.2264 12.6545 13.0388 12.892L12.9903 12.9017C12.8831 12.9231 12.8831 13.0764 12.9903 13.0978Z" stroke="black" stroke-width="1.5" stroke-linecap="round"/>
</svg>
