<svg width="24" height="24" viewBox="0 0 24 24" fill="none" xmlns="http://www.w3.org/2000/svg">
<path d="M15.8333 5L15.6392 3.8356C15.5589 3.35341 15.1417 3 14.6528 3H9.34709C8.85825 3 8.44106 3.35341 8.3607 3.8356L7.58216 8.5068C7.53913 8.76498 7.73823 9 7.99996 9M15.8333 5H17.5C18.3284 5 19 5.67157 19 6.5C19 7.32843 18.3284 8 17.5 8H16.3333M15.8333 5L16.3333 8M16.3333 8L16.4178 8.5068C16.4608 8.76498 16.2617 9 16 9M16 9H7.99996M16 9V19.9998C16 20.5521 15.5522 20.9998 15 20.9998H8.99996C8.44768 20.9998 7.99996 20.5521 7.99996 19.9998V9" stroke="black" stroke-width="1.5"/>
</svg>
