<svg width="24" height="24" viewBox="0 0 24 24" fill="none" xmlns="http://www.w3.org/2000/svg">
<path d="M6.75002 9.75V20.25C6.75002 21.0784 7.42159 21.75 8.25002 21.75H15C15.8284 21.75 16.5 21.0784 16.5 20.25V9.75M6.75002 9.75H16.5M6.75002 9.75C5.97402 9.75 5.39201 9.04006 5.5442 8.27913L6.50886 3.45583C6.64908 2.75469 7.26471 2.25 7.97973 2.25H15.2703C15.9853 2.25 16.601 2.75469 16.7412 3.45583L16.8 3.75M16.5 9.75C17.276 9.75 17.858 9.04006 17.7058 8.27913L17.55 7.5M16.8 3.75H18.375C19.4106 3.75 20.25 4.58947 20.25 5.625C20.25 6.66053 19.4106 7.5 18.375 7.5H17.55M16.8 3.75L17.55 7.5" stroke="black" stroke-width="1.5" stroke-linecap="round" stroke-linejoin="round"/>
</svg>
