<svg width="24" height="24" viewBox="0 0 24 24" fill="none" xmlns="http://www.w3.org/2000/svg">
<path d="M6 19H4.5C4.22386 19 4 18.7761 4 18.5L4.54932 9.98548C4.80279 6.05682 8.06317 3 12 3C15.9368 3 19.1972 6.05682 19.4507 9.98548L19.6634 13.2834M6 19V20C6 20.5523 6.44772 21 7 21H14M6 19H13.1M18 18V15.5M18 18H20.5M18 18H15.5M18 18V20.5M16.0891 13.3782C16.6778 13.1345 17.3232 13 18 13C18.5832 13 19.1431 13.0998 19.6634 13.2834M16.0891 13.3782C16.6629 12.5643 17 11.5715 17 10.5C17 7.73858 14.7614 5.5 12 5.5C9.23858 5.5 7 7.73858 7 10.5C7 13.2614 9.23858 15.5 12 15.5C12.6768 15.5 13.3222 15.3655 13.9109 15.1218M16.0891 13.3782C15.2078 13.7429 14.4535 14.3524 13.9109 15.1218M13.9109 15.1218C13.3371 15.9357 13 16.9285 13 18C13 18.3425 13.0344 18.6769 13.1 19M13.1 19C13.25 19.739 13.5632 20.4186 14 21M14 21C14.9122 22.2143 16.3643 23 18 23C20.7614 23 23 20.7614 23 18C23 15.8218 21.6071 13.9689 19.6634 13.2834M11.5 12.5L14 10C14.4142 9.58579 14.4142 8.91421 14 8.5C13.5858 8.08579 12.9142 8.08579 12.5 8.5L10 11C9.58579 11.4142 9.58579 12.0858 10 12.5C10.4142 12.9142 11.0858 12.9142 11.5 12.5Z" stroke="black" stroke-width="1.5" stroke-linecap="round"/>
</svg>
