<svg width="24" height="24" viewBox="0 0 24 24" fill="none" xmlns="http://www.w3.org/2000/svg">
<path d="M18 19H19.5C19.7761 19 20 18.7761 20 18.5L19.4507 9.98548C19.1972 6.05682 15.9368 3 12 3C8.06317 3 4.80279 6.05682 4.54932 9.98548L4 18.5C4 18.7761 4.22386 19 4.5 19H6M18 19V20C18 20.5523 17.5523 21 17 21H7C6.44772 21 6 20.5523 6 20V19M18 19H6M12 15.5C9.23858 15.5 7 13.2614 7 10.5C7 7.73858 9.23858 5.5 12 5.5C14.7614 5.5 17 7.73858 17 10.5C17 13.2614 14.7614 15.5 12 15.5ZM11.5 12.5L14 10C14.4142 9.58579 14.4142 8.91421 14 8.5C13.5858 8.08579 12.9142 8.08579 12.5 8.5L10 11C9.58579 11.4142 9.58579 12.0858 10 12.5C10.4142 12.9142 11.0858 12.9142 11.5 12.5Z" stroke="black" stroke-width="1.5" stroke-linecap="round"/>
</svg>
