<svg width="24" height="24" viewBox="0 0 24 24" fill="none" xmlns="http://www.w3.org/2000/svg">
<path d="M12 12.5001L4.00001 12.5002C3.44772 12.5002 3 12.0525 3 11.5002V11.0002C3 10.4479 3.44771 10.0002 3.99999 10.0002L12 10.0001M12 12.5001L16 12.5C16.5523 12.5 17 12.0523 17 11.5V11C17 10.4477 16.5523 10 16 10L12 10.0001M12 12.5001V10.0001M12 12.5001V15.0002M12 10.0001V8M12 17.5002H8C7.44771 17.5002 7 17.0525 7 16.5002L7 16.0002C7 15.4479 7.44771 15.0002 8 15.0002H12M12 17.5002H20C20.5523 17.5002 21 17.0525 21 16.5002L21 16.0002C21 15.4479 20.5523 15.0002 20 15.0002H12M12 17.5002V15.0002M12 17.5002V21M12 8L10.2929 6.29289C10.1054 6.10536 10 5.851 10 5.58579V4C10 3.44772 10.4477 3 11 3H13C13.5523 3 14 3.44772 14 4V5.58579C14 5.851 13.8946 6.10536 13.7071 6.29289L12 8Z" stroke="black" stroke-width="1.5" stroke-linecap="round"/>
</svg>
