<svg width="24" height="24" viewBox="0 0 24 24" fill="none" xmlns="http://www.w3.org/2000/svg">
<path d="M7 16C8.38071 16 9.5 13.3137 9.5 10C9.5 6.68629 8.38071 4 7 4M7 16C5.61929 16 4.5 13.3137 4.5 10M7 16H17.5M4.5 10C4.5 6.68629 5.61929 4 7 4M4.5 10V19C4.5 19.5523 4.94772 20 5.5 20H16.5C17.0523 20 17.5 19.5523 17.5 19V16M7 4H17.5C18.8807 4 20 6.68629 20 10C20 13.3137 18.8807 16 17.5 16M7.5 10C7.5 10.8284 7.27614 11.5 7 11.5C6.72386 11.5 6.5 10.8284 6.5 10C6.5 9.17157 6.72386 8.5 7 8.5C7.27614 8.5 7.5 9.17157 7.5 10Z" stroke="black" stroke-width="1.5" stroke-linecap="round"/>
</svg>
