<svg width="24" height="24" viewBox="0 0 24 24" fill="none" xmlns="http://www.w3.org/2000/svg">
<path d="M11.5001 11L13.0001 12.5M11.5001 11L12.75 9.75003M11.5001 11C11.2093 10.7093 10.7538 10.6642 10.4117 10.8922L8.90003 11.9M13.0001 12.5L14.25 11.25M13.0001 12.5C13.2908 12.7907 13.3359 13.2463 13.1078 13.5884L12.1 15.1M12.75 9.75003L11.29 8.29004C11.0465 8.04652 10.9548 7.69541 10.9847 7.35234C10.9948 7.23624 11 7.11873 11 7C11 4.79086 9.20914 3 7 3H6.70711C6.5745 3 6.44732 3.05268 6.35355 3.14645C6.15829 3.34171 6.15829 3.65829 6.35355 3.85355L8.45996 5.95996C8.4848 5.9848 8.49479 6.02085 8.48627 6.05493L8.01455 7.94179C8.0056 7.97762 7.97762 8.0056 7.94179 8.01455L6.05493 8.48627C6.02085 8.49479 5.9848 8.4848 5.95996 8.45996L3.85355 6.35355C3.65829 6.15829 3.34171 6.15829 3.14645 6.35355C3.05268 6.44732 3 6.5745 3 6.70711V7C3 9.20914 4.79086 11 7 11C7.11872 11 7.23624 10.9948 7.35233 10.9847C7.69541 10.9548 8.04652 11.0465 8.29004 11.29L8.90003 11.9M12.75 9.75003L16.4142 6.08578C16.7893 5.71071 17 5.20201 17 4.67158C17 4.56513 17.0559 4.46649 17.1471 4.41172L19.433 3.04017C19.4724 3.01656 19.5228 3.02276 19.5552 3.05521L20.9448 4.44479C20.9772 4.47724 20.9834 4.5276 20.9598 4.56695L19.5883 6.85289C19.5335 6.94416 19.4349 7 19.3284 7C18.798 7 18.2893 7.21072 17.9142 7.5858L14.25 11.25M14.25 11.25L15.71 12.71C15.9535 12.9535 16.3046 13.0452 16.6477 13.0153C16.7638 13.0052 16.8813 13 17 13C19.2091 13 21 14.7909 21 17V17.2929C21 17.4255 20.9473 17.5527 20.8536 17.6464C20.6583 17.8417 20.3417 17.8417 20.1464 17.6465L18.04 15.54C18.0152 15.5152 17.9791 15.5052 17.9451 15.5137L16.0582 15.9854C16.0224 15.9944 15.9944 16.0224 15.9854 16.0582L15.5137 17.9451C15.5052 17.9792 15.5152 18.0152 15.54 18.04L17.6464 20.1465C17.8417 20.3417 17.8417 20.6583 17.6464 20.8536C17.5527 20.9473 17.4255 21 17.2929 21H17C14.7909 21 13 19.2091 13 17C13 16.8813 13.0052 16.7638 13.0153 16.6477C13.0452 16.3046 12.9535 15.9535 12.71 15.71L12.1 15.1M12.1 15.1L11.7097 15.6855C10.2617 17.8575 8.27195 19.6141 5.93711 20.7815C5.67611 20.912 5.36089 20.8608 5.15456 20.6545L3.34562 18.8455C3.13926 18.6392 3.0881 18.3239 3.21862 18.0629C4.38602 15.7281 6.14252 13.7384 8.31448 12.2904L8.90003 11.9" stroke="black" stroke-width="1.5" stroke-linecap="round"/>
</svg>
