<svg width="24" height="24" viewBox="0 0 24 24" fill="none" xmlns="http://www.w3.org/2000/svg">
<path d="M13.5333 3.40972C16.1532 1.96182 19.1031 4.57735 18.3927 7.71829L17.2885 11.0866C16.8024 12.5692 16.504 14.1189 16.4017 15.6917L16.187 18.9929C16.0565 19.9305 14.8666 20.0219 14.62 19.1133C14.393 18.2771 13.5319 16.5338 12.7727 15.1913C12.4159 14.5601 11.5843 14.5601 11.2274 15.1913C10.4954 16.4858 9.62123 18.634 9.42591 20.1452C9.27509 21.3122 7.7388 21.2723 7.63768 20.0988L7.4442 16.9566C7.4442 16.9566 6.93563 13.1455 6.53303 11.8105L5.60745 7.71829C4.89702 4.57735 7.84691 1.96182 10.4668 3.40972C11.432 3.94315 12.5681 3.94315 13.5333 3.40972ZM13.5333 3.40972C12.5679 3.94324 10.1777 5.49575 10.1777 7.85466" stroke="black" stroke-width="1.5" stroke-linecap="round"/>
</svg>
