<svg width="24" height="24" viewBox="0 0 24 24" fill="none" xmlns="http://www.w3.org/2000/svg">
<path d="M13.5333 3.40972C16.1532 1.96182 19.1031 4.57735 18.3927 7.71829L17.2885 11.0866C17.066 11.7651 16.8829 12.4577 16.7399 13.1602M13.5333 3.40972C12.5681 3.94315 11.432 3.94315 10.4668 3.40972C7.84691 1.96182 4.89702 4.57735 5.60745 7.71829L6.53303 11.8105C6.93563 13.1455 7.4442 16.9566 7.4442 16.9566L7.63768 20.0988C7.7388 21.2723 9.27509 21.3122 9.42591 20.1452C9.62123 18.634 10.4954 16.4858 11.2274 15.1913C11.5843 14.5601 12.4159 14.5601 12.7727 15.1913C12.9556 15.5147 13.1444 15.8613 13.3288 16.213M13.5333 3.40972C12.5679 3.94324 10.1777 5.49575 10.1777 7.85466M16 18L17.4293 19.4293C17.4684 19.4683 17.5317 19.4683 17.5707 19.4293L20 17M16.7399 13.1602C17.1424 13.0556 17.5647 13 18 13C20.7615 13 23 15.2386 23 18C23 20.7614 20.7615 23 18 23C15.2386 23 13 20.7614 13 18C13 17.3704 13.1164 16.7679 13.3288 16.213M16.7399 13.1602C15.1708 13.5675 13.9012 14.7178 13.3288 16.213" stroke="black" stroke-width="1.5" stroke-linecap="round"/>
</svg>
