<svg width="24" height="24" viewBox="0 0 24 24" fill="none" xmlns="http://www.w3.org/2000/svg">
<path d="M15 12.054C14.4028 12.5627 13.4638 13 12 13C10.5362 13 9.5972 12.5627 9 12.054M15 12.054C15.8308 11.3462 16 10.5 16 10.5M15 12.054C15 12.054 14.7713 10.5 12 10.5C9.22873 10.5 9 12.054 9 12.054M8 10.5C8 10.5 8.16924 11.3462 9 12.054M21 12C21 15.866 16.9706 19 12 19C7.02944 19 3 15.866 3 12C3 8.13401 7.02944 5 12 5C16.9706 5 21 8.13401 21 12Z" stroke="black" stroke-width="1.5" stroke-linecap="round"/>
</svg>
