<svg width="24" height="24" viewBox="0 0 24 24" fill="none" xmlns="http://www.w3.org/2000/svg">
<path d="M13.5 17.5H18.882C19.8736 17.5 20.7802 16.9397 21.2236 16.0528L21.2368 16.0264C21.4099 15.6802 21.5 15.2985 21.5 14.9115C21.5 14.0358 21.0406 13.2243 20.2897 12.7738L14.785 9.47101C12.6355 8.18128 10.1758 7.5 7.66907 7.5H6.50002M13.5 17.5H9.50002M13.5 17.5C13.5 18.6046 12.6046 19.5 11.5 19.5M9.50002 17.5H5.50002M9.50002 17.5C9.50002 18.6046 8.60459 19.5 7.50002 19.5M9.50002 17.5C9.50002 18.6046 10.3955 19.5 11.5 19.5M5.50002 17.5H3.00002M5.50002 17.5C5.50002 18.6046 6.39545 19.5 7.50002 19.5M3.00002 12.5H13.1375C13.5623 12.5 13.7369 11.9549 13.3913 11.708C11.8361 10.5972 9.97262 10 8.06143 10H3.00002M21.5 19.5H11.5M11.5 19.5H7.50002M7.50002 19.5H3.00002M6.50002 7.5H3.00002M6.50002 7.5V5M6.50002 5H8.76395C8.9192 5 9.07231 5.03615 9.21117 5.10557L10 5.5M6.50002 5H4.23609C4.08085 5 3.92773 5.03615 3.78888 5.10557L3.00002 5.5" stroke="black" stroke-width="1.5" stroke-linecap="round"/>
</svg>
