<svg width="24" height="24" viewBox="0 0 24 24" fill="none" xmlns="http://www.w3.org/2000/svg">
<path d="M14 8V4C14 3.44772 13.5523 3 13 3H4C3.44772 3 3 3.44771 3 4V13C3 13.5523 3.44772 14 4 14H8M12.5 13.5H15.5M15.5 13.5H17M15.5 13.5L15.125 12M17 13.5H18.5M17 13.5C17 14.7283 16.6228 16.3338 15.5209 17.3899M15.5209 17.3899C14.8575 16.7919 14.4395 16.0635 14.193 15.5M15.5209 17.3899C14.9172 17.9685 14.096 18.3822 13 18.4786M15.5209 17.3899C16.1251 17.9346 16.9329 18.371 18 18.4759M5.71429 10L7.17509 5.90974C7.36994 5.36418 7.88671 5 8.46602 5C9.07804 5 9.61592 5.40572 9.78406 5.9942L10.3571 8M5.71429 10H8M5.71429 10L5.17857 11.5M20 21H11C10.4477 21 10 20.5523 10 20V11C10 10.4477 10.4477 10 11 10H20C20.5523 10 21 10.4477 21 11V20C21 20.5523 20.5523 21 20 21Z" stroke="black" stroke-width="1.5" stroke-linecap="round"/>
</svg>
