<svg width="24" height="24" viewBox="0 0 24 24" fill="none" xmlns="http://www.w3.org/2000/svg">
<path d="M5.5271 8.26041C4.01202 9.18127 3 10.8474 3 12.75C3 15.6495 5.35051 18 8.25 18C9.61697 18 10.8619 17.4776 11.7961 16.6215C11.8512 16.571 11.9303 16.5558 12 16.5828M5.5271 8.26041C5.50919 8.09273 5.5 7.92244 5.5 7.75C5.5 5.12665 7.62665 3 10.25 3C11.6265 3 12.8662 3.58549 13.7337 4.52102M5.5271 8.26041C6.25428 7.81844 7.09733 7.54817 8 7.50585M12 16.5828C12.6981 16.8522 13.4568 17 14.25 17H14.75C18.2018 17 21 14.2018 21 10.75C21 7.29822 18.2018 4.5 14.75 4.5H14.25C14.0762 4.5 13.904 4.5071 13.7337 4.52102M12 16.5828V21M12 16.5828V15.5M13.7337 4.52102C12.7382 4.60242 11.8087 4.91714 11 5.4104M12 15.5H13C14.1046 15.5 15 14.6046 15 13.5V13M12 15.5V13M12 13V11.5M12 13H9.5" stroke="black" stroke-width="1.5" stroke-linecap="round"/>
</svg>
