<svg width="24" height="24" viewBox="0 0 24 24" fill="none" xmlns="http://www.w3.org/2000/svg">
<path d="M6.91013 12.6817C6.94681 12.6074 7.0528 12.6074 7.08948 12.6817L8.17537 14.882L10.6035 15.2348C10.6855 15.2467 10.7183 15.3475 10.6589 15.4054L8.90192 17.1181L9.31669 19.5364C9.3307 19.6181 9.24496 19.6804 9.1716 19.6418L6.9998 18.5L4.82801 19.6418C4.75465 19.6804 4.6689 19.6181 4.68291 19.5364L5.09769 17.1181L3.34067 15.4054C3.28132 15.3475 3.31407 15.2467 3.39609 15.2348L5.82423 14.882L6.91013 12.6817Z" stroke="black" stroke-width="1.5" stroke-linecap="round"/>
<path d="M16.9101 12.6817C16.9468 12.6074 17.0528 12.6074 17.0895 12.6817L18.1754 14.882L20.6035 15.2348C20.6855 15.2467 20.7183 15.3475 20.6589 15.4054L18.9019 17.1181L19.3167 19.5364C19.3307 19.6181 19.245 19.6804 19.1716 19.6418L16.9998 18.5L14.828 19.6418C14.7546 19.6804 14.6689 19.6181 14.6829 19.5364L15.0977 17.1181L13.3407 15.4054C13.2813 15.3475 13.3141 15.2467 13.3961 15.2348L15.8242 14.882L16.9101 12.6817Z" stroke="black" stroke-width="1.5" stroke-linecap="round"/>
<path d="M11.9101 3.68172C11.9468 3.6074 12.0528 3.6074 12.0895 3.68172L13.1754 5.88199L15.6035 6.23482C15.6855 6.24674 15.7183 6.34753 15.6589 6.40539L13.9019 8.11806L14.3167 10.5364C14.3307 10.6181 14.245 10.6804 14.1716 10.6418L11.9998 9.50002L9.82801 10.6418C9.75465 10.6804 9.6689 10.6181 9.68291 10.5364L10.0977 8.11806L8.34067 6.40539C8.28132 6.34753 8.31407 6.24674 8.39609 6.23482L10.8242 5.88199L11.9101 3.68172Z" stroke="black" stroke-width="1.5" stroke-linecap="round"/>
</svg>
