<svg width="24" height="24" viewBox="0 0 24 24" fill="none" xmlns="http://www.w3.org/2000/svg">
<path d="M9.49982 17.25C9.49982 18.2165 8.71632 19 7.74982 19C6.78332 19 5.99982 18.2165 5.99982 17.25M9.49982 17.25C9.49982 16.2835 8.71632 15.5 7.74982 15.5C6.78332 15.5 5.99982 16.2835 5.99982 17.25M9.49982 17.25L15 17.25M5.99982 17.25L4.00001 17.25C3.44772 17.25 3 16.8023 3 16.25V7C3 6.44771 3.44772 6 4 6H14C14.5523 6 15 6.44772 15 7V10.5M19.9998 17.25C19.9998 18.2165 19.2163 19 18.2498 19C17.2833 19 16.4998 18.2165 16.4998 17.25M19.9998 17.25C19.9998 16.2835 19.2163 15.5 18.2498 15.5C17.2833 15.5 16.4998 16.2835 16.4998 17.25M19.9998 17.25L20.4998 17.25C21.0521 17.25 21.4998 16.8023 21.4998 16.25V13.8027C21.4998 13.6053 21.4414 13.4123 21.3319 13.248L19.7967 10.9453C19.6112 10.6671 19.299 10.5 18.9646 10.5H15M16.4998 17.25H15M15 17.25V10.5" stroke="black" stroke-width="1.5" stroke-linecap="round"/>
</svg>
