<svg width="24" height="24" viewBox="0 0 24 24" fill="none" xmlns="http://www.w3.org/2000/svg">
<path d="M7.99997 17.9999V18.9999C7.99997 20.1045 8.8954 20.9999 9.99997 20.9999C11.1045 20.9999 12 20.1045 12 18.9999V10.0277M12 10.0277C12.8044 10.0277 13.6087 10.1894 14.3634 10.5128L15.4573 10.9816C15.4844 10.9932 15.5151 10.9923 15.5415 10.9792L15.8923 10.8038C17.4637 10.0181 19.318 10.0618 20.847 10.9116C20.915 10.9493 20.9999 10.901 20.999 10.8233C20.9917 10.2163 20.9429 9.60816 20.7644 9.02854C20.0716 6.77875 18.3881 4.89533 15.0725 3.75574C13.0897 3.07426 10.9103 3.07426 8.92747 3.75574C5.6118 4.89533 3.92833 6.77875 3.23553 9.02854C3.05705 9.60816 3.00822 10.2163 3.00098 10.8233C3.00006 10.901 3.08497 10.9493 3.15291 10.9116C4.68194 10.0618 6.53627 10.0181 8.10764 10.8038L8.45849 10.9792C8.4848 10.9923 8.51556 10.9932 8.5426 10.9816L9.63658 10.5128C10.3912 10.1894 11.1956 10.0277 12 10.0277Z" stroke="black" stroke-width="1.5" stroke-linecap="round"/>
</svg>
