<svg width="24" height="24" viewBox="0 0 24 24" fill="none" xmlns="http://www.w3.org/2000/svg">
<path d="M12 14C8.96243 14 6.5 11.5376 6.5 8.5C6.5 5.46243 8.96243 3 12 3C15.0376 3 17.5 5.46243 17.5 8.5C17.5 11.5376 15.0376 14 12 14ZM12 14H9C6.23858 14 4 16.2386 4 19V20C4 20.5523 4.44772 21 5 21H13.9996M12 14H14.9995M14.9995 14C13.7853 14.9122 13 16.3644 13 18C13 19.1256 13.3719 20.1643 13.9996 21M14.9995 14C15.8353 13.3721 16.8742 13 18 13C20.7614 13 23 15.2386 23 18C23 20.7614 20.7614 23 18 23C16.3642 23 14.9118 22.2144 13.9996 21M16 18L17.4293 19.4293C17.4683 19.4683 17.5317 19.4683 17.5707 19.4293L20 17" stroke="black" stroke-width="1.5" stroke-linecap="round"/>
</svg>
