<svg width="24" height="24" viewBox="0 0 24 24" fill="none" xmlns="http://www.w3.org/2000/svg">
<path d="M9 9C5.68629 9 3 11.6863 3 15C3 16.5669 3.60065 17.9936 4.58426 19.0622M9 9C9 5.68629 11.6863 3 15 3C18.3137 3 21 5.68629 21 9C21 10.5669 20.3993 11.9936 19.4157 13.0622M9 9C10.7796 9 12.3782 9.77473 13.477 11.0053M9 17C7.34315 17 6 15.6569 6 14C6 12.3431 7.34315 11 9 11C10.6569 11 12 12.3431 12 14C12 15.6569 10.6569 17 9 17ZM9 17H10.3333C11.4335 17 12.4092 17.533 13.0163 18.3548M9 17H7.66667C6.27583 17 5.08395 17.8518 4.58426 19.0622M4.58426 19.0622C5.68078 20.2535 7.25322 21 9 21C10.622 21 12.0936 20.3564 13.1735 19.3106M15 11C13.3431 11 12 9.65685 12 8C12 6.34315 13.3431 5 15 5C16.6569 5 18 6.34315 18 8C18 9.65685 16.6569 11 15 11ZM15 11H16.3333C17.7242 11 18.916 11.8518 19.4157 13.0622M15 11H13.6667C13.603 11 13.5397 11.0018 13.477 11.0053M19.4157 13.0622C19.3812 13.0998 19.3461 13.1369 19.3106 13.1735M13.477 11.0053C14.2259 11.8441 14.7427 12.8947 14.9262 14.0562M23 18C23 20.7614 20.7614 23 18 23M23 18C23 15.6921 21.4363 13.7494 19.3106 13.1735M23 18C23 15.2386 20.7614 13 18 13M18 23C15.6921 23 13.7494 21.4363 13.1735 19.3106M18 23C15.2386 23 13 20.7614 13 18M13 18C13 18.4535 13.0604 18.8929 13.1735 19.3106M13 18C13 16.3976 13.7538 14.9712 14.9262 14.0562M13 18C13 15.2386 15.2386 13 18 13M18 13C18.4535 13 18.8929 13.0604 19.3106 13.1735M18 13C16.841 13 15.7741 13.3943 14.9262 14.0562M16.5 17.5H16.1C16.0448 17.5 16 17.5448 16 17.6V19.9C16 19.9552 16.0448 20 16.1 20H19.9C19.9552 20 20 19.9552 20 19.9V17.6C20 17.5448 19.9552 17.5 19.9 17.5H19.5M16.5 17.5V16.5C16.5 15.6716 17.1716 15 18 15C18.8284 15 19.5 15.6716 19.5 16.5V17.5M16.5 17.5H19.5" stroke="black" stroke-width="1.5" stroke-linecap="round"/>
</svg>
