<svg width="24" height="24" viewBox="0 0 24 24" fill="none" xmlns="http://www.w3.org/2000/svg">
<path d="M12 14C8.96243 14 6.5 11.5376 6.5 8.5C6.5 5.46243 8.96243 3 12 3C15.0376 3 17.5 5.46243 17.5 8.5C17.5 11.5376 15.0376 14 12 14ZM12 14H9C6.23858 14 4 16.2386 4 19V20C4 20.5523 4.44772 21 5 21H13.9996M12 14H15M23 18C23 20.7614 20.7614 23 18 23M23 18C23 15.2386 20.7614 13 18 13M23 18C23 17.1336 22.7796 16.3186 22.3919 15.6081M18 23C16.3642 23 14.9118 22.2144 13.9996 21M18 23C15.2386 23 13 20.7614 13 18M13 18C13 15.2386 15.2386 13 18 13M13 18C13 19.1256 13.3719 20.1643 13.9996 21M18 13C18.8664 13 19.6814 13.2204 20.3919 13.6081M20.3919 13.6081C21.2353 14.0685 21.9315 14.7647 22.3919 15.6081M20.3919 13.6081L16.2929 17.7071C16.1054 17.8946 16 18.149 16 18.4142V19.9C16 19.9552 16.0448 20 16.1 20H17.5858C17.851 20 18.1054 19.8946 18.2929 19.7071L22.3919 15.6081" stroke="black" stroke-width="1.5" stroke-linecap="round"/>
</svg>
