<svg width="24" height="24" viewBox="0 0 24 24" fill="none" xmlns="http://www.w3.org/2000/svg">
<path d="M12 15C9.51472 15 7.5 12.9853 7.5 10.5C7.5 8.01472 9.51472 6 12 6C14.4853 6 16.5 8.01472 16.5 10.5C16.5 12.9853 14.4853 15 12 15ZM12 15H14C16.0863 15 17.8741 16.2777 18.6236 18.0933M12 15H10C7.91375 15 6.12592 16.2777 5.37639 18.0933M18.6236 18.0933C20.099 16.4903 21 14.3504 21 12C21 7.02944 16.9706 3 12 3C7.02944 3 3 7.02944 3 12C3 14.3504 3.90097 16.4903 5.37639 18.0933M18.6236 18.0933C16.9788 19.8803 14.6202 21 12 21C9.37983 21 7.02117 19.8803 5.37639 18.0933" stroke="black" stroke-width="1.5" stroke-linecap="round"/>
</svg>
