<svg width="24" height="24" viewBox="0 0 24 24" fill="none" xmlns="http://www.w3.org/2000/svg">
<path d="M15 15C15 16.5669 14.3994 17.9936 13.4157 19.0622M15 15C16.7468 15 18.3192 14.2535 19.4157 13.0622M15 15C15 13.4659 14.4242 12.0662 13.477 11.0053M9 9C5.68629 9 3 11.6863 3 15C3 16.5669 3.60065 17.9936 4.58426 19.0622M9 9C9 5.68629 11.6863 3 15 3C18.3137 3 21 5.68629 21 9C21 10.5669 20.3993 11.9936 19.4157 13.0622M9 9C10.7796 9 12.3782 9.77473 13.477 11.0053M9 17C7.34315 17 6 15.6569 6 14C6 12.3431 7.34315 11 9 11C10.6569 11 12 12.3431 12 14C12 15.6569 10.6569 17 9 17ZM9 17H10.3333C11.7242 17 12.9161 17.8518 13.4157 19.0622M9 17H7.66667C6.27583 17 5.08395 17.8518 4.58426 19.0622M13.4157 19.0622C12.3192 20.2535 10.7468 21 9 21C7.25322 21 5.68078 20.2535 4.58426 19.0622M15 11C13.3431 11 12 9.65685 12 8C12 6.34315 13.3431 5 15 5C16.6569 5 18 6.34315 18 8C18 9.65685 16.6569 11 15 11ZM15 11H16.3333C17.7242 11 18.916 11.8518 19.4157 13.0622M15 11H13.6667C13.603 11 13.5397 11.0018 13.477 11.0053" stroke="black" stroke-width="1.5" stroke-linecap="round"/>
</svg>
