<svg width="24" height="24" viewBox="0 0 24 24" fill="none" xmlns="http://www.w3.org/2000/svg">
<path d="M12 14C8.96243 14 6.5 11.5376 6.5 8.5C6.5 5.46243 8.96243 3 12 3C15.0376 3 17.5 5.46243 17.5 8.5C17.5 11.5376 15.0376 14 12 14ZM12 14H9C6.23858 14 4 16.2386 4 19V20C4 20.5523 4.44772 21 5 21H13.9996M12 14H15M18 23C20.7614 23 23 20.7614 23 18C23 15.2386 20.7614 13 18 13C15.2386 13 13 15.2386 13 18M18 23C16.3642 23 14.9118 22.2144 13.9996 21M18 23C15.2386 23 13 20.7614 13 18M13 18C13 19.1256 13.3719 20.1643 13.9996 21M15.5 18H20.5" stroke="black" stroke-width="1.5" stroke-linecap="round"/>
</svg>
