<svg width="24" height="24" viewBox="0 0 24 24" fill="none" xmlns="http://www.w3.org/2000/svg">
<path d="M10 14C7.23858 14 5 11.7614 5 9C5 6.23858 7.23858 4 10 4C10.7111 4 11.3875 4.14845 12 4.41604M10 14H12M10 14H8C5.23858 14 3 16.2386 3 19C3 19.5523 3.44772 20 4 20H13.416M10 14C10.7111 14 11.3875 13.8516 12 13.584C13.7659 12.8124 15 11.0503 15 9C15 6.94968 13.7659 5.1876 12 4.41604M12 14H14M12 14C12.8487 14 13.6481 14.2115 14.3482 14.5846M14 14H14.9995M14 14C14.4152 14 14.8186 13.9494 15.2043 13.854M12 4.41604C12.6125 4.14845 13.2889 4 14 4C16.7614 4 19 6.23858 19 9C19 10.7258 18.1256 12.2475 16.7957 13.146M18 18V15.5M18 18H20.5M18 18V20.5M18 18H15.5M16.7957 13.146C17.1814 13.0506 17.5848 13 18 13C20.7614 13 23 15.2386 23 18C23 20.7614 20.7614 23 18 23C15.9497 23 14.1876 21.7659 13.416 20M16.7957 13.146C16.2193 13.2885 15.6824 13.531 15.2043 13.854M14.9995 14C14.7657 14.1757 14.5477 14.3714 14.3482 14.5846M14.9995 14C15.0665 13.9497 15.1348 13.901 15.2043 13.854M14.3482 14.5846C13.512 15.4784 13 16.6794 13 18C13 18.7111 13.1484 19.3875 13.416 20" stroke="black" stroke-width="1.5" stroke-linecap="round"/>
</svg>
