<svg width="24" height="24" viewBox="0 0 24 24" fill="none" xmlns="http://www.w3.org/2000/svg">
<path d="M12 14C8.96243 14 6.5 11.5376 6.5 8.5C6.5 5.46243 8.96243 3 12 3C15.0376 3 17.5 5.46243 17.5 8.5C17.5 11.5376 15.0376 14 12 14ZM12 14H9C6.23858 14 4 16.2386 4 19V20C4 20.5523 4.44772 21 5 21H13.9996M12 14H14.9995M14.9995 14C13.7853 14.9122 13 16.3644 13 18C13 19.1256 13.3719 20.1643 13.9996 21M14.9995 14C15.8353 13.3721 16.8742 13 18 13C20.7614 13 23 15.2386 23 18C23 20.7614 20.7614 23 18 23C16.3642 23 14.9118 22.2144 13.9996 21M18 16C18.5523 16 19.0523 16.2239 19.4142 16.5858M18 16V15M18 16C17.4477 16 16.9477 16.2239 16.5858 16.5858M19.4142 16.5858C19.7761 16.9477 20 17.4477 20 18M19.4142 16.5858L20 16M20 18H21M20 18C20 18.5523 19.7761 19.0523 19.4142 19.4142M18 20V21M18 20C18.5523 20 19.0523 19.7761 19.4142 19.4142M18 20C17.4477 20 16.9477 19.7761 16.5858 19.4142M16 18H15M16 18C16 17.4477 16.2239 16.9477 16.5858 16.5858M16 18C16 18.5523 16.2239 19.0523 16.5858 19.4142M16.5858 16.5858L16 16M19.4142 19.4142L20 20M16.5858 19.4142L16 20" stroke="black" stroke-width="1.5" stroke-linecap="round"/>
</svg>
