<svg width="24" height="24" viewBox="0 0 24 24" fill="none" xmlns="http://www.w3.org/2000/svg">
<path d="M10 14C7.23858 14 5 11.7614 5 9C5 6.23858 7.23858 4 10 4C10.7111 4 11.3875 4.14845 12 4.41604M10 14H12M10 14H8C5.23858 14 3 16.2386 3 19C3 19.5523 3.44772 20 4 20H17M10 14C10.7111 14 11.3875 13.8516 12 13.584C13.7659 12.8124 15 11.0503 15 9C15 6.94968 13.7659 5.1876 12 4.41604M12 14C14.7614 14 17 16.2386 17 19V20M12 14H14M17 20H20C20.5523 20 21 19.5523 21 19C21 16.2386 18.7614 14 16 14H14M14 14C16.7614 14 19 11.7614 19 9C19 6.23858 16.7614 4 14 4C13.2889 4 12.6125 4.14845 12 4.41604" stroke="black" stroke-width="1.5" stroke-linecap="round"/>
</svg>
