<svg width="24" height="24" viewBox="0 0 24 24" fill="none" xmlns="http://www.w3.org/2000/svg">
<path d="M21 12C21 13.6393 20.5617 15.1762 19.796 16.5C19.0056 17.8663 17.8663 19.0056 16.5 19.796C15.8767 20.1565 15.2062 20.4444 14.5 20.6482M21 12C21 10.3607 20.5617 8.82378 19.796 7.5C19.0056 6.13367 17.8663 4.99442 16.5 4.20404C15.8767 3.8435 15.2062 3.55555 14.5 3.35177M21 12C21 13.3333 19.2 16 12 16C4.8 16 3 13.3333 3 12M3 12C3 13.6393 3.43827 15.1762 4.20404 16.5C4.99442 17.8663 6.13367 19.0056 7.5 19.796C8.82378 20.5617 10.3607 21 12 21C12.8675 21 13.7063 20.8773 14.5 20.6482M3 12C3 10.3607 3.43827 8.82378 4.20404 7.5C4.99442 6.13367 6.13367 4.99442 7.5 4.20404C8.82378 3.43827 10.3607 3 12 3C12.8675 3 13.7063 3.12273 14.5 3.35177M14.5 3.35177C12.3333 2.90118 8 4 8 12C8 20 12.3333 21.0988 14.5 20.6482" stroke="black" stroke-width="1.5"/>
</svg>
