<svg width="24" height="24" viewBox="0 0 24 24" fill="none" xmlns="http://www.w3.org/2000/svg">
<path d="M16.5 8.50035V11.0004M16.5 8.50035C16.5 7.94807 16.9477 7.50035 17.5 7.50035H20C20.5523 7.50035 21 7.94807 21 8.50035V11.0004C21 11.5526 20.5523 12.0004 20 12.0004H17.5C16.9477 12.0004 16.5 11.5526 16.5 11.0004M16.5 8.50035C16.5 7.94807 16.0523 7.50035 15.5 7.50035H13C12.4477 7.50035 12 7.94807 12 8.50035M16.5 11.0004C16.5 11.5526 16.0523 12.0004 15.5 12.0004H13C12.4477 12.0004 12 11.5526 12 11.0004M12 8.50035V11.0004M12 8.50035C12 7.94807 11.5523 7.50035 11 7.50035M12 11.0004C12 11.5526 11.5523 12.0004 11 12.0004M7.5 8.50035V11.0004M7.5 8.50035C7.5 7.94807 7.94772 7.50035 8.5 7.50035M7.5 8.50035C7.5 7.94807 7.05228 7.50035 6.5 7.50035H4C3.44772 7.50035 3 7.94807 3 8.50035V11.0004C3 11.5526 3.44772 12.0004 4 12.0004H6.5C7.05228 12.0004 7.5 11.5526 7.5 11.0004M7.5 11.0004C7.5 11.5526 7.94772 12.0004 8.5 12.0004M8.5 7.50035H11M8.5 7.50035C7.94772 7.50035 7.5 7.05229 7.5 6.50001V4C7.5 3.44772 7.94772 3 8.5 3H11C11.5523 3 12 3.44772 12 4V6.50001C12 7.05229 11.5523 7.50035 11 7.50035M11 12.0004H8.5M11 12.0004C11.5523 12.0004 12 12.4481 12 13.0004V15.5004C12 16.0526 11.5523 16.5007 11 16.5007M8.5 12.0004C7.94772 12.0004 7.5 12.4481 7.5 13.0004V15.5004C7.5 16.0526 7.94772 16.5007 8.5 16.5007M8.5 16.5007H11M8.5 16.5007C7.94772 16.5007 7.5 16.9477 7.5 17.5V20C7.5 20.5523 7.94772 21.0003 8.5 21.0003H11C11.5523 21.0003 12 20.5523 12 20V17.5C12 16.9477 11.5523 16.5007 11 16.5007M14.5 14.5C15.3333 14.6667 17 15.4 17 17C17 18.6 15.6667 19.6667 15 20M15 20V18M15 20H17" stroke="black" stroke-width="1.5" stroke-linecap="round"/>
</svg>
