<svg width="24" height="24" viewBox="0 0 24 24" fill="none" xmlns="http://www.w3.org/2000/svg">
<path d="M15 15V17C15 17.5523 14.5523 18 14 18H8M15 15V9M15 15L20.4108 17.9514C20.4693 17.9833 20.5349 18 20.6016 18C20.8216 18 21 17.8216 21 17.6016V6.39841C21 6.17837 20.8216 6 20.6016 6C20.5349 6 20.4693 6.01673 20.4108 6.04865L15 9M15 9V7.5M18 3L15 7.5M15 7.5L8 18M8 18L6 21M5 18H4C3.44772 18 3 17.5523 3 17V7C3 6.44772 3.44772 6 4 6H13" stroke="black" stroke-width="1.5" stroke-linecap="round"/>
</svg>
