<svg width="24" height="24" viewBox="0 0 24 24" fill="none" xmlns="http://www.w3.org/2000/svg">
<path d="M21.75 5.25H22.5C22.5 5.00113 22.3766 4.76847 22.1705 4.62895C21.9644 4.48943 21.7025 4.46122 21.4715 4.55364L21.75 5.25ZM13.5 9.75C13.5 10.1642 13.8358 10.5 14.25 10.5C14.6642 10.5 15 10.1642 15 9.75H14.25H13.5ZM9.75 4.5C9.33579 4.5 9 4.83579 9 5.25C9 5.66421 9.33579 6 9.75 6V5.25V4.5ZM2.78033 1.71967C2.48744 1.42678 2.01256 1.42678 1.71967 1.71967C1.42678 2.01256 1.42678 2.48744 1.71967 2.78033L2.25 2.25L2.78033 1.71967ZM21.2197 22.2803C21.5126 22.5732 21.9874 22.5732 22.2803 22.2803C22.5732 21.9874 22.5732 21.5126 22.2803 21.2197L21.75 21.75L21.2197 22.2803ZM21 17.25C21 17.6642 21.3358 18 21.75 18C22.1642 18 22.5 17.6642 22.5 17.25H21.75H21ZM2.25 6.75H1.5V17.25H2.25H3V6.75H2.25ZM3.75 18.75V19.5H12.75V18.75V18H3.75V18.75ZM14.25 8.25H15V6.75H14.25H13.5V8.25H14.25ZM14.25 8.25L14.5285 8.94636L22.0285 5.94636L21.75 5.25L21.4715 4.55364L13.9715 7.55364L14.25 8.25ZM14.25 17.25H15V15.75H14.25H13.5V17.25H14.25ZM12.75 5.25V6C13.1642 6 13.5 6.33579 13.5 6.75H14.25H15C15 5.50736 13.9926 4.5 12.75 4.5V5.25ZM12.75 18.75V19.5C13.9926 19.5 15 18.4926 15 17.25H14.25H13.5C13.5 17.6642 13.1642 18 12.75 18V18.75ZM2.25 17.25H1.5C1.5 18.4926 2.50736 19.5 3.75 19.5V18.75V18C3.33579 18 3 17.6642 3 17.25H2.25ZM2.25 6.75H3C3 6.33579 3.33579 6 3.75 6V5.25V4.5C2.50736 4.5 1.5 5.50736 1.5 6.75H2.25ZM14.25 9.75H15V8.25H14.25H13.5V9.75H14.25ZM12.75 5.25V4.5H9.75V5.25V6H12.75V5.25ZM5.25 5.25V4.5H3.75V5.25V6H5.25V5.25ZM2.25 2.25L1.71967 2.78033L4.71967 5.78033L5.25 5.25L5.78033 4.71967L2.78033 1.71967L2.25 2.25ZM5.25 5.25L4.71967 5.78033L13.7197 14.7803L14.25 14.25L14.7803 13.7197L5.78033 4.71967L5.25 5.25ZM14.25 15.75H15V14.25H14.25H13.5V15.75H14.25ZM14.25 14.25L13.7197 14.7803L16.2197 17.2803L16.75 16.75L17.2803 16.2197L14.7803 13.7197L14.25 14.25ZM16.75 16.75L16.2197 17.2803L21.2197 22.2803L21.75 21.75L22.2803 21.2197L17.2803 16.2197L16.75 16.75ZM16.75 16.75L17.0285 16.0536L14.5285 15.0536L14.25 15.75L13.9715 16.4464L16.4715 17.4464L16.75 16.75ZM21.75 5.25H21V17.25H21.75H22.5V5.25H21.75Z" fill="black"/>
</svg>
