<svg width="24" height="24" viewBox="0 0 24 24" fill="none" xmlns="http://www.w3.org/2000/svg">
<path d="M8.22526 6.10395L7.75732 5.636C7.17153 5.05022 6.22179 5.05022 5.636 5.636C5.05021 6.22179 5.05021 7.17154 5.636 7.75733L6.10394 8.22527M8.22526 6.10395L9.02509 6.90377M8.22526 6.10395C8.8891 5.67807 9.62959 5.36123 10.4214 5.17872C10.4672 5.16816 10.5 5.12758 10.5 5.08057V4.5C10.5 3.67157 11.1716 3 12 3C12.8284 3 13.5 3.67157 13.5 4.5V5.08057C13.5 5.12758 13.5328 5.16816 13.5786 5.17872C14.3704 5.36123 15.1109 5.67806 15.7747 6.10395M6.90377 9.02509L6.10394 8.22527M6.10394 8.22527C5.67808 8.88909 5.36125 9.62954 5.17874 10.4214C5.16818 10.4672 5.12759 10.4999 5.08058 10.4999H4.49994C3.67151 10.4999 2.99994 11.1715 2.99994 11.9999C2.99994 12.8283 3.67151 13.4999 4.49994 13.4999H5.08055C5.12756 13.4999 5.16815 13.5327 5.1787 13.5785C5.355 14.3434 5.65665 15.0604 6.06086 15.7067C6.08578 15.7466 6.08025 15.7984 6.04701 15.8317L5.63604 16.2426C5.05025 16.8284 5.05025 17.7782 5.63604 18.364C6.22183 18.9497 7.17157 18.9497 7.75736 18.364L8.16833 17.953C8.20157 17.9198 8.25343 17.9142 8.29329 17.9391C8.93955 18.3433 9.65653 18.645 10.4214 18.8213C10.4672 18.8318 10.5 18.8724 10.5 18.9194V19.5C10.5 20.3284 11.1716 21 12 21C12.8284 21 13.5 20.3284 13.5 19.5V18.9194C13.5 18.8724 13.5328 18.8318 13.5786 18.8213C14.3435 18.645 15.0604 18.3433 15.7067 17.9391C15.7466 17.9142 15.7984 17.9198 15.8317 17.953L16.2426 18.3639C16.8284 18.9497 17.7781 18.9497 18.3639 18.3639C18.9497 17.7781 18.9497 16.8284 18.3639 16.2426L17.953 15.8317C17.9197 15.7984 17.9142 15.7466 17.9391 15.7067C18.3434 15.0604 18.645 14.3434 18.8213 13.5785C18.8319 13.5327 18.8724 13.4999 18.9195 13.4999H19.4999C20.3284 13.4999 20.9999 12.8284 20.9999 11.9999C20.9999 11.1715 20.3284 10.4999 19.4999 10.4999H18.9194C18.8724 10.4999 18.8318 10.4672 18.8213 10.4214C18.6388 9.62954 18.3219 8.88909 17.8961 8.22527M17.8961 8.22527L18.364 7.75736C18.9497 7.17157 18.9497 6.22182 18.364 5.63604C17.7782 5.05025 16.8284 5.05025 16.2426 5.63604L15.7747 6.10395M17.8961 8.22527L17.0962 9.02513M14.9749 6.90381L15.7747 6.10395M10.4146 13C10.2087 13.5826 9.6531 14 9 14C8.17156 14 7.49998 13.3284 7.5 12.4999C7.50001 11.8468 7.91741 11.2912 8.5 11.0853M13.0603 14.5C13.2662 15.0826 13.8218 15.5 14.4749 15.5C15.3033 15.5 15.9749 14.8284 15.9749 14C15.9749 13.3563 15.5695 12.8073 15 12.5945" stroke="black" stroke-width="1.5" stroke-linecap="round"/>
</svg>
