<svg width="24" height="24" viewBox="0 0 24 24" fill="none" xmlns="http://www.w3.org/2000/svg">
<path d="M18.3175 6C21.8942 9.31371 21.8942 14.6863 18.3175 18M14 8.66667C15.9871 10.5076 15.9871 13.4924 14 15.3333M16.1587 7.33333C18.9406 9.91066 18.9406 14.0893 16.1587 16.6667M5 16H6.69722C6.89465 16 7.08766 16.0584 7.25192 16.1679L11.4033 18.9355C11.4664 18.9776 11.5404 19 11.6162 19C11.8282 19 12 18.8282 12 18.6162V5.3838C12 5.17183 11.8282 5 11.6162 5C11.5404 5 11.4664 5.02243 11.4033 5.06446L7.25192 7.83205C7.08766 7.94156 6.89465 8 6.69722 8H5C3.89543 8 3 8.89543 3 10V14C3 15.1046 3.89543 16 5 16Z" stroke="black" stroke-width="1.5" stroke-linecap="round"/>
</svg>
