<svg width="24" height="24" viewBox="0 0 24 24" fill="none" xmlns="http://www.w3.org/2000/svg">
<path d="M16.5 18.6162V5.3838C16.5 5.17183 16.3282 5 16.1162 5C16.0404 5 15.9664 5.02243 15.9033 5.06446L11.7519 7.83205C11.5877 7.94156 11.3946 8 11.1972 8H9.5C8.39543 8 7.5 8.89543 7.5 10V14C7.5 15.1046 8.39543 16 9.5 16H11.1972C11.3946 16 11.5877 16.0584 11.7519 16.1679L15.9033 18.9355C15.9664 18.9776 16.0404 19 16.1162 19C16.3282 19 16.5 18.8282 16.5 18.6162Z" stroke="black" stroke-width="1.5" stroke-linecap="round"/>
</svg>
