<svg width="24" height="24" viewBox="0 0 24 24" fill="none" xmlns="http://www.w3.org/2000/svg">
<path d="M15.5 8.66667C17.4871 10.5076 17.4871 13.4924 15.5 15.3333M17.6587 7.33333C20.4406 9.91066 20.4406 14.0893 17.6587 16.6667M6.5 16H8.19722C8.39465 16 8.58766 16.0584 8.75192 16.1679L12.9033 18.9355C12.9664 18.9776 13.0404 19 13.1162 19C13.3282 19 13.5 18.8282 13.5 18.6162V5.3838C13.5 5.17183 13.3282 5 13.1162 5C13.0404 5 12.9664 5.02243 12.9033 5.06446L8.75192 7.83205C8.58766 7.94156 8.39465 8 8.19722 8H6.5C5.39543 8 4.5 8.89543 4.5 10V14C4.5 15.1046 5.39543 16 6.5 16Z" stroke="black" stroke-width="1.5" stroke-linecap="round"/>
</svg>
