<svg width="24" height="24" viewBox="0 0 24 24" fill="none" xmlns="http://www.w3.org/2000/svg">
<path d="M15 9L18 12M18 12L21 15M18 12L15 15M18 12L21 9M12 5.3838V18.6162C12 18.8282 11.8282 19 11.6162 19C11.5404 19 11.4664 18.9776 11.4033 18.9355L7.25192 16.1679C7.08766 16.0584 6.89465 16 6.69722 16H5C3.89543 16 3 15.1046 3 14V10C3 8.89543 3.89543 8 5 8H6.69722C6.89465 8 7.08766 7.94156 7.25192 7.83205L11.4033 5.06446C11.4664 5.02243 11.5404 5 11.6162 5C11.8282 5 12 5.17183 12 5.3838Z" stroke="black" stroke-width="1.5" stroke-linecap="round"/>
</svg>
