<svg width="24" height="24" viewBox="0 0 24 24" fill="none" xmlns="http://www.w3.org/2000/svg">
<path d="M17 8.66667C18.9871 10.5076 18.9871 13.4924 17 15.3333M8 16H9.69722C9.89465 16 10.0877 16.0584 10.2519 16.1679L14.4033 18.9355C14.4664 18.9776 14.5404 19 14.6162 19C14.8282 19 15 18.8282 15 18.6162V5.3838C15 5.17183 14.8282 5 14.6162 5C14.5404 5 14.4664 5.02243 14.4033 5.06446L10.2519 7.83205C10.0877 7.94156 9.89465 8 9.69722 8H8C6.89543 8 6 8.89543 6 10V14C6 15.1046 6.89543 16 8 16Z" stroke="black" stroke-width="1.5" stroke-linecap="round"/>
</svg>
