<svg width="24" height="24" viewBox="0 0 24 24" fill="none" xmlns="http://www.w3.org/2000/svg">
<path d="M18 9C18 5.68629 15.3137 3 12 3M18 9C18 12.3137 15.3137 15 12 15M18 9H14.3339M12 3C8.68629 3 6 5.68629 6 9M12 3C13.5559 4.69738 14.3339 6.84869 14.3339 9M12 3C10.4441 4.69738 9.6661 6.84869 9.6661 9M12 15C8.68629 15 6 12.3137 6 9M12 15C13.5559 13.3026 14.3339 11.1513 14.3339 9M12 15C10.4441 13.3026 9.6661 11.1513 9.6661 9M12 15V16.9999M6 9H9.6661M14.3339 9H9.6661M10 18.9999C10 20.1045 10.8954 20.9999 12 20.9999C13.1046 20.9999 14 20.1045 14 18.9999M10 18.9999C10 17.8954 10.8954 16.9999 12 16.9999M10 18.9999H4M14 18.9999C14 17.8954 13.1046 16.9999 12 16.9999M14 18.9999H20" stroke="black" stroke-width="1.5" stroke-linecap="round"/>
</svg>
