<svg width="24" height="24" viewBox="0 0 24 24" fill="none" xmlns="http://www.w3.org/2000/svg">
<path d="M11 14L12.8682 17.2694C12.9546 17.4205 13 17.5915 13 17.7656L13 21M11 14L10.042 17.832C10.0142 17.9432 9.9675 18.0488 9.90392 18.1441L8.33333 20.5M11 14L12.5825 8.32625M12.5825 8.32625L13.8076 11.9335C13.9261 12.2824 14.2267 12.5378 14.5901 12.5983L16.5 12.9167M12.5825 8.32625C11.6557 7.96042 11 7.05678 11 6C11 4.61929 12.1193 3.5 13.5 3.5C14.8807 3.5 16 4.61929 16 6C16 7.38071 14.8807 8.5 13.5 8.5C13.1761 8.5 12.8665 8.43839 12.5825 8.32625ZM12.5825 8.32625L9.67751 9.90362C9.56035 9.96723 9.4571 10.0536 9.37382 10.1577L7.9 12" stroke="black" stroke-width="1.5" stroke-linecap="round"/>
</svg>
