<svg width="24" height="24" viewBox="0 0 24 24" fill="none" xmlns="http://www.w3.org/2000/svg">
<path fill-rule="evenodd" clip-rule="evenodd" d="M3 17V7C3 5.89543 3.89543 5 5 5H19C20.1046 5 21 5.89543 21 7V17C21 18.1046 20.1046 19 19 19H5C3.89543 19 3 18.1046 3 17ZM5.5 10V10.5C5.5 11.0523 5.94772 11.5 6.5 11.5H9.86038C9.94376 11.5 10.0178 11.5534 10.0442 11.6325C10.3164 12.4491 11.0807 13 11.9415 13H12.0585C12.9193 13 13.6836 12.4491 13.9558 11.6325C13.9822 11.5534 14.0562 11.5 14.1396 11.5H17.5C18.0523 11.5 18.5 11.0523 18.5 10.5V10C18.5 8.89543 17.6046 8 16.5 8H7.5C6.39543 8 5.5 8.89543 5.5 10Z" stroke="black" stroke-width="1.5" stroke-linecap="round"/>
</svg>
