<svg width="24" height="24" viewBox="0 0 24 24" fill="none" xmlns="http://www.w3.org/2000/svg">
<path d="M12.1707 7H5C3.89543 7 3 7.89543 3 9V19C3 20.1046 3.89543 21 5 21H19C20.1046 21 21 20.1046 21 19V9C21 7.89543 20.1046 7 19 7H17.8293M12.1707 7C12.5825 8.16519 13.6938 9 15 9C16.3062 9 17.4175 8.16519 17.8293 7M12.1707 7C12.0602 6.68722 12 6.35064 12 6C12 4.34315 13.3431 3 15 3C16.6569 3 18 4.34315 18 6C18 6.35064 17.9398 6.68722 17.8293 7M5.5 13.5H6.17071M6.17071 13.5H9.86038C9.94376 13.5 10.0178 13.5534 10.0442 13.6325C10.2075 14.1224 10.5479 14.5167 10.9801 14.7538M6.17071 13.5C6.06015 13.1872 6 12.8506 6 12.5C6 10.8431 7.34315 9.5 9 9.5C10.6569 9.5 12 10.8431 12 12.5C12 13.3981 11.6054 14.204 10.9801 14.7538M18.5 13.5H14.1396C14.0562 13.5 13.9822 13.5534 13.9558 13.6325C13.6836 14.4491 12.9193 15 12.0585 15H11.9415C11.5971 15 11.2682 14.9118 10.9801 14.7538" stroke="black" stroke-width="1.5" stroke-linecap="round"/>
</svg>
