<svg width="24" height="24" viewBox="0 0 24 24" fill="none" xmlns="http://www.w3.org/2000/svg">
<path d="M18.5 13.5L14.1396 13.5C14.0562 13.5 13.9822 13.5533 13.9558 13.6325C13.6836 14.4491 12.9193 15 12.0585 15H11.9415C11.0807 15 10.3164 14.4491 10.0442 13.6325C10.0178 13.5533 9.94376 13.5 9.86038 13.5H8.96742M8.96742 13.5L17.4467 11.228C18.5136 10.9421 19.1468 9.84543 18.8609 8.7785L18.3843 7M8.96742 13.5H7.53789M5.5 13.5L7.53789 13.5M7.53789 13.5C6.95247 13.2815 6.47789 12.7927 6.30384 12.1431L5.13916 7.79648C5.06733 7.52842 5.05352 7.25848 5.09002 7M5.09002 7C5.19882 6.22966 5.7545 5.56105 6.55337 5.34699L15.2467 3.01762C16.3136 2.73174 17.4103 3.3649 17.6962 4.43183L18.3843 7M5.09002 7H5C3.89543 7 3 7.89543 3 9V19C3 20.1046 3.89543 21 5 21H19C20.1046 21 21 20.1046 21 19V9C21 7.89543 20.1046 7 19 7H18.3843" stroke="black" stroke-width="1.5" stroke-linecap="round"/>
</svg>
