<svg width="24" height="24" viewBox="0 0 24 24" fill="none" xmlns="http://www.w3.org/2000/svg">
<path d="M6 20.0001H3.1C3.04477 20.0001 3 19.9553 3 19.9001V8.06508C3 8.02556 3.02327 7.98975 3.05939 7.9737L11.9594 4.01814C11.9852 4.00665 12.0148 4.00665 12.0406 4.01814L20.9406 7.9737C20.9767 7.98975 21 8.02556 21 8.06508V19.9001C21 19.9553 20.9552 20.0001 20.9 20.0001H18M6 20.0001V15.0001M6 20.0001H10M18 20.0001H15M18 20.0001V16.0001M6 15.0001V10.1001C6 10.0449 6.04477 10.0001 6.1 10.0001H17.9C17.9552 10.0001 18 10.0449 18 10.1001V16.0001M6 15.0001H9.9C9.95523 15.0001 10 15.0449 10 15.1001V17.5001M10 20.0001V17.5001M10 20.0001H12.5M10 17.5001H12.4C12.4552 17.5001 12.5 17.5449 12.5 17.6001V20.0001M12.5 20.0001H15M15 20.0001V16.1001C15 16.0449 15.0448 16.0001 15.1 16.0001H18" stroke="black" stroke-width="1.5"/>
</svg>
