<svg width="24" height="24" viewBox="0 0 24 24" fill="none" xmlns="http://www.w3.org/2000/svg">
<path d="M17 7.10102C18.2372 8.36355 19 10.0927 19 12C19 13.9073 18.2372 15.6364 17 16.899M17 7.10102C15.7295 5.80447 13.9587 5 12 5C10.0413 5 8.27052 5.80447 7 7.10102M17 7.10102V4C17 3.44772 16.5523 3 16 3H8C7.44772 3 7 3.44772 7 4V7.10102M7 7.10102C5.76281 8.36355 5 10.0927 5 12C5 13.9073 5.76281 15.6364 7 16.899M17 16.899C15.7295 18.1955 13.9587 19 12 19C10.0413 19 8.27052 18.1955 7 16.899M17 16.899V20C17 20.5523 16.5523 21 16 21H8C7.44772 21 7 20.5523 7 20V16.899M16 10L12.0566 12.9575C12.0227 12.983 11.9764 12.9843 11.9411 12.9608L9 11" stroke="black" stroke-width="1.5" stroke-linecap="round"/>
</svg>
