<svg width="24" height="24" viewBox="0 0 24 24" fill="none" xmlns="http://www.w3.org/2000/svg">
<path d="M17.2855 16.1445L17.09 18.0995C17.0389 18.6107 16.6088 19 16.095 19H8.64265C8.56167 19 8.49386 18.9386 8.48581 18.8581C8.36598 17.6598 7.81769 16.545 6.94172 15.7186L3.31378 12.296C3.11351 12.1071 3 11.8439 3 11.5686V10.4096C3 10.1834 3.18339 10 3.40961 10C3.46915 10 3.52798 10.013 3.58199 10.038L6.62861 11.4514C7.28547 11.7142 8 11.2304 8 10.523V10C8 9.44771 8.44772 9 9 9H9.5M17.2855 16.1445L17.8301 15.8301C19.7917 14.6976 21 12.6047 21 10.3397C21 7 18 5 15.3597 5C12.5071 5 9.78384 6.16156 9.5 9M17.2855 16.1445L17.8898 10.1145C17.9488 9.52571 17.4865 9.01476 16.8948 9.01476H16.0347C15.8758 8.99544 15.7183 9.04563 15.5832 9.13155C13.7903 10.2717 11.4997 10.2717 9.70687 9.13155L9.5 9" stroke="black" stroke-width="1.5" stroke-linecap="round"/>
</svg>
