<svg width="24" height="24" viewBox="0 0 24 24" fill="none" xmlns="http://www.w3.org/2000/svg">
<path d="M8.97383 8.00872L3.68377 9.77208C3.27543 9.90819 3 10.2903 3 10.7208V18.1126C3 18.7951 3.6687 19.2771 4.31623 19.0613L8.96838 17.5105C8.97864 17.5071 8.98932 17.5054 9 17.5054M8.97383 8.00872C8.98244 8.02148 8.99117 8.03417 9 8.0468M8.97383 8.00872C8.66647 7.55344 8.5 7.0145 8.5 6.45997C8.5 4.54908 10.0491 3 11.96 3H12.04C13.9509 3 15.5 4.54908 15.5 6.45997C15.5 7.13044 15.2566 7.77812 14.8151 8.2827L13.6935 9.56452M13.6935 9.56452L14.9684 9.98946C14.9889 9.9963 15.0111 9.9963 15.0316 9.98946L19.6838 8.43874C20.3313 8.2229 21 8.70487 21 9.38743V16.7792C21 17.2097 20.7246 17.5918 20.3162 17.7279L15.0316 19.4895C15.0214 19.4929 15.0107 19.4946 15 19.4946M13.6935 9.56452L12.0753 11.414C12.0354 11.4595 11.9646 11.4595 11.9247 11.414L9.18486 8.2827C9.11875 8.20714 9.05708 8.12837 9 8.0468M9 8.0468V17.5054M15 19.4946C14.9893 19.4946 14.9786 19.4929 14.9684 19.4895L9.03162 17.5105C9.02136 17.5071 9.01068 17.5054 9 17.5054M15 19.4946V10M15 19.4946V19.5" stroke="black" stroke-width="1.5" stroke-linecap="round"/>
</svg>
