<svg width="24" height="24" viewBox="0 0 24 24" fill="none" xmlns="http://www.w3.org/2000/svg">
<path d="M3 4H4.50002C5.60459 4 6.50002 4.89543 6.50002 6V9.50602M19.5 16.9998V14.9998C19.5 13.8952 18.6046 12.9998 17.5 12.9998H15.3637M19.5 16.9998C20.3284 16.9998 21 17.6714 21 18.4998C21 19.3282 20.3284 19.9998 19.5 19.9998C18.6716 19.9998 18 19.3282 18 18.4998C18 17.6714 18.6716 16.9998 19.5 16.9998ZM15.3637 12.9998C14.7929 10.4254 12.4963 8.50014 9.75011 8.50009C8.95162 8.50008 8.19113 8.66283 7.50002 8.95698C7.14722 9.10714 6.81249 9.29155 6.50002 9.50602M15.3637 12.9998C15.453 13.4023 15.5 13.8207 15.5 14.25C15.5 17.4257 12.9256 20 9.75002 20C6.57441 20 4.00002 17.4257 4.00002 14.25C4.00002 12.2805 4.99026 10.5423 6.50002 9.50602M11 14.25C11 14.9404 10.4404 15.5 9.75 15.5C9.05964 15.5 8.5 14.9404 8.5 14.25C8.5 13.5596 9.05964 13 9.75 13C10.4404 13 11 13.5596 11 14.25Z" stroke="black" stroke-width="1.5" stroke-linecap="round"/>
</svg>
