<svg width="24" height="24" viewBox="0 0 24 24" fill="none" xmlns="http://www.w3.org/2000/svg">
<path d="M5.00006 12C6.55037 10.4497 8.48695 9.52109 10.5 9.21417M19.0001 12C17.5323 10.5323 15.7184 9.62177 13.8211 9.2685M7.00006 15C7.38786 14.6122 7.8095 14.2789 8.25547 14M17.0001 15C15.4568 13.4568 13.3777 12.776 11.3616 12.9577M3.00006 9.00002C5.73986 6.26022 9.41798 5.03061 13 5.31119M21.0001 9.00002C19.5586 7.55851 17.8573 6.53505 16.047 5.92964M18.0001 3L16.047 5.92964M6.00006 21L11.3616 12.9577M11.3616 12.9577L13.8211 9.2685M13.8211 9.2685L16.047 5.92964M12.7501 18C12.7501 17.5858 12.4143 17.25 12.0001 17.25C11.5858 17.25 11.2501 17.5858 11.2501 18C11.2501 18.4142 11.5858 18.75 12.0001 18.75C12.4143 18.75 12.7501 18.4142 12.7501 18Z" stroke="black" stroke-width="1.5" stroke-linecap="round"/>
</svg>
