<svg width="24" height="24" viewBox="0 0 24 24" fill="none" xmlns="http://www.w3.org/2000/svg">
<path d="M3.00006 8.9999C7.97063 4.02933 16.0295 4.02933 21.0001 8.9999M5.00006 11.9999C8.86605 8.1339 15.1341 8.1339 19.0001 11.9999M16.5 17.4999V16.4999C16.5 15.6715 17.1716 14.9999 18 14.9999C18.8284 14.9999 19.5 15.6715 19.5 16.4999V17.4999M16.5 17.4999H19.5M16.5 17.4999C16.2239 17.4999 16 17.7238 16 17.9999V18.9999C16 19.5522 16.4477 19.9999 17 19.9999H19C19.5523 19.9999 20 19.5522 20 18.9999V17.9999C20 17.7238 19.7761 17.4999 19.5 17.4999M15.3402 13.7653C16.1105 13.2804 17.0225 12.9999 18 12.9999C20.7614 12.9999 23 15.2385 23 17.9999C23 20.7613 20.7614 22.9999 18 22.9999C15.2386 22.9999 13 20.7613 13 17.9999C13 16.216 13.9342 14.6502 15.3402 13.7653ZM15.3402 13.7653C12.6638 12.3302 9.25824 12.7417 7.00006 14.9999M12.7501 17.9999C12.7501 17.5857 12.4143 17.2499 12.0001 17.2499C11.5858 17.2499 11.2501 17.5857 11.2501 17.9999C11.2501 18.4141 11.5858 18.7499 12.0001 18.7499C12.4143 18.7499 12.7501 18.4141 12.7501 17.9999Z" stroke="black" stroke-width="1.5" stroke-linecap="round"/>
</svg>
