<svg width="24" height="24" viewBox="0 0 24 24" fill="none" xmlns="http://www.w3.org/2000/svg">
<path d="M5.00006 11.9999C8.86605 8.1339 15.1341 8.1339 19.0001 11.9999M7.00006 14.9999C9.25825 12.7417 12.6638 12.3302 15.3402 13.7653M3.00006 8.9999C7.97063 4.02933 16.0295 4.02933 21.0001 8.9999M18.0001 17.9999L19.5 16.5M18.0001 17.9999L19.5 19.5M18.0001 17.9999L16.5 19.5M18.0001 17.9999L16.5 16.5M15.3402 13.7653C13.9343 14.6503 13.0001 16.216 13.0001 17.9999C13.0001 20.7613 15.2386 22.9999 18.0001 22.9999C20.7615 22.9999 23.0001 20.7613 23.0001 17.9999C23.0001 15.2385 20.7615 12.9999 18.0001 12.9999C17.0225 12.9999 16.1105 13.2804 15.3402 13.7653ZM12.7501 17.9999C12.7501 17.5857 12.4143 17.2499 12.0001 17.2499C11.5858 17.2499 11.2501 17.5857 11.2501 17.9999C11.2501 18.4141 11.5858 18.7499 12.0001 18.7499C12.4143 18.7499 12.7501 18.4141 12.7501 17.9999Z" stroke="black" stroke-width="1.5" stroke-linecap="round"/>
</svg>
