<svg width="24" height="24" viewBox="0 0 24 24" fill="none" xmlns="http://www.w3.org/2000/svg">
<path d="M3 14.0002H17C19.2091 14.0002 21 12.1713 21 9.96214C21 7.7946 19.2429 6.00016 17.0753 6.00016C16.0911 6.00016 15.1721 6.49203 14.6262 7.31091L14.5 7.50016M3 16.0002H13C14.1046 16.0002 15 16.8956 15 18.0002C15 19.1047 14.1046 20.0002 13 20.0002H12.7071C12.2544 20.0002 11.8201 19.8203 11.5 19.5002M5.5 5.5L5.62617 5.31074C6.17209 4.49186 7.09115 4 8.07532 4C10.2429 4 12 5.79444 12 7.96198C12 10.1711 10.2091 12 8 12H3" stroke="black" stroke-width="1.5" stroke-linecap="round"/>
</svg>
