<svg width="24" height="24" viewBox="0 0 24 24" fill="none" xmlns="http://www.w3.org/2000/svg">
<path d="M3.01764 16.711L2.5 18.6429M2.5 18.6429L4.43185 19.1605M2.5 18.6429L7 16.0714M21 16.711L21.5176 18.6429M21.5176 18.6429L19.5858 19.1605M21.5176 18.6429L17.0176 16.0714M12 7.5V3M12 3L10.5 4.5M12 3L13.5 4.5M19 13.5C19 17.366 15.866 20.5 12 20.5C8.13401 20.5 5 17.366 5 13.5C5 9.63401 8.13401 6.5 12 6.5C15.866 6.5 19 9.63401 19 13.5Z" stroke="black" stroke-width="1.5" stroke-linecap="round"/>
</svg>
