<svg width="24" height="24" viewBox="0 0 24 24" fill="none" xmlns="http://www.w3.org/2000/svg">
<path d="M3 7C3 9.20914 4.79086 11 7 11C7.11872 11 7.23624 10.9948 7.35233 10.9847C7.69541 10.9548 8.04652 11.0465 8.29004 11.29L12.71 15.71C12.9535 15.9535 13.0452 16.3046 13.0153 16.6477C13.0052 16.7638 13 16.8813 13 17C13 19.2091 14.7909 21 17 21H17.2929C17.4255 21 17.5527 20.9473 17.6464 20.8536C17.8417 20.6583 17.8417 20.3417 17.6464 20.1465L15.54 18.04C15.5152 18.0152 15.5052 17.9792 15.5137 17.9451L15.9854 16.0582C15.9944 16.0224 16.0224 15.9944 16.0582 15.9854L17.9451 15.5137C17.9791 15.5052 18.0152 15.5152 18.04 15.54L20.1464 17.6465C20.3417 17.8417 20.6583 17.8417 20.8536 17.6464C20.9473 17.5527 21 17.4255 21 17.2929V17C21 14.7909 19.2091 13 17 13C16.7407 13 16.4871 13.0247 16.2416 13.0718C16.154 13.0886 16.0631 13.0631 16 13L11.29 8.29004C11.0465 8.04652 10.9548 7.69541 10.9847 7.35234C10.9948 7.23624 11 7.11873 11 7C11 4.79086 9.20914 3 7 3H6.70711C6.5745 3 6.44732 3.05268 6.35355 3.14645C6.15829 3.34171 6.15829 3.65829 6.35355 3.85355L8.45996 5.95996C8.4848 5.9848 8.49479 6.02085 8.48627 6.05493L8.01455 7.94179C8.0056 7.97762 7.97762 8.0056 7.94179 8.01455L6.05493 8.48627C6.02085 8.49479 5.9848 8.4848 5.95996 8.45996L3.85355 6.35355C3.65829 6.15829 3.34171 6.15829 3.14645 6.35355C3.05268 6.44732 3 6.5745 3 6.70711V7Z" stroke="black" stroke-width="1.5" stroke-linecap="round"/>
</svg>
